<svg id="Capa_1" enable-background="new 0 0 511.97 511.97" height="512" viewBox="0 0 511.97 511.97" width="512" xmlns="http://www.w3.org/2000/svg"><g><g><path d="m407.074 496.613c-100.726 10.515-201.452 10.515-302.178 0-19.315-2.016-34.476-17.478-36.032-36.835-9.652-120.128-9.652-240.256 0-360.385 1.555-19.357 16.717-34.819 36.032-36.835 100.726-10.515 201.452-10.515 302.178 0 19.315 2.016 34.476 17.478 36.032 36.835 9.652 120.128 9.652 240.256 0 360.385-1.556 19.358-16.717 34.819-36.032 36.835z" fill="#c88b7c"/><path d="m111.513 497.287c-2.21-.21-4.41-.44-6.62-.67-19.31-2.02-34.47-17.48-36.03-36.84-9.65-120.129-9.65-240.259 0-360.388 1.56-19.35 16.72-34.81 36.03-36.83 2.2-.23 4.39-.45 6.59-.67-13.04 6.13-22.29 18.86-23.5 33.89-9.85 122.539-9.85 245.079 0 367.618 1.21 15.041 10.47 27.78 23.53 33.89z" fill="#b4634b"/><path d="m397.72 443.603c-94.49 12.028-188.98 12.028-283.47 0-10.394-109.345-10.394-218.689 0-328.034 94.49-12.028 189.114-10.618 283.604 1.41 10.393 109.345 10.26 217.279-.134 326.624z" fill="#f5f0f0"/><path d="m355.81 72.52c-1.44-13.58-12.54-24.13-26.19-24.6-1.6-.06-3.21-.11-4.81-.17-9.4-.3-18.04-5.36-22.72-13.51-9.15-15.98-26.37-26.74-46.11-26.74-19.73 0-36.95 10.76-46.1 26.74-4.68 8.15-13.32 13.21-22.72 13.51-1.6.06-3.21.11-4.81.17-13.65.47-24.75 11.02-26.19 24.6-1.11 10.47-1.11 20.95 0 31.42 1.44 13.59 12.55 24.13 26.2 24.61 49.08 1.72 98.169 1.72 147.249 0 13.65-.48 24.76-11.02 26.2-24.61 1.111-10.47 1.111-20.95.001-31.42zm-99.83 13.38c-13.96 0-25.28-11.32-25.28-25.29 0-13.96 11.32-25.28 25.28-25.28 13.97 0 25.29 11.32 25.29 25.28 0 13.97-11.32 25.29-25.29 25.29z" fill="#ffd064"/><path d="m300.501 184.634c-5.425-.233-10.85-.421-16.274-.568-3.279-.089-5.908-2.718-5.997-5.997-.147-5.425-.335-10.85-.568-16.274-.121-2.806-2.131-5.207-4.887-5.751-11.193-2.209-22.385-2.209-33.578 0-2.756.544-4.766 2.944-4.887 5.751-.233 5.425-.421 10.85-.568 16.274-.089 3.279-2.718 5.908-5.997 5.997-5.425.147-10.85.335-16.274.568-2.806.121-5.207 2.131-5.751 4.887-2.209 11.193-2.209 22.385 0 33.578.544 2.756 2.944 4.766 5.751 4.887 5.425.233 10.85.421 16.274.568 3.279.089 5.908 2.718 5.997 5.997.147 5.425.335 10.85.568 16.274.121 2.806 2.131 5.207 4.887 5.751 11.193 2.209 22.385 2.209 33.578 0 2.756-.544 4.766-2.944 4.887-5.751.233-5.425.421-10.85.568-16.274.089-3.279 2.718-5.908 5.997-5.997 5.425-.147 10.85-.335 16.274-.568 2.806-.121 5.207-2.131 5.751-4.887 2.209-11.193 2.209-22.385 0-33.578-.545-2.756-2.945-4.766-5.751-4.887z" fill="#dd636e"/></g><g><path d="m450.581 98.791c-1.837-22.93-19.808-41.305-42.729-43.69-18.216-1.9-36.669-3.465-54.907-4.681-6.032-5.935-14.157-9.688-23.045-9.995l-4.851-.171c-6.822-.218-13.127-3.953-16.451-9.741-10.776-18.821-30.938-30.513-52.618-30.513-21.673 0-41.832 11.692-52.604 30.505-3.328 5.795-9.633 9.531-16.497 9.75l-4.787.169c-8.899.307-17.029 4.06-23.064 9.995-18.24 1.216-36.694 2.782-54.91 4.681-22.922 2.386-40.893 20.76-42.73 43.689-9.637 119.967-9.637 241.624 0 361.589 1.836 22.93 19.807 41.305 42.728 43.691 50.431 5.265 101.253 7.9 152.001 7.9 36.755 0 73.475-1.383 109.965-4.151 4.13-.313 7.225-3.916 6.911-8.046-.313-4.13-3.903-7.224-8.046-6.911-85.978 6.522-173.21 5.274-259.276-3.711-15.736-1.638-28.071-14.242-29.331-29.971-9.573-119.17-9.573-240.019 0-359.191 1.26-15.727 13.595-28.331 29.332-29.969 14.627-1.525 29.41-2.835 44.108-3.92-.504 1.822-.874 3.7-1.078 5.63-1.142 10.773-1.154 21.694-.049 32.472-11.819 1.131-23.675 2.442-35.356 3.93-3.479.443-6.186 3.237-6.519 6.728-1.357 14.237-2.556 28.802-3.565 43.291-.288 4.132 2.829 7.715 6.961 8.003.178.012.354.018.529.018 3.904 0 7.199-3.025 7.474-6.979.859-12.337 1.858-24.73 2.975-36.923 10.682-1.301 21.479-2.449 32.23-3.446 5.913 9.999 16.604 16.797 28.717 17.223 24.514.859 49.2 1.289 73.887 1.289s49.374-.429 73.889-1.289c12.112-.426 22.803-7.224 28.715-17.223 10.75.997 21.546 2.145 32.228 3.446 9.552 104.42 9.552 210.215 0 314.635-89.507 10.905-180.157 10.905-269.665 0-7.533-82.318-9.151-165.693-4.808-247.917.218-4.136-2.958-7.667-7.094-7.885-4.144-.217-7.667 2.958-7.885 7.094-4.487 84.953-2.666 171.122 5.413 256.115.332 3.492 3.04 6.287 6.519 6.73 47.34 6.027 95.014 9.041 142.688 9.041s95.347-3.013 142.688-9.041c3.479-.443 6.188-3.239 6.519-6.73 10.386-109.303 10.386-220.146 0-329.449-.332-3.492-3.04-6.287-6.519-6.73-11.681-1.487-23.536-2.799-35.356-3.929 1.106-10.778 1.093-21.699-.049-32.472-.205-1.929-.574-3.808-1.078-5.629 14.698 1.085 29.48 2.395 44.109 3.92 15.735 1.638 28.07 14.242 29.331 29.971 9.573 119.17 9.573 240.019 0 359.191-1.259 15.727-13.595 28.331-29.338 29.97-3.875.407-7.76.795-11.634 1.162-4.124.391-7.149 4.052-6.758 8.175.368 3.883 3.635 6.792 7.458 6.792.237 0 .477-.011.717-.034 3.925-.373 7.86-.765 11.778-1.177 22.923-2.386 40.894-20.761 42.73-43.689 9.634-119.97 9.634-241.626-.003-361.592zm-102.23 4.358c-1.045 9.863-9.215 17.561-19.004 17.905-48.679 1.706-98.044 1.706-146.723 0-9.79-.344-17.96-8.042-19.006-17.905-1.049-9.9-1.049-19.939 0-29.839 1.046-9.865 9.21-17.558 19.012-17.896l4.769-.169c11.981-.382 23.087-7 28.989-17.279 8.112-14.166 23.283-22.966 39.592-22.966 16.315 0 31.489 8.8 39.605 22.975 5.898 10.271 17.004 16.889 28.943 17.27l4.833.171c9.78.337 17.943 8.03 18.99 17.895 1.05 9.899 1.05 19.938 0 29.838z"/><path d="m255.98 27.83c-18.075 0-32.78 14.705-32.78 32.78 0 18.081 14.705 32.79 32.78 32.79 18.08 0 32.79-14.709 32.79-32.79 0-18.075-14.709-32.78-32.79-32.78zm11.673 19.395c-7.772-.064-15.566-.064-23.338 0 3.126-2.728 7.201-4.395 11.666-4.395 4.467 0 8.544 1.667 11.672 4.395zm-11.673 31.175c-9.234 0-16.84-7.081-17.694-16.101 11.776-.149 23.622-.15 35.398 0-.854 9.019-8.465 16.101-17.704 16.101z"/><path d="m211.146 235.479c4.928.212 10.012.393 15.132.538.145 5.107.325 10.191.538 15.131.271 6.313 4.765 11.571 10.928 12.787 6.052 1.194 12.146 1.791 18.241 1.791 6.094 0 12.189-.597 18.241-1.791 6.163-1.216 10.656-6.474 10.928-12.786.212-4.94.393-10.025.538-15.131 5.12-.145 10.204-.325 15.131-.538 6.313-.271 11.571-4.766 12.786-10.928 2.389-12.104 2.389-24.378 0-36.481-1.216-6.163-6.474-10.657-12.787-10.929-4.94-.212-10.025-.393-15.131-.538-.145-5.107-.325-10.191-.538-15.131-.271-6.313-4.765-11.571-10.928-12.787-12.103-2.388-24.377-2.388-36.482 0-6.163 1.216-10.656 6.474-10.928 12.786-.212 4.94-.393 10.025-.538 15.131-5.106.145-10.191.325-15.131.538-6.313.271-11.571 4.766-12.786 10.928-2.389 12.104-2.389 24.378 0 36.481 1.216 6.163 6.474 10.658 12.786 10.929zm1.72-43.397c4.931-.207 9.999-.381 15.081-.519 7.256-.197 13.095-6.035 13.291-13.291.138-5.081.312-10.149.519-15.081 9.448-1.727 19.009-1.727 28.457 0 .207 4.931.381 9.999.519 15.081.196 7.256 6.035 13.094 13.291 13.291 5.082.138 10.149.312 15.081.519 1.727 9.447 1.727 19.009 0 28.457-4.918.206-9.986.381-15.081.519-7.256.197-13.095 6.035-13.291 13.291-.138 5.081-.312 10.149-.519 15.081-9.448 1.727-19.009 1.727-28.457 0-.207-4.931-.381-9.999-.519-15.081-.196-7.256-6.035-13.094-13.291-13.291-5.094-.138-10.162-.312-15.081-.519-1.727-9.448-1.727-19.01 0-28.457z"/><path d="m138.747 302.414c0 4.142 3.358 7.5 7.5 7.5h219.476c4.142 0 7.5-3.358 7.5-7.5s-3.358-7.5-7.5-7.5h-219.476c-4.142 0-7.5 3.358-7.5 7.5z"/><path d="m146.247 348.821h219.476c4.142 0 7.5-3.358 7.5-7.5s-3.358-7.5-7.5-7.5h-219.476c-4.142 0-7.5 3.358-7.5 7.5s3.358 7.5 7.5 7.5z"/><path d="m201.116 372.728c-4.142 0-7.5 3.358-7.5 7.5s3.358 7.5 7.5 7.5h109.738c4.142 0 7.5-3.358 7.5-7.5s-3.358-7.5-7.5-7.5z"/></g></g></svg>