<svg id="Capa_1" enable-background="new 0 0 511.927 511.927" height="512" viewBox="0 0 511.927 511.927" width="512" xmlns="http://www.w3.org/2000/svg"><g><g><path d="m255.964 460.475c74.548 0 150.459-8.697 227.369-42.25 8.173-3.566 13.728-11.335 14.521-20.217 9.659-108.231 8.732-216.463-2.783-324.694-1.41-13.25-13.132-22.918-26.408-21.774-69.694 6.004-140.699 15.68-212.7 27.611-29.23 119.248-37.202 243.809.001 381.324z" fill="#e8ded8"/><path d="m255.964 460.475c-74.548 0-150.459-8.697-227.369-42.25-8.173-3.566-13.728-11.335-14.521-20.217-9.66-108.231-8.732-216.462 2.782-324.693 1.41-13.25 13.132-22.918 26.408-21.774 69.694 6.004 140.699 15.68 212.7 27.611z" fill="#f5f0f0"/><g><path d="m184.565 142.331c-5.347-.91-10.699-1.775-16.057-2.599-3.238-.498-5.515-3.433-5.193-6.693.533-5.394 1.025-10.794 1.473-16.199.231-2.796-1.461-5.427-4.124-6.31-10.816-3.589-21.908-4.989-33.276-4.2-2.799.194-5.092 2.322-5.562 5.087-.91 5.347-1.775 10.699-2.599 16.057-.498 3.238-3.433 5.515-6.693 5.193-5.394-.533-10.794-1.025-16.199-1.473-2.796-.231-5.427 1.461-6.31 4.124-3.589 10.816-4.989 21.908-4.2 33.276.194 2.799 2.322 5.092 5.087 5.562 5.347.91 10.699 1.775 16.057 2.599 3.238.498 5.515 3.433 5.193 6.693-.533 5.394-1.025 10.794-1.473 16.199-.231 2.796 1.461 5.427 4.124 6.31 10.816 3.589 21.908 4.989 33.276 4.2 2.799-.194 5.092-2.322 5.562-5.087.91-5.347 1.775-10.699 2.599-16.057.498-3.238 3.433-5.515 6.693-5.193 5.394.533 10.794 1.025 16.199 1.473 2.796.231 5.427-1.461 6.31-4.124 3.589-10.816 4.989-21.908 4.2-33.276-.194-2.799-2.322-5.092-5.087-5.562z" fill="#dd636e"/></g><g><path d="m373.211 327.46 23.138 36.365-9.446 42.859c-12.254 2.118-24.549 4.06-36.868 5.804-21.036 2.977-40.844-11.217-44.502-32.146l-.129-.748c-3.581-20.952 10.315-40.961 31.13-45.218 12.191-2.492 24.423-4.798 36.677-6.916z" fill="#dd636e"/><path d="m454.578 353.801.131.758c3.569 20.944-10.315 40.961-31.132 45.208-12.19 2.492-24.421 4.799-36.676 6.917l-13.693-79.224c12.254-2.118 24.551-4.051 36.869-5.795 21.036-2.987 40.833 11.209 44.501 32.136z" fill="#ffd064"/><path d="m386.904 406.687c-12.257 2.118-24.546 4.05-36.869 5.795-21.035 2.987-40.842-11.207-44.5-32.136l-.046-.266c1.167 6.519 18.94 8.941 39.9 5.521 12.278-2.005 29.465-4.918 41.721-7.036" fill="#da4a54"/><path d="m454.662 354.299.046.266c3.569 20.944-10.315 40.961-31.132 45.208-12.189 2.492-24.421 4.799-36.676 6.917l-4.714-27.274c12.254-2.118 24.51-4.287 36.744-6.523 20.892-3.814 36.811-12.059 35.732-18.594z" fill="#ebb044"/></g></g><g><path d="m89.653 181.549c4.856.826 9.869 1.641 14.92 2.424-.494 5.067-.951 10.125-1.359 15.055-.521 6.293 3.276 12.07 9.235 14.047 9.606 3.187 19.526 4.793 29.576 4.792 2.188 0 4.384-.076 6.581-.229 6.264-.434 11.378-5.086 12.438-11.311.824-4.841 1.639-9.854 2.424-14.921 5.1.498 10.158.954 15.055 1.359 6.302.521 12.07-3.277 14.048-9.236 3.881-11.696 5.416-23.86 4.564-36.158-.436-6.263-5.087-11.377-11.313-12.437-4.856-.826-9.869-1.641-14.92-2.424.494-5.067.951-10.125 1.359-15.055.521-6.293-3.276-12.069-9.236-14.047-11.698-3.881-23.872-5.417-36.156-4.564-6.264.434-11.378 5.086-12.438 11.311-.824 4.841-1.639 9.854-2.424 14.921-5.087-.496-10.146-.953-15.055-1.359-6.305-.525-12.07 3.277-14.048 9.236-3.881 11.696-5.416 23.861-4.564 36.158.436 6.265 5.088 11.379 11.313 12.438zm7.139-42.791c4.901.411 9.942.872 15.004 1.372 7.204.714 13.741-4.345 14.844-11.516.775-5.043 1.582-10.041 2.398-14.873 9.565-.529 19.043.666 28.185 3.557-.412 4.92-.873 9.961-1.372 15.005-.711 7.219 4.348 13.739 11.517 14.842 5.026.773 10.025 1.58 14.874 2.399.528 9.575-.667 19.045-3.558 28.185-4.888-.41-9.93-.871-15.004-1.372-7.212-.71-13.741 4.345-14.844 11.516-.775 5.043-1.582 10.041-2.398 14.873-9.574.53-19.044-.667-28.185-3.557.412-4.92.873-9.961 1.372-15.005.711-7.219-4.348-13.739-11.517-14.842-5.027-.773-10.025-1.58-14.874-2.399-.528-9.575.667-19.045 3.558-28.185z"/><path d="m502.532 72.519c-1.828-17.177-17.326-29.936-34.51-28.449-12.331 1.059-25.232 2.288-38.345 3.653-4.12.429-7.112 4.116-6.684 8.236.429 4.119 4.109 7.11 8.236 6.683 13.023-1.355 25.833-2.576 38.081-3.628 9.265-.801 17.318 5.825 18.305 15.091 11.406 107.255 12.337 216.009 2.767 323.242-.549 6.174-4.398 11.538-10.049 14-64.11 27.975-131.268 40.887-216.87 41.593v-367.423c49.787-8.162 95.082-14.59 138.278-19.626 4.114-.479 7.061-4.204 6.581-8.318-.479-4.114-4.189-7.061-8.317-6.581-44.891 5.233-92.025 11.961-144.042 20.559-78.242-12.938-147.625-21.931-212.056-27.483-17.213-1.482-32.682 11.283-34.509 28.453-11.512 108.211-12.453 217.945-2.795 326.153 1.038 11.641 8.315 21.767 18.992 26.425 67.051 29.252 140.252 42.876 230.368 42.876.023 0 .046-.003.069-.003 91.333-.007 162.362-13.231 230.297-42.874 10.68-4.654 17.958-14.778 18.994-26.419 9.657-108.201 8.718-217.936-2.791-326.16zm-480.987 324.823c-9.572-107.239-8.64-215.99 2.77-323.234.932-8.757 8.166-15.16 16.793-15.16.499 0 1.005.021 1.513.065 62.65 5.397 130.051 14.074 205.844 26.503v367.428c-85.589-.706-152.745-13.618-216.87-41.594-5.649-2.463-9.499-7.831-10.05-14.008z"/><path d="m157.734 399.291c-38.438-5.485-73.671-14.543-107.714-27.694-.861-.333-1.778-.504-2.702-.504h-.01c-4.143 0-7.495 3.358-7.495 7.5 0 3.255 2.076 6.025 4.976 7.063 35.062 13.529 71.315 22.846 110.826 28.484.359.051.716.076 1.069.076 3.672 0 6.881-2.7 7.415-6.441.585-4.1-2.264-7.898-6.365-8.484z"/><path d="m220.56 366.209c-42.273-1.787-80.177-7.024-115.876-16.01-4.019-1.009-8.093 1.425-9.104 5.442s1.426 8.093 5.442 9.104c36.703 9.238 75.597 14.619 118.905 16.45.107.004.215.007.322.007 3.995 0 7.317-3.153 7.487-7.183.176-4.139-3.037-7.635-7.176-7.81z"/><path d="m44.78 346.924c8.729 3.372 17.799 6.566 26.961 9.493.759.242 1.527.358 2.284.358 3.175 0 6.124-2.033 7.143-5.219 1.261-3.946-.916-8.166-4.862-9.427-8.938-2.856-17.782-5.971-26.286-9.261-.863-.334-1.78-.505-2.706-.505h-.01c-4.143 0-7.495 3.358-7.495 7.5-.001 3.252 2.074 6.022 4.971 7.061z"/><path d="m44.788 308.196c52.59 20.291 109.88 31.501 175.136 34.272.108.005.217.007.324.007 3.995 0 7.316-3.152 7.487-7.182.176-4.138-3.037-7.636-7.175-7.811-64.553-2.741-118.743-13.336-170.54-33.344-.861-.333-1.778-.504-2.702-.504h-.01c-4.143 0-7.495 3.358-7.495 7.5 0 3.254 2.077 6.025 4.975 7.062z"/><path d="m44.788 269.466c52.588 20.291 109.879 31.502 175.136 34.272.108.005.217.007.324.007 3.995 0 7.316-3.152 7.487-7.182.176-4.138-3.036-7.636-7.175-7.811-64.554-2.741-118.744-13.336-170.54-33.345-.861-.333-1.778-.504-2.702-.504h-.01c-4.143 0-7.495 3.358-7.495 7.5 0 3.255 2.076 6.025 4.975 7.063z"/><path d="m44.788 230.736c52.59 20.291 109.88 31.501 175.136 34.272.108.005.217.007.324.007 3.995 0 7.316-3.152 7.487-7.182.176-4.138-3.037-7.636-7.175-7.811-64.553-2.741-118.743-13.336-170.54-33.344-.861-.333-1.778-.504-2.702-.504h-.01c-4.143 0-7.495 3.358-7.495 7.5 0 3.254 2.077 6.024 4.975 7.062z"/><path d="m473.82 255.592c0-4.142-3.362-7.5-7.505-7.5-.924 0-1.841.171-2.702.504-34.044 13.15-69.277 22.209-107.714 27.694-4.101.585-6.95 4.384-6.365 8.484.534 3.741 3.742 6.441 7.415 6.441.353 0 .71-.025 1.069-.076 39.478-5.634 75.703-14.94 110.74-28.451 2.947-1.01 5.062-3.806 5.062-7.096z"/><path d="m466.315 209.362c-.924 0-1.841.171-2.702.504-51.797 20.008-105.987 30.604-170.54 33.344-4.138.176-7.351 3.673-7.175 7.811.171 4.03 3.492 7.182 7.487 7.182.107 0 .216-.002.324-.007 65.22-2.769 122.483-13.969 175.049-34.239 2.946-1.011 5.062-3.806 5.062-7.096 0-4.141-3.362-7.499-7.505-7.499z"/><path d="m466.315 170.632c-.924 0-1.841.171-2.702.504-51.797 20.008-105.987 30.604-170.54 33.344-4.138.176-7.351 3.673-7.175 7.811.171 4.03 3.492 7.182 7.487 7.182.107 0 .216-.002.324-.007 65.22-2.769 122.483-13.969 175.049-34.239 2.946-1.011 5.062-3.806 5.062-7.096 0-4.141-3.362-7.499-7.505-7.499z"/><path d="m466.315 131.902c-.924 0-1.841.171-2.702.504-51.797 20.008-105.987 30.604-170.54 33.344-4.138.176-7.351 3.673-7.175 7.811.171 4.03 3.492 7.182 7.487 7.182.107 0 .216-.002.324-.007 65.22-2.769 122.483-13.969 175.049-34.239 2.946-1.011 5.062-3.806 5.062-7.096 0-4.141-3.362-7.499-7.505-7.499z"/><path d="m466.315 93.172c-.924 0-1.841.171-2.702.504-51.797 20.008-105.987 30.604-170.54 33.344-4.138.176-7.351 3.673-7.175 7.811.171 4.03 3.492 7.182 7.487 7.182.107 0 .216-.002.324-.007 65.22-2.769 122.483-13.969 175.049-34.239 2.946-1.011 5.062-3.806 5.062-7.096 0-4.141-3.362-7.499-7.505-7.499z"/><path d="m443.228 322.685c-9.941-7.163-22.089-10.161-34.205-8.445-12.305 1.744-61.809 10.3-73.987 12.788-11.989 2.449-22.426 9.352-29.386 19.436-6.984 10.119-9.697 22.332-7.638 34.395l.134.776c2.108 12.048 8.763 22.642 18.738 29.83 8.112 5.845 17.692 8.917 27.527 8.917 2.217 0 4.448-.156 6.678-.472 24.678-3.497 49.571-7.8 73.987-12.788 11.989-2.449 22.426-9.352 29.386-19.436 6.984-10.119 9.697-22.332 7.633-34.426l-.129-.745c-2.108-12.048-8.762-22.642-18.738-29.83zm-94.244 82.373c-16.952 2.403-33.133-9.265-36.063-26.014l-.123-.716c-2.86-16.756 8.462-33.177 25.24-36.604 9.628-1.967 19.332-3.82 29.065-5.564l11.128 64.383c-9.754 1.625-19.517 3.136-29.247 4.515zm73.091-12.633c-9.626 1.967-19.329 3.82-29.063 5.563l-11.128-64.383c9.754-1.625 19.516-3.135 29.244-4.514 1.49-.211 2.972-.313 4.442-.313 15.252 0 28.948 11.05 31.621 26.327l.123.716c2.862 16.756-8.461 33.176-25.239 36.604z"/></g></g></svg>