<svg id="Capa_1" enable-background="new 0 0 511.943 511.943" height="512" viewBox="0 0 511.943 511.943" width="512" xmlns="http://www.w3.org/2000/svg"><g><g><g><path d="m199.596 8.515c73.943-2.691 147.876-.097 221.808 7.77 20.566 2.183 36.669 18.653 38.312 39.263 10.656 133.621 10.656 267.242 0 400.874-1.643 20.609-17.746 37.08-38.312 39.263-110.277 11.737-220.565 11.737-330.853 0-20.555-2.183-36.669-18.653-38.312-39.263-7.954-99.805-9.975-199.599-6.041-299.393" fill="#f5f0f0"/><path d="m46.198 157.028c36.345-1.308 72.69-3.901 109.045-7.77 20.555-2.183 36.669-18.653 38.312-39.263 2.702-33.827 4.712-67.653 6.041-101.48-36.345 1.307-152.069 114.686-153.398 148.513z" fill="#e8ded8"/></g></g><g><path d="m463.034 409.314c.148.009.295.013.441.013 3.943 0 7.249-3.079 7.48-7.065 6.688-115.234 5.423-232.086-3.761-347.309-1.923-24.165-20.847-43.563-44.993-46.123-73.944-7.872-148.932-10.498-222.875-7.808-.002 0-.004 0-.006 0-28.506 1.038-83.957 53.643-94.784 64.179-10.805 10.515-64.76 64.342-65.831 91.529v.001c-3.921 99.567-1.883 200.597 6.057 300.28 1.923 24.158 20.844 43.559 44.994 46.133 55.151 5.866 110.689 8.798 166.227 8.798 55.537 0 111.074-2.933 166.221-8.798 24.147-2.573 43.069-21.975 44.992-46.132.685-8.599 1.31-16.983 1.856-24.921.284-4.132-2.835-7.713-6.968-7.998-4.129-.279-7.713 2.835-7.997 6.967-.542 7.884-1.163 16.214-1.844 24.761-1.35 16.969-14.652 30.598-31.627 32.407-109.24 11.62-220.024 11.62-329.272 0-16.977-1.809-30.278-15.438-31.628-32.408-7.71-96.788-9.806-194.847-6.268-291.585 17.179-.699 34.376-1.661 51.222-2.9 4.131-.304 7.234-3.899 6.93-8.03-.303-4.131-3.896-7.236-8.03-6.93-15.638 1.15-31.583 2.074-47.533 2.755 6.537-14.897 26.605-41.696 58.96-73.18 34.192-33.272 61.542-51.994 76.702-57.892-1.318 30.43-3.203 61.108-5.616 91.339-1.359 16.974-14.659 30.601-31.623 32.4-7.596.804-14.519 1.49-21.166 2.1-4.125.378-7.162 4.029-6.784 8.153.378 4.125 4.027 7.165 8.153 6.784 6.717-.616 13.708-1.309 21.376-2.121 24.138-2.561 43.061-21.957 44.995-46.121 2.504-31.38 4.436-63.234 5.766-94.802 70.991-2.259 142.884.404 213.818 7.954 16.974 1.8 30.273 15.425 31.625 32.398 9.129 114.54 10.387 230.699 3.739 345.249-.241 4.136 2.916 7.683 7.052 7.923z"/><path d="m264.924 297.895h38.868c2.68 0 5.155-1.43 6.495-3.75l19.434-33.661h38.868c2.68 0 5.155-1.43 6.495-3.75l21.599-37.411c2.071-3.587.842-8.174-2.745-10.245-3.587-2.072-8.174-.842-10.245 2.745l-19.434 33.661h-34.538l-19.434-33.661c-1.34-2.32-3.815-3.75-6.495-3.75h-43.198c-2.68 0-5.155 1.43-6.495 3.75l-19.434 33.661h-34.538l-17.269-29.911 19.434-33.661c2.071-3.587.842-8.174-2.745-10.245-3.587-2.072-8.174-.842-10.245 2.745l-21.599 37.411c-1.34 2.32-1.34 5.18 0 7.5l19.434 33.661-17.269 29.911h-34.538l-19.434-33.661c-2.071-3.587-6.657-4.816-10.245-2.745-3.587 2.071-4.816 6.658-2.745 10.245l19.434 33.661-19.434 33.661c-1.34 2.32-1.34 5.18 0 7.5l21.599 37.411c1.34 2.32 3.815 3.75 6.495 3.75h38.868l19.434 33.661c1.389 2.406 3.91 3.751 6.502 3.751 1.272 0 2.562-.324 3.743-1.006 3.587-2.071 4.816-6.658 2.745-10.245l-19.434-33.661 17.269-29.911h34.538l17.269 29.911-19.434 33.66c-1.34 2.32-1.34 5.18 0 7.5l21.599 37.411c1.34 2.32 3.815 3.75 6.495 3.75h43.198c2.68 0 5.155-1.43 6.495-3.75l21.599-37.411c1.34-2.32 1.34-5.18 0-7.5l-21.599-37.411c-1.34-2.32-3.815-3.75-6.495-3.75h-38.868l-17.269-29.911zm34.538-15h-34.538l-17.269-29.911 17.269-29.911h34.538l17.269 29.911zm-64.797-22.411 17.269 29.911-17.269 29.911h-34.538l-17.269-29.911 17.269-29.911zm-116.605 67.322 17.269-29.911h34.538l17.269 29.911-17.269 29.911h-34.537zm198.671 74.821-17.269 29.911h-34.538l-17.269-29.911 17.269-29.911h34.538z"/><path d="m263.978 76.922h147.648c4.142 0 7.5-3.358 7.5-7.5s-3.358-7.5-7.5-7.5h-147.648c-4.142 0-7.5 3.358-7.5 7.5s3.358 7.5 7.5 7.5z"/><path d="m263.978 114.832h147.648c4.142 0 7.5-3.358 7.5-7.5s-3.358-7.5-7.5-7.5h-147.648c-4.142 0-7.5 3.358-7.5 7.5s3.358 7.5 7.5 7.5z"/><path d="m263.978 152.742h57.862c4.142 0 7.5-3.358 7.5-7.5s-3.358-7.5-7.5-7.5h-57.862c-4.142 0-7.5 3.358-7.5 7.5s3.358 7.5 7.5 7.5z"/><path d="m95.048 430.377c-4.142 0-7.5 3.358-7.5 7.5s3.358 7.5 7.5 7.5h57.862c4.142 0 7.5-3.358 7.5-7.5s-3.358-7.5-7.5-7.5z"/><path d="m424.263 292.373h-57.862c-4.142 0-7.5 3.358-7.5 7.5s3.358 7.5 7.5 7.5h57.862c4.142 0 7.5-3.358 7.5-7.5s-3.358-7.5-7.5-7.5z"/><path d="m424.263 330.283h-57.862c-4.142 0-7.5 3.358-7.5 7.5s3.358 7.5 7.5 7.5h57.862c4.142 0 7.5-3.358 7.5-7.5s-3.358-7.5-7.5-7.5z"/></g></g></svg>