<svg id="Capa_1" enable-background="new 0 0 511.977 511.977" height="512" viewBox="0 0 511.977 511.977" width="512" xmlns="http://www.w3.org/2000/svg"><g><g><path d="m109.942 78.564h225.884v92.105h-225.884z" fill="#e8ded8"/><path d="m342.123 134.618c-79.493-7.107-158.986-7.107-238.479 0-24.596 2.199-44.094 21.763-45.974 46.386-6.917 90.588-6.917 181.176 0 271.763 1.88 24.623 21.378 44.187 45.974 46.386 79.493 7.107 158.986 7.107 238.479 0 24.596-2.199 44.094-21.763 45.974-46.386 6.917-90.588 6.917-181.176 0-271.764-1.88-24.622-21.377-44.186-45.974-46.385z" fill="#f5f0f0"/><path d="m334.024 408.295c-1.264 16.558-14.381 29.725-30.929 31.2-53.478 4.777-106.946 4.777-160.423 0-4.677-.421-9.072-1.766-12.996-3.854-10.015-5.319-17.03-15.464-17.933-27.346-4.646-60.944-4.646-121.878 0-182.812.903-11.892 7.918-22.027 17.933-27.346 3.924-2.097 8.319-3.442 12.996-3.864 53.478-4.777 106.946-4.777 160.423 0 16.548 1.485 29.664 14.641 30.929 31.21 4.647 60.934 4.647 121.868 0 182.812z" fill="#dd636e"/><path d="m121.976 12.096c-20.487 1.873-36.698 18.184-38.25 38.697-.512 6.77-.977 13.54-1.398 20.309-1.015 16.334 11.921 30.153 28.286 30.153h224.54c16.365 0 29.301-13.82 28.286-30.153-.421-6.77-.886-13.54-1.398-20.31-1.552-20.514-17.763-36.824-38.25-38.697-67.272-6.149-134.544-6.149-201.816.001z" fill="#dd636e"/><path d="m167.457 101.257h-56.84c-16.367 0-29.303-13.819-28.289-30.156.422-6.764.893-13.538 1.405-20.311 1.545-20.512 17.762-36.819 38.244-38.696 17.441-1.596 34.873-2.77 52.314-3.542-13.257 7.356-22.559 21.606-23.743 38.355-.542 7.617-1.024 15.223-1.475 22.84-.813 14.058 6.964 26.472 18.384 31.51z" fill="#da4a54"/><g><path d="m280.639 288.763c-7.038-.303-14.076-.547-21.115-.737-4.254-.115-7.665-3.527-7.781-7.781-.191-7.038-.434-14.076-.737-21.115-.157-3.641-2.765-6.755-6.34-7.461-14.521-2.865-29.043-2.865-43.564 0-3.575.705-6.184 3.82-6.34 7.461-.303 7.038-.547 14.076-.737 21.114-.115 4.254-3.527 7.665-7.781 7.781-7.038.191-14.076.435-21.114.737-3.641.157-6.755 2.765-7.461 6.34-2.865 14.522-2.865 29.043 0 43.564.705 3.575 3.82 6.184 7.461 6.34 7.038.303 14.076.547 21.114.737 4.254.115 7.665 3.527 7.781 7.781.191 7.038.434 14.076.737 21.114.157 3.641 2.765 6.755 6.34 7.461 14.522 2.865 29.043 2.865 43.564 0 3.575-.705 6.184-3.82 6.34-7.461.303-7.038.547-14.076.737-21.114.115-4.254 3.527-7.665 7.781-7.781 7.038-.191 14.076-.434 21.115-.737 3.641-.157 6.755-2.765 7.461-6.34 2.865-14.521 2.865-29.043 0-43.564-.706-3.574-3.82-6.182-7.461-6.339z" fill="#f5f0f0"/></g><g><path d="m370.805 410.276-19.458 46.603 19.458 47.598c14.571 0 29.153-.211 43.724-.655 24.881-.761 44.918-21.101 44.965-45.994v-.889c-.047-24.905-20.083-45.234-44.965-45.994-14.571-.446-29.154-.669-43.724-.669z" fill="#dd636e"/><path d="m282.119 456.925v.901c.059 24.893 20.083 45.234 44.964 45.983 14.571.445 29.153.667 43.724.667v-94.201c-14.571 0-29.153.222-43.724.667-24.881.749-44.906 21.09-44.964 45.983z" fill="#ffd064"/><path d="m370.805 504.48c14.574 0 29.147-.222 43.724-.667 24.881-.749 44.918-21.09 44.965-45.983v-.316c-.047 7.759-20.083 14.103-44.965 14.337-14.576.135-35 .202-49.573.202" fill="#da4a54"/><path d="m282.121 457.518v.316c.059 24.893 20.083 45.234 44.964 45.983 14.571.445 29.153.667 43.724.667v-32.43c-14.571 0-29.153-.059-43.724-.199-24.881-.235-44.906-6.578-44.964-14.337z" fill="#ebb044"/></g><path d="m126.109 500.977c-7.49-.55-14.98-1.15-22.47-1.82-24.6-2.2-44.09-21.76-45.97-46.39-6.92-90.58-6.92-181.17 0-271.76 1.88-24.62 21.37-44.19 45.97-46.39 7.49-.67 14.99-1.28 22.48-1.82-10.63 9.14-17.68 22.29-18.82 37.13-7.48 97.97-7.48 195.95 0 293.93 1.14 14.84 8.19 27.98 18.81 37.12z" fill="#e8ded8"/></g><g><path d="m164.794 352.501c6.914.298 14.058.547 21.233.741.271.007.48.217.488.486.194 7.178.443 14.322.741 21.235.308 7.158 5.4 13.119 12.381 14.496 7.709 1.521 15.471 2.282 23.235 2.282 7.762 0 15.526-.761 23.233-2.282 6.982-1.377 12.074-7.338 12.382-14.497.298-6.912.547-14.056.742-21.234.007-.27.217-.479.486-.487 7.176-.194 14.32-.443 21.233-.741 7.159-.308 13.12-5.4 14.497-12.382 3.042-15.417 3.042-31.051 0-46.467-1.377-6.982-7.338-12.074-14.497-12.382-6.912-.297-14.056-.547-21.233-.741-.271-.007-.479-.217-.486-.487-.195-7.177-.444-14.321-.742-21.233-.308-7.157-5.399-13.118-12.381-14.496-15.417-3.043-31.052-3.043-46.469 0-6.982 1.378-12.073 7.339-12.381 14.496-.298 6.914-.547 14.058-.741 21.233-.007.271-.217.48-.487.488-7.177.194-14.321.444-21.234.741-7.158.308-13.119 5.4-14.496 12.381-3.042 15.417-3.042 31.052 0 46.468 1.377 6.983 7.338 12.074 14.496 12.382zm.221-55.946c.027-.137.204-.289.424-.298 6.833-.294 13.897-.541 20.996-.733 8.229-.223 14.851-6.844 15.075-15.075.192-7.097.439-14.16.733-20.994.009-.221.163-.398.299-.426 6.746-1.331 13.537-1.997 20.33-1.997 6.792 0 13.586.666 20.33 1.997.137.027.29.205.299.425.294 6.833.541 13.897.733 20.995.223 8.23 6.844 14.852 15.075 15.075 7.098.193 14.162.439 20.995.733.221.009.398.162.425.299 2.662 13.49 2.662 27.171 0 40.662-.026.136-.204.289-.426.298-6.834.294-13.897.541-20.995.733-8.23.224-14.851 6.845-15.074 15.074-.193 7.1-.439 14.164-.733 20.996-.009.221-.162.398-.299.425-13.49 2.662-27.169 2.663-40.661 0-.137-.027-.289-.204-.298-.425-.294-6.833-.541-13.897-.733-20.996-.224-8.229-6.845-14.85-15.075-15.074-7.097-.192-14.16-.439-20.995-.733-.221-.009-.398-.162-.425-.299-2.663-13.491-2.663-27.171 0-40.662z"/><path d="m451.667 419.636c-9.813-10.015-22.928-15.765-36.925-16.19-5.34-.162-10.697-.284-16.06-.387 3.558-73.97 2.521-148.824-3.116-222.625-2.157-28.146-24.091-50.442-52.248-53.229v-19.387c6.81-1.574 13.002-5.111 17.931-10.357 6.756-7.192 10.278-16.969 9.663-26.821-.455-7.335-.915-14.015-1.407-20.411-1.328-17.585-12.067-33.26-28.027-40.908-3.736-1.79-8.215-.214-10.005 3.522-1.79 3.735-.213 8.215 3.522 10.005 11.135 5.336 18.627 16.261 19.554 28.521.486 6.332.942 12.939 1.393 20.202.363 5.824-1.634 11.371-5.625 15.619-3.977 4.233-9.364 6.564-15.17 6.564h-224.54c-5.812 0-11.203-2.332-15.182-6.567-3.99-4.247-5.987-9.793-5.623-15.619.4-6.45.869-13.25 1.393-20.209 1.275-16.869 14.505-30.242 31.454-31.797 61.638-5.631 124.083-6.052 185.605-1.252 4.138.322 7.738-2.765 8.061-6.894.322-4.13-2.765-7.739-6.895-8.061-62.36-4.866-125.659-4.439-188.138 1.269-24.272 2.228-43.216 21.407-45.044 45.606-.529 7.026-1.003 13.893-1.407 20.406-.616 9.854 2.906 19.631 9.662 26.822 4.929 5.246 11.121 8.783 17.933 10.359v19.388c-28.166 2.783-50.102 25.083-52.246 53.232-6.911 90.544-6.911 182.363 0 272.905 2.16 28.335 24.358 50.744 52.783 53.284 39.829 3.558 79.957 5.338 120.03 5.338 29.974 0 59.919-1.002 89.676-2.996 4.553 1.391 9.309 2.198 14.178 2.346 14.581.443 29.265.664 43.948.664s29.367-.221 43.948-.664c13.998-.425 27.111-6.175 36.925-16.19 9.847-10.048 15.285-23.288 15.314-37.272v-.933c-.03-13.994-5.468-27.234-15.315-37.283zm-334.242-293.703v-17.179h210.893v17.18c-70.04-5.495-140.844-5.495-210.893-.001zm-13.129 365.752c-21.091-1.884-37.561-18.49-39.161-39.484-6.853-89.786-6.853-180.836 0-270.624 1.599-20.99 18.07-37.599 39.161-39.492 78.683-7.032 158.47-7.032 237.139 0 21.091 1.893 37.566 18.503 39.174 39.494 5.603 73.351 6.623 147.75 3.067 221.267-13.929-.123-27.881-.043-41.776.233 4.234-59.159 4.105-119.067-.415-178.164-1.541-20.253-17.412-36.281-37.741-38.111-53.658-4.798-108.077-4.798-161.75 0-20.313 1.829-36.184 17.854-37.736 38.107-4.287 56.033-4.643 112.859-1.057 168.901.265 4.134 3.829 7.272 7.964 7.006 4.134-.265 7.27-3.83 7.006-7.964-3.542-55.344-3.19-111.463 1.043-166.798.99-12.919 11.136-23.144 24.12-24.313 52.781-4.719 106.301-4.719 159.07 0 12.995 1.17 23.142 11.394 24.124 24.312 4.5 58.836 4.594 118.484.306 177.392-13.993.428-27.103 6.177-36.914 16.189-4.115 4.199-7.447 8.961-9.949 14.098-45.348 2.908-91.291 2.34-136.641-1.711-8.627-.767-16.35-5.682-20.658-13.147-2.071-3.589-6.659-4.817-10.245-2.748-3.588 2.07-4.818 6.657-2.748 10.245 6.749 11.695 18.832 19.393 32.318 20.591 26.864 2.4 53.928 3.601 80.965 3.601 17.447 0 34.883-.508 52.24-1.509-.389 2.587-.591 5.219-.597 7.878v.909c.029 13.993 5.468 27.233 15.314 37.281.047.048.097.093.145.141-61.742 3.116-124.122 1.926-185.768-3.58zm185.31-33.859v-.877c.043-20.604 16.952-37.879 37.694-38.509 11.947-.363 23.964-.567 35.992-.629v79.139c-12.029-.063-24.046-.266-35.992-.629-20.741-.632-37.651-17.907-37.694-38.495zm162.375-.015c-.043 20.604-16.952 37.879-37.694 38.509-11.947.363-23.965.567-35.994.629v-79.139c12.029.062 24.047.266 35.994.629 20.742.63 37.651 17.905 37.694 38.518z"/></g></g></svg>