<svg id="Capa_1" enable-background="new 0 0 511.958 511.958" height="512" viewBox="0 0 511.958 511.958" width="512" xmlns="http://www.w3.org/2000/svg"><g><g><path d="m175.063 149.148c11.148-1.82 31.195-2.7 55.921-2.88 76.808-.58 198.729 5.629 239.002 11.568 13.918 2.04 24.766 13.188 26.356 27.166 10.718 94.955 10.798 189.91.23 284.865-1.65 14.828-13.538 26.406-28.406 27.606-67.329 5.419-134.659 7.689-201.998 6.799" fill="#d99f36"/><path d="m306.978 456.156c-66.895 2.435-133.78.088-200.665-7.03-18.606-1.975-33.174-16.875-34.66-35.52-9.64-120.884-9.64-241.768 0-362.662 1.486-18.645 16.054-33.545 34.66-35.52 99.766-10.618 199.541-10.618 299.316 0 18.596 1.975 33.174 16.875 34.66 35.52 7.196 90.292 9.024 180.573 5.465 270.855" fill="#f5f0f0"/><path d="m461.77 416.238-.009.009c-1.254 16.897-2.83 33.785-4.711 50.682-1.788 16.095-14.823 28.614-30.964 29.904-126.328 10.168-252.674 10.168-379.001 0-16.224-1.3-29.194-13.938-30.992-30.107-11.533-103.585-11.44-207.172.258-310.758 1.724-15.247 13.56-27.406 28.743-29.637 58.085-8.555 110.113-8.757 160.067-.599 14.924 2.434 26.438 14.519 28.134 29.535.221 1.945.433 3.89.645 5.835 1.881 17.238 16.473 30.264 33.813 30.181 54.563-.258 109.126 1.383 163.689 4.913 17.054 1.106 30.596 14.74 31.637 31.803 3.825 62.75 3.392 125.49-1.309 188.239z" fill="#ffd064"/><path d="m71.611 498.678c-8.18-.58-16.35-1.19-24.53-1.85-16.22-1.3-29.19-13.94-30.99-30.1-11.53-103.59-11.44-207.18.26-310.76 1.72-15.25 13.56-27.41 28.74-29.64 10.1-1.49 20.01-2.72 29.76-3.69-10.98 4.99-18.88 15.45-20.29 27.88-12.1 107.2-12.2 214.4-.26 321.61 1.27 11.401 7.9 21.1 17.31 26.55z" fill="#ebb044"/><g><path d="m381.824 84.287c-5.424-.233-10.848-.421-16.272-.568-3.278-.089-5.907-2.718-5.996-5.996-.147-5.424-.335-10.848-.568-16.272-.121-2.806-2.131-5.206-4.886-5.75-11.191-2.208-22.382-2.208-33.573 0-2.755.544-4.765 2.944-4.886 5.75-.233 5.424-.421 10.848-.568 16.272-.089 3.278-2.718 5.907-5.996 5.996-5.424.147-10.848.335-16.272.568-2.806.121-5.206 2.131-5.75 4.886-2.208 11.191-2.208 22.382 0 33.573.544 2.755 2.944 4.765 5.75 4.886 5.424.233 10.848.421 16.272.568 3.278.089 5.907 2.718 5.996 5.996.147 5.424.335 10.848.568 16.272.121 2.806 2.131 5.206 4.886 5.75 11.191 2.208 22.382 2.208 33.573 0 2.755-.544 4.766-2.944 4.886-5.75.233-5.424.421-10.848.568-16.272.089-3.278 2.718-5.907 5.996-5.996 5.424-.147 10.848-.335 16.272-.568 2.806-.121 5.206-2.131 5.75-4.886 2.208-11.191 2.208-22.382 0-33.573-.544-2.755-2.945-4.765-5.75-4.886z" fill="#dd636e"/></g><path d="m174.063 231.803c-31.255-1.568-62.509-1.568-93.764 0-11.876.596-21.564 9.818-22.625 21.661-1.377 15.363-1.377 30.726 0 46.089 1.061 11.844 10.749 21.066 22.625 21.661 31.255 1.568 62.509 1.568 93.764 0 11.876-.596 21.564-9.818 22.625-21.661 1.377-15.363 1.377-30.726 0-46.089-1.061-11.843-10.749-21.065-22.625-21.661z" fill="#dae4ea"/></g><g><path d="m503.796 184.155c-1.972-17.331-15.427-31.204-32.714-33.738-4.674-.69-10.593-1.401-17.628-2.122-.81-21.996-1.923-43.991-3.354-65.796-.271-4.133-3.846-7.262-7.976-6.992-4.134.271-7.264 3.842-6.992 7.975 2.315 35.26 3.813 71.017 4.48 106.466-2.479-.642-5.046-1.062-7.682-1.232-54.486-3.525-109.728-5.18-164.213-4.936-13.498.056-24.856-10.029-26.325-23.487l-.058-.539c-.192-1.774-.385-3.556-.586-5.328-2.069-18.284-16.208-33.128-34.384-36.098-41.491-6.778-84.732-7.85-131.39-3.233 1.08-21.072 2.459-42.4 4.147-63.558 1.199-15.009 12.97-27.062 27.986-28.66 98.773-10.505 198.942-10.505 297.724 0 15.018 1.599 26.788 13.652 27.989 28.681l.171 2.16c.347 4.128 3.983 7.191 8.103 6.845 4.127-.347 7.191-3.975 6.845-8.102l-.167-2.119c-1.774-22.195-19.166-40.018-41.354-42.38-99.836-10.617-201.071-10.617-300.897 0-22.187 2.361-39.577 20.184-41.353 42.381-1.766 22.123-3.198 44.433-4.3 66.443-5.248.646-10.525 1.338-15.863 2.123-18.571 2.73-33.005 17.624-35.102 36.22-11.71 103.666-11.798 208.784-.262 312.427 2.184 19.713 18.1 35.168 37.836 36.75 4.441.362 8.883.703 13.315 1.025 4.12.297 7.723-2.806 8.023-6.937s-2.806-7.724-6.938-8.024c-4.388-.318-8.786-.657-13.194-1.016-12.591-1.009-22.741-10.871-24.135-23.454-11.413-102.539-11.326-206.531.259-309.09 1.335-11.838 10.536-21.32 22.38-23.06 57.177-8.417 108.782-8.619 157.757-.618 11.576 1.892 20.581 11.342 21.898 22.982.198 1.748.388 3.504.577 5.253l.059.545c2.296 21.056 19.941 36.869 41.09 36.867h.221c54.132-.245 109.028 1.402 163.173 4.905 13.23.854 23.817 11.503 24.626 24.772 3.795 62.165 3.356 125.155-1.302 187.221-.003.036-.006.071-.008.107-1.251 16.756-2.828 33.683-4.688 50.32-1.38 12.465-11.517 22.242-24.107 23.249-111.116 8.943-223.745 9.973-334.763 3.06-4.144-.268-7.694 2.886-7.951 7.019-.258 4.134 2.885 7.694 7.02 7.952 48.661 3.03 97.627 4.544 146.644 4.544 9.878 0 48.432.028 57.855.028 58.032 0 116.599-2.35 174.482-7.009 18.386-1.483 33.213-15.889 35.256-34.252 10.58-95.047 10.502-191.452-.23-286.54zm-14.677 284.884c-1.25 11.238-10.315 20.052-21.553 20.959-4.562.367-9.129.717-13.7 1.055 5.78-6.276 9.643-14.339 10.632-23.289 1.884-16.842 3.48-33.986 4.746-50.956.002-.032.004-.065.006-.098 4.703-62.712 5.144-126.356 1.311-189.167-.744-12.203-6.775-22.988-15.821-30.091-.174-11.313-.436-22.661-.78-34.023 5.908.624 10.926 1.237 14.938 1.829 10.568 1.548 18.789 10.017 19.991 20.586 10.609 93.973 10.686 189.253.23 283.195z"/><path d="m382.145 76.794c-4.931-.212-10.014-.393-15.128-.537-.146-5.133-.326-10.216-.537-15.129-.272-6.311-4.766-11.568-10.927-12.784-12.104-2.388-24.376-2.388-36.478 0-6.162 1.216-10.655 6.473-10.928 12.785-.212 4.931-.393 10.014-.536 15.128-5.115.145-10.198.325-15.129.537-6.312.272-11.569 4.765-12.786 10.928-2.388 12.102-2.388 24.375 0 36.477 1.217 6.162 6.475 10.655 12.786 10.927 4.931.212 10.014.393 15.129.537.144 5.114.324 10.197.536 15.129.272 6.311 4.766 11.568 10.928 12.784 6.051 1.194 12.145 1.791 18.238 1.791s12.188-.597 18.24-1.791c6.16-1.216 10.653-6.474 10.926-12.785.211-4.913.392-9.996.537-15.129 5.114-.145 10.197-.325 15.128-.537 6.312-.272 11.569-4.765 12.786-10.928 2.388-12.102 2.388-24.374 0-36.477-1.215-6.161-6.473-10.654-12.785-10.926zm-1.719 43.391c-4.922.206-9.988.38-15.078.518-7.255.197-13.093 6.035-13.289 13.29-.139 5.108-.313 10.175-.519 15.078-9.447 1.727-19.006 1.727-28.451 0-.206-4.922-.38-9.989-.518-15.077-.196-7.255-6.034-13.093-13.291-13.291-5.089-.138-10.156-.312-15.077-.518-1.727-9.445-1.727-19.006 0-28.45 4.922-.206 9.988-.38 15.077-.518 7.257-.197 13.095-6.035 13.291-13.291.138-5.089.312-10.156.518-15.076 9.446-1.727 19.005-1.727 28.451 0 .205 4.904.38 9.97.519 15.077.196 7.256 6.034 13.094 13.29 13.291 5.089.138 10.155.312 15.077.518 1.726 9.444 1.726 19.005 0 28.449z"/><path d="m115.533 64.546c-4.143 0-7.5 3.358-7.5 7.5s3.357 7.5 7.5 7.5h123.686c4.143 0 7.5-3.358 7.5-7.5s-3.357-7.5-7.5-7.5z"/><path d="m174.439 328.705c15.559-.781 28.335-13.025 29.719-28.482 1.411-15.735 1.411-31.693 0-47.428-1.384-15.458-14.16-27.702-29.719-28.483-31.357-1.572-63.158-1.572-94.516 0-15.557.78-28.334 13.025-29.719 28.482-1.411 15.735-1.411 31.693 0 47.428 1.385 15.457 14.162 27.702 29.719 28.482 15.679.787 31.469 1.18 47.258 1.18s31.58-.392 47.258-1.179zm-109.295-29.821c-1.33-14.847-1.33-29.903 0-44.75.722-8.052 7.398-14.432 15.531-14.84 15.43-.774 30.968-1.161 46.506-1.161s31.076.387 46.506 1.161c8.133.408 14.81 6.788 15.531 14.84 1.33 14.847 1.33 29.903 0 44.751-.722 8.052-7.398 14.432-15.531 14.839-30.859 1.548-62.152 1.548-93.012 0-8.132-.408-14.809-6.788-15.531-14.84z"/><path d="m86.203 270.682h81.957c4.143 0 7.5-3.358 7.5-7.5s-3.357-7.5-7.5-7.5h-81.957c-4.143 0-7.5 3.358-7.5 7.5s3.357 7.5 7.5 7.5z"/><path d="m144.587 289.835c0-4.142-3.357-7.5-7.5-7.5h-50.884c-4.143 0-7.5 3.358-7.5 7.5s3.357 7.5 7.5 7.5h50.884c4.142 0 7.5-3.358 7.5-7.5z"/></g></g></svg>