<svg id="Capa_1" enable-background="new 0 0 512 512" height="512" viewBox="0 0 512 512" width="512" xmlns="http://www.w3.org/2000/svg"><g><g><path d="m106.561 487.736c-30.426-24.439-57.858-51.871-82.297-82.297-23.606-29.389-22.124-71.626 3.446-99.322 89.098-96.506 181.9-189.308 278.406-278.406 27.696-25.57 69.934-27.052 99.322-3.446 30.426 24.439 57.858 51.872 82.297 82.297 23.606 29.388 22.124 71.626-3.446 99.322-89.098 96.506-181.9 189.308-278.406 278.406-27.695 25.57-69.933 27.052-99.322 3.446z" fill="#ffd064"/><path d="m452.88 239.58c-58.6 62.3-118.78 123.03-180.53 182.19-62.3-59.12-123-119.82-182.12-182.12 59.16-61.75 119.89-121.93 182.19-180.53 61.72 58.59 121.87 118.74 180.46 180.46z" fill="#ebb044"/><path d="m487.735 405.439c-24.439 30.426-51.871 57.858-82.297 82.297-29.388 23.606-71.626 22.124-99.322-3.446-96.506-89.098-189.308-181.9-278.406-278.406-25.57-27.696-27.052-69.934-3.446-99.322 24.439-30.426 51.872-57.858 82.297-82.297 29.388-23.606 71.626-22.124 99.322 3.446 96.506 89.098 189.308 181.9 278.406 278.406 25.571 27.696 27.052 69.933 3.446 99.322z" fill="#ffd064"/><path d="m383.68 499.97c-26.11 9.45-56.17 4.06-77.56-15.68-96.5-89.1-189.31-181.9-278.4-278.41-19.74-21.37-25.13-51.41-15.69-77.52-1.58 21.35 5.46 43.15 20.9 59.87 93.08 100.82 190.02 197.77 290.84 290.85 16.74 15.45 38.55 22.48 59.91 20.89z" fill="#ebb044"/><path d="m379.129 300.651c-23.492 28.827-49.651 54.987-78.479 78.479-12.449 10.145-30.451 9.786-42.473-.861-43.997-38.967-85.478-80.449-124.445-124.445-10.647-12.021-11.005-30.024-.861-42.473 23.492-28.827 49.652-54.987 78.479-78.479 12.449-10.145 30.451-9.786 42.473.861 43.996 38.967 85.478 80.449 124.445 124.445 10.647 12.022 11.005 30.024.861 42.473z" fill="#f5f0f0"/><g fill="#e8ded8"><g><circle cx="230.956" cy="187.089" r="18.612"/><circle cx="187.088" cy="230.957" r="18.612"/></g><g><circle cx="277.444" cy="233.577" r="18.612"/><circle cx="233.576" cy="277.445" r="18.612"/></g><g><circle cx="324.911" cy="281.044" r="18.612"/><circle cx="281.043" cy="324.912" r="18.612"/></g></g></g><g><path d="m511.949 354.882c-.697-20.013-8.563-39.137-22.148-53.849-13.916-15.072-27.966-30.078-42.116-45.022 13.998-14.788 28.136-29.902 42.114-45.042 13.586-14.712 21.452-33.836 22.149-53.849.697-20.018-5.823-39.641-18.362-55.256-24.688-30.729-52.766-58.805-83.451-83.45-15.615-12.539-35.217-19.064-55.255-18.363-20.013.697-39.137 8.563-53.849 22.149-15.127 13.968-30.237 28.102-45.029 42.103-11.301-10.7-22.638-21.335-34.009-31.897-3.035-2.82-7.781-2.644-10.6.391s-2.645 7.781.391 10.6c91.941 85.404 181.771 175.51 266.995 267.813 11.15 12.075 17.606 27.77 18.178 44.195.572 16.427-4.778 32.529-15.064 45.339-23.99 29.859-51.293 57.162-81.148 81.149-12.813 10.288-28.928 15.636-45.342 15.066-16.425-.572-32.12-7.028-44.195-18.179-95.918-88.554-189.446-182.082-277.988-277.988-11.15-12.075-17.606-27.77-18.178-44.195-.572-16.427 4.778-32.529 15.064-45.339 23.99-29.86 51.293-57.163 81.149-81.15 22.492-18.066 54.136-20.094 78.742-5.049 3.532 2.161 8.149 1.048 10.311-2.486 2.161-3.534 1.048-8.15-2.486-10.311-29.987-18.336-68.552-15.864-95.96 6.152-30.703 24.667-58.779 52.744-83.45 83.451-12.538 15.613-19.059 35.236-18.361 55.254.697 20.013 8.563 39.137 22.148 53.849 13.915 15.072 27.966 30.077 42.116 45.022-13.998 14.789-28.137 29.902-42.115 45.042-13.587 14.713-21.453 33.837-22.148 53.85-.695 20.019 5.828 39.642 18.37 55.254 24.654 30.698 52.728 58.775 83.441 83.451 15.166 12.182 33.747 18.38 52.401 18.38 15.058 0 30.164-4.039 43.558-12.229 3.534-2.161 4.647-6.777 2.486-10.311s-6.779-4.647-10.311-2.486c-24.607 15.045-56.252 13.016-78.741-5.047-29.866-23.996-57.166-51.298-81.141-81.15-10.291-12.812-15.645-28.914-15.073-45.34.57-16.424 7.026-32.119 18.178-44.195 13.752-14.895 27.659-29.763 41.433-44.319 55.344 58.096 112.361 115.114 170.463 170.462-11.382 10.769-22.572 21.256-33.337 31.24-3.036 2.817-3.215 7.562-.398 10.599 1.478 1.593 3.486 2.4 5.501 2.4 1.825 0 3.654-.662 5.099-2.001 10.987-10.191 22.413-20.901 34.035-31.9 14.943 14.148 29.947 28.198 45.017 42.111 14.712 13.586 33.836 21.452 53.849 22.149.972.034 1.94.051 2.909.05 19.002 0 37.49-6.482 52.348-18.413 30.703-24.668 58.78-52.745 83.45-83.451 12.537-15.614 19.057-35.237 18.36-55.254zm-245.063-280.227c14.564-13.782 29.433-27.689 44.321-41.435 12.075-11.15 27.771-17.606 44.195-18.178 16.425-.574 32.529 4.779 45.34 15.066 29.839 23.965 57.143 51.268 81.149 81.148 10.287 12.812 15.638 28.914 15.065 45.34-.572 16.425-7.028 32.121-18.179 44.196-13.754 14.896-27.661 29.765-41.437 44.323-55.374-58.128-112.404-115.158-170.454-170.46z"/><path d="m127.057 206.613c-12.538 15.386-12.092 37.332 1.061 52.183 38.988 44.02 81.073 86.105 125.088 125.088 7.644 6.77 17.164 10.172 26.706 10.172 8.996 0 18.011-3.027 25.478-9.112 29.085-23.703 55.852-50.469 79.554-79.555h.001c12.538-15.387 12.092-37.333-1.062-52.184-38.984-44.017-81.069-86.102-125.087-125.087-14.85-13.153-36.797-13.6-52.184-1.061-29.085 23.703-55.851 50.469-79.555 79.556zm89.031-67.927c4.69-3.822 10.35-5.723 15.999-5.723 5.988 0 11.966 2.136 16.763 6.385 43.565 38.585 85.219 80.239 123.804 123.803 8.257 9.322 8.535 23.101.661 32.763h.001c-23.063 28.299-49.104 54.341-77.403 77.402-9.662 7.874-23.439 7.595-32.762-.661-43.562-38.583-85.217-80.236-123.805-123.804-8.256-9.322-8.534-23.101-.661-32.762 23.063-28.301 49.105-54.343 77.403-77.403z"/><path d="m230.956 213.201c6.975 0 13.532-2.716 18.463-7.647 4.933-4.932 7.648-11.489 7.648-18.464s-2.716-13.532-7.647-18.464c-4.932-4.932-11.489-7.648-18.464-7.648s-13.531 2.716-18.464 7.648c-4.932 4.932-7.647 11.489-7.647 18.464s2.716 13.532 7.647 18.463c4.933 4.932 11.489 7.648 18.464 7.648zm-7.857-33.969c2.1-2.099 4.89-3.255 7.857-3.255s5.759 1.156 7.856 3.254c2.1 2.099 3.255 4.889 3.255 7.857s-1.155 5.758-3.254 7.856c-.001 0-.001 0-.001.001-2.099 2.098-4.889 3.254-7.856 3.254s-5.758-1.156-7.857-3.255c-2.099-2.098-3.254-4.889-3.254-7.856s1.155-5.757 3.254-7.856z"/><path d="m187.088 257.056c6.688 0 13.374-2.545 18.464-7.635.001 0 .001 0 .001-.001 10.18-10.181 10.18-26.746 0-36.927-10.183-10.181-26.747-10.181-36.928 0-4.933 4.932-7.648 11.489-7.648 18.464s2.716 13.532 7.648 18.464c5.09 5.09 11.776 7.635 18.463 7.635zm-7.857-33.956c2.166-2.167 5.011-3.25 7.857-3.25 2.845 0 5.69 1.083 7.856 3.25 4.332 4.332 4.332 11.382.001 15.714-4.333 4.331-11.382 4.333-15.715 0-2.1-2.099-3.255-4.889-3.255-7.857.001-2.968 1.157-5.758 3.256-7.857z"/><path d="m258.98 252.041c5.09 5.09 11.776 7.635 18.463 7.635 6.688 0 13.374-2.545 18.464-7.635h.001c10.18-10.181 10.18-26.746-.001-36.928-10.18-10.18-26.746-10.181-36.928.001-10.179 10.18-10.179 26.746.001 36.927zm10.606-26.321c2.167-2.167 5.013-3.25 7.858-3.25s5.69 1.083 7.856 3.249c4.332 4.333 4.332 11.382.001 15.714-4.333 4.331-11.382 4.333-15.715 0-4.331-4.332-4.331-11.381 0-15.713z"/><path d="m252.04 258.981c-10.182-10.182-26.747-10.18-36.929 0-10.18 10.181-10.18 26.746 0 36.927 5.091 5.091 11.777 7.636 18.465 7.636 6.687 0 13.373-2.545 18.463-7.635 4.933-4.932 7.648-11.489 7.648-18.464s-2.715-13.532-7.647-18.464zm-10.606 26.32c0 .001-.001.001 0 0-4.332 4.332-11.382 4.334-15.715 0-4.332-4.333-4.332-11.381 0-15.714 2.166-2.166 5.012-3.25 7.856-3.25 2.846 0 5.691 1.083 7.858 3.25 2.099 2.098 3.254 4.889 3.254 7.856s-1.155 5.76-3.253 7.858z"/><path d="m306.448 299.509c5.09 5.09 11.776 7.635 18.463 7.635 6.688 0 13.374-2.545 18.464-7.635.001 0 .001 0 .001-.001 10.18-10.181 10.18-26.746 0-36.927-10.183-10.181-26.747-10.181-36.928 0-4.933 4.932-7.648 11.489-7.648 18.464s2.716 13.531 7.648 18.464zm10.607-26.322c2.166-2.167 5.011-3.25 7.857-3.25 2.845 0 5.69 1.083 7.856 3.25 4.332 4.332 4.332 11.382.001 15.714-4.333 4.331-11.382 4.333-15.715 0-2.1-2.099-3.255-4.889-3.255-7.857.001-2.967 1.156-5.758 3.256-7.857z"/><path d="m262.579 306.449c-10.18 10.181-10.18 26.746 0 36.927 5.091 5.091 11.777 7.636 18.465 7.636 6.687 0 13.373-2.545 18.463-7.635 4.933-4.932 7.648-11.489 7.648-18.464s-2.716-13.532-7.648-18.464c-10.18-10.181-26.746-10.182-36.928 0zm26.322 26.32c-4.332 4.332-11.382 4.333-15.715 0-4.332-4.332-4.332-11.382-.001-15.714 2.167-2.167 5.012-3.25 7.858-3.25 2.845 0 5.69 1.083 7.856 3.249 2.1 2.099 3.255 4.889 3.255 7.857.001 2.969-1.154 5.76-3.253 7.858z"/></g></g></svg>