<svg id="Capa_1" enable-background="new 0 0 512 512" height="512" viewBox="0 0 512 512" width="512" xmlns="http://www.w3.org/2000/svg"><g><path d="m301.405 256.554c-26.971 28.206-54.215 56.139-81.733 83.789-10.634 10.675-21.299 21.309-32.004 31.903-23.75 23.507-47.693 46.801-71.848 69.893-19.385-5.773-31.964-18.352-37.737-37.737 23.092-24.155 46.386-48.098 69.893-71.848 10.594-10.705 21.228-21.37 31.903-32.004 27.649-27.518 55.582-54.762 83.789-81.733 19.385 5.773 31.964 18.352 37.737 37.737z" fill="#c88b7c"/><path d="m283.101 228.57c-65.315 64.86-130.398 129.942-195.257 195.268-4.284-5.459-7.535-11.941-9.763-19.436 60.474-63.239 122.336-125.101 185.585-185.585 7.494 2.228 13.976 5.479 19.435 9.753z" fill="#b4634b"/><g><g><path d="m495.732 49.181-72.38 72.37-12.34-12.34-10.94-10.94 90.29-90.28 2.52 19.35z" fill="#f5f0f0"/><path d="m492.882 27.341-81.87 81.87-10.94-10.94 90.29-90.28z" fill="#e8ded8"/><path d="m219.672 340.343c-10.634 10.675-21.299 21.309-32.004 31.903-13.288-13.177-26.515-26.404-39.692-39.692 10.594-10.705 21.228-21.37 31.903-32.004 13.319 13.207 26.586 26.474 39.793 39.793z" fill="#b4634b"/><ellipse cx="376.417" cy="143.806" fill="#f5f0f0" rx="70.61" ry="50.834" transform="matrix(.707 -.707 .707 .707 8.564 308.287)"/><path d="m404.859 98.215c-24.935 24.429-49.627 49.111-74.046 74.046-5.327-5.905-10.361-12.093-15.121-18.565 21.674-25.401 45.211-48.938 70.612-70.612 6.473 4.76 12.651 9.804 18.555 15.131z" fill="#e8ded8"/><path d="m259.581 394.25c-51.341-37.731-95.877-82.268-133.608-133.608 31.312-36.697 64.103-71.914 98.375-105.651 28.077-27.639 51.554-.47 81.619-26.122 51.341 37.731 58.04 28.453 95.772 79.794-25.652 30.064-8.867 59.135-36.506 87.212-33.738 34.272-68.954 67.064-105.652 98.375z" fill="#edf9f9"/><path d="m362.943 117.163c-66.308 63.604-131.269 128.554-194.862 194.872-14.868-16.296-28.905-33.422-42.102-51.389 56.959-66.764 118.821-128.626 185.584-185.596 17.957 13.197 35.084 27.235 51.38 42.113z" fill="#dcf1f4"/><path d="m445.172 208.661c-25.65 30.06-52.3 59.14-79.94 87.21l-140.88-140.88c28.08-27.64 57.15-54.29 87.21-79.94 17.93 13.18 35.04 27.19 51.31 42.05.02.02.05.04.07.06 30.29 27.62 57.7 58.12 82.23 91.5z" fill="#a2c6fe"/><path d="m362.942 117.161c-30.01 28.8-59.75 57.86-89.21 87.21l-49.38-49.38c28.08-27.64 57.15-54.29 87.21-79.94 17.93 13.18 35.04 27.19 51.31 42.05.02.02.05.04.07.06z" fill="#7898d5"/><path d="m301.405 256.554c-.101.101-.203.213-.304.314-6.198 6.492-12.427 12.964-18.676 19.425-15.354 15.931-30.82 31.772-46.366 47.511l-24.246-24.246-15.394-15.395c.749-.739 1.499-1.479 2.248-2.208 3.474-3.433 6.948-6.857 10.432-10.26 2.309-2.289 4.629-4.558 6.948-6.816 4.618-4.517 9.237-9.024 13.865-13.521 4.659-4.527 9.328-9.054 14.007-13.561.152-.142.304-.294.456-.436 1.59-1.539 3.17-3.069 4.76-4.588 4.73-4.568 9.47-9.115 14.22-13.652.101-.101.213-.203.314-.304.608.182 1.205.365 1.793.557.598.202 1.185.395 1.762.608.527.182 1.043.375 1.56.577 1.519.587 2.978 1.215 4.396 1.894.324.152.638.304.952.466.01 0 .01.01.02.01.425.213.851.436 1.266.658 1.033.547 2.036 1.124 3.018 1.732.476.294.952.598 1.408.901 1.124.749 2.208 1.529 3.261 2.35 8.658 6.766 14.755 16.094 18.3 27.984z" fill="#c88b7c"/><path d="m283.104 228.57c-23.791 23.628-47.561 47.287-71.291 70.987l-15.394-15.395c.749-.739 1.499-1.479 2.248-2.208 3.474-3.433 6.948-6.857 10.432-10.26 2.309-2.289 4.629-4.558 6.948-6.816 4.618-4.517 9.237-9.024 13.865-13.521 4.811-4.679 9.632-9.348 14.463-13.997 1.59-1.539 3.17-3.069 4.76-4.588 4.831-4.669 9.682-9.318 14.534-13.956.608.182 1.205.365 1.793.557.598.202 1.185.395 1.762.608.527.182 1.043.375 1.56.577 1.519.587 2.978 1.215 4.396 1.894.324.152.638.304.952.466.01 0 .01.01.02.01.425.213.851.436 1.266.658 1.033.547 2.036 1.124 3.018 1.732.476.294.952.598 1.408.901 1.123.751 2.207 1.531 3.26 2.351z" fill="#b4634b"/><path d="m301.095 390.098c-56.099-57.881-113.089-114.871-170.97-170.97-8.486-8.225-22.108-8.429-30.522-.131-.102.101-.203.202-.304.304-8.298 8.414-8.094 22.036.131 30.522 56.099 57.881 113.089 114.871 170.97 170.97 8.486 8.225 22.108 8.429 30.522.131.102-.1.203-.202.304-.304 8.298-8.414 8.094-22.036-.131-30.522z" fill="#f5f0f0"/><path d="m181.326 269.232c-8.892-4.892-20.276-3.757-27.801 3.656-.111.111-.223.223-.334.334-7.414 7.525-8.548 18.909-3.656 27.801-16.782-16.985-33.483-34.061-50.103-51.207-8.224-8.477-8.437-22.099-.132-30.516l.304-.304c8.416-8.305 22.038-8.092 30.516.132 17.145 16.621 34.221 33.322 51.206 50.104z" fill="#e8ded8"/><path d="m160.458 466.891c-34.959-36.458-70.668-72.167-107.126-107.126-8.56-8.208-22.188-8.355-30.613-.009-.102.101-.203.202-.304.304-8.346 8.425-8.199 22.053.009 30.613 34.959 36.458 70.668 72.167 107.126 107.126 8.56 8.208 22.188 8.355 30.613.009.102-.101.203-.202.304-.304 8.346-8.425 8.199-22.053-.009-30.613z" fill="#f5f0f0"/><path d="m85.825 391.327c-8.882-4.507-19.993-3.221-27.396 4.112-.111.101-.223.213-.334.324-7.333 7.394-8.619 18.494-4.122 27.376-10.594-10.756-21.107-21.583-31.549-32.47-8.204-8.558-8.356-22.18-.01-30.607.101-.101.203-.202.304-.304 8.427-8.345 22.059-8.204 30.617.01 10.897 10.442 21.723 20.965 32.49 31.559z" fill="#e8ded8"/><path d="m301.101 256.868c-6.198 6.492-12.427 12.964-18.676 19.425-12.933-12.731-25.766-25.563-38.507-38.496.152-.142.304-.294.456-.436 1.59-1.539 3.17-3.069 4.76-4.588 4.73-4.568 9.47-9.115 14.22-13.652 12.681 12.478 25.259 25.067 37.747 37.747z" fill="#b4634b"/><path d="m320.8 288.321c-30.142-29.124-59.775-58.757-88.898-88.898-4.935-5.108-5.11-13.322-.118-18.375.06-.061.121-.122.182-.182 5.053-4.991 13.267-4.817 18.375.118 30.142 29.124 59.775 58.757 88.898 88.898 4.935 5.108 5.11 13.322.118 18.375-.06.061-.121.122-.182.182-5.053 4.992-13.267 4.817-18.375-.118z" fill="#c88b7c"/><path d="m285.462 215.382c-5.368-2.704-12.073-1.975-16.539 2.431-.061.061-.132.132-.192.192-4.406 4.466-5.135 11.171-2.431 16.539-11.546-11.627-23.011-23.335-34.405-35.124-4.932-5.105-5.105-13.318-.111-18.372l.182-.182c5.054-4.993 13.268-4.821 18.372.112 11.789 11.393 23.497 22.858 35.124 34.404z" fill="#b4634b"/></g><path d="m503.672 47.818-5.381-41.274c-.37-2.839-2.321-5.221-5.032-6.143s-5.709-.224-7.734 1.801l-83.279 83.268c-3.651-3.024-7.391-5.948-11.221-8.764-2.811-2.068-6.676-1.927-9.329.336-8.807 7.511-17.475 15.349-25.871 23.342-12.788-11.078-26.02-21.671-39.7-31.727-2.812-2.066-6.674-1.927-9.328.337-8.484 7.234-17.1 14.74-25.609 22.307-3.102 2.759-3.38 7.508-.622 10.61s7.508 3.381 10.61.622c6.917-6.151 13.904-12.261 20.831-18.213 47.02 35.263 88.677 76.919 123.94 123.939-22.653 26.349-46.231 52.063-70.574 77.018l-130.393-130.394c11.213-10.94 22.561-21.716 34.032-32.289 3.052-2.813 3.245-7.568.432-10.619-2.813-3.053-7.568-3.245-10.619-.433-38.982 35.933-76.624 74.113-111.99 113.569-3.912-3.808-7.822-7.627-11.735-11.419-11.442-11.106-29.876-11.145-41.13-.052l-.336.336c-11.063 11.211-11.025 29.646.084 41.092 19.764 20.39 39.772 40.791 59.897 61.1-22.172 22.29-44.255 44.845-65.806 67.214-9.866-9.68-19.767-19.294-29.69-28.809-11.519-11.035-29.985-10.993-41.212.138l-.309.301c-11.081 11.188-11.114 29.653-.075 41.163 7.282 7.596 14.399 14.95 21.153 21.857 2.902 2.968 7.66 3.021 10.628.12 2.968-2.902 3.021-7.66.12-10.628-6.72-6.873-13.802-14.191-21.052-21.753-5.448-5.68-5.49-14.734-.092-20.182l.261-.253c5.441-5.397 14.495-5.357 20.179.088 36.288 34.795 72.33 70.837 107.123 107.122 5.447 5.686 5.487 14.74.091 20.182-.074.075-.117.12-.189.198l-.064.065c-5.448 5.396-14.5 5.354-20.182-.095-21.983-21.081-43.867-42.609-65.046-63.985-2.921-2.948-7.68-2.971-10.628-.049-2.948 2.921-2.97 7.679-.049 10.628 21.268 21.466 43.245 43.085 65.319 64.254 5.738 5.503 13.204 8.255 20.639 8.255 7.479 0 14.927-2.785 20.55-8.354.139-.139.277-.279.416-.427 10.992-11.187 11.001-29.582-.004-41.072-9.514-9.922-19.127-19.822-28.807-29.687 22.366-21.548 44.921-43.631 67.214-65.807 7.781 7.709 15.564 15.401 23.347 23.047l21.463 21.013c.002.002.005.005.008.008 5.418 5.287 10.845 10.564 16.278 15.826 5.736 5.567 13.226 8.355 20.687 8.355 7.43 0 14.832-2.765 20.443-8.303l.336-.336c11.064-11.211 11.025-29.646-.083-41.092-3.796-3.916-7.618-7.83-11.429-11.745 55.328-49.593 107.83-103.367 156.123-159.955 2.265-2.654 2.405-6.518.339-9.329-10.056-13.68-20.649-26.912-31.727-39.7 7.994-8.397 15.832-17.065 23.342-25.87 2.264-2.655 2.403-6.519.336-9.329-2.422-3.293-4.929-6.513-7.504-9.674l65.475-65.465c1.646-1.649 2.437-3.972 2.135-6.285zm-169.502 235.264-.107.107c-2.107 2.081-5.655 2.002-7.91-.177-30.003-28.989-59.912-58.898-88.897-88.897-2.178-2.254-2.257-5.802-.187-7.897l.128-.128c1.022-1.009 2.383-1.51 3.77-1.51 1.471 0 2.971.564 4.132 1.681l88.91 88.91c2.172 2.253 2.25 5.796.161 7.911zm-127.198 1.207c16.491-16.246 33.23-32.532 49.938-48.586 9.167 9.265 18.394 18.491 27.659 27.659-16.12 16.77-32.406 33.507-48.589 49.934-9.643-9.694-19.314-19.364-29.008-29.007zm17.292-118.865 6.732 6.732c-1.56.864-3.031 1.928-4.35 3.23l-.258.257c-7.771 7.868-7.743 20.839.061 28.916 6.591 6.821 13.234 13.636 19.911 20.438-16.747 16.091-33.523 32.414-50.05 48.697-12.873-12.757-25.775-25.462-38.695-38.087 21.44-23.94 43.725-47.41 66.649-70.183zm-97.923 256.325c-9.221-9.321-18.5-18.6-27.821-27.821 21.509-22.326 43.551-44.841 65.683-67.091 9.723 9.774 19.466 19.526 29.225 29.233-22.252 22.133-44.765 44.174-67.087 65.679zm169.659-6.078-.266.266c-5.438 5.366-14.442 5.288-20.074-.18-5.424-5.253-10.837-10.516-16.241-15.79l-21.447-20.997c-44.821-44.033-89.724-89.239-133.465-134.366-5.462-5.629-5.541-14.632-.209-20.034l.263-.263c5.442-5.365 14.447-5.288 20.076.175 57.671 55.897 115.254 113.481 171.155 171.155 5.461 5.629 5.54 14.632.208 20.034zm-11.344-53.021c-12.624-12.919-25.328-25.819-38.082-38.69 16.22-16.463 32.544-33.238 48.701-50.046 6.801 6.675 13.614 13.317 20.434 19.907 4.049 3.912 9.326 5.87 14.577 5.87 5.224 0 10.422-1.939 14.35-5.82l.236-.237c1.307-1.323 2.373-2.798 3.239-4.362l6.718 6.718c-22.78 22.938-46.207 45.195-70.173 66.66zm125.221-209.474c-13.574-14.937-27.848-29.211-42.784-42.784 6.454-6.119 13.074-12.138 19.79-17.98 15.332 11.895 29.078 25.641 40.974 40.974-5.842 6.715-11.86 13.336-17.98 19.79zm16.314-44.996c-4.06-4.403-8.28-8.653-12.65-12.748l71.818-71.811 2.929 22.47z"/></g></g></svg>