<svg id="Capa_1" enable-background="new 0 0 511.983 511.983" height="512" viewBox="0 0 511.983 511.983" width="512" xmlns="http://www.w3.org/2000/svg"><g><g><path d="m271.086 504.483h-30.188c-11.223 0-20.321-9.098-20.321-20.321v-63.847h70.831v63.847c-.001 11.223-9.099 20.321-20.322 20.321z" fill="#f5f0f0"/><path d="m257.723 443.259c-1.154.002-2.309.002-3.463 0-98.441-.129-178.826-79.211-180.595-177.636-.984-54.729.039-109.458 3.068-164.186 2.688-48.563 41.083-87.613 89.609-90.909 59.767-4.059 119.533-4.059 179.3 0 48.526 3.296 86.921 42.346 89.609 90.909 3.029 54.729 4.052 109.458 3.068 164.186-1.77 98.425-82.155 177.507-180.596 177.636z" fill="#a2c6fe"/><path d="m238.563 442.563c-91.15-7.98-163.23-83.8-164.9-176.94-.98-54.73.04-109.46 3.07-164.19 2.69-48.56 41.09-87.61 89.61-90.91 1.29-.09 2.59-.17 3.88-.26-37.36 12.68-64.53 47.09-66.8 88.14-3.1 56.07-4.15 112.14-3.14 168.21 1.52 84.7 59.87 155.42 138.28 175.95z" fill="#7898d5"/><path d="m332.041 292.183c28.058 0 43.727 32.848 25.652 54.308-2.666 3.166-5.495 6.224-8.482 9.162-24.61 24.21-57.12 37.56-91.55 37.61h-3.34c-34.43-.05-66.94-13.4-91.55-37.61-2.798-2.752-5.457-5.609-7.974-8.562-18.438-21.631-3.267-54.908 25.156-54.908z" fill="#f5f0f0"/><path d="m169.73 60.413c28.621-1.944 57.644-2.93 86.262-2.93s57.641.986 86.262 2.93c23.262 1.58 41.779 20.404 43.074 43.787 2.012 36.357 3.106 73.056 3.299 109.628.12 22.645-16.704 42.172-39.232 44.481-.559.057-1.121.105-1.686.144-30.431 2.067-61.289 3.115-91.717 3.115s-61.286-1.048-91.717-3.115c-.565-.038-1.126-.086-1.686-.144-22.528-2.308-39.351-21.835-39.232-44.481.193-36.572 1.287-73.272 3.3-109.628 1.293-23.383 19.811-42.208 43.073-43.787z" fill="#edf9f9"/><path d="m123.357 213.833c-.12 22.64 16.7 42.17 39.23 44.48.56.05 1.12.1 1.69.14 1.31.09 2.62.18 3.93.25-17.19-6.73-28.99-23.82-28.89-43.11.2-37.76 1.33-75.65 3.41-113.19 1.07-19.35 13.56-35.68 30.85-42.24-1.28.08-2.57.16-3.85.25-23.26 1.58-41.78 20.4-43.07 43.79-2.01 36.35-3.11 73.05-3.3 109.63z" fill="#dcf1f4"/><g><path d="m336.842 435.281c0 .962.017 1.921.05 2.875 1.444 41.862 64.633 41.862 66.077 0 .033-.954.05-1.913.05-2.875 0-26.947-13.01-50.851-33.088-65.786-20.079 14.935-33.089 38.839-33.089 65.786z" fill="#dd636e"/><path d="m369.932 469.555c-16.156 0-32.317-10.465-33.04-31.4-.031-.955-.05-1.91-.05-2.871 0-26.947 13.009-50.854 33.09-65.791-7.142 14.937-11.765 38.844-11.765 65.791 0 .961.006 1.916.013 2.871.257 20.935 6.004 31.4 11.752 31.4z" fill="#da4a54"/></g></g><g><path d="m442.735 101.02c-2.887-52.31-44.411-94.432-96.591-97.98-59.82-4.054-120.486-4.054-180.316 0-52.173 3.548-93.693 45.67-96.58 97.979-3.031 54.743-4.067 110.169-3.081 164.739.892 49.582 20.88 96.068 56.283 130.894 25.399 24.986 56.667 41.934 90.621 49.544v37.967c0 15.34 12.484 27.82 27.83 27.82h30.18c15.346 0 27.83-12.48 27.83-27.82v-37.968c10.382-2.335 20.545-5.566 30.451-9.682.009.631.013 1.26.033 1.897.679 19.707 13.575 34.615 32.853 37.982 2.67.466 5.318.693 7.921.692 16.643-.001 31.376-9.259 37.356-24.219 1.537-3.846-.334-8.21-4.181-9.748-3.849-1.538-8.21.334-9.748 4.181-3.48 8.708-13.964 16.903-28.768 14.317-4.631-.809-19.793-4.91-20.441-23.699-.027-.872-.046-1.753-.046-2.635 0-21.844 9.257-42.015 25.587-56.174 12.721 11.053 21.296 25.984 24.356 42.603.75 4.073 4.659 6.767 8.734 6.018 4.074-.75 6.768-4.661 6.018-8.734-2.011-10.919-6.01-21.224-11.708-30.498 30.482-33.763 47.658-77.106 48.486-122.738.989-54.57-.048-109.997-3.079-164.738zm-158.824 383.143c0 7.069-5.755 12.82-12.83 12.82h-30.18c-7.074 0-12.83-5.751-12.83-12.82v-35.25c8.608 1.207 17.351 1.838 26.185 1.849h3.478c8.843-.009 17.575-.627 26.177-1.831zm146.907-218.676c-.744 40.985-15.811 79.968-42.612 110.704-4.112-4.659-8.715-8.934-13.799-12.716-2.657-1.977-6.296-1.977-8.954 0-18.333 13.64-30.674 33.866-34.69 56.028-22.94 10.757-47.492 16.233-73.038 16.26h-3.46c-45.632-.06-88.709-17.748-121.296-49.804-32.586-32.055-50.984-74.839-51.805-120.471-.98-54.206.049-109.262 3.061-163.641 2.47-44.762 37.989-80.805 82.618-83.84 59.156-4.008 119.141-4.008 178.284 0 44.637 3.035 80.16 39.079 82.63 83.842 3.012 54.377 4.041 109.433 3.061 163.638z"/><path d="m332.041 284.683h-152.087c-16.051 0-30.194 9.039-36.91 23.589-6.758 14.642-4.442 31.38 6.046 43.684 2.652 3.112 5.486 6.154 8.422 9.043 26.012 25.589 60.389 39.71 96.81 39.764h3.351c36.41-.053 70.787-14.175 96.799-39.764 3.133-3.082 6.147-6.337 8.959-9.677 10.186-12.093 12.348-28.559 5.644-42.97-6.793-14.599-20.983-23.669-37.034-23.669zm-171.536 57.543c-6.647-7.799-8.12-18.4-3.842-27.667 4.299-9.315 13.006-14.876 23.291-14.876h68.627v85.937c-30.313-1.436-58.73-13.849-80.55-35.313-2.624-2.582-5.156-5.301-7.526-8.081zm191.452-.566c-2.512 2.983-5.206 5.892-8.006 8.646-21.779 21.425-50.13 33.833-80.37 35.307v-85.93h68.459c10.15 0 19.129 5.746 23.432 14.996 4.28 9.2 2.966 19.286-3.515 26.981z"/><path d="m342.759 52.93c-28.853-1.956-58.045-2.947-86.767-2.947-17.661 0-35.608.375-53.343 1.116-4.139.173-7.354 3.668-7.181 7.807s3.666 7.353 7.807 7.181c17.527-.732 35.264-1.104 52.717-1.104 28.385 0 57.236.98 85.751 2.913 19.493 1.324 35.008 17.11 36.09 36.723 1.992 35.839 3.098 72.597 3.288 109.253.1 18.858-14.173 35.101-32.471 36.977-.492.044-.983.088-1.447.121-30.169 2.052-60.857 3.093-91.211 3.093s-61.042-1.041-91.185-3.091c-.476-.034-.951-.076-1.497-.125-18.299-1.901-32.548-18.133-32.448-36.975.19-36.593 1.293-73.352 3.278-109.253 1.09-19.612 16.609-35.4 36.095-36.723 1.169-.079 2.337-.157 3.506-.226 4.135-.243 7.291-3.792 7.048-7.927-.242-4.134-3.783-7.285-7.927-7.048-1.211.071-2.422.153-3.639.234-27.03 1.836-48.551 23.699-50.061 50.859-1.999 36.152-3.11 73.163-3.301 110.004-.068 12.834 4.541 25.209 12.979 34.845 8.533 9.744 20.248 15.83 32.986 17.136.034.003.144.013.177.017.578.051 1.155.102 1.759.146 30.506 2.075 61.537 3.127 92.229 3.127s61.723-1.052 92.255-3.129c.577-.042 1.155-.092 1.809-.15.033-.003.067-.006.101-.01 12.739-1.306 24.454-7.392 32.986-17.136 8.438-9.636 13.046-22.01 12.979-34.844-.192-36.906-1.306-73.917-3.311-110.004-1.498-27.158-23.015-49.024-50.051-50.86z"/><path d="m171.47 101.262c-4.142 0-7.5 3.358-7.5 7.5v37.151c0 4.142 3.358 7.5 7.5 7.5s7.5-3.358 7.5-7.5v-37.151c0-4.142-3.358-7.5-7.5-7.5z"/><path d="m219.506 86.743h-37.151c-4.142 0-7.5 3.358-7.5 7.5s3.358 7.5 7.5 7.5h37.151c4.142 0 7.5-3.358 7.5-7.5s-3.358-7.5-7.5-7.5z"/><path d="m239.726 210.94v-37.151c0-4.142-3.358-7.5-7.5-7.5s-7.5 3.358-7.5 7.5v37.151c0 4.142 3.358 7.5 7.5 7.5s7.5-3.358 7.5-7.5z"/><path d="m174.855 159.27c0 4.142 3.358 7.5 7.5 7.5h37.151c4.142 0 7.5-3.358 7.5-7.5s-3.358-7.5-7.5-7.5h-37.151c-4.142 0-7.5 3.358-7.5 7.5z"/><path d="m182.355 231.798h37.151c4.142 0 7.5-3.358 7.5-7.5s-3.358-7.5-7.5-7.5h-37.151c-4.142 0-7.5 3.358-7.5 7.5s3.358 7.5 7.5 7.5z"/><path d="m269.718 108.762v37.151c0 4.142 3.358 7.5 7.5 7.5s7.5-3.358 7.5-7.5v-37.151c0-4.142-3.358-7.5-7.5-7.5s-7.5 3.358-7.5 7.5z"/><path d="m325.254 86.743h-37.151c-4.142 0-7.5 3.358-7.5 7.5s3.358 7.5 7.5 7.5h37.151c4.142 0 7.5-3.358 7.5-7.5s-3.358-7.5-7.5-7.5z"/><path d="m345.474 210.94v-37.151c0-4.142-3.358-7.5-7.5-7.5s-7.5 3.358-7.5 7.5v37.151c0 4.142 3.358 7.5 7.5 7.5s7.5-3.358 7.5-7.5z"/><path d="m288.103 166.77h37.151c4.142 0 7.5-3.358 7.5-7.5s-3.358-7.5-7.5-7.5h-37.151c-4.142 0-7.5 3.358-7.5 7.5s3.358 7.5 7.5 7.5z"/><path d="m288.103 231.798h37.151c4.142 0 7.5-3.358 7.5-7.5s-3.358-7.5-7.5-7.5h-37.151c-4.142 0-7.5 3.358-7.5 7.5s3.358 7.5 7.5 7.5z"/><path d="m261.452 231.798c4.142 0 7.5-3.358 7.5-7.5s-3.358-7.5-7.5-7.5h-.5c-4.142 0-7.5 3.358-7.5 7.5s3.358 7.5 7.5 7.5z"/><path d="m294.481 313.238c-2.929-2.929-7.678-2.929-10.606 0-2.929 2.929-2.929 7.678 0 10.606l14.317 14.317-14.317 14.317c-2.929 2.929-2.929 7.678 0 10.606 1.464 1.464 3.384 2.197 5.303 2.197s3.839-.732 5.303-2.197l19.621-19.621c2.929-2.929 2.929-7.678 0-10.606z"/><path d="m213.964 338.162 14.317-14.317c2.929-2.929 2.929-7.678 0-10.606-2.929-2.929-7.678-2.929-10.606 0l-19.621 19.621c-2.929 2.929-2.929 7.678 0 10.606l19.621 19.621c1.464 1.464 3.384 2.197 5.303 2.197s3.839-.732 5.303-2.197c2.929-2.929 2.929-7.678 0-10.606z"/></g></g></svg>