<svg id="Capa_1" enable-background="new 0 0 511.972 511.972" height="512" viewBox="0 0 511.972 511.972" width="512" xmlns="http://www.w3.org/2000/svg"><g><g><path d="m109.94 78.559h225.884v92.105h-225.884z" fill="#a2d162"/><path d="m342.121 134.613c-79.493-7.107-158.986-7.107-238.479 0-24.596 2.199-44.094 21.763-45.974 46.386-6.917 90.588-6.917 181.176 0 271.763 1.88 24.623 21.378 44.187 45.974 46.386 79.493 7.107 158.986 7.107 238.479 0 24.596-2.199 44.094-21.763 45.974-46.386 6.917-90.588 6.917-181.176 0-271.764-1.88-24.622-21.378-44.186-45.974-46.385z" fill="#c0df8f"/><path d="m126.107 500.972c-7.49-.55-14.98-1.15-22.47-1.82-24.6-2.2-44.09-21.76-45.97-46.39-6.92-90.58-6.92-181.17 0-271.76 1.88-24.62 21.37-44.19 45.97-46.39 7.49-.67 14.99-1.28 22.48-1.82-10.63 9.14-17.68 22.29-18.82 37.13-7.48 97.97-7.48 195.95 0 293.93 1.14 14.84 8.19 27.98 18.81 37.12z" fill="#a2d162"/><path d="m334.022 408.29c-1.264 16.558-14.381 29.725-30.929 31.2-53.478 4.777-106.946 4.777-160.423 0-4.677-.421-9.072-1.766-12.996-3.854-10.015-5.319-17.03-15.464-17.933-27.346-4.646-60.944-4.646-121.878 0-182.812.903-11.892 7.918-22.027 17.933-27.346 3.924-2.097 8.319-3.442 12.996-3.864 53.478-4.777 106.946-4.777 160.423 0 16.548 1.485 29.664 14.641 30.929 31.21 4.646 60.934 4.646 121.868 0 182.812z" fill="#f5f0f0"/><path d="m121.973 12.091c-20.487 1.873-36.698 18.184-38.25 38.697-.512 6.77-.977 13.54-1.398 20.309-1.015 16.334 11.921 30.153 28.286 30.153h224.54c16.365 0 29.301-13.82 28.286-30.153-.421-6.77-.886-13.54-1.398-20.31-1.552-20.514-17.763-36.824-38.25-38.697-67.272-6.149-134.544-6.149-201.816.001z" fill="#f5f0f0"/><path d="m167.455 101.252h-56.84c-16.367 0-29.303-13.819-28.289-30.156.422-6.764.893-13.538 1.405-20.311 1.545-20.512 17.762-36.819 38.244-38.696 17.441-1.596 34.873-2.77 52.314-3.542-13.257 7.356-22.559 21.606-23.743 38.355-.542 7.617-1.024 15.223-1.475 22.84-.814 14.058 6.963 26.472 18.384 31.51z" fill="#e8ded8"/><g><path d="m370.802 410.271-19.458 46.603 19.458 47.598c14.571 0 29.153-.211 43.724-.655 24.882-.761 44.918-21.101 44.965-45.994v-.889c-.047-24.905-20.083-45.234-44.965-45.994-14.571-.446-29.153-.669-43.724-.669z" fill="#f5f0f0"/><path d="m282.116 456.92v.901c.059 24.893 20.083 45.234 44.964 45.983 14.571.445 29.153.667 43.724.667v-94.201c-14.571 0-29.153.222-43.724.667-24.881.749-44.905 21.089-44.964 45.983z" fill="#ffd064"/><path d="m370.802 504.475c14.574 0 29.147-.222 43.724-.667 24.882-.749 44.918-21.09 44.965-45.983v-.316c-.047 7.759-20.083 14.103-44.965 14.337-14.576.135-35 .202-49.573.202" fill="#e8ded8"/><path d="m282.118 457.512v.316c.059 24.893 20.083 45.234 44.964 45.983 14.571.445 29.153.667 43.724.667v-32.43c-14.571 0-29.153-.059-43.724-.199-24.881-.234-44.905-6.577-44.964-14.337z" fill="#ebb044"/></g><g><ellipse cx="217.447" cy="317.302" fill="#c0df8f" rx="37.347" ry="75.557" transform="matrix(.707 -.707 .707 .707 -160.678 246.694)"/></g></g><g><path d="m451.663 419.631c-9.813-10.015-22.928-15.765-36.925-16.19-5.339-.162-10.694-.284-16.056-.387 3.067-63.623 2.731-128.005-1.022-191.499-.245-4.134-3.785-7.297-7.93-7.044-4.135.244-7.289 3.794-7.045 7.93 3.733 63.129 4.057 127.144.99 190.398-13.93-.123-27.883-.043-41.78.233 4.234-59.159 4.105-119.067-.415-178.164-1.541-20.253-17.412-36.281-37.741-38.111-53.658-4.798-108.077-4.798-161.75 0-20.313 1.829-36.184 17.854-37.736 38.108-4.667 61.026-4.667 122.917 0 183.956 1.555 20.271 17.429 36.292 37.736 38.096 2.698.243 5.406.475 8.104.688.2.016.399.023.596.023 3.875 0 7.16-2.983 7.469-6.913.325-4.129-2.76-7.74-6.889-8.065-2.642-.208-5.294-.435-7.944-.674-12.982-1.153-23.124-11.374-24.116-24.301-4.609-60.277-4.609-121.399 0-181.665.99-12.919 11.136-23.144 24.12-24.313 52.781-4.719 106.301-4.719 159.07 0 12.995 1.17 23.142 11.394 24.124 24.312 4.5 58.836 4.594 118.484.306 177.392-13.993.428-27.103 6.177-36.914 16.189-4.112 4.196-7.442 8.954-9.944 14.086-32.92 2.109-66.208 2.416-99.027.869-4.132-.206-7.65 3.001-7.845 7.139s3.001 7.65 7.139 7.845c14.1.664 28.28.996 42.487.996 17.499 0 35.031-.511 52.473-1.517-.389 2.588-.591 5.219-.597 7.879v.909c.029 13.993 5.468 27.233 15.314 37.281.048.049.098.094.146.143-61.71 3.117-124.09 1.926-185.772-3.582-21.087-1.886-37.557-18.49-39.16-39.48-6.849-89.788-6.849-180.841 0-270.629 1.603-20.987 18.073-37.596 39.159-39.491 78.685-7.028 158.471-7.026 237.142 0 21.087 1.895 37.562 18.504 39.172 39.468l.091 1.208c.313 4.13 3.917 7.231 8.045 6.913 4.13-.313 7.225-3.915 6.912-8.044l-.091-1.198c-2.161-28.141-24.093-50.435-52.246-53.225v-19.385c6.808-1.574 12.997-5.11 17.924-10.352 6.759-7.191 10.283-16.97 9.671-26.83-.427-6.868-.899-13.735-1.405-20.411-1.831-24.203-20.774-43.381-45.045-45.6-67.41-6.163-135.771-6.163-203.182 0-24.27 2.219-43.214 21.396-45.046 45.6-.506 6.689-.979 13.556-1.405 20.411-.613 9.859 2.912 19.638 9.67 26.829 4.927 5.243 11.117 8.778 17.924 10.352v19.384c-28.162 2.784-50.098 25.083-52.247 53.23-6.907 90.545-6.907 182.366 0 272.912 2.164 28.33 24.361 50.736 52.781 53.279 39.858 3.559 80.002 5.34 120.078 5.34 29.968 0 59.897-1.001 89.632-2.996 4.552 1.391 9.308 2.197 14.176 2.345 14.581.443 29.265.664 43.948.664s29.367-.221 43.948-.664c13.998-.425 27.111-6.175 36.925-16.19 9.847-10.048 15.285-23.288 15.314-37.272v-.933c-.026-13.993-5.464-27.234-15.311-37.282zm-334.242-293.703v-17.177h210.893v17.177c-70.038-5.489-140.842-5.49-210.893 0zm-27.624-54.365c.422-6.787.89-13.586 1.391-20.209 1.277-16.874 14.505-30.245 31.454-31.794 66.505-6.08 133.945-6.08 200.451 0 16.948 1.55 30.177 14.921 31.453 31.794.5 6.609.969 13.409 1.392 20.208.362 5.829-1.638 11.378-5.63 15.627-3.977 4.231-9.364 6.562-15.171 6.562h-224.54c-5.806 0-11.194-2.33-15.17-6.562-3.992-4.248-5.991-9.797-5.63-15.626zm199.806 386.258v-.877c.043-20.604 16.952-37.879 37.694-38.509 11.947-.363 23.964-.567 35.992-.629v79.139c-12.029-.063-24.046-.266-35.992-.629-20.742-.632-37.651-17.907-37.694-38.495zm162.375-.016c-.043 20.604-16.952 37.879-37.694 38.509-11.947.363-23.965.567-35.994.629v-79.139c12.029.062 24.047.266 35.994.629 20.742.63 37.651 17.905 37.694 38.518z"/><path d="m222.868 86.059c4.142 0 7.5-3.358 7.5-7.5v-46.988c0-4.142-3.358-7.5-7.5-7.5s-7.5 3.358-7.5 7.5v46.988c0 4.142 3.358 7.5 7.5 7.5z"/><path d="m305.983 86.059c4.143 0 7.5-3.358 7.5-7.5v-46.988c0-4.142-3.357-7.5-7.5-7.5s-7.5 3.358-7.5 7.5v46.988c0 4.142 3.358 7.5 7.5 7.5z"/><path d="m266.935 86.059c4.143 0 7.5-3.358 7.5-7.5v-46.988c0-4.142-3.357-7.5-7.5-7.5s-7.5 3.358-7.5 7.5v46.988c0 4.142 3.357 7.5 7.5 7.5z"/><path d="m337.019 86.059c4.143 0 7.5-3.358 7.5-7.5v-31.935c0-4.142-3.357-7.5-7.5-7.5s-7.5 3.358-7.5 7.5v31.935c0 4.142 3.357 7.5 7.5 7.5z"/><path d="m139.752 86.059c4.142 0 7.5-3.358 7.5-7.5v-46.988c0-4.142-3.358-7.5-7.5-7.5s-7.5 3.358-7.5 7.5v46.988c0 4.142 3.358 7.5 7.5 7.5z"/><path d="m178.802 86.059c4.142 0 7.5-3.358 7.5-7.5v-46.988c0-4.142-3.358-7.5-7.5-7.5s-7.5 3.358-7.5 7.5v46.988c0 4.142 3.358 7.5 7.5 7.5z"/><path d="m116.217 78.559v-31.935c0-4.142-3.358-7.5-7.5-7.5s-7.5 3.358-7.5 7.5v31.935c0 4.142 3.358 7.5 7.5 7.5s7.5-3.358 7.5-7.5z"/><path d="m163.02 256.44c-3.359.446-6.002 3.088-6.448 6.448-4.243 31.966 6.381 63.357 29.15 86.125 19.476 19.476 45.261 30.066 72.318 30.066 3.34 0 6.702-.166 10.073-.492l9.145 9.145c1.465 1.465 3.384 2.197 5.304 2.197 1.919 0 3.839-.732 5.304-2.197 2.929-2.929 2.929-7.678 0-10.606l-9.149-9.149c2.968-30.664-7.69-60.508-29.571-82.387-22.769-22.768-54.161-33.394-86.126-29.15zm42.019 37.861c-2.929-2.929-7.678-2.929-10.606 0-2.929 2.929-2.929 7.678 0 10.606l59.041 59.042c-21.406-1.121-41.626-10.023-57.145-25.542-18.045-18.046-27.156-42.439-25.472-67.682 25.243-1.688 49.637 7.426 67.682 25.472 15.519 15.519 24.423 35.734 25.542 57.146z"/><path d="m280.919 213.262c-4.143 0-7.5 3.358-7.5 7.5v13.023h-13.023c-4.142 0-7.5 3.358-7.5 7.5s3.358 7.5 7.5 7.5h13.023v13.023c0 4.142 3.357 7.5 7.5 7.5s7.5-3.358 7.5-7.5v-13.023h13.023c4.143 0 7.5-3.358 7.5-7.5s-3.357-7.5-7.5-7.5h-13.023v-13.023c0-4.142-3.357-7.5-7.5-7.5z"/></g></g></svg>