<svg id="Capa_1" enable-background="new 0 0 512 512" height="512" viewBox="0 0 512 512" width="512" xmlns="http://www.w3.org/2000/svg"><g><g><path d="m113.106 233.412c-20.249 21.933-26.289 52.215-18.132 79.258 5.339 17.7.869 36.895-12.078 50.093-20.913 21.319-41.726 42.739-62.428 64.269-17.15 17.836-17.306 46.236.101 63.821.211.213.422.425.635.635 17.584 17.408 45.985 17.252 63.821.101 21.53-20.702 42.95-41.515 64.269-62.428 13.198-12.946 32.393-17.416 50.093-12.078 27.043 8.157 57.325 2.117 79.258-18.132 70.8-65.364 138.881-133.445 204.245-204.245 28.334-30.69 28.872-77.736 1.594-109.369-17.831-20.679-37.086-39.934-57.765-57.765-31.633-27.277-78.679-26.739-109.369 1.595-70.799 65.363-138.881 133.445-204.244 204.245z" fill="#edf9f9"/><path d="m20.735 491.015-.166-.166c-17.403-17.579-17.254-45.979-.105-63.812 20.707-21.531 41.519-42.956 62.436-64.276 12.934-13.197 17.412-32.397 12.075-50.089-8.158-27.051-2.121-57.327 18.13-79.261 65.363-70.796 133.442-138.875 204.247-204.247 30.688-28.339 77.736-28.874 109.362-1.595 10.349 8.912 20.33 18.192 29.952 27.814-4.741-4.741-9.841-9.14-15.309-13.171-16.693-12.347-51.964-.017-82.047 28.909-69.429 66.747-137.508 134.827-204.247 204.247-20.681 21.504-32.861 45.637-33.623 63.768-.5 11.856-8.711 27.323-21.715 40.45-21.014 21.224-41.983 42.492-62.901 63.812-17.325 17.656-24.633 38.898-16.089 47.617z" fill="#dcf1f4"/><path d="m131.068 401.97 291.557-291.557c5.776-5.776 6.212-15.25.543-21.131-5.776-5.991-15.317-6.058-21.176-.199l-291.905 291.906c-10.465 10.465-27.433 10.465-37.898 0l-3.599-3.599c-16.106 16.492-32.143 33.037-48.126 49.651-17.149 17.833-17.307 46.225.105 63.812l.64.64c17.579 17.403 45.979 17.254 63.821.096 16.606-15.975 33.15-32.011 49.651-48.109l-3.612-3.612c-10.466-10.465-10.466-27.433-.001-37.898z" fill="#dd636e"/><path d="m36.823 443.397c17.889-18.234 35.824-36.422 53.784-54.584-6.68-.132-13.321-2.726-18.419-7.824l-3.599-3.599c-16.106 16.492-32.143 33.037-48.126 49.651-17.123 17.807-17.303 46.141.032 63.734.024.024.049.05.073.074l.166.166c-8.543-8.719-1.234-29.961 16.089-47.618z" fill="#da4a54"/><g fill="#f5f0f0"><g><path d="m317.839 429.995 2.345-.651c8.271-2.296 16.908 2.205 19.764 10.299l8.787 24.899c3.147 8.918-1.917 18.637-11.03 21.166l-5.827 1.618c-9.113 2.53-18.462-3.188-20.362-12.453l-5.304-25.865c-1.725-8.408 3.356-16.717 11.627-19.013z"/><path d="m387.846 389.467 1.706-1.736c6.015-6.124 15.745-6.545 22.266-.963l20.059 17.17c7.185 6.15 7.658 17.099 1.031 23.846l-4.238 4.315c-6.627 6.747-17.583 6.47-23.86-.603l-17.526-19.748c-5.699-6.421-5.453-16.157.562-22.281z"/><path d="m428.21 319.365.609-2.356c2.147-8.311 10.363-13.54 18.802-11.967l25.956 4.84c9.297 1.734 15.181 10.979 12.816 20.136l-1.513 5.855c-2.366 9.157-11.992 14.395-20.965 11.408l-25.052-8.339c-8.146-2.712-12.8-11.266-10.653-19.577z"/></g><g><path d="m194.269 82.01-2.345.651c-8.271 2.296-16.908-2.205-19.764-10.299l-8.787-24.899c-3.147-8.918 1.917-18.637 11.03-21.166l5.827-1.618c9.113-2.53 18.462 3.188 20.362 12.453l5.304 25.865c1.726 8.409-3.355 16.717-11.627 19.013z"/><path d="m124.262 122.538-1.706 1.736c-6.015 6.124-15.745 6.545-22.266.963l-20.059-17.17c-7.185-6.15-7.658-17.099-1.031-23.846l4.238-4.315c6.627-6.747 17.583-6.47 23.86.603l17.526 19.748c5.7 6.422 5.453 16.158-.562 22.281z"/><path d="m83.898 192.641-.609 2.356c-2.147 8.311-10.363 13.54-18.802 11.967l-25.956-4.84c-9.297-1.734-15.181-10.979-12.816-20.136l1.513-5.855c2.366-9.157 11.992-14.395 20.965-11.408l25.052 8.339c8.146 2.711 12.801 11.266 10.653 19.577z"/></g></g></g><g><path d="m14.963 421.815 1.052-1.092c.749-.778 1.499-1.559 2.255-2.334 2.889-2.966 7.638-3.03 10.605-.139 2.967 2.89 3.029 7.639.139 10.606-.732.752-1.461 1.51-2.187 2.266l-1.06 1.1c-14.346 14.914-14.335 38.843-.005 53.315l.617.616c14.5 14.36 38.424 14.374 53.331.034 14.876-14.311 29.732-28.7 44.243-42.851-5.394-6.226-8.338-14.096-8.338-22.418 0-9.161 3.566-17.772 10.041-24.248l291.908-291.907c1.402-1.402 2.165-3.267 2.146-5.251-.018-1.987-.817-3.844-2.245-5.222-2.862-2.753-7.625-2.555-10.625.45l-43.689 43.689c-2.929 2.928-7.677 2.929-10.607 0-2.929-2.929-2.929-7.678 0-10.606l43.685-43.685c8.732-8.748 22.927-9.04 31.645-.648 4.354 4.202 6.782 9.845 6.836 15.889.054 6.041-2.27 11.72-6.54 15.991l-291.907 291.906c-6.967 6.967-7.468 17.973-1.53 25.537 3.069-3.002 6.139-6.002 9.203-9.007 15.029-14.743 37.063-20.07 57.51-13.904 25.187 7.597 52.779 1.289 72.003-16.462 70.321-64.921 138.896-133.496 203.821-203.82 25.681-27.818 26.294-70.543 1.425-99.383-17.508-20.303-36.679-39.475-56.982-56.982-28.839-24.868-71.565-24.257-99.383 1.425-70.322 64.923-138.898 133.498-203.82 203.82-17.751 19.227-24.059 46.818-16.463 72.004 6.166 20.445.839 42.481-13.903 57.511-3.006 3.064-6.006 6.134-9.007 9.202 3.384 2.662 7.525 4.119 11.897 4.119 5.154 0 9.998-2.008 13.642-5.656l226.658-226.658c2.93-2.929 7.678-2.929 10.607 0s2.929 7.678 0 10.606l-226.655 226.655c-6.476 6.482-15.089 10.052-24.252 10.052-8.328 0-16.204-2.948-22.434-8.351-6.338 6.507-12.662 13.021-18.985 19.54-1.471 1.517-3.427 2.278-5.385 2.278-1.881 0-3.764-.704-5.221-2.116-2.974-2.884-3.046-7.632-.162-10.605 8.075-8.325 33.869-34.76 38.588-39.571 10.909-11.12 14.837-27.473 10.251-42.675-9.123-30.249-1.535-63.398 19.803-86.51 65.193-70.615 134.051-139.475 204.666-204.667 33.425-30.858 84.735-31.616 119.353-1.764 20.861 17.988 40.559 37.686 58.546 58.546 29.852 34.619 29.094 85.93-1.763 119.354-65.194 70.616-134.055 139.475-204.666 204.666-23.113 21.338-56.259 28.926-86.511 19.802-15.199-4.585-31.554-.658-42.674 10.251-4.872 4.779-47.64 46.426-64.33 62.483-10.051 9.668-23.259 14.996-37.19 15.003-.01 0-.019 0-.029 0-14.012 0-27.175-5.394-37.09-15.214l-.668-.668c-20.04-20.234-20.119-53.563-.17-74.302z"/><path d="m328.32 57.922 31.471 31.471c2.929 2.929 2.929 7.678 0 10.606-1.465 1.464-3.385 2.197-5.304 2.197s-3.839-.732-5.304-2.197l-31.471-31.471c-2.929-2.929-2.929-7.678 0-10.606 2.93-2.929 7.678-2.929 10.608 0z"/><path d="m238.803 147.438 31.471 31.471c2.929 2.929 2.929 7.678 0 10.606-1.465 1.464-3.385 2.197-5.304 2.197s-3.839-.732-5.304-2.197l-31.471-31.471c-2.929-2.929-2.929-7.678 0-10.606 2.93-2.929 7.678-2.929 10.608 0z"/><path d="m175.454 281.229c-1.919 0-3.839-.732-5.304-2.197l-31.471-31.471c-2.929-2.929-2.929-7.678 0-10.606 2.93-2.929 7.678-2.929 10.607 0l31.471 31.471c2.929 2.929 2.929 7.678 0 10.606-1.464 1.464-3.384 2.197-5.303 2.197z"/><path d="m283.561 102.68 31.471 31.471c2.929 2.929 2.929 7.678 0 10.606-1.465 1.464-3.385 2.197-5.304 2.197s-3.839-.732-5.304-2.197l-31.471-31.471c-2.929-2.929-2.929-7.678 0-10.606 2.931-2.929 7.679-2.929 10.608 0z"/><path d="m194.045 192.196 31.471 31.471c2.929 2.929 2.929 7.678 0 10.606-1.465 1.464-3.385 2.197-5.304 2.197s-3.839-.732-5.304-2.197l-31.471-31.471c-2.929-2.929-2.929-7.678 0-10.606 2.93-2.928 7.678-2.928 10.608 0z"/><path d="m422.556 152.159 31.471 31.471c2.929 2.929 2.929 7.678 0 10.606-1.465 1.464-3.385 2.197-5.304 2.197s-3.839-.732-5.304-2.197l-31.471-31.471c-2.929-2.929-2.929-7.678 0-10.606 2.93-2.929 7.678-2.929 10.608 0z"/><path d="m333.04 241.675 31.471 31.471c2.929 2.929 2.929 7.678 0 10.606-1.465 1.464-3.385 2.197-5.304 2.197s-3.839-.732-5.304-2.197l-31.471-31.471c-2.929-2.929-2.929-7.678 0-10.606 2.931-2.929 7.679-2.929 10.608 0z"/><path d="m269.691 375.466c-1.919 0-3.839-.732-5.304-2.197l-31.471-31.471c-2.929-2.929-2.929-7.678 0-10.606 2.93-2.929 7.678-2.929 10.607 0l31.471 31.471c2.929 2.929 2.929 7.678 0 10.606-1.464 1.464-3.384 2.197-5.303 2.197z"/><path d="m377.797 196.917 31.471 31.471c2.929 2.929 2.929 7.678 0 10.606-1.465 1.464-3.385 2.197-5.304 2.197s-3.839-.732-5.304-2.197l-31.471-31.471c-2.929-2.929-2.929-7.678 0-10.606 2.931-2.929 7.679-2.929 10.608 0z"/><path d="m288.282 286.433 31.471 31.471c2.929 2.929 2.929 7.678 0 10.606-1.465 1.464-3.385 2.197-5.304 2.197s-3.839-.732-5.304-2.197l-31.471-31.471c-2.929-2.929-2.929-7.678 0-10.606 2.93-2.929 7.678-2.929 10.608 0z"/><path d="m74.804 165.036-24.899-8.787c-6.203-2.189-13.106-1.702-18.94 1.339-5.834 3.04-10.189 8.419-11.948 14.758l-1.617 5.828c-1.76 6.337-.801 13.191 2.631 18.804s9.097 9.589 15.541 10.911l25.865 5.304c1.595.327 3.188.484 4.762.484 10.489 0 20.084-6.999 22.985-17.453 0 0 .001-.001.001-.001l.65-2.345c3.335-12.021-3.267-24.69-15.031-28.842zm.576 24.831-.65 2.345c-1.236 4.453-5.75 7.214-10.28 6.286l-25.865-5.304c-2.423-.497-4.468-1.932-5.758-4.042s-1.636-4.583-.975-6.966l1.617-5.829c.661-2.382 2.233-4.324 4.427-5.467 2.193-1.143 4.686-1.319 7.017-.496l24.899 8.787c4.358 1.538 6.804 6.232 5.568 10.686z"/><path d="m129.476 127.857c8.9-8.742 9.516-23.015 1.404-32.493l-17.169-20.058c-4.278-4.998-10.502-8.027-17.073-8.311-6.601-.278-13.034 2.198-17.726 6.807l-4.314 4.238c-4.692 4.609-7.289 11.025-7.123 17.601s3.083 12.852 8.003 17.219l19.748 17.526c4.504 3.997 10.16 5.981 15.808 5.981 6.056 0 12.1-2.28 16.706-6.803zm-10.512-10.701-1.736 1.706c-3.298 3.239-8.589 3.373-12.046.305l-19.748-17.527c-1.85-1.642-2.902-3.907-2.965-6.379-.063-2.473.875-4.789 2.64-6.521l4.314-4.238c1.764-1.732 4.087-2.627 6.566-2.522 2.471.107 4.718 1.2 6.326 3.079l17.168 20.058c3.008 3.512 2.779 8.8-.519 12.039z"/><path d="m214.281 63.063-4.84-25.956c-1.206-6.466-5.08-12.201-10.63-15.733-5.55-3.533-12.387-4.614-18.755-2.969l-5.856 1.514c-6.368 1.645-11.824 5.903-14.969 11.682-3.144 5.778-3.755 12.672-1.678 18.914l8.339 25.051c3.296 9.902 12.616 16.299 22.645 16.299 1.961 0 3.948-.244 5.923-.754l2.356-.609c12.08-3.122 19.751-15.174 17.465-27.439zm-21.216 12.915-2.356.609c-4.477 1.161-9.125-1.374-10.584-5.759l-8.339-25.052c-.781-2.347-.561-4.835.621-7.007 1.183-2.172 3.151-3.709 5.546-4.328l5.856-1.514c.741-.191 1.49-.286 2.233-.286 1.653 0 3.274.47 4.715 1.386 2.086 1.328 3.484 3.398 3.937 5.829l4.84 25.956c.848 4.544-1.994 9.01-6.469 10.166z"/><path d="m437.09 346.968 24.898 8.786c2.561.904 5.241 1.351 7.917 1.351 3.805 0 7.599-.905 11.023-2.69 5.834-3.04 10.189-8.419 11.948-14.758l1.618-5.827c1.76-6.34.8-13.194-2.632-18.805-3.433-5.612-9.097-9.588-15.541-10.91l-25.865-5.304c-12.224-2.507-24.409 4.947-27.746 16.969v-.001l-.651 2.345c-3.336 12.023 3.266 24.692 15.031 28.844zm-.577-24.831.651-2.344v-.001c1.075-3.872 4.63-6.466 8.516-6.466.583 0 1.173.059 1.764.18l25.865 5.304c2.423.497 4.468 1.932 5.758 4.042s1.637 4.584.976 6.967l-1.618 5.827c-.661 2.384-2.233 4.325-4.427 5.468-2.192 1.143-4.685 1.319-7.017.496l-24.898-8.787c-4.36-1.538-6.807-6.232-5.57-10.686z"/><path d="m382.418 384.148c-8.9 8.743-9.517 23.015-1.405 32.493l17.171 20.058c4.276 4.997 10.499 8.027 17.071 8.311.34.015.68.022 1.019.022 6.218 0 12.258-2.457 16.709-6.829l4.314-4.238c4.692-4.609 7.289-11.024 7.123-17.6-.167-6.577-3.084-12.853-8.004-17.22l-19.748-17.526c-9.332-8.281-23.614-7.921-32.513.823zm10.511 10.701 1.736-1.706c1.706-1.675 3.945-2.52 6.188-2.52 2.093 0 4.187.735 5.856 2.216l19.748 17.526c1.85 1.642 2.902 3.907 2.965 6.38.063 2.472-.874 4.788-2.639 6.52l-4.314 4.238c-1.765 1.733-4.117 2.636-6.567 2.522-2.471-.107-4.717-1.2-6.324-3.079l-17.171-20.058c-3.004-3.512-2.776-8.8.522-12.039z"/><path d="m297.612 448.941 4.84 25.956c1.207 6.467 5.082 12.202 10.632 15.734 3.849 2.449 8.316 3.72 12.817 3.72 1.989 0 3.984-.248 5.935-.752l5.856-1.514c6.368-1.645 11.824-5.903 14.969-11.681 3.144-5.778 3.756-12.672 1.678-18.914l-8.339-25.051c-3.939-11.836-16.489-18.664-28.568-15.545l-2.356.609c-12.079 3.122-19.75 15.174-17.464 27.438zm21.215-12.914 2.356-.609c.731-.189 1.468-.28 2.194-.28 3.716 0 7.169 2.37 8.39 6.039l8.339 25.052c.781 2.347.561 4.835-.621 7.008-1.182 2.172-3.151 3.708-5.546 4.327l-5.856 1.514c-2.393.618-4.861.228-6.946-1.1-2.087-1.328-3.486-3.398-3.939-5.83l-4.84-25.955c-.848-4.545 1.995-9.01 6.469-10.166z"/></g></g></svg>