<svg id="Capa_1" enable-background="new 0 0 511.945 511.945" height="512" viewBox="0 0 511.945 511.945" width="512" xmlns="http://www.w3.org/2000/svg"><g><g><path d="m388.672 498.623c-88.467 7.799-176.934 7.799-265.401 0-37.692-3.323-67.386-33.704-69.916-71.458-7.65-114.129-7.65-228.257 0-342.386 2.531-37.754 32.224-68.135 69.916-71.458 88.467-7.799 176.934-7.799 265.401 0 37.692 3.323 67.386 33.704 69.916 71.458 7.65 114.129 7.65 228.257 0 342.386-2.53 37.754-32.224 68.136-69.916 71.458z" fill="#f5f0f0"/><path d="m118.239 498.012c-35.28-5.47-62.46-34.8-64.88-70.85-7.65-114.13-7.65-228.26 0-342.39 2.42-36.05 29.59-65.37 64.86-70.84-24.39 12.32-41.48 36.86-43.4 65.51-7.89 117.68-7.89 235.37 0 353.05 1.92 28.66 19.02 53.2 43.42 65.52z" fill="#e8ded8"/><g><circle cx="171.661" cy="102.555" fill="#dd636e" r="64.846"/><circle cx="171.661" cy="256.126" fill="#dd636e" r="64.846"/><path d="m188.026 318.884c-5.23 1.37-10.71 2.09-16.37 2.09-35.81 0-64.84-29.03-64.84-64.85 0-35.81 29.03-64.84 64.84-64.84 5.66 0 11.14.72 16.37 2.09-27.89 7.25-48.47 32.6-48.47 62.75 0 30.16 20.58 55.51 48.47 62.76z" fill="#da4a54"/><circle cx="171.661" cy="409.39" fill="#dd636e" r="64.846"/><path d="m188.026 472.147c-5.23 1.37-10.71 2.09-16.37 2.09-35.81 0-64.84-29.03-64.84-64.85 0-35.81 29.03-64.84 64.84-64.84 5.66 0 11.14.72 16.37 2.09-27.89 7.25-48.47 32.6-48.47 62.75 0 30.16 20.58 55.51 48.47 62.76z" fill="#da4a54"/><circle cx="340.283" cy="409.39" fill="#dd636e" r="64.846"/><path d="m356.647 472.147c-5.23 1.37-10.71 2.09-16.37 2.09-35.81 0-64.84-29.03-64.84-64.85 0-35.81 29.03-64.84 64.84-64.84 5.66 0 11.14.72 16.37 2.09-27.89 7.25-48.47 32.6-48.47 62.75 0 30.16 20.58 55.51 48.47 62.76z" fill="#da4a54"/><circle cx="340.283" cy="256.126" fill="#dd636e" r="64.846"/><path d="m356.647 318.884c-5.23 1.37-10.71 2.09-16.37 2.09-35.81 0-64.84-29.03-64.84-64.85 0-35.81 29.03-64.84 64.84-64.84 5.66 0 11.14.72 16.37 2.09-27.89 7.25-48.47 32.6-48.47 62.75 0 30.16 20.58 55.51 48.47 62.76z" fill="#da4a54"/><circle cx="340.283" cy="102.555" fill="#dd636e" r="64.846"/><g fill="#da4a54"><path d="m356.647 165.312c-5.23 1.37-10.71 2.09-16.37 2.09-35.81 0-64.84-29.03-64.84-64.85 0-35.81 29.03-64.84 64.84-64.84 5.66 0 11.14.72 16.37 2.09-27.89 7.25-48.47 32.6-48.47 62.75 0 30.16 20.58 55.51 48.47 62.76z"/><path d="m188.026 165.312c-5.23 1.37-10.71 2.09-16.37 2.09-35.81 0-64.84-29.03-64.84-64.85 0-35.81 29.03-64.84 64.84-64.84 5.66 0 11.14.72 16.37 2.09-27.89 7.25-48.47 32.6-48.47 62.75 0 30.16 20.58 55.51 48.47 62.76z"/></g></g></g><g><path d="m466.075 84.281c-1.344-20.048-9.83-39.008-23.897-53.388-14.072-14.386-32.841-23.279-52.848-25.041-88.49-7.802-178.227-7.802-266.717 0-20.007 1.762-38.776 10.656-52.848 25.042-14.066 14.38-22.553 33.341-23.897 53.388-7.636 113.926-7.636 229.457 0 343.383 1.344 20.048 9.831 39.008 23.897 53.388 14.072 14.386 32.841 23.279 52.848 25.041 44.245 3.901 88.802 5.852 133.359 5.852s89.114-1.951 133.359-5.852c39.006-3.439 70.262-32.899 76.01-71.64.608-4.097-2.221-7.911-6.318-8.519-4.098-.61-7.911 2.22-8.52 6.318-4.726 31.852-30.422 56.072-62.49 58.9-87.616 7.725-176.468 7.725-264.083 0-16.443-1.448-31.871-8.76-43.441-20.588-11.569-11.827-18.549-27.418-19.653-43.902-7.592-113.26-7.592-228.116 0-341.377 1.104-16.486 8.083-32.077 19.652-43.904 11.57-11.828 26.998-19.14 43.442-20.588 87.617-7.724 176.468-7.724 264.083 0 16.443 1.448 31.871 8.76 43.441 20.588 11.569 11.827 18.549 27.418 19.653 43.902 7.066 105.421 7.559 212.323 1.466 317.736-.239 4.135 2.919 7.681 7.055 7.92 4.124.241 7.681-2.919 7.92-7.055 6.13-106.033 5.635-213.564-1.473-319.604z"/><path d="m120.114 62.517c-3.537-2.155-8.152-1.034-10.307 2.503-6.866 11.271-10.495 24.249-10.495 37.532 0 39.894 32.456 72.35 72.35 72.35 39.888 0 72.34-32.456 72.34-72.35 0-39.888-32.452-72.34-72.34-72.34-13.667 0-26.973 3.833-38.479 11.085-3.504 2.208-4.555 6.84-2.346 10.344 2.208 3.504 6.838 4.555 10.344 2.346 9.108-5.741 19.648-8.775 30.481-8.775 13.111 0 25.2 4.433 34.87 11.866l-80.351 80.351c-7.434-9.672-11.868-21.763-11.868-34.877 0-10.529 2.872-20.809 8.306-29.728 2.153-3.537 1.033-8.152-2.505-10.307zm51.548 97.385c-13.113 0-25.204-4.434-34.875-11.867l80.351-80.351c7.431 9.669 11.864 21.758 11.864 34.868 0 31.623-25.723 57.35-57.34 57.35z"/><path d="m171.661 183.781c-39.892 0-72.346 32.454-72.346 72.345s32.454 72.345 72.346 72.345c39.891 0 72.345-32.454 72.345-72.345s-32.454-72.345-72.345-72.345zm-57.345 72.345c0-29.077 21.759-53.152 49.846-56.839v113.678c-28.088-3.687-49.846-27.762-49.846-56.839zm64.845 56.84v-113.679c28.087 3.688 49.845 27.762 49.845 56.839s-21.758 53.152-49.845 56.84z"/><path d="m171.661 337.044c-39.892 0-72.346 32.454-72.346 72.345s32.454 72.345 72.346 72.345c39.891 0 72.345-32.454 72.345-72.345s-32.454-72.345-72.345-72.345zm0 15c13.112 0 25.202 4.433 34.873 11.866l-80.352 80.352c-7.433-9.671-11.866-21.761-11.866-34.873 0-31.62 25.725-57.345 57.345-57.345zm0 114.691c-13.112 0-25.202-4.433-34.873-11.866l80.352-80.352c7.433 9.671 11.866 21.761 11.866 34.872.001 31.621-25.725 57.346-57.345 57.346z"/><path d="m340.282 30.209c-39.891 0-72.345 32.454-72.345 72.345s32.454 72.345 72.345 72.345c39.892 0 72.346-32.454 72.346-72.345s-32.454-72.345-72.346-72.345zm57.346 72.346c0 13.112-4.433 25.202-11.866 34.872l-80.352-80.351c9.671-7.433 21.761-11.866 34.872-11.866 31.621-.001 57.346 25.724 57.346 57.345zm-114.691 0c0-13.112 4.433-25.202 11.866-34.873l80.352 80.352c-9.671 7.433-21.761 11.867-34.873 11.867-31.62-.001-57.345-25.726-57.345-57.346z"/><path d="m340.282 183.781c-39.891 0-72.345 32.454-72.345 72.345s32.454 72.345 72.345 72.345c39.892 0 72.346-32.454 72.346-72.345s-32.454-72.345-72.346-72.345zm0 15c13.112 0 25.202 4.433 34.873 11.866l-80.352 80.352c-7.433-9.671-11.866-21.761-11.866-34.873 0-31.62 25.725-57.345 57.345-57.345zm0 114.691c-13.112 0-25.202-4.433-34.872-11.866l80.352-80.352c7.433 9.671 11.866 21.761 11.866 34.873 0 31.62-25.725 57.345-57.346 57.345z"/><path d="m340.282 337.044c-39.891 0-72.345 32.454-72.345 72.345s32.454 72.345 72.345 72.345c39.892 0 72.346-32.454 72.346-72.345s-32.454-72.345-72.346-72.345zm-57.345 72.346c0-13.112 4.433-25.202 11.866-34.872l80.352 80.352c-9.671 7.433-21.761 11.866-34.873 11.866-31.62-.001-57.345-25.726-57.345-57.346zm102.825 34.872-80.352-80.352c9.671-7.433 21.761-11.866 34.873-11.866 31.621 0 57.346 25.725 57.346 57.345-.001 13.113-4.434 25.203-11.867 34.873z"/></g></g></svg>