<svg id="Capa_1" enable-background="new 0 0 511.999 511.999" height="512" viewBox="0 0 511.999 511.999" width="512" xmlns="http://www.w3.org/2000/svg"><g><g><path d="m446.228 274.39c-8.553 0-15.487 6.934-15.487 15.487v80.512c0 56.87-46.267 103.137-103.137 103.137s-103.137-46.267-103.137-103.137v-54.655c27.213-2.395 54.129-10.674 78.191-24.098 25.496-14.225 48.048-34.356 65.219-58.218 25.182-34.997 35.227-63.52 35.642-64.718 1.24-3.573 1.129-7.476-.311-10.973-30.032-72.936-103.227-131.505-106.328-133.963-6.701-5.31-16.434-4.182-21.748 2.515-5.314 6.698-4.191 16.438 2.504 21.755.678.538 66.083 52.97 94.505 115.865-3.804 9.039-12.971 28.588-29.405 51.427-29.906 41.562-75.761 67.042-125.806 69.906-2.772.159-5.446.239-7.949.239-2.504 0-5.178-.08-7.949-.239-50.045-2.865-95.9-28.344-125.807-69.906-16.313-22.671-25.559-42.364-29.398-51.444 28.426-62.89 93.82-115.31 94.491-115.843 6.703-5.313 7.831-15.053 2.519-21.757-5.313-6.704-15.054-7.831-21.756-2.519-3.101 2.458-76.297 61.027-106.329 133.963-1.44 3.497-1.551 7.4-.311 10.973.414 1.197 10.461 29.721 35.642 64.718 17.171 23.862 39.723 43.993 65.219 58.218 24.062 13.424 50.979 21.703 78.192 24.098v54.655c0 73.949 60.162 134.111 134.111 134.111s134.111-60.162 134.111-134.111v-80.512c-.001-8.552-6.935-15.486-15.488-15.486z" fill="#f5f0f0"/><g fill="#e8ded8"><path d="m336.187 473.166c2.831.234 5.693.36 8.583.36 56.869 0 103.137-46.267 103.137-103.137v-80.512c0-5.377 2.743-10.111 6.904-12.888-2.457-1.64-5.408-2.599-8.583-2.599-8.553 0-15.487 6.934-15.487 15.487v80.512c0 53.979-41.686 98.4-94.554 102.777z"/><path d="m210.66 370.389v-54.655c-27.213-2.395-54.13-10.674-78.192-24.098-25.496-14.225-48.048-34.356-65.219-58.218-25.182-34.997-35.228-63.521-35.642-64.718-1.24-3.573-1.129-7.476.311-10.973 30.031-72.936 103.226-131.505 106.328-133.963.339-.268.69-.508 1.043-.744-5.44-3.629-12.81-3.536-18.21.744-3.101 2.458-76.297 61.027-106.329 133.963-1.44 3.497-1.551 7.4-.311 10.973.414 1.197 10.461 29.721 35.642 64.718 17.171 23.862 39.723 43.993 65.219 58.218 24.062 13.424 50.979 21.703 78.192 24.098v54.655c0 73.949 60.162 134.111 134.111 134.111 2.884 0 5.744-.102 8.583-.282-69.962-4.442-125.526-62.764-125.526-133.829z"/><path d="m277.635 48.034c.678.538 66.083 52.97 94.505 115.865-3.804 9.039-12.971 28.588-29.405 51.427-29.78 41.386-75.375 66.818-125.172 69.861.212.013.422.033.634.045 2.771.159 5.446.239 7.949.239 2.504 0 5.177-.08 7.949-.239 50.044-2.865 95.899-28.344 125.806-69.906 16.434-22.838 25.601-42.388 29.405-51.427-28.422-62.895-93.827-115.327-94.505-115.865-6.695-5.318-7.817-15.057-2.504-21.755 1.031-1.3 2.232-2.383 3.542-3.257-6.635-4.428-15.661-3.103-20.708 3.257-5.313 6.698-4.191 16.438 2.504 21.755z"/></g><circle cx="130.698" cy="35.902" fill="#365e7d" r="28.402"/><path d="m142.927 61.54c-3.7 1.77-7.85 2.76-12.23 2.76-15.69 0-28.4-12.71-28.4-28.4 0-15.68 12.71-28.4 28.4-28.4 4.38 0 8.53.99 12.23 2.76-9.57 4.58-16.17 14.34-16.17 25.64 0 11.31 6.6 21.07 16.17 25.64z" fill="#2b4d66"/><circle cx="287.26" cy="35.902" fill="#365e7d" r="28.402"/><path d="m299.489 61.542c-3.7 1.77-7.85 2.76-12.23 2.76-15.69 0-28.4-12.71-28.4-28.4 0-15.68 12.71-28.4 28.4-28.4 4.38 0 8.53.99 12.23 2.76-9.57 4.58-16.17 14.34-16.17 25.64 0 11.31 6.6 21.07 16.17 25.64z" fill="#2b4d66"/><circle cx="446.228" cy="289.877" fill="#ffd064" r="52.187"/><circle cx="446.228" cy="289.877" fill="#ebb044" r="20.6"/><path d="m285.036 313.224v.041c-.01 2.323-1.476 4.409-3.644 5.224-11.956 4.471-24.294 7.867-36.797 10.129-2.695.485-4.636 2.85-4.636 5.586v36.188c0 2.117.083 4.223.237 6.308.186 2.55-1.322 4.904-3.737 5.782-7.826 2.839-16.272 4.388-25.079 4.388-4.161 0-8.26-.351-12.235-1.022-6.205-1.043-12.131-2.86-17.707-5.348-1.983-.878-3.263-2.839-3.345-5.008-.052-1.693-.083-3.397-.083-5.1v-36.188c0-2.746-1.962-5.1-4.667-5.586-10.748-1.941-21.362-4.729-31.728-8.311-2.209-.774-3.769-2.788-3.841-5.131-.021-.65-.041-1.301-.041-1.951 0-19.049 7.248-36.415 19.121-49.486 1.497-1.662 3.861-2.271 5.978-1.559 4.326 1.466 8.724 2.726 13.185 3.789 8.446 2.013 17.098 3.304 25.894 3.8 2.478.144 4.863.217 7.072.217s4.584-.072 7.062-.217c14.713-.836 29.023-3.851 42.579-8.817 2.085-.754 4.44-.217 5.978 1.394 12.649 13.214 20.434 31.137 20.434 50.878z" fill="#a2c6fe"/><path d="m199.145 385.848c-6.205-1.043-12.131-2.86-17.707-5.348-1.983-.878-3.263-2.839-3.345-5.008-.052-1.693-.083-3.397-.083-5.1v-36.188c0-2.746-1.962-5.1-4.667-5.586-10.748-1.941-21.362-4.729-31.728-8.311-2.209-.774-3.769-2.788-3.841-5.131-.021-.65-.041-1.301-.041-1.951 0-19.049 7.248-36.415 19.121-49.486 1.497-1.662 3.861-2.271 5.978-1.559 4.326 1.466 8.724 2.726 13.185 3.789-11.677 16.953-13.474 35.207 1.373 46.224 21.651 16.064 17.46 52.107 21.755 73.655z" fill="#7898d5"/></g><g><path d="m505.918 289.88c0-32.913-26.776-59.69-59.689-59.69s-59.69 26.777-59.69 59.69c0 5.454.738 10.862 2.193 16.076.802 3.278 3.76 5.709 7.286 5.709 4.143 0 7.5-3.363 7.5-7.505 0-.693-.096-1.382-.285-2.048-1.124-3.96-1.694-8.075-1.694-12.232 0-24.642 20.048-44.69 44.69-44.69s44.689 20.048 44.689 44.69c0 24.637-20.048 44.68-44.689 44.68-10.705 0-21.056-3.839-29.144-10.811-3.135-2.704-7.872-2.354-10.577.784-2.704 3.137-2.354 7.873.784 10.577 4.795 4.133 10.185 7.438 15.945 9.841v25.44c0 52.732-42.901 95.633-95.634 95.633-23.051 0-45.332-8.353-62.739-23.519-15.518-13.52-26.215-31.592-30.616-51.433 1.601-.47 3.193-.973 4.768-1.544 5.538-2.008 9.098-7.516 8.657-13.396-.146-1.947-.22-3.88-.22-5.746v-34.668c12.411-2.335 24.704-5.767 36.566-10.208 5.086-1.906 8.506-6.826 8.511-12.289 0-2.64-.128-5.262-.378-7.86 4.802-2.206 9.547-4.608 14.162-7.179 26.454-14.764 49.849-35.646 67.652-60.389 25.927-36.023 36.22-65.417 36.641-66.639 1.837-5.299 1.675-11.08-.462-16.288-20.98-50.945-62.418-94.934-87.008-118.039.008-.309.023-.616.023-.927.002-19.795-16.104-35.9-35.9-35.9s-35.901 16.105-35.901 35.902 16.105 35.902 35.901 35.902c1.838 0 3.644-.14 5.409-.408 19.968 18.932 52.818 53.678 71.26 92.607-4.405 9.947-13.022 27.122-27.288 46.943-16.118 22.411-37.372 40.23-61.725 51.83-1.541-1.934-3.169-3.811-4.896-5.617-3.598-3.763-9.082-5.039-13.976-3.247-13.011 4.764-26.613 7.581-40.428 8.371-2.342.134-4.574.202-6.637.202s-4.296-.068-6.637-.202c-12.621-.722-25.106-3.147-37.109-7.207-4.952-1.672-10.421-.253-13.936 3.615-1.67 1.839-3.246 3.747-4.729 5.712-25.857-11.544-48.328-29.927-65.252-53.453-14.135-19.655-22.813-36.937-27.28-46.975 4.519-9.538 10.184-19.406 16.87-29.38 2.307-3.44 1.388-8.099-2.053-10.406-3.439-2.306-8.099-1.387-10.406 2.053-7.851 11.709-14.399 23.333-19.465 34.549-.861 1.908-.887 4.088-.07 6.015 4.193 9.892 13.697 29.917 30.228 52.903 18.078 25.131 41.988 44.877 69.496 57.543-2.359 4.766-4.226 9.757-5.605 14.896-4.798-2.173-9.517-4.521-14.078-7.063-24.531-13.691-46.244-33.075-62.789-56.053-24.651-34.253-34.541-62.498-34.643-62.791-.639-1.843-.581-3.858.158-5.663 18.375-44.619 53.682-83.992 77.625-107.285 2.64 4.746 6.326 8.831 10.743 11.948-9.645 9.423-21.612 21.937-33.333 36.381-2.61 3.216-2.119 7.939 1.098 10.55 1.39 1.128 3.061 1.676 4.721 1.676 2.183 0 4.347-.948 5.828-2.774 13.313-16.406 26.983-30.256 36.924-39.681 1.766.268 3.573.408 5.413.408 19.796 0 35.901-16.105 35.901-35.902s-16.104-35.899-35.9-35.899c-19.797 0-35.902 16.105-35.902 35.902 0 .31.016.617.023.926-24.589 23.105-66.029 67.095-87.014 118.052-2.131 5.198-2.293 10.978-.46 16.265.425 1.233 10.718 30.627 36.645 66.652 17.821 24.751 41.216 45.633 67.657 60.391 6.073 3.384 12.385 6.471 18.818 9.237-.137 1.924-.228 3.856-.228 5.799 0 .732.012 1.461.035 2.185.168 5.384 3.742 10.199 8.893 11.981 10.223 3.538 20.758 6.338 31.339 8.33v34.668c0 1.742.032 3.548.097 5.368.176 5.015 3.229 9.566 7.777 11.597 2.975 1.327 6.01 2.446 9.086 3.399 4.708 32.519 20.648 62.428 45.258 84.678 26.082 23.582 59.778 36.568 94.88 36.568 78.083 0 141.607-63.525 141.607-141.607v-25.438c21.538-9.018 36.708-30.305 36.708-55.073zm-375.219-274.88c11.525 0 20.901 9.376 20.901 20.902s-9.376 20.902-20.901 20.902-20.902-9.376-20.902-20.902 9.376-20.902 20.902-20.902zm135.66 20.902c0-11.525 9.376-20.902 20.901-20.902s20.901 9.376 20.901 20.902-9.376 20.902-20.901 20.902-20.901-9.377-20.901-20.902zm82.458 183.805c16.697-23.2 26.113-43.1 30.24-52.897.811-1.924.782-4.098-.078-6-17.767-39.307-49.539-74.519-71.072-95.563 4.418-3.118 8.105-7.203 10.746-11.951 23.942 23.292 59.248 62.664 77.619 107.275.745 1.814.803 3.829.16 5.684-.098.281-9.987 28.526-34.64 62.779-16.529 22.97-38.241 42.353-62.782 56.05-3.209 1.788-6.49 3.479-9.807 5.082-1.51-5.104-3.531-10.036-6.018-14.745 25.867-12.699 48.442-31.813 65.632-55.714zm-163.312 150.682v-36.189c0-6.376-4.552-11.828-10.823-12.962-9.928-1.796-19.827-4.359-29.442-7.623-.001-.13-.001-.261-.001-.392 0-16.07 5.801-31.486 16.36-43.546 12.918 4.255 26.331 6.806 39.888 7.582 2.625.15 5.146.226 7.493.226s4.867-.076 7.493-.226c14.869-.851 29.514-3.823 43.55-8.835 10.999 11.925 17.174 27.271 17.495 43.501-11.124 4.083-22.643 7.216-34.257 9.316-6.263 1.132-10.808 6.583-10.808 12.959v36.188c0 1.794.057 3.635.169 5.489-6.828 2.318-13.966 3.492-21.238 3.492-8.957 0-17.64-1.766-25.826-5.25-.035-1.266-.053-2.517-.053-3.73zm268.706.003c0 69.812-56.796 126.607-126.607 126.607-31.378 0-61.501-11.611-84.82-32.695-20.652-18.672-34.475-43.365-39.58-70.349 2.704.271 5.431.415 8.18.415 2.732 0 5.447-.151 8.143-.421 5.042 23.106 17.447 44.152 35.484 59.867 20.139 17.546 45.919 27.209 72.593 27.209 61.004 0 110.634-49.63 110.634-110.633v-21.369c2.636.356 5.305.537 7.991.537 2.708 0 5.369-.198 7.982-.549z"/><path d="m474.328 289.877c0-15.495-12.605-28.1-28.1-28.1s-28.101 12.605-28.101 28.1 12.605 28.1 28.101 28.1c15.494 0 28.1-12.605 28.1-28.1zm-41.201 0c0-7.224 5.877-13.1 13.101-13.1 7.223 0 13.1 5.876 13.1 13.1s-5.877 13.1-13.1 13.1c-7.224 0-13.101-5.876-13.101-13.1z"/></g></g></svg>