<svg id="Capa_1" enable-background="new 0 0 512 512" height="512" viewBox="0 0 512 512" width="512" xmlns="http://www.w3.org/2000/svg"><g><g><path d="m388.68 382.928c-5.48.99-10.93 1.74-16.35 2.28 15.78 13.32 27.38 29.64 33.8 46.84-26.5 8.39-58.73 6.19-88.78-8.46-8.27-4.03-15.9-8.77-22.81-14.07-6.92-5.3-13.12-11.16-18.54-17.42v72.85c0 11.04-8.94 19.99-19.98 20-.01 0-.01 0-.02 0-5.52 0-10.52-2.24-14.14-5.86s-5.86-8.62-5.86-14.14v-72.85c-10.84 12.52-24.81 23.43-41.35 31.49-30.05 14.65-62.28 16.85-88.78 8.46 6.42-17.2 18.02-33.52 33.8-46.84-5.42-.54-10.87-1.29-16.35-2.28-49.74-9.01-91.01-35.15-115.82-69.08 28.17-18.49 64.5-28.58 103.43-27.21-.53-.56-1.06-1.11-1.58-1.67-41.75-45.23-62.71-100.9-61.96-152.08 51.08 3.33 104.9 28.67 146.65 73.9.05.05.1.11.15.16-.24-4.63-.37-9.29-.37-13.99 0-66.4 24.12-125.87 62.17-165.89.01-.01.01-.02.01-.02 38.05 40.02 62.18 99.5 62.18 165.91 0 4.7-.13 9.36-.37 13.99.05-.05.1-.11.15-.16 41.75-45.23 95.57-70.57 146.65-73.9.75 51.18-20.21 106.85-61.96 152.08-.52.56-1.05 1.11-1.58 1.67 38.93-1.37 75.26 8.72 103.43 27.21-24.81 33.93-66.08 60.07-115.82 69.08z" fill="#c0df8f"/><path d="m256.02 383.808v101.14c-.01 0-.01 0-.02 0-5.52 0-10.52-2.24-14.14-5.86s-5.86-8.62-5.86-14.14v-72.85c-10.84 12.52-24.81 23.43-41.35 31.49-30.05 14.65-62.28 16.85-88.78 8.46 6.42-17.2 18.02-33.52 33.8-46.84-5.42-.54-10.87-1.29-16.35-2.28-49.74-9.01-91.01-35.15-115.82-69.08 28.17-18.49 64.5-28.58 103.43-27.21-.53-.56-1.06-1.11-1.58-1.67-41.75-45.23-62.71-100.9-61.96-152.08 51.08 3.33 104.9 28.67 146.65 73.9.05.05.1.11.15.16-.24-4.63-.37-9.29-.37-13.99 0-66.4 24.12-125.87 62.17-165.89-.81 1.5-62.34 115.43-39.88 233.04 0 0-53.2-25.27-85.13 34.58-31.92 59.86 46.56 71.83 46.56 71.83s-3.99 41.24 78.48 17.29z" fill="#a2d162"/></g><g><path d="m337.194 423.546c-5.602-1.817-11.172-4.07-16.559-6.698-7.674-3.739-14.918-8.207-21.535-13.282-6.406-4.906-12.271-10.416-17.43-16.375-2.05-2.368-5.356-3.212-8.29-2.119-2.935 1.094-4.88 3.896-4.88 7.028v72.85c0 6.893-5.607 12.5-12.5 12.5-3.336 0-6.474-1.301-8.844-3.671-2.357-2.351-3.656-5.487-3.656-8.829v-72.85c0-3.132-1.946-5.934-4.88-7.028-2.935-1.093-6.24-.249-8.29 2.119-10.454 12.073-23.927 22.329-38.967 29.657-24.416 11.903-51.367 15.483-75.226 10.197 6.384-13.367 16.076-25.726 28.371-36.104 2.302-1.943 3.218-5.076 2.325-7.954s-3.421-4.941-6.419-5.24c-5.354-.534-10.652-1.275-15.758-2.208-42.984-7.777-81.188-29.36-106.114-59.688 26.33-15.214 58.702-22.889 92.125-21.716 3.046.115 5.848-1.635 7.1-4.41 1.252-2.774.703-6.031-1.39-8.242l-.525-.552c-.338-.355-.675-.709-.99-1.048-36.825-39.893-58.382-90.049-59.905-138.795 24.496 2.745 49.499 10.735 72.8 23.312 3.646 1.966 8.195.607 10.163-3.038 1.967-3.646.607-8.195-3.038-10.163-27.748-14.977-57.833-23.896-87.005-25.794-2.051-.133-4.065.58-5.575 1.974s-2.381 3.346-2.411 5.4c-.743 50.716 18.983 103.366 54.515 146.465-33.442 1.584-65.265 11.42-91.023 28.336-1.717 1.128-2.896 2.911-3.263 4.933-.366 2.021.113 4.105 1.326 5.763 26.892 36.777 70.827 63.028 120.528 72.021.417.076.836.151 1.256.225-10.831 11.641-19.149 24.873-24.386 38.904-.719 1.925-.616 4.061.284 5.908s2.519 3.244 4.479 3.865c29.336 9.289 63.717 6.056 94.329-8.868 11.089-5.404 21.433-12.245 30.564-20.167v54.785c0 7.356 2.864 14.264 8.057 19.443 5.196 5.196 12.101 8.057 19.443 8.057 15.164 0 27.5-12.336 27.5-27.5v-54.764c2.098 1.823 4.259 3.587 6.476 5.285 7.409 5.682 15.514 10.682 24.085 14.859 6.012 2.934 12.238 5.452 18.505 7.484 3.943 1.276 8.17-.88 9.448-4.82 1.278-3.939-.88-8.169-4.82-9.447z"/><path d="m511.88 312.514c-.366-2.022-1.545-3.805-3.263-4.933-25.759-16.917-57.577-26.753-91.021-28.336 35.527-43.087 55.257-95.742 54.513-146.465-.03-2.055-.902-4.007-2.411-5.401-1.51-1.394-3.525-2.105-5.576-1.973-49.302 3.214-98.875 25.931-138.479 63-1.055-64.095-24.323-124.575-64.207-166.524-1.416-1.489-3.381-2.332-5.436-2.332s-4.02.843-5.436 2.332c-39.884 41.949-63.152 102.42-64.207 166.516-7.999-7.496-16.442-14.449-25.237-20.776-3.363-2.419-8.05-1.654-10.468 1.708-2.419 3.362-1.654 8.049 1.708 10.468 12.947 9.314 25.091 20.076 36.094 31.988.023.026.046.052.069.078 2.073 2.392 5.43 3.228 8.393 2.073 3.011-1.175 4.931-4.147 4.763-7.375-.239-4.615-.36-9.191-.36-13.603 0-58.972 19.838-114.877 54.68-154.776 34.842 39.899 54.68 95.804 54.68 154.776 0 4.411-.121 8.988-.36 13.603-.167 3.228 1.752 6.2 4.764 7.375 2.957 1.153 6.318.318 8.392-2.073.024-.026.047-.052.071-.079 36.811-39.842 85.058-65.301 133.497-70.7-1.523 48.746-23.08 98.903-59.887 138.779-.333.358-.669.711-1.007 1.067l-.525.552c-2.093 2.211-2.642 5.467-1.39 8.242s4.072 4.514 7.1 4.41c33.406-1.172 65.793 6.5 92.125 21.716-24.927 30.328-63.131 51.911-106.125 59.69-5.095.93-10.394 1.671-15.748 2.205-2.998.298-5.526 2.363-6.419 5.24s.023 6.01 2.325 7.954c12.292 10.376 21.983 22.733 28.367 36.097-9.893 2.177-20.521 2.878-31.182 2.026-4.119-.337-7.744 2.75-8.073 6.879-.33 4.129 2.75 7.743 6.879 8.073 3.444.275 6.856.413 10.236.413 12.062 0 23.688-1.75 34.674-5.229 1.959-.621 3.578-2.018 4.479-3.865.9-1.847 1.003-3.983.284-5.908-5.237-14.032-13.556-27.263-24.386-38.904.417-.073.832-.147 1.246-.223 49.712-8.995 93.646-35.247 120.539-72.023 1.212-1.657 1.691-3.741 1.325-5.762z"/><path d="m256 119.59c-4.142 0-7.5 3.358-7.5 7.5v194.348l-156.275-154.325c-2.949-2.911-7.696-2.879-10.606.066-2.911 2.947-2.881 7.696.066 10.606l153.88 151.96-155.547-15.982c-4.123-.417-7.803 2.574-8.228 6.694-.423 4.121 2.574 7.804 6.694 8.228l156.54 16.085-59.09 40.854c-3.407 2.355-4.26 7.027-1.904 10.434 1.456 2.106 3.796 3.235 6.176 3.235 1.471 0 2.957-.432 4.258-1.332l64.035-44.273v11.501c0 4.142 3.358 7.5 7.5 7.5s7.5-3.358 7.5-7.5v-11.501l64.035 44.273c1.301.9 2.788 1.332 4.258 1.332 2.38 0 4.72-1.13 6.176-3.235 2.356-3.407 1.503-8.079-1.904-10.434l-59.09-40.854 156.54-16.085c4.121-.423 7.118-4.107 6.694-8.228s-4.114-7.112-8.228-6.694l-155.547 15.983 153.88-151.96c2.947-2.911 2.977-7.659.066-10.606-2.91-2.947-7.659-2.978-10.606-.066l-156.273 154.324v-194.348c0-4.142-3.358-7.5-7.5-7.5z"/></g></g></svg>