<svg id="Capa_1" enable-background="new 0 0 512 512" height="512" viewBox="0 0 512 512" width="512" xmlns="http://www.w3.org/2000/svg"><g><g><g fill="#ffd064"><g><path d="m402.936 443.832 1.146-2.027c4.042-7.147 12.927-9.945 20.335-6.402l22.784 10.898c8.161 3.904 11.309 13.903 6.856 21.777l-2.848 5.036c-4.453 7.875-14.644 10.331-22.196 5.35l-21.083-13.907c-6.853-4.521-9.036-13.578-4.994-20.725z"/><path d="m422.875 369.067-.021-2.328c-.074-8.211 6.223-15.076 14.409-15.712l25.181-1.954c9.02-.7 16.745 6.385 16.826 15.432l.052 5.785c.081 9.046-7.516 16.269-16.547 15.731l-25.212-1.503c-8.195-.489-14.614-7.241-14.688-15.451z"/><path d="m402.761 294.349-1.182-2.006c-4.169-7.074-2.149-16.168 4.623-20.811l20.83-14.283c7.461-5.116 17.695-2.843 22.288 4.951l2.937 4.984c4.593 7.794 1.625 17.848-6.465 21.897l-22.585 11.305c-7.343 3.674-16.277 1.037-20.446-6.037z"/></g><g><path d="m109.068 292.039-1.146 2.027c-4.042 7.147-12.927 9.945-20.335 6.402l-22.784-10.898c-8.161-3.904-11.309-13.903-6.856-21.777l2.847-5.036c4.453-7.875 14.644-10.331 22.196-5.35l21.083 13.907c6.854 4.522 9.037 13.578 4.995 20.725z"/><path d="m89.129 366.805.021 2.328c.074 8.211-6.223 15.076-14.409 15.712l-25.181 1.954c-9.02.7-16.745-6.385-16.826-15.432l-.052-5.785c-.081-9.046 7.516-16.269 16.547-15.731l25.212 1.503c8.196.488 14.614 7.24 14.688 15.451z"/><path d="m109.243 441.523 1.182 2.006c4.169 7.074 2.149 16.168-4.623 20.811l-20.83 14.283c-7.461 5.116-17.695 2.843-22.288-4.951l-2.937-4.984c-4.593-7.794-1.625-17.848 6.465-21.897l22.585-11.305c7.343-3.675 16.277-1.037 20.446 6.037z"/></g></g><path d="m256.002 493.705c-9.597 0-17.485-7.574-17.874-17.163l-15.214-374.702h66.176l-15.214 374.702c-.389 9.59-8.277 17.163-17.874 17.163z" fill="#ffd064"/><path d="m256.001 493.705c-9.594 0-17.486-7.576-17.878-17.161l-15.209-374.704h28.467l2.124 374.704c.057 9.585 1.157 17.161 2.496 17.161z" fill="#ebb044"/><path d="m173.224 225.266h-80.016c-7.901 0-15.056-3.205-20.241-8.389-5.175-5.175-8.379-12.34-8.379-20.241 0-15.506 12.321-28.142 27.721-28.611v-.019h-36.78c-15.63 0-28.811-12.282-29.194-27.912-.201-8.179 3.042-15.621 8.37-20.958 5.185-5.184 12.34-8.389 20.241-8.389h-14.273c-9.164 0-17.457-3.711-23.455-9.709-6.007-6.008-9.718-14.301-9.718-23.465 0-15.008 10.053-28.238 24.574-32.035 18.27-4.783 40.893-3.884 61.736-.995 11.593 1.607 22.642 3.836 32.073 6.046 15.334 3.578 26.956 16.357 28.534 32.016 4.783 47.627 44.336 81.614 71.025 81.614l.258 6.39c1.216 29.815-22.631 54.657-52.476 54.657z" fill="#f5f0f0"/><path d="m135.928 225.266h-42.72c-7.901 0-15.056-3.205-20.241-8.389-5.175-5.175-8.379-12.34-8.379-20.241 0-15.506 12.321-28.142 27.721-28.611v-.019h-36.78c-15.63 0-28.811-12.282-29.194-27.912-.201-8.179 3.042-15.621 8.37-20.958 5.185-5.184 12.34-8.389 20.241-8.389h-14.273c-9.164 0-17.457-3.711-23.455-9.709-6.007-6.008-9.718-14.301-9.718-23.465 0-15.008 10.053-28.238 24.574-32.035 18.27-4.783 40.893-3.884 61.736-.995-33.25-2.372-44.03 50.879-4.649 58.254 0 0-32.447 45.8 31.49 66.797.001 0-33.441 34.312 15.277 55.672z" fill="#e8ded8"/><path d="m471.326 110.746h-14.272c7.901 0 15.056 3.205 20.241 8.389 5.338 5.338 8.571 12.78 8.379 20.958-.383 15.63-13.574 27.912-29.204 27.912h-36.78v.019c15.401.469 27.721 13.105 27.721 28.611 0 7.901-3.204 15.066-8.379 20.241-5.185 5.184-12.34 8.389-20.241 8.389h-80.016c-13.067 0-24.985-4.764-34.149-12.627-11.775-10.072-19.007-25.272-18.328-42.031l.258-6.39c26.688 0 66.251-33.987 71.034-81.614 1.569-15.659 13.201-28.439 28.525-32.016 26.382-6.17 65.371-12.493 93.81-5.051 11.794 3.08 20.643 12.387 23.551 23.818.67 2.64 1.024 5.395 1.024 8.217 0 9.164-3.712 17.457-9.719 23.464-5.997 6-14.291 9.711-23.455 9.711z" fill="#f5f0f0"/><path d="m503.476 69.356c-34.206-10.541-117.456-18.749-114.662 22.938 2.784 41.697-38.176 114.52-78.687 116.844l-5.5 3.501c-11.775-10.072-19.007-25.272-18.328-42.031l.258-6.39c26.688 0 66.251-33.987 71.034-81.614 1.569-15.659 13.201-28.439 28.525-32.016 26.382-6.17 65.371-12.493 93.81-5.051 11.794 3.081 20.642 12.388 23.55 23.819z" fill="#e8ded8"/><path d="m158.827 478.824c4.165-36.706 92.393-37.028 113.858-47.406 104.4-36.527-20.031-62.819-55.725-78.476-87.737-31.706-82.339-108.368-30.005-137.954 44.872-24.529 108.864-12.959 137.592-28.756 63.516-57.625 135.92 88.702-56.424 79.202-8.787-.434-17.588-.613-26.384-.494-10.487.142-21.582.154-30.387 5.824-5.371 3.459-7.031 10.493-3.612 15.889 16.834 26.573 107.731 54.412 128.493 73.482 39.459 36.243 5.712 85.119-43.951 94.197-56.62 10.35-111.083 2.779-121.517 30.235-4.385 4.21-11.916 1.156-11.938-5.743z" fill="#c0df8f"/><g><path d="m283.097 441.567c104.4-36.527 17.813-79.736-40.832-88.624-87.737-31.706-82.339-101.912-30.005-131.498 44.872-24.528 80.168 13.996 137.592-35.211 6.051-5.49 12.183-9.124 18.159-11.223-12.482-4.683-28.228-2.601-43.465 11.223-28.728 15.796-92.721 4.227-137.592 28.756-52.333 29.586-57.732 106.248 30.006 137.954 35.695 15.656 160.125 41.949 55.725 78.476-21.464 10.378-109.693 10.7-113.858 47.406.012 3.604 2.078 6.144 4.668 7.162 4.189-36.696 98.14-34.045 119.602-44.421z" fill="#a2d162"/></g><path d="m281.861 279.971-5.032 123.789h-41.658l-5.022-123.789z" fill="#ffd064"/><path d="m253.097 403.76h-17.926l-5.022-123.789h22.25z" fill="#ebb044"/><circle cx="256.002" cy="83.02" fill="#dd636e" r="64.725"/><path d="m274.239 145.135c-5.787 1.702-11.909 2.611-18.242 2.611-35.747 0-64.721-28.984-64.721-64.731s28.974-64.721 64.721-64.721c6.332 0 12.454.909 18.242 2.611-26.87 7.863-46.489 32.695-46.489 62.109s19.62 54.248 46.489 62.121z" fill="#da4a54"/></g><g><path d="m450.438 439.536-22.784-10.898c-10.92-5.225-24.142-1.061-30.101 9.478l-1.145 2.025c-5.959 10.537-2.711 24.012 7.394 30.678l21.083 13.907c3.802 2.508 8.259 3.815 12.755 3.815 1.804 0 3.614-.21 5.392-.639 6.205-1.496 11.565-5.54 14.707-11.095l2.848-5.036c3.142-5.556 3.845-12.234 1.928-18.322-1.918-6.088-6.32-11.159-12.077-13.913zm-2.909 24.851-2.848 5.036c-1.12 1.98-2.954 3.364-5.165 3.896-2.214.533-4.475.136-6.372-1.116l-21.083-13.907c-3.549-2.34-4.689-7.072-2.597-10.772 0 0 .001-.001.001-.002l1.145-2.025c1.481-2.62 4.242-4.118 7.089-4.118 1.174 0 2.362.254 3.481.79l22.784 10.899c2.052.981 3.559 2.716 4.241 4.886s.443 4.454-.676 6.433z"/><path d="m479.279 347.606c-4.704-4.314-11.06-6.508-17.414-6.011l-25.182 1.954c-12.068.937-21.437 11.152-21.329 23.255l.021 2.328v.002c.109 12.104 9.66 22.15 21.743 22.87l25.212 1.502c.454.027.908.041 1.361.041 5.9 0 11.646-2.279 15.942-6.362 4.626-4.397 7.246-10.58 7.189-16.962l-.052-5.785c-.056-6.383-2.787-12.518-7.491-16.832zm-9.98 28.707c-1.647 1.567-3.806 2.358-6.076 2.22l-25.212-1.502c-4.243-.252-7.598-3.781-7.636-8.032l-.021-2.327c-.038-4.251 3.252-7.838 7.489-8.167l25.182-1.954c2.275-.179 4.439.574 6.115 2.111 1.677 1.537 2.61 3.636 2.631 5.91l.052 5.785c.021 2.274-.876 4.39-2.524 5.956z"/><path d="m396.301 298.158c4.277 7.258 12.017 11.365 19.977 11.365 3.477 0 6.996-.784 10.287-2.431l22.585-11.305c5.707-2.857 10.018-8.006 11.824-14.128 1.808-6.121.985-12.785-2.255-18.283l-2.938-4.985c-3.241-5.499-8.674-9.446-14.904-10.83-6.23-1.383-12.821-.107-18.086 3.502l-20.83 14.282c-9.983 6.845-12.99 20.376-6.843 30.807zm14.142-20.441 20.83-14.283c1.373-.941 2.948-1.427 4.565-1.427.592 0 1.19.065 1.786.197 2.221.493 4.079 1.844 5.233 3.802l2.938 4.985c1.154 1.959 1.436 4.239.792 6.42-.645 2.182-2.119 3.943-4.153 4.962l-22.585 11.305c-3.8 1.9-8.469.525-10.627-3.138-.001-.001-.001-.001-.002-.002l-1.181-2.003c-2.158-3.662-1.102-8.414 2.404-10.818z"/><path d="m61.566 296.336 22.785 10.897c3.188 1.525 6.571 2.25 9.915 2.25 8.105 0 15.966-4.265 20.185-11.726l1.146-2.026c5.959-10.537 2.711-24.012-7.394-30.678l-21.083-13.907c-5.328-3.514-11.942-4.671-18.147-3.177-6.205 1.496-11.565 5.54-14.706 11.095l-2.848 5.036c-3.142 5.556-3.845 12.234-1.928 18.322 1.916 6.089 6.318 11.16 12.075 13.914zm2.909-24.852 2.848-5.036c1.119-1.979 2.953-3.363 5.164-3.896.642-.155 1.288-.231 1.927-.231 1.566 0 3.098.458 4.446 1.347l21.083 13.907c3.548 2.34 4.688 7.072 2.596 10.772l-1.146 2.027c-2.092 3.7-6.734 5.163-10.569 3.327l-22.785-10.898c-2.051-.981-3.557-2.716-4.24-4.885-.684-2.169-.443-4.454.676-6.434z"/><path d="m75.32 392.322c12.068-.937 21.438-11.152 21.329-23.256l-.021-2.328c-.108-12.104-9.659-22.15-21.742-22.871l-25.212-1.502c-6.385-.381-12.679 1.925-17.304 6.322-4.625 4.398-7.246 10.581-7.188 16.962l.052 5.785c.057 6.382 2.788 12.517 7.492 16.831 4.267 3.913 9.886 6.079 15.643 6.079.589 0 1.181-.022 1.771-.068zm-32.457-15.112c-1.676-1.537-2.61-3.636-2.631-5.91l-.052-5.785c-.02-2.274.876-4.39 2.525-5.957 1.527-1.452 3.491-2.235 5.577-2.235.166 0 .333.005.5.015l25.212 1.502c4.243.253 7.597 3.781 7.636 8.032l.021 2.328c.038 4.251-3.252 7.838-7.49 8.167l-25.182 1.954c-2.267.18-4.439-.573-6.116-2.111z"/><path d="m115.705 437.714c-6.147-10.428-19.441-14.354-30.265-8.935l-22.585 11.304c-5.708 2.856-10.018 8.006-11.825 14.127-1.807 6.122-.985 12.786 2.255 18.284l2.937 4.984c3.241 5.499 8.673 9.446 14.903 10.83 1.648.366 3.32.546 4.988.546 4.636 0 9.228-1.393 13.1-4.047l20.83-14.283c9.983-6.846 12.99-20.377 6.844-30.805zm-14.144 20.44-20.83 14.283c-1.875 1.286-4.132 1.722-6.352 1.229s-4.079-1.844-5.233-3.803l-2.937-4.984c-1.155-1.959-1.436-4.24-.792-6.421s2.119-3.943 4.152-4.96l22.585-11.305c1.156-.578 2.391-.854 3.612-.854 2.795 0 5.513 1.443 7.016 3.991l1.182 2.006c2.159 3.663 1.103 8.414-2.403 10.818z"/><path d="m512 77.57c0-18.482-12.407-34.637-30.167-39.284-15.485-4.063-35.24-4.713-58.715-1.934-4.113.487-7.054 4.216-6.566 8.33.487 4.114 4.233 7.051 8.33 6.566 21.604-2.557 39.483-2.038 53.149 1.548 11.168 2.922 18.969 13.11 18.969 24.774 0 6.862-2.67 13.315-7.505 18.158-4.866 4.851-11.314 7.522-18.155 7.522h-14.151c-.045 0-.089-.003-.135-.003h-15.735c-4.143 0-7.5 3.358-7.5 7.5s3.357 7.5 7.5 7.5h14.853c.023 0 .045.003.068.003h.882c11.62.037 21.063 9.498 21.063 21.126 0 5.646-2.197 10.95-6.198 14.943-3.981 3.99-9.285 6.187-14.932 6.187h-53.998c-4.143 0-7.5 3.358-7.5 7.5s3.357 7.5 7.5 7.5h15.735c11.651 0 21.13 9.479 21.13 21.13 0 5.647-2.197 10.95-6.197 14.942-3.982 3.99-9.285 6.188-14.933 6.188h-19.543c2.957-17.795-5.119-36.105-20.777-45.907-8.428-5.276-18.116-7.462-28.012-6.314-10.598 1.226-20.771 6.103-30.254 14.498-6.427 3.333-15.083 5.227-24.301 6.51-1.601-4.958-2.314-10.132-2.12-15.447 30.844-5.12 66.639-41.646 71.267-87.756 1.239-12.337 10.351-22.559 22.683-25.438 2.644-.621 5.423-1.242 8.263-1.845 4.052-.86 6.639-4.842 5.779-8.894-.861-4.053-4.843-6.638-8.895-5.779-2.944.625-5.831 1.27-8.568 1.913-18.568 4.336-32.307 19.826-34.188 38.545-2.012 20.053-10.981 39.314-25.256 54.236-9.534 9.967-20.6 16.957-30.456 19.528l.479-11.783c20.026-12.853 33.334-35.3 33.334-60.812 0-39.825-32.4-72.225-72.226-72.225s-72.225 32.4-72.225 72.225c0 25.514 13.31 47.964 33.34 60.815l.479 11.78c-9.857-2.57-20.925-9.56-30.461-19.528-14.274-14.92-23.246-34.181-25.263-54.231-1.878-18.714-15.611-34.207-34.172-38.551-28.114-6.582-67.854-12.798-97.522-5.023-17.768 4.645-30.177 20.802-30.177 39.29 0 10.868 4.232 21.084 11.92 28.772 4.441 4.433 9.727 7.708 15.489 9.69-5.348 6.302-8.584 14.448-8.584 23.341 0 9.658 3.761 18.732 10.581 25.54 6.816 6.829 15.89 10.59 25.549 10.59h8.983c-4.304 5.947-6.85 13.245-6.85 21.13 0 9.659 3.761 18.732 10.581 25.539 6.816 6.83 15.89 10.591 25.549 10.591h62.651c-16.206 22.516-19.271 51.593-5.821 77.066 1.345 2.546 3.947 4 6.639 4 1.181 0 2.379-.28 3.496-.869 3.663-1.934 5.064-6.471 3.13-10.134-7.498-14.2-8.814-30.241-3.707-45.166 5.083-14.851 16.086-27.675 30.987-36.116 10.284-5.612 22.63-9.701 37.751-12.503 13.969-2.602 28.262-3.767 42.085-4.892 5.426-.442 10.55-.859 15.593-1.356 15.148-1.484 30.737-3.722 42.135-9.994.512-.282.989-.623 1.423-1.016 13.611-12.348 28.533-14.976 40.935-7.212 11.522 7.212 16.933 21.268 13.156 34.181-7.413 25.346-45.216 40.145-101.171 39.606-4.105-.039-8.52-.164-13.108-.372-10.203-.478-19.583-.653-28.681-.538-3.404.045-7.642.102-11.795.447-5.669.489-14.08 1.702-21.619 6.562-8.809 5.66-11.453 17.417-5.889 26.217 4.01 6.323 11.39 12.828 22.474 19.816l1.534 37.791c-2.107-.808-3.894-1.535-5.447-2.215-.151-.066-.304-.127-.458-.183-15.716-5.681-28.854-13.054-39.048-21.917-3.126-2.718-7.864-2.387-10.581.739-2.718 3.126-2.387 7.863.739 10.581 11.544 10.036 26.199 18.319 43.561 24.62 3.063 1.332 6.854 2.8 11.893 4.604l2.802 69.043c-33.087 6.018-74.181 15.134-77.5 44.419-.033.288-.049.577-.048.866.018 6.268 3.488 11.629 9.056 13.992 1.821.772 3.735 1.148 5.633 1.148 3.639 0 7.216-1.383 9.945-4.005.8-.769 1.42-1.706 1.814-2.744 4.678-12.308 23.742-15.706 52.534-18.359l.323 7.976c.559 13.656 11.704 24.354 25.372 24.354 13.676 0 24.816-10.701 25.362-24.355l.539-13.227c4.018-.585 7.901-1.214 11.72-1.912 31.773-5.808 58.05-26.783 65.386-52.194 5.686-19.696-.604-39.193-17.708-54.901-9.506-8.725-30.014-18.069-53.797-28.875l2.13-52.39c69.279-.857 94.828-23.975 104.239-40.585h24.917c9.659 0 18.732-3.761 25.539-10.581 6.83-6.816 10.591-15.89 10.591-25.549 0-7.885-2.547-15.183-6.85-21.13h8.983c9.659 0 18.732-3.761 25.539-10.581 6.829-6.817 10.591-15.891 10.591-25.549 0-8.893-3.236-17.04-8.583-23.341 5.757-1.983 11.045-5.259 15.497-9.696 7.672-7.687 11.899-17.903 11.899-28.767zm-313.223 5.45c0-31.554 25.671-57.225 57.225-57.225 31.555 0 57.226 25.671 57.226 57.225s-25.671 57.225-57.226 57.225c-31.554 0-57.225-25.671-57.225-57.225zm-15.423 125.389c-.032.018-.063.035-.095.053-4.878 2.759-9.36 5.884-13.437 9.304h-76.605c-5.647 0-10.95-2.197-14.942-6.197-3.99-3.983-6.188-9.286-6.188-14.933 0-11.651 9.479-21.13 21.13-21.13h15.726c4.142 0 7.5-3.358 7.5-7.5s-3.358-7.5-7.5-7.5h-53.988c-5.647 0-10.95-2.197-14.942-6.197-3.99-3.983-6.188-9.286-6.188-14.933 0-11.651 9.479-21.129 21.13-21.129h.813 14.913c4.142 0 7.5-3.358 7.5-7.5s-3.358-7.5-7.5-7.5h-14.913-.813-14.282c-6.853 0-13.3-2.669-18.151-7.513-4.851-4.851-7.522-11.3-7.522-18.161 0-11.668 7.801-21.858 18.975-24.78 26.698-6.994 63.845-1.078 90.305 5.118 12.319 2.883 21.428 13.108 22.666 25.445 4.64 46.11 40.439 82.634 71.278 87.75.345 9.563-2.246 18.687-7.502 26.557-10.29 2.798-19.327 6.352-27.368 10.746zm85.857-19.209c-11.459.933-23.235 1.907-35.089 3.683l-.918-22.582c0-.003 0-.005 0-.008l-.006-.145-.767-18.874c7.393 2.561 15.318 3.97 23.571 3.97 8.255 0 16.182-1.411 23.576-3.972l-1.511 37.188c-2.878.251-5.815.493-8.856.74zm15.83 197.182c19.424 9.219 21.03 14.798 20.997 16.441-.067 3.312-6.16 9.275-22.327 16.284zm-44.135-113.932c8.792-.114 17.88.059 27.793.522 2.016.092 3.99.164 5.931.225l-6.176 151.895c-5.011 2.094-14.317 3.93-24.675 5.799l-6.428-158.381c1.135-.025 2.31-.044 3.555-.06zm-26.826 10.202c-1.19-1.883-.608-4.331 1.334-5.579 1.998-1.288 4.28-2.252 6.991-2.962l.716 17.643c-4.266-3.301-7.293-6.345-9.041-9.102zm41.925 203.553c-5.594 0-10.156-4.378-10.385-9.964l-.351-8.664c7.018-.598 14.175-1.229 21.545-2.041l-.436 10.708c-.222 5.586-4.779 9.961-10.373 9.961zm75.153-120.54c12.876 11.824 17.524 25.549 13.441 39.692-5.703 19.759-27.773 36.865-53.672 41.599-5.509 1.007-11.14 1.876-17.219 2.656-11.558 1.489-22.747 2.435-33.568 3.35l-3.289.279c-28.936 2.455-56.468 4.792-68.796 20.908 8.776-16.068 46.463-22.797 69.896-26.981l2.899-.516c15.216-2.705 27.295-4.852 34.688-8.289.945-.332 1.874-.663 2.773-.991 28.887-10.506 42.462-21.388 42.724-34.244.165-8.13-3.855-19.125-35.337-32.91l1.151-28.297c18.902 8.617 37.253 17.266 44.309 23.744z"/><path d="m352.536 216.187c1.935 0 3.868-.744 5.336-2.229 2.91-2.947 2.882-7.695-.065-10.606l-1.897-1.875c-2.946-2.911-7.694-2.882-10.606.064-2.91 2.947-2.882 7.695.065 10.606l1.897 1.875c1.461 1.444 3.366 2.165 5.27 2.165z"/></g></g></svg>