<svg id="Capa_1" enable-background="new 0 0 512 512" height="512" viewBox="0 0 512 512" width="512" xmlns="http://www.w3.org/2000/svg"><g><g><g><path d="m381.367 283.659c-42.726-13.703-81.925-34.148-117.613-61.346 23.503-54.014 58.68-101.928 90.491-151.608 5.639-8.8 11.171-17.655 16.509-26.612 35.367 9.864 67.207 26.471 95.535 49.83-4.291 9.503-8.387 19.107-12.377 28.767-22.537 54.518-41.7 110.784-72.545 160.969z" fill="#c88b7c"/><path d="m300.409 247.138c-12.605-7.533-24.826-15.802-36.654-24.825 27.68-63.576 71.509-118.718 107.008-178.215 11.721 3.26 23.049 7.274 33.993 12.024-34.762 63.682-72.05 126.048-104.347 191.016z" fill="#b4634b"/><path d="m453.913 122.691-99.667-51.985c5.639-8.8 11.171-17.655 16.509-26.612 35.367 9.864 67.207 26.471 95.535 49.83-4.292 9.502-8.388 19.107-12.377 28.767z" fill="#b4634b"/><path d="m482.307 61.767-94.35-49.212c-11.399-5.945-25.459-1.525-31.404 9.874-5.945 11.399-1.525 25.459 9.874 31.404l94.35 49.212c11.399 5.945 25.459 1.525 31.404-9.874 5.945-11.398 1.524-25.458-9.874-31.404z" fill="#c88b7c"/><path d="m405.655 74.291-39.225-20.459c-11.402-5.947-15.822-20.005-9.879-31.398l.005-.009c5.943-11.393 20-15.813 31.402-9.866l39.225 20.459c-11.393-5.943-25.451-1.523-31.394 9.871l-.005.009c-5.943 11.393-1.523 25.451 9.871 31.393z" fill="#b4634b"/></g><g><ellipse cx="107.767" cy="145.342" fill="#94c949" rx="52.331" ry="105.872" transform="matrix(.707 -.707 .707 .707 -71.208 118.772)"/></g><g><ellipse cx="169.122" cy="118.049" fill="#a2d162" rx="66.567" ry="110.549"/></g><g><ellipse cx="198.032" cy="174.474" fill="#c0df8f" rx="105.872" ry="52.331" transform="matrix(.707 -.707 .707 .707 -65.369 191.132)"/></g><path d="m444.418 411.908c-19.77 19.77-40.83 47.3-49.04 72.46-3.92 12.02-15.15 20.13-27.8 20.13h-223.16c-12.64 0-23.88-8.11-27.8-20.13-8.2-25.16-29.27-52.69-49.04-72.46-25.24-25.25-31.56-92.57-18.61-138.86l.4-.08 177.18-35.35 236.48 35.43c1.67 5.96 3.02 12.27 4.04 18.8 6.971 44.13-.65 98.06-22.65 120.06z" fill="#365e7d"/><path d="m200.733 504.498h-56.31c-12.65 0-23.88-8.11-27.8-20.13-8.2-25.16-29.27-52.69-49.04-72.46-25.25-25.25-31.56-92.57-18.61-138.86l177.58-35.43 6.2 1.06-71.83 34.37c-5.4 46.29-2.76 113.61 7.76 138.86 8.25 19.77 17.03 47.3 20.45 72.46 1.64 12.02 6.32 20.13 11.6 20.13z" fill="#2b4d66"/><path d="m467.069 291.848h-383.621c-14.37 0-26.98-7.54-34.08-18.88l177.18-35.35 236.48 35.43c1.67 5.96 3.021 12.27 4.041 18.8z" fill="#2b4d66"/><path d="m456.552 173.289h-401.104c-22.21 0-40.215 18.005-40.215 40.215v19.333c0 22.21 18.005 40.215 40.215 40.215h401.104c22.21 0 40.215-18.005 40.215-40.215v-19.333c0-22.21-18.005-40.215-40.215-40.215z" fill="#365e7d"/><path d="m207.089 273.051h-151.641c-22.21 0-40.22-18.01-40.22-40.22v-19.33c0-22.21 18.01-40.21 40.22-40.21h151.64c-22.21 0-40.22 18-40.22 40.21v19.33c0 22.21 18.01 40.22 40.221 40.22z" fill="#2b4d66"/></g><path d="m456.552 165.789h-11.867c.438-1.105.879-2.21 1.317-3.315 6.5-16.395 13.2-33.284 20.233-49.751 1.748.305 3.505.458 5.255.458 11.109-.001 21.856-6.028 27.34-16.541 3.803-7.289 4.538-15.622 2.072-23.465-2.466-7.842-7.838-14.255-15.127-18.057l-94.35-49.213c-7.29-3.802-15.625-4.537-23.466-2.072-7.842 2.466-14.255 7.838-18.057 15.127-6.348 12.17-3.728 26.679 5.466 35.936-9.419 15.102-19.372 30.169-29.035 44.795-14.15 21.415-28.737 43.526-41.909 66.097h-11.479c7.845-21.366 10.409-44.358 7.384-67.166-.445-3.359-3.089-6.003-6.448-6.449-11.297-1.499-22.54-1.635-33.542-.491-7.86-36.145-31.5-68.081-67.22-90.533-2.439-1.534-5.544-1.534-7.983 0-10.122 6.367-19.436 13.644-27.686 21.633-2.976 2.881-3.052 7.629-.17 10.605 2.881 2.977 7.629 3.053 10.605.17 6.41-6.208 13.541-11.952 21.245-17.118 29.736 19.896 49.466 47.108 56.354 77.59-26.081 5.592-50.234 18.608-69.762 38.137-9.987 9.988-18.323 21.286-24.856 33.622h-9.798c-7.302-15.205-11.011-31.241-11.011-47.739 0-21.925 6.781-43.632 19.611-62.774 2.306-3.441 1.386-8.1-2.055-10.406s-8.099-1.387-10.406 2.054c-5.42 8.086-9.883 16.589-13.348 25.369-22.698-9.299-47.397-12.509-71.941-9.248-3.359.446-6.001 3.088-6.447 6.447-4.528 34.082 3.629 68.642 22.514 96.885-22.778 3.594-40.252 23.356-40.252 47.127v19.333c0 20.898 13.51 38.688 32.252 45.128-10.658 46.345-4.611 112.337 22.291 139.25 22.814 22.803 40.464 48.776 47.211 69.48 4.936 15.137 18.973 25.306 34.93 25.306h223.16c15.957 0 29.994-10.169 34.93-25.303 5.719-17.528 18.932-38.442 37.203-58.889 2.76-3.089 2.493-7.83-.596-10.59s-7.831-2.493-10.59.595c-7.51 8.405-18.94 22.287-28.304 38.313h-288.491c-9.599-16.45-23.098-33.776-38.847-49.517-10.537-10.541-18.366-31.367-21.481-57.138-2.821-23.335-1.567-48.102 3.391-68.936.219.003.436.017.656.017h401.104c.22 0 .437-.014.656-.017 9.358 39.117 5.11 88.824-10.302 115.626-2.064 3.591-.827 8.176 2.764 10.241 1.178.677 2.463 1 3.731 1 2.597 0 5.121-1.351 6.509-3.763 8.937-15.542 14.834-37.928 16.604-63.032 1.526-21.634-.076-43.579-4.501-62.641 18.742-6.439 32.254-24.23 32.254-45.129v-19.333c0-26.31-21.405-47.715-47.715-47.715zm-64.072 305.336c-1.601 3.6-3.036 7.249-4.234 10.92-2.916 8.945-11.222 14.955-20.668 14.955h-223.16c-9.446 0-17.752-6.01-20.669-14.954-1.148-3.524-2.574-7.176-4.251-10.921zm-29.278-445.228c1.949-3.736 5.237-6.49 9.258-7.754 1.561-.491 3.16-.734 4.751-.734 2.506 0 4.992.604 7.277 1.796l94.351 49.212c3.737 1.949 6.491 5.236 7.755 9.256 1.264 4.021.887 8.292-1.063 12.03-1.949 3.736-5.236 6.49-9.257 7.754s-8.292.887-12.028-1.063l-94.351-49.212c-7.714-4.022-10.716-13.571-6.693-21.285zm-24.354 82.064c9.666-14.629 19.621-29.699 29.094-44.877l84.384 44.014c-7.067 16.556-13.766 33.448-20.269 49.848-1.169 2.949-2.342 5.896-3.513 8.844h-126.696c11.777-19.631 24.56-39.001 37-57.829zm-172.518 34.812c26.524-26.525 62.609-39.604 99.767-36.367 1.754 20.321-1.416 40.649-9.249 59.383h-108.702c5.117-8.305 11.19-16.022 18.184-23.016zm-126.624-65.496c20.37-1.767 40.708 1.431 59.473 9.308-2.718 10.295-4.121 20.85-4.121 31.464 0 16.432 3.22 32.439 9.577 47.739h-38.549c-19.648-24.967-29.102-56.757-26.38-88.511zm449.561 155.56c0 18.039-14.676 32.714-32.715 32.714h-401.104c-18.039 0-32.715-14.676-32.715-32.714v-19.333c0-18.039 14.676-32.715 32.715-32.715h401.104c18.039 0 32.715 14.676 32.715 32.715z"/></g></svg>