<svg id="Capa_1" enable-background="new 0 0 512 512" height="512" viewBox="0 0 512 512" width="512" xmlns="http://www.w3.org/2000/svg"><g><g><g><path d="m449.672 37.528c9.598 9.598 10.456 24.874 1.993 35.486l-108.082 135.53-64.927-64.927 135.53-108.082c10.612-8.463 25.888-7.605 35.486 1.993z" fill="#f5f0f0"/><path d="m449.666 37.523c-2.645-2.616-12.043 2.394-21.87 11.629l-125.552 118.046-23.584-23.584 135.519-108.079c10.617-8.46 25.89-7.61 35.487 1.988z" fill="#e8ded8"/><path d="m287.528 139.94h.01v25.109h-.01z" fill="#e8ded8" transform="matrix(.707 -.707 .707 .707 -23.613 247.982)"/><path d="m381.733 201.067c-29.407-34.326-61.274-66.192-95.599-95.599-15.855-13.583-39.306-13.421-55.058.281-37.822 32.901-73.183 68.263-106.085 106.085-13.702 15.752-13.864 39.203-.281 55.058 29.407 34.326 61.274 66.192 95.599 95.599 15.855 13.583 39.306 13.421 55.058-.281 37.822-32.901 73.183-68.263 106.085-106.085 13.702-15.752 13.864-39.204.281-55.058z" fill="#f5f0f0"/><path d="m151.966 297.253c-9.309-9.886-18.397-20.008-27.256-30.359-13.58-15.856-13.417-39.307.281-55.059 32.901-37.821 68.262-73.183 106.084-106.084 15.76-13.706 39.203-13.861 55.059-.281 10.351 8.859 20.473 17.947 30.359 27.256-15.095-6.199-32.915-3.643-45.801 7.573-39.632 34.475-76.678 71.52-111.145 111.145-11.216 12.886-13.773 30.707-7.581 45.809z" fill="#e8ded8"/><path d="m364.781 250.289c-39.334-45.912-81.957-88.536-127.869-127.869-21.206-18.168-52.574-17.952-73.643.376-50.589 44.007-97.887 91.305-141.894 141.894-18.328 21.069-18.544 52.436-.376 73.643 39.334 45.912 81.957 88.535 127.869 127.869 21.206 18.168 52.574 17.952 73.643-.376 50.589-44.008 97.887-91.306 141.894-141.894 18.328-21.069 18.544-52.437.376-73.643z" fill="#a2c6fe"/><path d="m37.87 357.599c-5.689-6.354-11.319-12.782-16.875-19.269-18.161-21.205-17.947-52.569.377-73.641 44.013-50.589 91.307-97.882 141.896-141.896 21.072-18.324 52.436-18.538 73.641-.377 6.487 5.556 12.915 11.186 19.269 16.876-17.274-2.571-35.435 2.261-49.422 14.43-55.066 47.9-106.556 99.39-154.456 154.456-12.169 13.986-17.001 32.147-14.43 49.421z" fill="#7898d5"/><path d="m221.641 406.574c29.986-25.689 57.823-53.527 83.513-83.513 11.866-13.85 11.724-34.337-.246-48.097-28.742-33.04-59.633-63.931-92.673-92.673-13.76-11.97-34.247-12.111-48.097-.246-29.986 25.689-57.823 53.527-83.513 83.513-11.866 13.85-11.724 34.337.246 48.097 28.742 33.04 59.633 63.931 92.673 92.673 13.76 11.971 34.247 12.112 48.097.246z" fill="#ffd064"/><g><path d="m244.784 342.863c-27.773 10.573-60.386 4.692-82.758-17.681-22.38-22.38-28.253-54.985-17.688-82.766 16.912-6.435 35.627-6.768 52.709-.99 10.987 3.702 21.301 9.938 30.049 18.685 8.748 8.748 14.976 19.055 18.678 30.042 5.785 17.09 5.446 35.797-.99 52.71z" fill="#f5f0f0"/><path d="m236.14 306.098c-15.198 15.198-39.831 15.198-55.029 0s-15.206-39.839-.007-55.037c4.618-4.618 10.107-7.832 15.944-9.635 10.987 3.702 21.301 9.938 30.049 18.685 8.748 8.748 14.976 19.055 18.678 30.042-1.804 5.837-5.017 11.327-9.635 15.945z" fill="#365e7d"/></g></g><g><path d="m425.855 206.587c0 1.144.02 2.283.059 3.417 1.716 49.75 76.812 49.75 78.528 0 .039-1.134.059-2.273.059-3.417 0-32.024-15.461-60.433-39.323-78.182-23.862 17.749-39.323 46.158-39.323 78.182z" fill="#bee5f0"/><path d="m465.18 247.319c-19.2 0-38.407-12.437-39.265-37.317-.037-1.135-.06-2.269-.06-3.411 0-32.025 15.46-60.436 39.325-78.188-8.488 17.751-13.982 46.163-13.982 78.188 0 1.142.007 2.277.015 3.411.306 24.88 7.137 37.317 13.967 37.317z" fill="#9dd9e5"/></g></g><g><path d="m.001 302.645c-.085 15.311 5.344 30.133 15.285 41.735 39.342 45.923 82.577 89.159 128.505 128.505 11.762 10.074 26.505 15.293 41.405 15.293 9.424 0 18.91-2.088 27.746-6.356 3.73-1.802 5.293-6.286 3.492-10.016-1.802-3.73-6.289-5.292-10.016-3.491-17.442 8.425-38.195 5.747-52.869-6.823-45.344-38.846-88.03-81.533-126.873-126.873-15.588-18.191-15.445-45.588.333-63.728 43.514-50.018 90.941-97.446 140.964-140.964 18.14-15.777 45.536-15.921 63.727-.333 45.345 38.848 88.031 81.534 126.874 126.874 15.592 18.196 15.449 45.592-.332 63.727-40.28 46.303-83.938 90.409-129.761 131.094-3.098 2.75-3.379 7.491-.629 10.588 2.749 3.097 7.49 3.378 10.588.629 46.304-41.112 90.418-85.68 131.119-132.466 10.034-11.531 15.607-26.303 15.691-41.594.04-7.123-1.128-14.135-3.374-20.771 1.569-1.779 3.143-3.552 4.701-5.346 16.031-18.415 16.169-46.267.313-64.777-4.189-4.89-8.444-9.735-12.749-14.541l82.752-103.766c10.848-13.606 9.749-33.133-2.553-45.422-12.299-12.298-31.823-13.389-45.412-2.534l-23.835 19.006c-3.238 2.582-3.771 7.301-1.188 10.54 2.584 3.239 7.304 3.77 10.54 1.188l23.841-19.01c7.617-6.085 18.558-5.474 25.45 1.419 6.896 6.89 7.51 17.834 1.43 25.461l-81.251 101.887c-15.225-16.422-31.102-32.299-47.524-47.524l54.594-43.533c3.238-2.582 3.771-7.301 1.188-10.54s-7.303-3.77-10.54-1.188l-56.475 45.033c-4.809-4.307-9.655-8.563-14.548-12.754-18.508-15.852-46.355-15.71-64.776.327-1.788 1.552-3.561 3.126-5.337 4.693-6.527-2.209-13.417-3.375-20.419-3.375-.118 0-.234 0-.354.001-15.288.085-30.06 5.657-41.597 15.691-50.546 43.973-98.468 91.895-142.436 142.436-10.033 11.537-15.606 26.31-15.69 41.598zm241.459-184.441c-2.024-1.735-4.152-3.324-6.358-4.778.192-.167.381-.337.573-.504 12.861-11.196 32.278-11.303 45.178-.256 33.825 28.977 65.669 60.821 94.646 94.646 11.051 12.902 10.947 32.324-.242 45.177-.17.196-.342.387-.512.582-1.455-2.207-3.044-4.336-4.78-6.362-39.342-45.922-82.577-89.158-128.505-128.505z"/><path d="m74.827 261.955c-14.15 16.518-14.029 41.379.283 57.83 28.792 33.1 60.175 64.482 93.275 93.277 8.284 7.207 18.701 10.815 29.11 10.815 10.264 0 20.52-3.508 28.721-10.533 30.095-25.783 58.427-54.115 84.209-84.21 14.15-16.517 14.029-41.378-.282-57.83-28.794-33.1-60.178-64.483-93.276-93.277-16.453-14.311-41.313-14.432-57.83-.282-30.095 25.784-58.427 54.116-84.21 84.21zm11.391 9.759c25.284-29.511 53.067-57.294 82.578-82.577 5.412-4.637 12.184-6.952 18.962-6.952 6.887 0 13.78 2.389 19.264 7.16 32.577 28.339 63.465 59.226 91.805 91.804 9.466 10.882 9.556 27.315.208 38.227-25.283 29.512-53.066 57.295-82.578 82.577-10.911 9.347-27.345 9.259-38.226-.208-32.579-28.34-63.466-59.227-91.805-91.804-9.465-10.882-9.555-27.316-.208-38.227z"/><path d="m137.134 241.056c-11.934 31.349-4.333 66.916 19.362 90.612 16.252 16.252 38.095 24.934 60.33 24.934 10.18 0 20.44-1.819 30.287-5.563 2.002-.761 3.582-2.342 4.344-4.343 7.033-18.483 7.418-38.976 1.083-57.704-4.195-12.453-11.08-23.527-20.459-32.907-9.377-9.375-20.448-16.258-32.908-20.456-18.713-6.335-39.207-5.949-57.696 1.086-2.002.761-3.582 2.341-4.343 4.341zm100.329 50.388c-1.559 3.95-3.884 7.5-6.952 10.568-5.921 5.921-13.793 9.182-22.168 9.182-.002 0-.004 0-.006 0-8.377-.001-16.253-3.265-22.177-9.189-5.924-5.923-9.187-13.798-9.187-22.172 0-8.375 3.263-16.249 9.187-22.172 3.067-3.067 6.617-5.392 10.567-6.951 9.298 3.504 17.619 8.856 24.747 15.983 7.132 7.13 12.487 15.456 15.989 24.751zm-87.444-41.842c8.518-2.775 17.469-3.87 26.336-3.304-.266.253-.542.495-.802.754-8.757 8.757-13.58 20.398-13.58 32.779s4.823 24.022 13.58 32.779c8.756 8.757 20.398 13.581 32.78 13.583h.009c12.383 0 24.02-4.82 32.775-13.575.259-.259.5-.534.752-.799.567 8.868-.527 17.818-3.3 26.332-25.031 8.155-52.75 1.628-71.467-17.089-18.719-18.72-25.246-46.436-17.083-71.46z"/><path d="m418.915 206.604c0 1.223.021 2.44.063 3.653.47 13.628 5.759 25.122 15.296 33.237 8.374 7.125 19.448 11.05 31.184 11.05 11.734 0 22.809-3.924 31.183-11.05 9.537-8.115 14.826-19.609 15.296-33.239.042-1.21.063-2.428.063-3.651 0-32.781-15.726-64.05-42.066-83.643-2.658-1.978-6.295-1.976-8.953 0-26.34 19.594-42.066 50.862-42.066 83.643zm15 0c0-26.568 11.426-51.066 31.542-68.058 20.117 16.992 31.543 41.49 31.543 68.058 0 1.049-.018 2.093-.054 3.132-.512 14.837-10.447 29.807-31.488 29.807-21.042 0-30.977-14.97-31.489-29.805-.036-1.041-.054-2.085-.054-3.134z"/></g></g></svg>