<svg id="Capa_1" enable-background="new 0 0 511.996 511.996" height="512" viewBox="0 0 511.996 511.996" width="512" xmlns="http://www.w3.org/2000/svg"><g><g><path d="m187.198 371.812c56.005 14.688 117.206 9.093 151.439 45.424 29.147 29.946 8.054 92.896-11.831 68.155-8.124-19.964 12.18-51.299-42.286-61.051-39.488-7.934-83.503-4.267-123.041-16.097-52.728-14.858-65.957-66.197-42.336-102.508 6.505-10.002 15.807-18.875 27.848-25.52 10.542-6.375 22.452-11.99 35.122-17.236 57.594-23.841 130.775-39.838 161.591-82.774 11.95-16.617 17.546-37.27 13.429-63.979-13.869-48.461-110.841-13.11-124.32-19.245-27.348-4.766-42.076-36.731-30.036-60.831 8.633-18.895 27.368-24.281 46.902-25.799 209.731-27.138 214.587 146.153 138.199 223.801-44.255 40.168-94.944 53.497-154.806 70.144-1.968.54-3.947 1.089-5.935 1.649-17.856 3.667-46.683 12.69-62.36 24.231-16.538 12.18-18.476 27.158 22.421 41.636z" fill="#c0df8f"/><path d="m390.585 147.332c-3.068 19.464-20.903 29.337-46.882 32.874 11.95-16.617 17.546-37.27 13.429-63.979-13.869-48.461-110.841-13.11-124.32-19.245-27.348-4.766-42.076-36.731-30.036-60.831 8.633-18.895 27.368-24.281 46.902-25.799-21.962 21.962-19.584 63.709 19.794 63.709 39.369 0 135.072-15.448 121.113 73.271z" fill="#a2d162"/><path d="m233.072 304.296c-1.968.54-3.947 1.089-5.935 1.649-17.856 3.667-46.683 12.69-62.36 24.231-14.448-21.513-33.583-24.86-45.634-24.44 6.505-10.002 15.807-18.875 27.848-25.52 10.542-6.375 22.452-11.99 35.122-17.236z" fill="#a2d162"/><g><path d="m346.739 473.432c-8.124-19.964 12.189-51.301-42.283-61.059-39.49-7.925-83.507-4.258-123.043-16.092-63.171-17.809-69.639-87.951-23.984-121.914-3.602 1.883-7.089 3.828-10.435 5.85-55.761 30.785-52.772 109.066 14.482 128.026 39.537 11.834 83.553 8.167 123.043 16.092 54.472 9.758 34.159 41.095 42.283 61.059 8.959 11.141 18.16 4.491 22.906-8.917-.988-.811-1.98-1.815-2.969-3.045z" fill="#a2d162"/></g><path d="m234.111 304.006c17.596-4.896 34.393-9.502 50.47-14.628v99.89c-15.827-3.807-32.974-6.065-50.47-8.613z" fill="#f5f0f0"/><path d="m369.352 500.739s-37.77 3.757-113.359 3.757c-75.579 0-113.349-3.757-113.349-3.757 11.171-24.59 47.672-38.739 91.467-45.933v-36.251c17.156 1.219 34.163 2.518 50.41 5.785.02 0 .04.01.06.01v31.615c14.428 2.658 27.928 6.115 39.818 10.512 9.263 3.417 17.546 7.414 24.54 12.03 9.412 6.215 16.477 13.579 20.413 22.232z" fill="#f5f0f0"/><path d="m248.549 299.99v82.764c-4.766-.709-9.592-1.389-14.438-2.098v-76.649c4.876-1.359 9.692-2.688 14.438-4.017z" fill="#e8ded8"/><path d="m248.549 419.654v35.152c-14.578 7.034-26.779 25.51-30.855 49.341-50.04-.919-75.05-3.407-75.05-3.407 11.171-24.59 47.672-38.739 91.467-45.933v-36.251c4.826.338 9.642.688 14.438 1.098z" fill="#e8ded8"/><path d="m255.998 120.17c130.904 0 196.318 15.339 196.318 15.339-22.496 116.572-104.287 175.605-196.318 199.4-92.031-23.795-173.822-82.828-196.318-199.401 0 0 65.414-15.338 196.318-15.338z" fill="#f5f0f0"/><path d="m256.003 334.912c-92.036-23.801-173.821-82.834-196.323-199.4 0 0 39.858-9.343 119.624-13.449 8.923 124.349 40.817 187.389 76.699 212.849z" fill="#e8ded8"/><g><path d="m310.124 192.745c-6.596-.284-13.192-.512-19.788-.691-3.987-.108-7.184-3.305-7.292-7.292-.179-6.596-.407-13.192-.691-19.788-.147-3.412-2.592-6.331-5.942-6.992-13.609-2.685-27.218-2.685-40.827 0-3.35.661-5.795 3.58-5.942 6.992-.284 6.596-.512 13.192-.691 19.788-.108 3.987-3.305 7.184-7.292 7.292-6.596.179-13.192.407-19.788.691-3.412.147-6.331 2.592-6.992 5.942-2.685 13.609-2.685 27.218 0 40.827.661 3.35 3.58 5.795 6.992 5.942 6.596.284 13.192.512 19.788.691 3.987.108 7.184 3.305 7.292 7.292.179 6.596.407 13.192.691 19.788.147 3.412 2.592 6.331 5.942 6.992 13.609 2.685 27.218 2.685 40.827 0 3.35-.661 5.795-3.58 5.942-6.992.284-6.596.512-13.192.691-19.788.108-3.987 3.305-7.184 7.292-7.292 6.596-.179 13.192-.407 19.788-.691 3.412-.147 6.331-2.592 6.992-5.942 2.685-13.609 2.685-27.218 0-40.827-.661-3.351-3.58-5.796-6.992-5.942z" fill="#dd636e"/></g></g><g><path d="m454.029 128.206c-.669-.157-5.161-1.188-13.506-2.65.154-18.957-3.331-36.648-10.411-52.669-8.659-19.595-22.277-35.654-40.477-47.73-3.452-2.289-8.106-1.349-10.396 2.103s-1.349 8.106 2.103 10.396c28.368 18.823 43.861 48.973 44.184 85.502-14.604-2.142-34.839-4.595-60.78-6.591-.071-.497-.129-.99-.206-1.488-.048-.309-.115-.614-.201-.915-5.239-18.316-20.546-28.731-45.499-30.957-19.423-1.732-41.287 1.642-58.854 4.354-9.472 1.462-21.243 3.279-24.248 2.522-.527-.224-1.078-.386-1.642-.484-10.255-1.79-19.009-8.506-24.016-18.429-5.164-10.232-5.386-22.068-.594-31.661.039-.079.077-.157.113-.237 5.989-13.115 18.527-19.727 40.656-21.438.129-.01.257-.023.385-.04 41.909-5.429 77.458-2.954 105.661 7.356 3.892 1.423 8.197-.578 9.619-4.469s-.579-8.197-4.469-9.619c-30.443-11.13-68.306-13.878-112.546-8.169-17.478 1.372-41.857 6.016-52.896 30.029-4.851 9.781-6.116 21.081-3.86 31.964-5.751 3.247-12.939 1.254-25.668-3.448-12.725-4.701-27.146-10.029-41.982-3.752-3.815 1.614-5.599 6.015-3.985 9.83 1.615 3.815 6.015 5.599 9.83 3.985 3.914-1.656 8.026-1.931 12.295-1.405-2.022 1.202-3.905 2.554-5.602 4.046-5.894 5.181-9.14 11.702-9.14 18.363 0 4.142 3.358 7.5 7.5 7.5s7.5-3.358 7.5-7.5c0-3.083 2.533-5.769 4.043-7.096 5.665-4.979 15.078-7.629 23.58-6.677 4.963 1.542 10.141 2.714 15.291 2.714 3.889 0 7.761-.669 11.509-2.346 7.135 13.309 19.214 22.414 33.434 25.136 5.704 1.999 14.59.763 31.52-1.85 38.74-5.978 77.168-9.804 86.653 13.073-26.062-1.654-57.012-2.788-92.93-2.788-130.273 0-195.325 14.902-198.031 15.537-3.92.919-6.415 4.77-5.652 8.723 12.778 66.21 43.788 112.039 80.23 143.759-21.121 16.027-33.237 40.407-32.101 65.726 1.224 27.301 17.585 50.995 43.766 63.381 1.036.49 2.127.722 3.203.722 2.809 0 5.503-1.586 6.785-4.294 1.771-3.744.172-8.216-3.572-9.987-21.382-10.116-34.211-28.52-35.196-50.494-.963-21.486 10.101-42.243 29.136-55.237 11.443 8.776 23.261 16.302 35.095 22.75-22.163 9.891-33.395 20.927-33.417 32.906-.023 12.849 12.554 23.552 38.452 32.72.197.07.398.132.6.185 18.034 4.729 36.439 7.381 54.239 9.946 37.016 5.334 71.979 10.373 93.644 33.366.028.029.056.059.083.087 12.009 12.34 13.766 31.131 11.183 44.692-3.911-2.073-8.144-4.025-12.652-5.852-.273-7.563-1.337-16.105-6.528-23.837-6.9-10.279-19.775-16.986-39.36-20.505-.004 0-.008-.001-.012-.002-16.071-3.218-32.721-4.57-51.248-5.887l-2.524-.181c-18.165-1.3-36.948-2.644-54.556-6.329-4.057-.85-8.029 1.75-8.877 5.804-.849 4.055 1.75 8.029 5.804 8.877 17.13 3.585 34.849 5.039 52.12 6.29v22.955c-49.539 9.023-80.074 25.543-90.795 49.145-1 2.202-.877 4.75.33 6.846s3.351 3.48 5.757 3.72c1.557.155 39.003 3.793 114.091 3.793 75.099 0 112.544-3.639 114.102-3.793 2.407-.24 4.551-1.625 5.758-3.722 1.207-2.096 1.329-4.646.327-6.848-3.704-8.142-9.864-15.515-18.329-21.983 5.596-19.415 2.868-46.437-13.795-63.601-14.1-14.944-32.007-23.224-51.975-28.621v-51.942c65.76-24.356 145.056-77.737 167.6-194.557.761-3.953-1.733-7.804-5.653-8.723zm-137.691 327.665c-7.466-2.278-15.566-4.319-24.257-6.091v-16.107c18.148 4.861 22.927 12.597 24.257 22.198zm-60.345 41.125c-49.844 0-83.353-1.661-100.104-2.763 13.188-14.624 40.273-25.593 79.438-32.027 3.624-.596 6.284-3.728 6.284-7.401v-28.181c12.89.976 24.348 2.06 35.47 3.96v25.38c0 3.618 2.583 6.72 6.141 7.376 14.64 2.697 27.618 6.119 38.581 10.172 8.959 3.306 16.699 7.092 23.004 11.253 4.48 2.958 8.246 6.123 11.276 9.469-16.762 1.103-50.266 2.762-100.09 2.762zm-94.75-150.806c.005-3.009 3.896-7.367 10.408-11.658 6.376-4.202 15.289-8.434 25.893-12.31 9.883 4.548 19.643 8.4 29.067 11.662v38.058c-12.461-1.914-25.023-4.128-37.205-7.305-26.814-9.543-28.165-17.038-28.163-18.447zm80.431 27.977c-.021-.003-.042-.006-.063-.009v-36.367c4.756.794 9.571 1.195 14.387 1.195 7.091 0 14.182-.862 21.083-2.583v43.528c-11.41-2.302-23.305-4.02-35.407-5.764zm142.69-118.753c-27.282 28.457-62.68 50.243-105.209 64.755-14.933 5.095-31.381 5.095-46.313 0-42.529-14.512-77.927-36.298-105.209-64.755-29.334-30.597-49.196-68.955-59.102-114.111 27.995-5.423 94.006-13.634 187.467-13.634s159.475 8.211 187.467 13.633c-9.906 45.157-29.767 83.515-59.101 114.112z"/><path d="m248.038 32.172c-4.142 0-7.5 3.358-7.5 7.5s3.358 7.5 7.5 7.5h1c4.142 0 7.5-3.358 7.5-7.5s-3.358-7.5-7.5-7.5z"/><path d="m234.133 150.624c-6.758 1.333-11.686 7.102-11.983 14.027-.278 6.464-.512 13.162-.693 19.905-6.716.182-13.414.416-19.908.695-6.926.298-12.694 5.226-14.027 11.983-2.863 14.509-2.863 29.222 0 43.731 1.333 6.757 7.102 11.685 14.027 11.983 6.494.279 13.191.513 19.905.693.183 6.748.417 13.445.695 19.906.297 6.926 5.225 12.695 11.983 14.029 7.254 1.431 14.56 2.146 21.865 2.146 7.306 0 14.611-.715 21.865-2.147 6.757-1.333 11.685-7.102 11.983-14.027.278-6.462.512-13.16.693-19.905 6.716-.182 13.414-.416 19.908-.695 6.925-.298 12.693-5.226 14.027-11.983 2.863-14.509 2.863-29.223 0-43.731-1.333-6.758-7.101-11.686-14.027-11.984-6.494-.279-13.191-.513-19.905-.692-.183-6.746-.417-13.444-.695-19.908-.298-6.926-5.226-12.694-11.983-14.027-14.509-2.862-29.222-2.862-43.73.001zm40.728 14.697c.275 6.376.505 12.986.686 19.645.216 7.963 6.624 14.369 14.586 14.584 6.628.18 13.237.411 19.644.686 2.458 12.517 2.457 25.209 0 37.727-6.407.275-13.016.506-19.644.686-7.962.215-14.37 6.622-14.586 14.586-.181 6.658-.411 13.265-.688 19.645-12.516 2.456-25.209 2.456-37.725 0-.275-6.375-.505-12.984-.686-19.645-.216-7.963-6.624-14.37-14.586-14.585-6.627-.18-13.234-.41-19.645-.688-2.457-12.518-2.457-25.208 0-37.726 6.407-.275 13.016-.506 19.644-.686 7.962-.215 14.37-6.622 14.586-14.585.181-6.656.411-13.264.688-19.645 12.517-2.456 25.209-2.456 37.726.001z"/></g></g></svg>