<svg id="Capa_1" enable-background="new 0 0 511.998 511.998" height="512" viewBox="0 0 511.998 511.998" width="512" xmlns="http://www.w3.org/2000/svg"><g><g><path d="m132.423 470.583c107.954 10.174 215.907 10.174 323.861 0 15.813-1.49 28.347-14.024 29.838-29.838 10.174-107.954 10.174-215.908 0-323.861-1.49-15.813-14.024-28.347-29.838-29.838-107.954-10.174-215.907-10.174-323.861 0-15.813 1.49-28.347 14.024-29.838 29.838-10.174 107.954-10.174 215.908 0 323.861 1.49 15.814 14.024 28.348 29.838 29.838z" fill="#a2c6fe"/><path d="m291.781 115.517c-90.18 0-163.289 73.11-163.289 163.3 0 90.18 73.11 163.289 163.289 163.289 90.19 0 163.299-73.11 163.299-163.289.001-90.19-73.109-163.3-163.299-163.3zm0 277.299c-62.96 0-113.99-51.04-113.99-114s51.03-114 113.99-114 114 51.04 114 114c0 62.961-51.04 114-114 114z" fill="#7898d5"/><path d="m297.883 284.357c2.11 3 3.34 6.66 3.34 10.62 0 7.97-5.03 14.75-12.08 17.39-.41 38.14-1.51 76.27-3.31 114.41-.85 18.2-1.86 36.41-3.04 54.61-8.27 1.55-16.53 2.94-24.8 4.16-62.74 9.32-125.48 9.32-188.219 0-8.27-1.22-16.53-2.61-24.8-4.16-1.18-18.2-2.19-36.41-3.05-54.61-1.8-38.14-2.89-76.27-3.3-114.41-3.53-1.32-6.55-3.67-8.68-6.7-2.14-3.02-3.4-6.71-3.4-10.69 0-7.91 4.94-14.64 11.89-17.33 0-11.83.08-23.66.22-35.49-3.54-1.32-6.56-3.67-8.71-6.69-2.14-3.03-3.4-6.72-3.4-10.71 0-8.21 5.33-15.17 12.71-17.63.17-7.52.36-15.05.59-22.58 1.59-53.38 36.9-98.19 85.18-113.87.03-8.68.16-17.36.42-26.04.61-20.61 17.45-37.1 38.07-37.14h.74c20.62.04 37.45 16.53 38.07 37.14.26 8.68.39 17.36.42 26.04 48.28 15.68 83.58 60.49 85.18 113.87.23 7.53.42 15.06.59 22.58 7.38 2.46 12.71 9.42 12.71 17.63 0 7.98-5.04 14.77-12.11 17.4.14 11.83.21 23.66.22 35.49 3.479 1.35 6.449 3.7 8.549 6.71z" fill="#f5f0f0"/><path d="m163.894 492.541c-39.644 0-79.277-3.716-118.911-11.148-3.633-56.34-5.755-112.69-6.355-169.029-3.519-1.325-6.542-3.674-8.684-6.697-2.143-3.022-3.395-6.707-3.395-10.692 0-7.908 4.937-14.636 11.893-17.328 0-11.831.083-23.662.217-35.493-3.53-1.315-6.562-3.675-8.705-6.697-2.143-3.023-3.405-6.707-3.405-10.703 0-8.208 5.331-15.164 12.711-17.628.176-7.525.362-15.05.59-22.575 1.594-53.39 36.901-98.188 85.177-113.869.031-8.685.166-17.358.424-26.043.611-20.608 17.452-37.097 38.07-37.139h.238c-7.432.041-13.497 16.53-13.715 37.139-.093 8.685-.145 17.358-.155 26.043-17.4 15.681-30.121 60.48-30.69 113.869-.083 7.256-.145 14.512-.207 21.768-4.182.528-7.929 2.453-10.765 5.289-3.364 3.364-5.444 8.012-5.444 13.146 0 9.388 6.956 17.141 15.982 18.404-.041 11.138-.072 22.285-.072 33.423-4.068.58-7.701 2.484-10.465 5.248-3.364 3.364-5.444 8.012-5.444 13.146 0 9.378 6.945 17.141 15.971 18.404.228 55.998.994 112.017 2.287 168.015 14.284 7.431 28.568 11.147 42.852 11.147z" fill="#e8ded8"/><path d="m285.833 426.776c-.85 18.2-1.86 36.41-3.04 54.61-8.27 1.55-16.53 2.94-24.8 4.16h-188.22c-8.27-1.22-16.53-2.61-24.8-4.16-1.18-18.2-2.19-36.41-3.05-54.61z" fill="#e8ded8"/><path d="m280.102 445.736h-232.44c-16.226 0-29.38 13.154-29.38 29.38 0 16.226 13.154 29.38 29.38 29.38h232.44c16.226 0 29.38-13.154 29.38-29.38 0-16.226-13.154-29.38-29.38-29.38z" fill="#f5f0f0"/><path d="m106.664 495.896c5.32 5.31 12.669 8.602 20.784 8.602h-79.784c-8.115 0-15.464-3.292-20.785-8.602-5.31-5.32-8.602-12.669-8.602-20.785 0-16.22 13.156-29.376 29.386-29.376h79.784c-16.23 0-29.386 13.156-29.386 29.376.002 8.116 3.293 15.465 8.603 20.785z" fill="#e8ded8"/></g><g><path d="m493.587 116.184c-1.826-19.384-17.22-34.778-36.604-36.604-76.204-7.176-153.425-9.307-229.563-6.353-5.493-3.015-11.235-5.663-17.21-7.885-.059-7.324-.187-14.214-.387-20.93-.749-24.854-20.762-44.362-45.577-44.412h-.75c-24.794.05-44.803 19.558-45.552 44.415-.205 6.867-.335 13.885-.391 20.929-49.615 18.451-83.617 65.594-85.211 118.98-.168 5.566-.322 11.366-.476 17.97-7.844 4.62-12.829 13.089-12.829 22.459 0 5.422 1.655 10.623 4.796 15.054 1.981 2.781 4.443 5.119 7.265 6.919-.087 8.755-.142 17.585-.161 26.356-7.364 4.736-11.9 12.863-11.9 21.891 0 5.424 1.652 10.622 4.776 15.03 1.992 2.81 4.487 5.172 7.356 6.988.509 41.189 1.837 82.66 3.934 123.451-14.17 5.149-24.32 18.748-24.32 34.675 0 9.851 3.834 19.111 10.797 26.073 6.969 6.969 16.232 10.807 26.083 10.807h232.44c16.709 0 30.85-11.173 35.365-26.437 46.99-.571 94.563-3.08 141.514-7.508 19.382-1.825 34.776-17.219 36.604-36.603 10.168-107.915 10.168-217.35.001-325.265zm-213.482 380.814h-232.44c-5.845 0-11.341-2.277-15.477-6.413-4.129-4.129-6.403-9.622-6.403-15.467 0-12.064 9.815-21.88 21.88-21.88h23.21c4.142 0 7.5-3.358 7.5-7.5s-3.358-7.5-7.5-7.5h-20.863c-2.12-41.63-3.437-83.958-3.895-125.957-.034-3.093-1.962-5.848-4.857-6.937-2.107-.793-3.908-2.182-5.208-4.015-1.317-1.858-2.014-4.056-2.014-6.355 0-4.606 2.788-8.663 7.103-10.334 2.885-1.118 4.788-3.893 4.79-6.987.01-11.765.083-23.679.217-35.414.036-3.164-1.917-6.009-4.881-7.114-2.093-.78-3.896-2.17-5.205-4.006-1.324-1.868-2.024-4.069-2.024-6.365 0-4.774 3.051-8.999 7.593-10.512 3.005-1.002 5.057-3.783 5.126-6.95.188-8.562.372-15.715.578-22.517 1.46-48.906 33.613-91.89 80.008-106.96 3.084-1.002 5.175-3.873 5.183-7.116.021-8.686.159-17.379.411-25.834.504-16.713 13.94-29.831 30.574-29.865h.72c16.655.034 30.095 13.151 30.599 29.862.244 8.182.378 16.636.411 25.846.012 3.24 2.102 6.106 5.183 7.107 46.386 15.067 78.539 58.052 80.007 106.953.232 8.028.422 15.395.579 22.523.069 3.166 2.12 5.947 5.124 6.949 4.537 1.514 7.585 5.739 7.585 10.513 0 4.596-2.9 8.764-7.218 10.372-2.965 1.104-4.918 3.95-4.882 7.114.137 12.032.207 23.944.207 35.407 0 3.098 1.905 5.877 4.793 6.995 2.066.799 3.841 2.192 5.123 4.014 1.293 1.848 1.977 4.033 1.977 6.319 0 4.588-2.893 8.753-7.199 10.365-2.901 1.086-4.836 3.844-4.87 6.942-.459 41.998-1.775 84.327-3.895 125.957h-176.96c-4.142 0-7.5 3.358-7.5 7.5s3.358 7.5 7.5 7.5h179.31c5.837 0 11.332 2.276 15.467 6.403 4.136 4.136 6.414 9.632 6.414 15.477-.001 12.064-9.816 21.88-21.881 21.88zm23.915-216.959c-1.956-2.78-4.396-5.127-7.198-6.942-.014-8.615-.065-17.453-.154-26.379 7.374-4.729 12.051-13 12.051-21.964 0-9.368-4.981-17.836-12.819-22.458-.135-5.716-.292-11.637-.475-17.97-.121-4.032-.449-8.023-.933-11.975 57.476 1.443 103.789 48.648 103.789 106.466 0 57.643-46.033 104.731-103.267 106.446.768-22.739 1.302-45.552 1.583-68.279 7.413-4.721 12.122-13.021 12.122-22.01 0-5.38-1.622-10.539-4.699-14.935zm174.634 160.003c-1.152 12.221-10.857 21.926-23.077 23.077-46.077 4.345-92.757 6.824-138.882 7.423-.999-8.118-4.639-15.631-10.521-21.513-.011-.01-.022-.02-.032-.031 87.486-7.315 156.444-80.842 156.444-170.181 0-39.145-13.585-77.401-38.252-107.723-2.614-3.213-7.338-3.698-10.551-1.085-3.213 2.614-3.699 7.338-1.085 10.551 22.498 27.655 34.888 62.55 34.888 98.257 0 85.51-69.257 155.14-154.625 155.775.564-11.396 1.07-22.837 1.513-34.31 65.757-1.437 118.808-55.37 118.808-121.465 0-66.995-54.504-121.5-121.5-121.5-.01 0-.019 0-.029 0-2.896-11.899-7.408-23.242-13.353-33.726 4.446-.377 8.919-.573 13.385-.573 36.971 0 72.808 13.172 100.909 37.091 1.412 1.201 3.139 1.789 4.858 1.789 2.122 0 4.231-.896 5.715-2.639 2.685-3.154 2.304-7.888-.85-10.573-30.812-26.226-70.101-40.668-110.631-40.668-7.567 0-15.155.506-22.623 1.491-6.051-8.069-13.014-15.448-20.781-21.953 68.852-1.841 138.441.484 207.196 6.958 12.22 1.151 21.925 10.856 23.076 23.077 10.078 106.981 10.078 215.47 0 322.451z"/><path d="m117.68 250.579c1.205.176 2.443.265 3.682.265 4.142 0 7.5-3.358 7.5-7.5s-3.358-7.5-7.5-7.5c-.515 0-1.024-.036-1.559-.114-5.428-.759-9.521-5.478-9.521-10.976 0-2.963 1.153-5.748 3.248-7.842 1.755-1.755 3.968-2.845 6.453-3.159.452-.06.903-.089 1.379-.089 4.142 0 7.5-3.358 7.5-7.5s-3.358-7.5-7.5-7.5c-1.13 0-2.261.074-3.31.214-5.684.717-11.057 3.355-15.129 7.427-4.927 4.927-7.641 11.479-7.641 18.449.001 12.936 9.649 24.041 22.398 25.825z"/><path d="m117.67 320.799c1.203.176 2.445.265 3.692.265 4.142 0 7.5-3.358 7.5-7.5s-3.358-7.5-7.5-7.5c-.524 0-1.037-.036-1.569-.114-5.422-.758-9.51-5.477-9.51-10.976 0-2.963 1.153-5.748 3.248-7.842 1.709-1.709 3.86-2.79 6.31-3.14.464-.072.976-.108 1.522-.108 4.142 0 7.5-3.358 7.5-7.5s-3.358-7.5-7.5-7.5c-1.313 0-2.598.096-3.729.272-5.6.798-10.687 3.346-14.71 7.37-4.927 4.927-7.641 11.479-7.641 18.449 0 12.937 9.643 24.042 22.387 25.824z"/><path d="m206.398 235.841c-4.142 0-7.5 3.358-7.5 7.5s3.358 7.5 7.5 7.5c14.384 0 26.087-11.703 26.087-26.087s-11.703-26.087-26.087-26.087c-4.142 0-7.5 3.358-7.5 7.5s3.358 7.5 7.5 7.5c6.113 0 11.087 4.974 11.087 11.087 0 6.114-4.974 11.087-11.087 11.087z"/><path d="m206.398 306.06c-4.142 0-7.5 3.358-7.5 7.5s3.358 7.5 7.5 7.5c14.384 0 26.087-11.703 26.087-26.087 0-14.385-11.703-26.087-26.087-26.087-4.142 0-7.5 3.358-7.5 7.5s3.358 7.5 7.5 7.5c6.113 0 11.087 4.974 11.087 11.087s-4.974 11.087-11.087 11.087z"/></g></g></svg>