<svg id="Capa_1" enable-background="new 0 0 511.981 511.981" height="512" viewBox="0 0 511.981 511.981" width="512" xmlns="http://www.w3.org/2000/svg"><g><g><path d="m290.745 113.529h-69.509l.13-1.11 9.26-82.249c1.46-12.91 12.37-22.67 25.36-22.67h.01c12.99 0 23.9 9.76 25.36 22.67l9.26 82.249z" fill="#c0df8f"/><path d="m299.925 195.028h-87.869l6.16-54.68 3.02-26.819h69.509l3.02 26.819z" fill="#f5f0f0"/><path d="m293.765 140.348h-75.549l3.15-27.929h69.249z" fill="#e8ded8"/><path d="m255.986 7.5c-3.56.02-6.53 9.77-6.93 22.67l-2.57 83.359h-25.25l9.39-83.359c1.46-12.91 12.37-22.67 25.36-22.67z" fill="#a2d162"/><path d="m246.486 113.529-2.51 81.489h-31.92l9.18-81.489z" fill="#e8ded8"/><path d="m212.053 195.021h24.03v.01h-24.03z" fill="#e8ded8"/><path d="m320.686 164.148c-43.13-3.329-86.26-3.329-129.39 0-19.921 1.537-35.682 17.517-37.069 37.45-3.33 47.861-3.33 95.721 0 143.582 1.387 19.932 17.148 35.912 37.069 37.45 43.13 3.328 86.26 3.328 129.39 0 19.921-1.537 35.682-17.517 37.069-37.45 3.33-47.861 3.33-95.721 0-143.582-1.387-19.932-17.148-35.912-37.069-37.45z" fill="#f5f0f0"/><path d="m230.287 384.732c-12.99-.39-25.99-1.09-38.99-2.1-19.92-1.54-35.68-17.52-37.07-37.45-3.33-47.86-3.33-95.72 0-143.58 1.39-19.94 17.15-35.91 37.07-37.45 13-1.01 26-1.71 38.99-2.1-14.41 6.02-24.74 19.81-25.87 36.12-3.49 50.15-3.49 100.29 0 150.431 1.13 16.308 11.46 30.098 25.87 36.129z" fill="#e8ded8"/><path d="m342.524 208.93c-57.689-4.452-115.378-4.452-173.067 0-26.646 2.056-47.727 23.43-49.582 50.091-4.454 64.016-4.454 128.033 0 192.049 1.855 26.661 22.936 48.035 49.582 50.091 57.689 4.452 115.378 4.452 173.066 0 26.646-2.056 47.727-23.43 49.582-50.091 4.454-64.016 4.454-128.033 0-192.049-1.854-26.661-22.935-48.034-49.581-50.091z" fill="#c0df8f"/><path d="m193.913 502.782c-8.15-.45-16.31-.99-24.46-1.62-26.64-2.06-47.72-23.43-49.58-50.09-4.45-64.02-4.45-128.03 0-192.051 1.86-26.66 22.94-48.03 49.58-50.09 8.15-.63 16.31-1.17 24.46-1.62-13.43 9.95-22.45 25.51-23.68 43.21-4.85 69.68-4.85 139.371 0 209.051 1.23 17.7 10.25 33.26 23.68 43.21z" fill="#a2d162"/><path d="m358.534 422.555c-1.45 18.7-16.45 33.5-35.16 34.799-12.31.86-24.63 1.48-36.939 1.86-18.93.6-37.86.64-56.789.12-13.68-.37-27.36-1.03-41.04-1.98-7.02-.49-13.51-2.88-18.96-6.66-9.09-6.29-15.29-16.45-16.2-28.14-3.12-40.479-3.12-80.969 0-121.449.88-11.33 6.73-21.23 15.37-27.549 5.62-4.13 12.41-6.74 19.79-7.25 44.919-3.12 89.849-3.12 134.768 0 18.71 1.31 33.71 16.1 35.16 34.799 3.12 40.48 3.12 80.97 0 121.45z" fill="#f5f0f0"/><path d="m169.647 450.694c-9.09-6.29-15.29-16.45-16.2-28.14-3.12-40.479-3.12-80.969 0-121.449.88-11.33 6.73-21.23 15.37-27.549-3.21 59.05-2.93 118.099.83 177.138z" fill="#e8ded8"/><path d="m288.235 422.354c0 11.27-12.62 12.85-9.85 23.77 1.68 6.61 5.49 9.95 8.05 13.09-18.93.6-37.86.64-56.789.12-3.33-4.47-5.9-6.01-5.9-14.43 0-11.27 10-11.27 10-22.539s-10-11.27-10-22.55c0-11.27 10-11.27 10-22.54s-14.4-14.57-9.5-24.72c2.37-4.91 9.95 7.17 15.4 7.17 5.44 0 5.44-10 10.89-10s5.45 10 10.9 10 5.45-10 10.9-10 4.02 2.27 6.4 7.18c4.9 10.15 9.5 9.09 9.5 20.36 0 11.28-10 11.28-10 22.55-.001 11.27 9.999 11.27 9.999 22.539z" fill="#ffd064"/><g><path d="m280.001 321.041h-2.562v-33.883h-42.897v33.883h-2.562c-12.084 0-21.879 9.796-21.879 21.879v7.65c0 7.383 5.985 13.368 13.368 13.368h11.073 42.897 11.073c7.383 0 13.368-5.985 13.368-13.368v-7.65c.001-12.083-9.795-21.879-21.879-21.879z" fill="#ffddce"/><path d="m250.09 287.158v33.88h-.7c-3.32 0-6.02 9.8-6.02 21.88v7.65c0 7.39 1.65 13.37 3.68 13.37h-23.58c-7.39 0-13.37-5.98-13.37-13.37v-7.65c0-12.08 9.79-21.88 21.88-21.88h2.56v-33.88z" fill="#ffcbbe"/></g><path d="m193.64 127.493h124.701c7.714 0 13.967-6.253 13.967-13.967 0-7.713-6.253-13.967-13.967-13.967h-124.701c-7.714 0-13.967 6.253-13.967 13.967 0 7.714 6.253 13.967 13.967 13.967z" fill="#c0df8f"/><path d="m244.002 123.398c2.53 2.53 6.03 4.09 9.88 4.09h-60.239c-3.85 0-7.35-1.56-9.88-4.09-2.53-2.52-4.09-6.02-4.09-9.87 0-7.72 6.26-13.97 13.97-13.97h60.239c-7.71 0-13.97 6.25-13.97 13.97 0 3.85 1.56 7.35 4.09 9.87z" fill="#a2d162"/></g><g><path d="m400.549 273.55c-.243-4.134-3.747-7.29-7.928-7.047-4.135.243-7.29 3.792-7.047 7.927 3.434 58.404 3.115 117.66-.944 176.118-1.594 22.833-19.944 41.376-42.686 43.134-57.033 4.4-114.872 4.4-171.905 0-22.742-1.758-41.093-20.302-42.687-43.133-4.405-63.373-4.405-127.637 0-191.008 1.593-22.833 19.944-41.376 42.685-43.134 57.034-4.4 114.872-4.4 171.907 0 18.102 1.395 33.809 13.362 40.015 30.487 1.411 3.894 5.708 5.909 9.606 4.496 3.894-1.411 5.907-5.712 4.495-9.606-5.472-15.1-16.538-27.162-30.403-34.078-.139-2.208-.27-4.417-.425-6.623-1.627-23.506-20.527-42.599-43.966-44.41-6.069-.469-12.151-.865-18.24-1.202l-2.308-20.479h17.623c11.837 0 21.467-9.63 21.467-21.467 0-11.836-9.63-21.466-21.467-21.466h-22.463l-7.07-62.728c-1.877-16.721-15.988-29.331-32.822-29.331-16.829 0-30.935 12.61-32.812 29.33l-7.07 62.73h-22.464c-11.836 0-21.466 9.63-21.466 21.466 0 11.837 9.63 21.467 21.466 21.467h17.623l-2.308 20.479c-6.087.337-12.166.733-18.232 1.201-23.443 1.812-42.348 20.903-43.974 44.4-.156 2.212-.287 4.422-.426 6.631-5.988 2.982-11.504 6.936-16.286 11.771-10.355 10.471-16.623 24.33-17.648 39.024-4.453 64.063-4.453 129.027 0 193.092 1.025 14.693 7.293 28.551 17.648 39.022 10.373 10.488 24.168 16.89 38.848 18.024 28.9 2.229 58.003 3.344 87.106 3.344s58.208-1.114 87.108-3.344c14.678-1.134 28.473-7.536 38.846-18.024 10.355-10.471 16.623-24.33 17.648-39.024 4.104-59.097 4.426-118.998.956-178.039zm-162.469-242.543c1.025-9.126 8.722-16.007 17.906-16.007 9.189 0 16.891 6.881 17.917 16.01l6.881 61.05h-49.584zm-50.906 82.519c0-3.565 2.901-6.466 6.466-6.466h124.702c3.565 0 6.467 2.901 6.467 6.466 0 3.566-2.901 6.467-6.467 6.467h-25.973c-.065 0-.13-.001-.195 0h-72.365c-.067-.001-.134 0-.201 0h-25.968c-3.565 0-6.466-2.901-6.466-6.467zm39.184 21.467h59.266l2.229 19.771c-21.217-.794-42.505-.794-63.723 0zm-64.645 67.126c1.117-16.14 14.085-29.248 30.165-30.49 42.545-3.285 85.69-3.285 128.235 0 16.075 1.243 29.04 14.351 30.157 30.5.008.107.013.213.021.32-2.359-.469-4.757-.808-7.191-.996-57.8-4.458-116.414-4.458-174.215 0-2.427.188-4.826.533-7.193 1.003.007-.113.013-.225.021-.337z"/><path d="m164.209 433.536c-1.908-3.676-6.435-5.111-10.111-3.203s-5.111 6.435-3.203 10.111c7.239 13.952 21.488 23.297 37.186 24.388 22.534 1.57 45.219 2.354 67.911 2.354 22.688 0 45.382-.785 67.909-2.354 22.294-1.549 40.397-19.475 42.108-41.696 3.135-40.682 3.135-81.931 0-122.603-1.712-22.227-19.814-40.157-42.106-41.706-45.063-3.14-90.759-3.139-135.821 0-22.293 1.549-40.396 19.479-42.107 41.705-2.75 35.613-3.092 71.782-1.02 107.502.24 4.135 3.777 7.296 7.922 7.053 4.135-.24 7.293-3.787 7.053-7.922-2.034-35.048-1.697-70.536 1-105.48 1.145-14.865 13.264-26.856 28.193-27.894 44.372-3.09 89.367-3.09 133.739 0 14.927 1.037 27.047 13.029 28.192 27.894 3.075 39.907 3.075 80.381 0 120.298-1.145 14.859-13.265 26.847-28.194 27.884-10.996.766-22.031 1.341-33.086 1.728-1.794-2.088-3.305-4.114-4.118-7.316-.404-1.596-.384-2.005 2.677-5.438 2.948-3.306 7.403-8.302 7.403-16.487 0-8.483-4.146-13.156-6.891-16.248-2.199-2.479-3.109-3.504-3.109-6.292s.91-3.813 3.109-6.293c2.744-3.094 6.891-7.769 6.891-16.257 0-2.729-.232-4.973-.649-6.904 8.292-2.762 14.295-10.583 14.295-19.791v-7.65c0-14.518-10.584-26.61-24.441-28.964v-26.798c0-4.142-3.357-7.5-7.5-7.5s-7.5 3.358-7.5 7.5v33.883c0 4.142 3.357 7.5 7.5 7.5h2.563c7.929 0 14.379 6.451 14.379 14.379v7.65c0 3.236-2.633 5.868-5.868 5.868h-65.043c-3.236 0-5.868-2.632-5.868-5.868v-7.65c0-7.929 6.451-14.379 14.379-14.379h2.562c4.142 0 7.5-3.358 7.5-7.5v-33.883c0-4.142-3.358-7.5-7.5-7.5s-7.5 3.358-7.5 7.5v26.798c-13.858 2.354-24.441 14.446-24.441 28.964v7.65c0 11.423 9.228 20.72 20.62 20.855 1.942 2.304 3.025 3.899 3.025 5.85 0 2.787-.91 3.813-3.11 6.292-2.744 3.092-6.89 7.765-6.89 16.248 0 8.488 4.146 13.163 6.89 16.257 2.199 2.479 3.109 3.506 3.109 6.293s-.91 3.813-3.11 6.292c-2.744 3.092-6.89 7.765-6.89 16.248 0 2.535.204 4.645.566 6.481-9.25-.375-18.484-.876-27.691-1.517-10.521-.731-20.067-6.989-24.914-16.332zm67.038 11.368c0-2.788.91-3.813 3.11-6.292 2.744-3.092 6.89-7.765 6.89-16.247 0-8.48-4.145-13.154-6.887-16.246-2.201-2.482-3.112-3.509-3.112-6.304 0-2.788.91-3.813 3.11-6.292 2.744-3.092 6.89-7.765 6.89-16.247 0-2.145-.329-4.077-.862-5.837h39.12c.96 1.439 1.231 2.657 1.231 5.827 0 2.794-.911 3.822-3.112 6.304-2.743 3.092-6.888 7.766-6.888 16.246 0 8.482 4.146 13.155 6.89 16.248 2.2 2.479 3.11 3.505 3.11 6.292 0 2.256-.987 3.576-3.599 6.504-3.369 3.779-8.462 9.489-6.02 19.112.376 1.481.835 2.829 1.345 4.074-13.034.222-26.081.174-39.11-.131-1.681-2.128-2.106-3.033-2.106-7.011z"/></g></g></svg>