<svg id="Capa_1" enable-background="new 0 0 511.977 511.977" height="512" viewBox="0 0 511.977 511.977" width="512" xmlns="http://www.w3.org/2000/svg"><g><g><path d="m257.754 105.546c-1.176-.001-2.352-.001-3.529 0-101.187.12-183.396 81.941-184.295 183.125-.428 48.172 1.034 96.344 4.386 144.515 2.482 35.68 30.681 64.121 66.341 66.869 76.888 5.925 153.776 5.925 230.664 0 35.66-2.748 63.859-31.19 66.341-66.869 3.351-48.172 4.813-96.343 4.386-144.515-.898-101.184-83.107-183.005-184.294-183.125z" fill="#365e7d"/><path d="m255.989 504.5c-38.44 0-76.89-1.48-115.33-4.44-35.66-2.75-63.86-31.19-66.34-66.87-3.35-48.18-4.81-96.35-4.39-144.52.9-101.18 83.11-183 184.3-183.12.23 0 .46-.01.69 0-61.58.12-111.62 81.94-112.16 183.12-.26 48.17.63 96.34 2.67 144.52 1.51 35.68 18.67 64.12 40.37 66.87 23.4 2.96 46.8 4.44 70.19 4.44z" fill="#2b4d66"/><path d="m319.923 7.5h-127.867c-24.069 0-43.58 19.511-43.58 43.58v87.943h215.027v-87.943c0-24.069-19.512-43.58-43.58-43.58z" fill="#dd636e"/><g><path d="m292.081 167.649c-24.061-1.334-48.122-1.334-72.183 0-20.707 1.148-37.302 17.742-38.451 38.449-1.682 30.33-1.243 60.661 1.315 90.991.822 9.746 8.581 17.497 18.328 18.312 2.396.2 4.792.388 7.187.564.382 9.786 1.107 24.143 2.183 33.929 30.353 3.339 60.705 3.339 91.058 0 1.076-9.786 1.801-24.143 2.183-33.929 2.396-.176 4.792-.363 7.187-.564 9.747-.815 17.506-8.566 18.328-18.312 2.558-30.331 2.997-60.661 1.315-90.991-1.148-20.707-17.743-37.301-38.45-38.449z" fill="#f5f0f0"/><g fill="#2b4d66"><path d="m222.468 281.87c-7.808 0-14.138-6.33-14.138-14.138v-11.858c0-7.808 6.33-14.138 14.138-14.138 7.808 0 14.138 6.33 14.138 14.138v11.858c0 7.808-6.33 14.138-14.138 14.138z"/><path d="m289.511 281.87c-7.808 0-14.138-6.33-14.138-14.138v-11.858c0-7.808 6.33-14.138 14.138-14.138 7.808 0 14.138 6.33 14.138 14.138v11.858c0 7.808-6.33 14.138-14.138 14.138z"/></g><g fill="#f5f0f0"><g><path d="m329.179 367.281c5.869 2.281 8.778 8.889 6.496 14.758l-.165.425.425.165c5.869 2.281 8.778 8.889 6.496 14.758-2.281 5.869-8.889 8.778-14.758 6.496l-.425-.165-21.255-8.262 8.262-21.255.165-.425c2.282-5.868 8.89-8.777 14.759-6.495z"/><path d="m182.799 467.933c-5.869-2.282-8.778-8.889-6.496-14.758l.165-.425-.425-.165c-5.869-2.281-8.778-8.889-6.496-14.758 2.281-5.869 8.889-8.778 14.758-6.496l.425.165 21.255 8.262-8.262 21.255-.165.425c-2.282 5.868-8.889 8.776-14.759 6.495z"/></g><g><path d="m182.799 367.281c-5.869 2.281-8.778 8.889-6.496 14.758l.165.425-.425.165c-5.869 2.281-8.778 8.889-6.496 14.758 2.281 5.869 8.889 8.778 14.758 6.496l.425-.165 21.255-8.262-8.262-21.255-.165-.425c-2.282-5.868-8.889-8.777-14.759-6.495z"/><path d="m329.179 467.933c5.869-2.282 8.778-8.889 6.496-14.758l-.165-.425.425-.165c5.869-2.281 8.778-8.889 6.496-14.758-2.281-5.869-8.889-8.778-14.758-6.496l-.425.165-21.255 8.262 8.262 21.255.165.425c2.282 5.868 8.89 8.776 14.759 6.495z"/></g></g></g><path d="m234.607 7.5c-24.07 0-43.579 19.51-43.579 43.579v87.949h-42.552v-87.949c0-24.07 19.51-43.579 43.579-43.579z" fill="#da4a54"/></g><g><path d="m449.549 288.603c-.538-60.519-29.832-117.533-78.55-153.351v-69.172c0-4.142-3.357-7.5-7.5-7.5s-7.5 3.358-7.5 7.5v65.44h-200.019v-80.44c0-19.895 16.186-36.08 36.08-36.08h127.859c15.17 0 28.815 9.582 33.955 23.843 1.404 3.897 5.703 5.917 9.599 4.513s5.917-5.702 4.513-9.599c-7.277-20.191-26.593-33.757-48.067-33.757h-127.859c-28.166 0-51.08 22.915-51.08 51.08v84.172c-48.718 35.818-78.012 92.832-78.55 153.351-.429 48.046 1.054 96.864 4.406 145.081.122 1.811.313 3.636.568 5.425.533 3.742 3.742 6.442 7.415 6.442.353 0 .709-.025 1.068-.076 4.101-.584 6.951-4.383 6.366-8.483-.202-1.421-.354-2.873-.452-4.331-3.327-47.845-4.799-96.268-4.372-143.923.5-56.264 27.961-109.242 73.558-142.217h210.003c45.597 32.975 73.058 85.953 73.558 142.215.418 47.78-1.053 96.204-4.372 143.925-1.074 15.464-7.669 30.033-18.569 41.021-10.901 10.99-25.414 17.699-40.865 18.89-76.139 5.874-153.357 5.873-229.508 0-20.492-1.576-39.178-12.967-49.983-30.471-2.176-3.525-6.798-4.619-10.321-2.442-3.524 2.176-4.618 6.797-2.442 10.321 13.314 21.569 36.342 35.605 61.595 37.548 38.463 2.967 77.181 4.45 115.911 4.449 38.721 0 77.455-1.483 115.903-4.449 19.039-1.469 36.924-9.737 50.36-23.282 13.434-13.543 21.561-31.494 22.885-50.545 3.345-48.11 4.828-96.927 4.407-145.098z"/><path d="m200.464 322.875c.201.017.402.034.604.05.391 8.421 1.025 19.497 1.938 27.789.384 3.493 3.142 6.251 6.635 6.635 15.313 1.684 30.733 2.529 46.155 2.536.064.002.126.01.191.01.064 0 .126-.008.19-.01 15.423-.007 30.847-.851 46.164-2.536 3.493-.384 6.251-3.142 6.635-6.635.91-8.274 1.545-19.359 1.937-27.789.201-.017.402-.034.604-.05 13.454-1.125 24.042-11.705 25.176-25.156 2.576-30.535 3.023-61.501 1.33-92.037-1.363-24.588-20.935-44.158-45.523-45.522-24.225-1.344-48.789-1.344-73.014 0-24.59 1.364-44.161 20.934-45.523 45.522-1.693 30.533-1.246 61.499 1.329 92.037 1.131 13.452 11.72 24.031 25.172 25.156zm-11.528-116.362c.939-16.947 14.429-30.436 31.377-31.376 23.674-1.313 47.68-1.313 71.354 0 16.947.94 30.437 14.429 31.377 31.376 1.654 29.841 1.217 60.104-1.301 89.946-.517 6.132-5.344 10.955-11.479 11.468-2.37.198-4.739.384-7.109.557-3.807.278-6.797 3.373-6.946 7.187-.258 6.596-.772 17.876-1.569 27.388-2.288.217-4.58.408-6.872.586v-9.981c0-4.142-3.357-7.5-7.5-7.5s-7.5 3.358-7.5 7.5v10.872c-3.092.126-6.186.218-9.28.275v-11.146c0-4.142-3.357-7.5-7.5-7.5s-7.5 3.358-7.5 7.5v11.146c-3.091-.057-6.181-.148-9.27-.274v-10.872c0-4.142-3.357-7.5-7.5-7.5s-7.5 3.358-7.5 7.5v9.982c-2.293-.178-4.584-.369-6.873-.586-.838-10.036-1.362-22.036-1.571-27.388-.148-3.814-3.14-6.909-6.946-7.188-2.37-.173-4.74-.359-7.11-.558-6.135-.513-10.962-5.336-11.479-11.468-2.52-29.845-2.958-60.106-1.303-89.946z"/><path d="m222.468 289.37c11.931 0 21.638-9.707 21.638-21.639v-11.858c0-11.932-9.707-21.639-21.638-21.639-11.932 0-21.639 9.707-21.639 21.639v11.858c0 11.932 9.707 21.639 21.639 21.639zm-6.639-33.496c0-3.661 2.979-6.639 6.639-6.639s6.638 2.978 6.638 6.639v11.858c0 3.661-2.978 6.639-6.638 6.639s-6.639-2.978-6.639-6.639z"/><path d="m289.511 289.37c11.932 0 21.639-9.707 21.639-21.639v-11.858c0-11.932-9.707-21.639-21.639-21.639s-21.639 9.707-21.639 21.639v11.858c0 11.932 9.707 21.639 21.639 21.639zm-6.639-33.496c0-3.661 2.979-6.639 6.639-6.639s6.639 2.978 6.639 6.639v11.858c0 3.661-2.979 6.639-6.639 6.639s-6.639-2.978-6.639-6.639z"/><path d="m255.989 309.431c4.143 0 7.5-3.358 7.5-7.5v-18.242c0-4.142-3.357-7.5-7.5-7.5s-7.5 3.358-7.5 7.5v18.242c0 4.142 3.358 7.5 7.5 7.5z"/><path d="m205.797 431.637-18.774-7.298c-4.707-1.831-9.843-1.717-14.464.317s-8.173 5.746-10.002 10.452-1.717 9.842.317 14.463c1.193 2.71 2.963 5.053 5.171 6.896-.342 7.869 4.298 15.447 12.036 18.456h.001c2.243.872 4.552 1.284 6.825 1.284 7.573 0 14.737-4.584 17.643-12.058l7.303-18.79 44.136-19.551 44.136 19.551 7.306 18.794c1.829 4.706 5.381 8.417 10.002 10.452 2.439 1.074 5.022 1.612 7.609 1.612 2.314 0 4.632-.431 6.854-1.294 7.737-3.008 12.377-10.582 12.035-18.455 2.21-1.843 3.98-4.186 5.174-6.897 2.034-4.621 2.146-9.757.317-14.463s-5.381-8.417-10.003-10.452-9.759-2.147-14.462-.318l-18.776 7.298-31.674-14.031 31.674-14.031 18.774 7.298c2.223.864 4.54 1.295 6.854 1.295 2.587 0 5.171-.539 7.609-1.612 4.622-2.034 8.174-5.746 10.003-10.452s1.717-9.842-.317-14.463c-1.191-2.707-2.958-5.047-5.163-6.889.131-2.87-.401-5.754-1.593-8.46-2.034-4.621-5.746-8.173-10.452-10.002-4.708-1.831-9.843-1.717-14.464.317s-8.173 5.746-10.004 10.456l-7.304 18.79-44.136 19.551-44.136-19.551-7.305-18.794c-1.829-4.706-5.381-8.417-10.002-10.452-4.622-2.034-9.759-2.146-14.464-.318-7.743 3.01-12.385 10.593-12.036 18.467-6.041 5.061-8.499 13.605-5.489 21.348 1.829 4.706 5.381 8.417 10.002 10.452 2.44 1.074 5.023 1.613 7.611 1.612 2.313 0 4.628-.43 6.846-1.292l18.781-7.301 31.674 14.031zm-15.229 27.082c-.779 2.005-3.048 3-5.051 2.223-2.006-.78-3.003-3.045-2.223-5.052l.165-.425c1.499-3.858-.411-8.201-4.269-9.704l-.431-.168c-.971-.377-1.737-1.11-2.157-2.064s-.442-2.015-.065-2.986c.378-.972 1.111-1.738 2.064-2.158.954-.42 2.013-.443 2.992-.063l14.683 5.707zm139.823-20.399c.969-.376 2.032-.354 2.985.066.954.42 1.688 1.186 2.065 2.157.779 2.005-.218 4.271-2.224 5.051l-.426.166c-1.855.722-3.349 2.151-4.149 3.975-.801 1.823-.843 3.89-.118 5.745l.161.412c.779 2.005-.219 4.271-2.224 5.05-.972.379-2.031.354-2.986-.065-.953-.42-1.687-1.186-2.063-2.153l-5.712-14.693zm-8.98-61.826c.378-.972 1.111-1.738 2.064-2.158.954-.419 2.015-.443 2.985-.065h.001c.972.377 1.738 1.111 2.158 2.064.42.954.442 2.015.07 2.973l-.166.425c-.725 1.855-.683 3.922.118 5.745s2.294 3.253 4.149 3.975l.427.166c.971.377 1.737 1.11 2.157 2.064s.442 2.015.065 2.986c-.378.971-1.111 1.737-2.065 2.157s-2.014.443-2.987.065l-14.688-5.709zm-139.824 20.4c-.97.378-2.03.354-2.985-.065-.953-.42-1.687-1.186-2.064-2.158-.377-.971-.354-2.032.065-2.986s1.187-1.687 2.163-2.067l.425-.166c3.857-1.503 5.768-5.846 4.269-9.704l-.166-.426c-.779-2.006.218-4.271 2.223-5.051.459-.178.938-.267 1.416-.267.534 0 1.067.111 1.571.333.953.42 1.687 1.186 2.063 2.154l5.711 14.693z"/></g></g></svg>