<svg id="Capa_1" enable-background="new 0 0 512 512" height="512" viewBox="0 0 512 512" width="512" xmlns="http://www.w3.org/2000/svg"><g><g><path d="m331.344 371.199s-.223 58.662-14.139 112.738c-3.115 12.104-14.031 20.563-26.529 20.563h-69.346c-12.498 0-23.414-8.46-26.529-20.563-13.916-54.076-14.139-112.738-14.139-112.738" fill="#f5f0f0"/><path d="m270.543 504.5h-49.21c-12.5 0-23.42-8.46-26.53-20.56-13.92-54.08-14.14-112.74-14.14-112.74h49.22s.22 58.66 14.14 112.74c3.11 12.1 14.03 20.56 26.52 20.56z" fill="#e8ded8"/><path d="m443.553 51.41s-2.66 195.05-65.17 343.73c0 0-47.89 11.98-122.38 11.98-37.24 0-67.84-3-89.12-5.99s-33.25-5.99-33.25-5.99c-62.52-148.68-65.18-343.73-65.18-343.73s25.26-16.35 72.17-29.1c29.95-8.14 68.72-14.81 115.38-14.81 119.72 0 187.55 43.91 187.55 43.91z" fill="#c0df8f"/><path d="m443.553 51.41s-.27 19.81-2.66 51.62l-.62-.34c-14.87-7.85-79.82-38.62-184.27-38.62-51.88 0-94.02 7.59-125.11 16.2-31.51 8.71-51.68 18.47-59.16 22.42l-.63.32c-2.39-31.8-2.66-51.6-2.66-51.6s25.27-16.36 72.18-29.1c29.95-8.14 68.73-14.81 115.38-14.81 119.71 0 187.55 43.91 187.55 43.91z" fill="#a2d162"/><circle cx="256.004" cy="236.145" fill="#f5f0f0" r="103.088"/><g><path d="m300.52 214.469c-5.425-.233-10.85-.421-16.274-.568-3.279-.089-5.908-2.718-5.997-5.997-.147-5.425-.335-10.85-.568-16.274-.121-2.806-2.131-5.207-4.887-5.751-11.193-2.209-22.385-2.209-33.578 0-2.756.544-4.766 2.944-4.887 5.751-.233 5.425-.421 10.85-.568 16.274-.089 3.279-2.718 5.908-5.997 5.997-5.425.147-10.85.335-16.274.568-2.806.121-5.207 2.131-5.751 4.887-2.209 11.193-2.209 22.385 0 33.578.544 2.756 2.944 4.766 5.751 4.887 5.425.233 10.85.421 16.274.568 3.279.089 5.908 2.718 5.997 5.997.147 5.425.335 10.85.568 16.274.121 2.806 2.131 5.207 4.887 5.751 11.193 2.209 22.385 2.209 33.578 0 2.756-.544 4.766-2.944 4.887-5.751.233-5.425.421-10.85.568-16.274.089-3.279 2.718-5.908 5.997-5.997 5.425-.147 10.85-.335 16.274-.568 2.806-.121 5.207-2.131 5.751-4.887 2.209-11.193 2.209-22.385 0-33.578-.545-2.755-2.945-4.766-5.751-4.887z" fill="#dd636e"/></g><g><path d="m186.047 403.479c-7.028-.738-13.425-1.543-19.162-2.349-7.057-1-13.095-1.99-18.006-2.873-9.513-1.708-17.453-8.232-20.948-17.24-56.981-146.605-59.475-329.612-59.475-329.612s14.939-9.668 43.167-19.919c-.621 77.657 4.213 294.23 74.424 371.993z" fill="#a2d162"/><path d="m111.623 31.486c-.051.019-.109.034-.161.052-28.117 10.239-43.012 19.872-43.012 19.872s.27 19.8 2.66 51.6l.63-.32c5.874-3.102 19.577-9.787 40.448-16.732-.608-21.631-.678-40.354-.565-54.472z" fill="#94c949"/></g></g><g><path d="m447.63 45.114c-2.846-1.842-71.086-45.114-191.635-45.114-120.539 0-188.779 43.272-191.625 45.114-2.166 1.402-3.459 3.819-3.424 6.398.021 1.471 2.478 148.691 43.371 283.82 1.2 3.965 5.385 6.207 9.351 5.006 3.964-1.2 6.206-5.386 5.006-9.351-24.859-82.143-35.3-168.899-39.657-223.611 67.734-34.049 159.073-35.806 176.982-35.806 17.906 0 109.234 1.757 176.967 35.799-5.413 67.705-20.162 184.537-60.026 281.312-12.4 2.668-55.782 10.939-116.944 10.939-37.991 0-68.866-3.218-88.077-5.917-13.965-1.962-23.893-3.941-28.856-5.016-3.866-9.38-7.626-19.281-11.198-29.485-1.368-3.909-5.645-5.969-9.557-4.601-3.91 1.369-5.969 5.647-4.601 9.557 4.126 11.788 8.502 23.191 13.006 33.891.915 2.175 2.801 3.792 5.089 4.366.504.126 12.603 3.131 34.03 6.142 2.869.403 6 .818 9.362 1.232 1.795 20.64 5.348 48.856 12.341 76.018 3.963 15.422 17.86 26.193 33.794 26.193h69.339c15.935 0 29.831-10.771 33.794-26.19 6.99-27.153 10.543-55.353 12.339-75.989 26.695-3.295 42.273-7.125 43.395-7.405 2.291-.573 4.178-2.192 5.094-4.369 32.625-77.588 48.767-167.677 56.563-229.59 8.435-66.988 9.195-116.453 9.202-116.945.034-2.58-1.259-4.996-3.425-6.398zm-156.962 451.886h-69.339c-9.085 0-17.007-6.138-19.267-14.93-.765-2.973-1.486-5.96-2.168-8.95h112.21c-.683 2.991-1.403 5.979-2.169 8.953-2.259 8.789-10.182 14.927-19.267 14.927zm24.541-38.88h-118.421c-3.164-16.915-5.146-33.23-6.384-46.656 17.9 1.748 40.199 3.156 65.591 3.156 25.175 0 47.276-1.335 65.594-3.123-1.238 13.419-3.219 29.72-6.38 46.623zm-59.21-401.55c-90.784 0-151.989 22.668-178.157 34.758-1.139-17.076-1.609-29.55-1.791-35.705 6.44-3.639 21.547-11.497 44.307-19.277 28.485-9.738 75.14-21.346 135.637-21.346 100.856 0 164.719 32.076 179.953 40.633-.184 6.159-.658 18.629-1.802 35.691-26.173-12.092-87.375-34.754-178.147-34.754z"/><path d="m306.015 137.505c-15.585-7.926-32.414-11.945-50.02-11.945-60.974 0-110.58 49.61-110.58 110.59 0 60.974 49.606 110.58 110.58 110.58 60.979 0 110.59-49.606 110.59-110.58 0-30.55-12.183-58.989-34.305-80.078-2.998-2.858-7.746-2.745-10.604.253-2.857 2.998-2.744 7.745.254 10.604 19.123 18.231 29.654 42.814 29.654 69.221 0 52.703-42.882 95.58-95.59 95.58-52.703 0-95.58-42.877-95.58-95.58 0-52.708 42.877-95.59 95.58-95.59 15.221 0 29.762 3.47 43.221 10.315 3.691 1.879 8.207.407 10.085-3.285s.407-8.207-3.285-10.085z"/><path d="m285.705 206.439c-.146-5.133-.326-10.218-.537-15.132-.272-6.312-4.766-11.57-10.928-12.786-12.106-2.388-24.379-2.388-36.483 0-6.163 1.216-10.656 6.474-10.928 12.787-.212 4.94-.393 10.025-.538 15.131-5.106.145-10.191.325-15.131.538-6.312.271-11.57 4.765-12.787 10.928-2.389 12.104-2.389 24.378 0 36.482 1.216 6.163 6.475 10.656 12.787 10.928 4.94.212 10.025.393 15.131.538.145 5.107.325 10.191.538 15.131.271 6.312 4.765 11.57 10.928 12.787 6.052 1.194 12.146 1.791 18.24 1.791 6.095 0 12.19-.597 18.243-1.791 6.161-1.217 10.654-6.474 10.927-12.786.211-4.914.392-9.998.537-15.131 5.107-.145 10.191-.325 15.132-.538 6.313-.271 11.57-4.765 12.787-10.928 2.388-12.104 2.388-24.378 0-36.482-1.217-6.163-6.475-10.656-12.787-10.928-4.939-.214-10.023-.395-15.131-.539zm13.413 43.935c-4.932.207-9.999.381-15.081.519-7.257.197-13.095 6.035-13.291 13.291-.139 5.109-.313 10.177-.519 15.082-9.449 1.728-19.01 1.727-28.458 0-.207-4.932-.381-9.999-.519-15.081-.196-7.256-6.035-13.094-13.291-13.291-5.082-.138-10.149-.312-15.081-.519-1.727-9.448-1.727-19.01 0-28.457 4.932-.207 10-.381 15.081-.519 7.256-.197 13.095-6.035 13.291-13.291.138-5.081.312-10.149.519-15.081 9.448-1.727 19.009-1.727 28.458 0 .205 4.905.38 9.972.519 15.081.196 7.256 6.034 13.094 13.291 13.291 5.082.138 10.149.312 15.081.519 1.727 9.447 1.727 19.009 0 28.456z"/></g></g></svg>