<svg id="Capa_1" enable-background="new 0 0 511.995 511.995" height="512" viewBox="0 0 511.995 511.995" width="512" xmlns="http://www.w3.org/2000/svg"><g><g><g><path d="m317.705 85.307c-6.257-.254-12.513-.254-18.77 0-12.686.516-22.913 10.693-23.419 23.38-.75 18.794-.29 37.589 1.379 56.383 20.95 2.853 41.9 2.853 62.85 0 1.67-18.795 2.13-37.589 1.38-56.384-.507-12.686-10.735-22.864-23.42-23.379z" fill="#dd636e"/><path d="m297.395 165.072c7.06.96 14.12 1.6 21.18 1.91-13.89.62-27.79-.02-41.68-1.91-1.67-18.8-2.13-37.59-1.38-56.389.5-12.68 10.73-22.86 23.42-23.38 6.25-.25 12.51-.25 18.77 0 .29.01.58.03.87.06-12.29.93-22.07 10.93-22.56 23.32-.75 18.8-.29 37.59 1.38 56.389z" fill="#da4a54"/><path d="m490.03 437.697s5.611-80.807-14.341-129.69c0 0-22.945-17.957-52.874-21.948 0 0 .842-74.944-10.626-120.391-1.743-6.907-7.391-12.129-14.426-13.247-18.414-2.927-217.946-7.683-320.169-3.485-31.094 1.277-55.625 26.891-55.625 58.011v230.748l201.323 15.961z" fill="#f5f0f0"/><path d="m252.857 451.887-29.57 1.77-201.318-15.96v-230.748c0-31.12 24.53-56.739 55.63-58.019 35.5-1.46 82.739-1.83 130.049-1.58-28.78.18-55.809.67-78.179 1.58-31.09 1.28-55.619 26.9-55.619 58.019v230.748z" fill="#e8ded8"/><path d="m21.965 437.697h468.065c7.989 0 14.465 6.476 14.465 14.465 0 7.989-6.476 14.465-14.465 14.465h-468.065c-7.989 0-14.465-6.476-14.465-14.465 0-7.989 6.476-14.465 14.465-14.465z" fill="#f5f0f0"/><path d="m504.491 452.168c0 3.99-1.62 7.61-4.24 10.22-2.62 2.62-6.24 4.24-10.23 4.24h-468.056c-7.99 0-14.47-6.48-14.47-14.46 0-2.33.55-4.53 1.54-6.48 2.38 4.73 7.27 7.97 12.93 7.97h468.056c3.99 0 7.61-1.62 10.23-4.23 1.09-1.09 2.01-2.35 2.7-3.74.99 1.95 1.54 4.15 1.54 6.48z" fill="#e8ded8"/><path d="m422.816 286.063h-98.269c-10.19 0-17.94-9.14-16.28-19.19l12.51-75.739c1.31-7.97 8.2-13.81 16.28-13.81h77.699c8.77 45.53 8.06 108.739 8.06 108.739z" fill="#bee5f0"/><path d="m447.448 378.463c-6.887 0-12.47-5.583-12.47-12.47v-27.933c0-6.887 5.583-12.47 12.47-12.47 6.887 0 12.47 5.583 12.47 12.47v27.933c0 6.887-5.583 12.47-12.47 12.47z" fill="#ffd064"/><circle cx="112.939" cy="446.094" fill="#2b4d66" r="58.277"/><circle cx="364.628" cy="446.094" fill="#2b4d66" r="58.277"/><circle cx="364.628" cy="446.094" fill="#f5f0f0" r="27.728"/><circle cx="112.939" cy="446.094" fill="#f5f0f0" r="27.728"/><path d="m118.601 473.243c-1.83.38-3.72.58-5.66.58-15.31 0-27.73-12.42-27.73-27.73s12.42-27.73 27.73-27.73c1.94 0 3.83.2 5.66.58-12.61 2.61-22.08 13.78-22.08 27.15s9.47 24.541 22.08 27.15z" fill="#e8ded8"/><path d="m370.286 473.246c-1.83.38-3.72.58-5.66.58-15.31 0-27.73-12.42-27.73-27.73s12.42-27.73 27.73-27.73c1.94 0 3.83.2 5.66.58-12.61 2.61-22.08 13.78-22.08 27.15.001 13.37 9.47 24.54 22.08 27.15z" fill="#e8ded8"/><g><g fill="#dd636e"><path d="m370.301 69.878-1.652-.934c-5.825-3.294-8.105-10.536-5.217-16.572l8.882-18.569c3.181-6.651 11.33-9.217 17.748-5.588l4.104 2.321c6.418 3.629 8.42 11.934 4.36 18.089l-11.334 17.182c-3.685 5.586-11.066 7.365-16.891 4.071z"/><path d="m309.37 53.628-1.897.017c-6.692.06-12.287-5.072-12.805-11.743l-1.593-20.522c-.57-7.351 5.204-13.647 12.577-13.713l4.714-.042c7.372-.066 13.259 6.126 12.82 13.485l-1.225 20.547c-.397 6.68-5.9 11.911-12.591 11.971z"/><path d="m248.476 70.021-1.635.963c-5.765 3.398-13.177 1.751-16.961-3.768l-11.64-16.976c-4.169-6.081-2.317-14.421 4.035-18.164l4.062-2.394c6.352-3.743 14.545-1.324 17.845 5.269l9.213 18.407c2.996 5.984.846 13.265-4.919 16.663z"/></g></g></g><g><path d="m196.869 243.426-46.712 19.195-19.898 47.415c10.303 10.303 20.763 20.465 31.381 30.454 18.132 17.056 46.683 16.841 64.318-.728l.629-.629c17.577-17.644 17.784-46.186.728-64.318-9.989-10.618-20.143-21.086-30.446-31.389z" fill="#dd636e"/><path d="m101.173 213.701-.637.637c-17.561 17.644-17.784 46.186-.72 64.309 9.989 10.618 20.143 21.086 30.446 31.389l66.61-66.61c-10.303-10.303-20.772-20.457-31.389-30.446-18.124-17.064-46.666-16.84-64.31.721z" fill="#ffd064"/><path d="m130.257 310.038c10.305 10.305 20.768 20.453 31.389 30.446 18.124 17.064 46.674 16.849 64.31-.72l.223-.223c-5.52 5.454-24.173-4.229-41.932-21.657-10.402-10.211-24.892-24.606-35.196-34.911" fill="#da4a54"/><path d="m100.755 214.121-.223.223c-17.561 17.644-17.784 46.186-.72 64.309 9.989 10.618 20.143 21.086 30.446 31.389l22.932-22.932c-10.303-10.303-20.573-20.656-30.777-31.058-17.429-17.758-27.103-36.403-21.658-41.931z" fill="#ebb044"/></g></g><g><path d="m497.861 431.65c.895-20.578 2.026-84.216-15.232-126.479-.493-1.208-1.293-2.266-2.32-3.07-.932-.73-21.673-16.764-49.979-22.394-.073-19.335-1.141-77.314-10.871-115.872-2.479-9.845-10.531-17.234-20.518-18.826-5.306-.843-23.937-1.798-50.277-2.66.412-11.267.403-22.657-.045-33.969-.662-16.467-14.106-29.896-30.615-30.573-6.426-.257-12.943-.256-19.375 0-16.5.676-29.944 14.105-30.607 30.577-.423 10.714-.446 21.471-.102 32.094-40.118-.624-84.019-.901-123.603-.532-4.143.038-7.469 3.427-7.431 7.569.038 4.119 3.389 7.431 7.498 7.431h.071c108.06-.999 238.72 2.748 252.131 4.877 4.047.645 7.316 3.657 8.328 7.678.193.764.381 1.54.567 2.322h-68.428c-11.797 0-21.754 8.448-23.676 20.087l-12.511 75.744c-1.15 6.967.81 14.051 5.378 19.436 4.568 5.384 11.238 8.472 18.299 8.472h97.771c22.998 3.203 41.818 15.429 47.2 19.222 14.933 38.583 14.148 97.373 13.372 117.417h-54.434c-7.129-28.615-33.036-49.884-63.827-49.884-11.419 0-22.67 2.976-32.537 8.606-3.598 2.053-4.851 6.633-2.797 10.231 2.051 3.598 6.632 4.85 10.23 2.797 7.606-4.34 16.287-6.634 25.104-6.634 28 0 50.78 22.78 50.78 50.78 0 27.995-22.78 50.77-50.78 50.77-27.994 0-50.77-22.775-50.77-50.77 0-9.155 2.455-18.111 7.101-25.898 2.122-3.557.958-8.161-2.6-10.283-3.557-2.122-8.16-.959-10.283 2.6-3.29 5.515-5.727 11.48-7.268 17.686h-124.042c-7.128-28.615-33.035-49.885-63.825-49.885s-56.697 21.27-63.825 49.885h-19.648v-223.254c0-27.208 21.276-49.398 48.437-50.517 11.029-.451 23.395-.813 36.751-1.075 4.142-.082 7.433-3.504 7.351-7.646-.081-4.142-3.521-7.426-7.646-7.351-13.462.265-25.934.629-37.071 1.085-35.227 1.451-62.821 30.223-62.821 65.504v224.592c-2.975 1.08-5.715 2.784-8.029 5.089-4.151 4.15-6.437 9.666-6.437 15.533 0 12.114 9.855 21.97 21.97 21.97h31.482c10.546 22.283 33.241 37.739 59.487 37.739s48.941-15.456 59.487-37.739h132.72c10.544 22.281 33.237 37.736 59.48 37.736 26.247 0 48.944-15.455 59.49-37.736h65.911c5.865 0 11.382-2.286 15.533-6.437 4.15-4.151 6.437-9.667 6.437-15.533-.002-9.351-5.881-17.35-14.136-20.512zm-214.852-322.665c.351-8.719 7.481-15.829 16.225-16.188 6.029-.241 12.143-.241 18.164 0 8.752.359 15.882 7.469 16.232 16.183.434 10.96.442 21.998.04 32.914-15.31-.434-32.493-.831-50.731-1.161-.358-10.504-.35-21.147.07-31.748zm132.301 169.578h-62.809v-93.739h55.983c5.796 34.329 6.705 76.85 6.826 93.739zm-97.627-3.176c-1.738-2.049-2.455-4.637-2.018-7.288l12.511-75.744c.721-4.364 4.454-7.531 8.877-7.531h.448v93.739h-12.958c-2.687 0-5.123-1.127-6.86-3.176zm-295.713 183.745c-3.843 0-6.97-3.127-6.97-6.97 0-1.86.726-3.609 2.032-4.917 1.323-1.318 3.076-2.043 4.938-2.043h25.214c-.004.298-.023.593-.023.892 0 4.463.451 8.822 1.303 13.038zm90.968 37.739c-27.999 0-50.777-22.779-50.777-50.777s22.778-50.777 50.777-50.777 50.777 22.779 50.777 50.777-22.777 50.777-50.777 50.777zm64.475-37.739c.851-4.216 1.303-8.575 1.303-13.038 0-.299-.019-.594-.023-.892h120.177c-.004.299-.015.597-.015.896 0 4.462.451 8.82 1.302 13.034zm317.538-2.044c-1.317 1.318-3.066 2.043-4.926 2.043h-60.922c.851-4.215 1.302-8.573 1.302-13.034 0-.301-.019-.596-.023-.896h59.643c3.843 0 6.97 3.122 6.97 6.96 0 1.86-.725 3.61-2.044 4.927z"/><path d="m467.418 365.993v-27.934c0-11.011-8.958-19.97-19.97-19.97s-19.971 8.958-19.971 19.97v27.934c0 11.012 8.959 19.97 19.971 19.97s19.97-8.959 19.97-19.97zm-24.94 0v-27.934c0-2.74 2.229-4.97 4.971-4.97 2.74 0 4.97 2.229 4.97 4.97v27.934c0 2.741-2.229 4.97-4.97 4.97-2.742 0-4.971-2.23-4.971-4.97z"/><path d="m399.855 446.094c0-19.424-15.803-35.228-35.228-35.228s-35.227 15.803-35.227 35.228 15.803 35.228 35.228 35.228 35.227-15.803 35.227-35.228zm-55.455 0c0-11.153 9.074-20.228 20.228-20.228s20.228 9.074 20.228 20.228-9.074 20.228-20.228 20.228-20.228-9.074-20.228-20.228z"/><path d="m112.938 410.866c-19.425 0-35.228 15.803-35.228 35.228s15.803 35.228 35.228 35.228 35.228-15.803 35.228-35.228-15.803-35.228-35.228-35.228zm0 55.456c-11.153 0-20.228-9.074-20.228-20.228 0-11.153 9.074-20.228 20.228-20.228s20.228 9.074 20.228 20.228-9.074 20.228-20.228 20.228z"/><path d="m364.959 75.473 1.65.934c3.118 1.764 6.53 2.605 9.907 2.605 6.605 0 13.076-3.224 16.937-9.075l11.334-17.183c3.075-4.662 4.088-10.45 2.779-15.879s-4.848-10.119-9.708-12.868l-4.104-2.321c-4.861-2.749-10.706-3.364-16.033-1.686-5.326 1.677-9.763 5.529-12.172 10.566l-8.882 18.569c-4.57 9.555-.929 21.124 8.292 26.338zm5.239-19.865 8.882-18.569c.632-1.321 1.749-2.291 3.146-2.73.521-.164 1.054-.246 1.582-.246.887 0 1.763.229 2.562.681l4.104 2.321c1.275.721 2.166 1.902 2.51 3.326.343 1.424.088 2.882-.719 4.104l-11.333 17.182c-1.508 2.285-4.557 3.02-6.938 1.673-.001 0-.001 0-.002 0l-1.651-.934c-2.383-1.348-3.324-4.338-2.143-6.808z"/><path d="m287.19 42.481c.814 10.5 9.655 18.664 20.167 18.664.062 0 .122 0 .183-.001l1.896-.017c10.591-.095 19.382-8.451 20.012-19.024l1.225-20.548c.333-5.575-1.684-11.094-5.532-15.141-3.807-4.004-9.142-6.291-14.661-6.291-.061 0-.12 0-.18.001l-4.716.042c-5.584.05-10.951 2.439-14.726 6.555s-5.692 9.67-5.261 15.239zm14.722-25.621c.99-1.08 2.342-1.681 3.806-1.694l4.716-.042h.049c1.446 0 2.789.576 3.787 1.626 1.01 1.062 1.518 2.452 1.431 3.914l-1.225 20.547c-.163 2.733-2.436 4.893-5.174 4.918l-1.896.017c-.016 0-.031 0-.047 0-2.717 0-5.002-2.11-5.213-4.825l-1.593-20.521c-.114-1.461.369-2.86 1.359-3.94z"/><path d="m223.695 71.458c3.891 5.675 10.25 8.772 16.731 8.772 3.495 0 7.027-.901 10.225-2.786l1.632-.962c9.126-5.378 12.56-17.01 7.819-26.481l-9.213-18.406c-2.5-4.995-7.005-8.766-12.361-10.347-5.357-1.582-11.188-.862-15.999 1.974l-4.063 2.394c-4.811 2.836-8.265 7.589-9.476 13.041s-.095 11.22 3.063 15.826zm-.061-29.55c.318-1.43 1.188-2.627 2.449-3.371l4.063-2.394c.818-.482 1.724-.729 2.642-.729.498 0 1 .072 1.493.218 1.405.415 2.54 1.364 3.195 2.674l9.213 18.407c1.226 2.448.338 5.455-2.021 6.845-.001 0-.001 0-.002.001l-1.632.962c-2.358 1.39-5.42.709-6.968-1.547l-11.641-16.977c-.827-1.206-1.109-2.659-.791-4.089z"/><path d="m95.222 209.045c-9.874 9.915-15.391 23.123-15.533 37.19-.142 14.021 5.064 27.359 14.661 37.558 19.99 21.244 40.902 42.155 62.153 62.153 10.063 9.469 23.183 14.664 36.998 14.664.187 0 .373-.001.56-.003 14.067-.143 27.275-5.659 37.189-15.532l.654-.654c9.874-9.916 15.391-23.123 15.533-37.191.142-14.021-5.064-27.359-14.661-37.558-19.996-21.249-40.907-42.16-62.153-62.153-10.198-9.597-23.515-14.799-37.558-14.661-14.067.143-27.275 5.659-37.189 15.532zm126.052 124.793-.607.608c-14.601 14.539-38.773 14.797-53.885.577-8.706-8.192-17.347-16.546-25.897-25.007l55.96-55.96c8.461 8.55 16.815 17.192 25.007 25.896 14.221 15.113 13.962 39.286-.578 53.886zm-114.815-114.817c14.602-14.541 38.774-14.796 53.885-.577 8.704 8.191 17.345 16.544 25.895 25.005l-55.96 55.96c-8.462-8.55-16.815-17.192-25.005-25.895-14.221-15.113-13.962-39.285.578-53.885z"/></g></g></svg>