<svg id="Capa_1" enable-background="new 0 0 511.949 511.949" height="512" viewBox="0 0 511.949 511.949" width="512" xmlns="http://www.w3.org/2000/svg"><g><g><g><path d="m64.497 32.756-1.207 1.207c-33.264 33.421-33.688 87.487-1.364 121.817 18.921 20.112 38.155 39.942 57.671 59.459l126.175-126.175c-19.516-19.516-39.347-38.751-59.459-57.671-34.33-32.324-88.395-31.901-121.816 1.363z" fill="#ffd064"/><path d="m63.706 33.553-.423.423c-33.264 33.421-33.687 87.487-1.364 121.817 18.921 20.112 38.155 39.942 57.671 59.459l43.438-43.438c-19.516-19.516-38.97-39.127-58.299-58.831-33.013-33.641-51.338-68.959-41.023-79.43z" fill="#ebb044"/></g><g><path d="m448.673 74.355-1.207-1.207c-33.421-33.264-87.487-33.688-121.817-1.364-20.112 18.921-39.942 38.155-59.459 57.671l126.175 126.175c19.516-19.516 38.751-39.347 57.672-59.459 32.323-34.33 31.9-88.395-1.364-121.816z" fill="#dd636e"/><path d="m447.876 73.564-.423-.423c-33.421-33.264-87.487-33.687-121.817-1.364-20.112 18.921-39.942 38.155-59.459 57.671l43.438 43.438c19.516-19.516 39.127-38.97 58.831-58.299 33.641-33.013 68.959-51.338 79.43-41.023z" fill="#da4a54"/></g><path d="m389.17 504.474s-38.487-76.829-130.862-138.352c-16.552-11.024-38.048-11.024-54.6 0-92.375 61.524-130.863 138.352-130.863 138.352z" fill="#a2c6fe"/><path d="m231.006 357.861c-3.07 0-6.139 2.759-8.818 8.266-29.874 61.515-42.314 138.348-42.314 138.348h-107.029s38.492-76.833 130.864-138.348c8.276-5.507 17.787-8.266 27.297-8.266z" fill="#7898d5"/><g fill="#a2c6fe"><circle cx="185.067" cy="323.494" r="16.346"/><circle cx="199.963" cy="201.554" r="16.346"/><circle cx="305.145" cy="225.994" r="21.172"/><circle cx="232.771" cy="267.116" r="20.016"/></g></g><g><path d="m119.587 222.709c1.919 0 3.839-.732 5.303-2.196l126.18-126.17c1.407-1.407 2.197-3.314 2.197-5.304 0-1.989-.79-3.897-2.197-5.303-15.683-15.683-32.065-31.664-48.691-47.498-2.999-2.856-7.746-2.74-10.604.259-2.856 3-2.741 7.747.259 10.604 14.67 13.971 29.148 28.056 43.118 41.946l-115.56 115.55c-17.473-17.564-35.015-35.695-52.225-53.977-14.312-15.21-22.077-35.11-21.861-56.035.216-20.949 8.421-40.607 23.096-55.344l1.178-1.179c26.695-26.588 69.014-30.692 100.627-9.76 3.454 2.287 8.107 1.341 10.394-2.113s1.341-8.107-2.113-10.394c-37.521-24.844-87.776-19.951-119.505 11.651l-1.2 1.201c-17.463 17.536-27.22 40.898-27.476 65.784-.255 24.818 8.957 48.424 25.94 66.469 19.053 20.241 38.513 40.298 57.839 59.614 1.464 1.463 3.382 2.195 5.301 2.195z"/><path d="m453.961 69.021-1.208-1.208c-17.533-17.463-40.896-27.221-65.783-27.476-24.784-.223-48.425 8.96-66.469 25.944-20.05 18.87-40.108 38.329-59.615 57.836-1.407 1.406-2.197 3.314-2.197 5.303s.79 3.897 2.197 5.303l126.175 126.174c1.464 1.464 3.384 2.197 5.303 2.197s3.839-.732 5.303-2.197c19.488-19.488 38.946-39.545 57.837-59.616 16.978-18.052 26.189-41.659 25.937-66.472-.252-24.885-10.008-48.245-27.48-65.788zm-9.381 121.983c-17.074 18.141-34.617 36.272-52.223 53.978l-115.553-115.554c17.721-17.623 35.852-35.164 53.979-52.223 15.209-14.316 35.101-22.105 56.035-21.868 20.95.214 40.607 8.419 55.34 23.093l1.186 1.186c14.683 14.742 22.886 34.398 23.099 55.346.213 20.923-7.552 40.826-21.863 56.042z"/><path d="m365.207 454.901c-2.551-3.264-7.264-3.844-10.527-1.293-3.264 2.55-3.843 7.263-1.293 10.527 10.558 13.515 18.112 25.013 22.87 32.813h-290.467c14.127-23.047 52.824-78.486 122.077-124.609 14.058-9.369 32.224-9.369 46.284.001 29.569 19.693 56.593 43.01 80.319 69.303 2.774 3.074 7.517 3.319 10.592.543 3.075-2.775 3.319-7.518.543-10.592-24.561-27.218-52.534-51.354-83.139-71.737-19.111-12.736-43.809-12.736-62.917-.001-92.957 61.912-131.799 138.024-133.407 141.233-1.165 2.325-1.042 5.087.324 7.3s3.781 3.56 6.381 3.56h316.32c2.6 0 5.015-1.347 6.381-3.559s1.489-4.975.325-7.299c-.395-.79-9.913-19.625-30.666-46.19z"/><path d="m185.067 347.315c13.149 0 23.846-10.697 23.846-23.846s-10.697-23.846-23.846-23.846-23.846 10.697-23.846 23.846 10.697 23.846 23.846 23.846zm0-32.693c4.878 0 8.846 3.968 8.846 8.846s-3.968 8.846-8.846 8.846-8.846-3.968-8.846-8.846 3.968-8.846 8.846-8.846z"/><path d="m223.809 201.528c0-13.149-10.697-23.846-23.846-23.846s-23.846 10.697-23.846 23.846 10.697 23.846 23.846 23.846 23.846-10.697 23.846-23.846zm-32.692 0c0-4.878 3.968-8.846 8.846-8.846s8.846 3.968 8.846 8.846-3.968 8.846-8.846 8.846-8.846-3.968-8.846-8.846z"/><path d="m333.818 225.968c0-15.81-12.862-28.672-28.672-28.672s-28.672 12.862-28.672 28.672 12.862 28.672 28.672 28.672 28.672-12.862 28.672-28.672zm-42.345 0c0-7.539 6.133-13.672 13.672-13.672s13.672 6.133 13.672 13.672-6.133 13.672-13.672 13.672-13.672-6.133-13.672-13.672z"/><path d="m232.771 294.607c15.172 0 27.516-12.344 27.516-27.516s-12.344-27.516-27.516-27.516-27.516 12.343-27.516 27.516c0 15.172 12.344 27.516 27.516 27.516zm0-40.032c6.901 0 12.516 5.614 12.516 12.516s-5.615 12.516-12.516 12.516-12.516-5.615-12.516-12.516 5.615-12.516 12.516-12.516z"/><path d="m277.312 326.636v.501c0 4.142 3.358 7.5 7.5 7.5s7.5-3.358 7.5-7.5v-.501c0-4.142-3.358-7.5-7.5-7.5s-7.5 3.358-7.5 7.5z"/><path d="m173.552 243.574v-.502c0-4.142-3.358-7.5-7.5-7.5s-7.5 3.358-7.5 7.5v.502c0 4.142 3.358 7.5 7.5 7.5s7.5-3.358 7.5-7.5z"/><path d="m129.383 464.85c-4.142 0-7.5 3.358-7.5 7.5v.541c0 4.142 3.358 7.5 7.5 7.5s7.5-3.358 7.5-7.5v-.541c0-4.142-3.358-7.5-7.5-7.5z"/><path d="m149.105 457.236v-.541c0-4.142-3.358-7.5-7.5-7.5s-7.5 3.358-7.5 7.5v.541c0 4.142 3.358 7.5 7.5 7.5s7.5-3.358 7.5-7.5z"/><path d="m149.814 483.372c4.142 0 7.5-3.358 7.5-7.5v-.541c0-4.142-3.358-7.5-7.5-7.5s-7.5 3.358-7.5 7.5v.541c0 4.142 3.358 7.5 7.5 7.5z"/><path d="m299.236 444.662c-1.852-3.705-6.357-5.208-10.062-3.354-3.705 1.852-5.207 6.357-3.354 10.062l.242.483c1.314 2.628 3.962 4.147 6.714 4.147 1.127 0 2.271-.255 3.348-.793 3.705-1.852 5.207-6.357 3.354-10.062z"/><path d="m303.425 425.686-.241-.483c-1.85-3.707-6.353-5.213-10.06-3.362-3.707 1.85-5.212 6.354-3.362 10.06l.241.483c1.313 2.631 3.963 4.153 6.717 4.153 1.125 0 2.268-.254 3.343-.791 3.706-1.85 5.211-6.354 3.362-10.06z"/><path d="m308.791 434.849c-3.707 1.85-5.212 6.354-3.362 10.06l.241.483c1.313 2.631 3.963 4.153 6.717 4.153 1.125 0 2.268-.254 3.343-.791 3.707-1.85 5.212-6.354 3.362-10.06l-.241-.483c-1.85-3.706-6.353-5.212-10.06-3.362z"/></g></g></svg>