<svg id="Capa_1" enable-background="new 0 0 512 512" height="512" viewBox="0 0 512 512" width="512" xmlns="http://www.w3.org/2000/svg"><g><g><path d="m454.247 132.949c0 12.816-.173 25.437-.5 37.835-3.385 130.868-23.521 237.614-36.143 292.842-5.475 23.929-26.783 40.873-51.324 40.873h-220.556c-24.551 0-45.859-16.945-51.324-40.873-12.744-55.738-33.135-163.972-36.245-296.503-.255-11.225-.398-22.624-.398-34.175h396.49z" fill="#edf9f9"/><path d="m215.623 504.5h-69.9c-24.54 0-45.859-16.945-51.324-40.873-13.825-60.459-36.642-182.671-36.642-330.677h125.648c0 148.007 8.36 270.219 13.417 330.677 2.009 23.928 9.808 40.873 18.801 40.873z" fill="#dcf1f4"/><path d="m454.247 132.949c0 12.816-.173 25.437-.5 37.835h-381.033c-5.271 0-10.226-1.325-14.559-3.66-.255-11.225-.398-22.624-.398-34.175z" fill="#dcf1f4"/><path d="m425.797 7.5h-339.594c-30.368 0-54.986 24.618-54.986 54.986v48.623c0 16.928 13.723 30.651 30.651 30.651h388.264c16.928 0 30.651-13.723 30.651-30.651v-48.623c0-30.368-24.618-54.986-54.986-54.986z" fill="#edf9f9"/><path d="m182.568 141.758h-120.693c-16.935 0-30.658-13.723-30.658-30.647v-48.622c0-30.372 24.622-54.984 54.994-54.984h120.693c-30.362 0-54.984 24.612-54.984 54.984v48.622c.001 16.924 13.724 30.647 30.648 30.647z" fill="#dcf1f4"/><path d="m423.152 188.75c-4.7 120.99-23.58 219.15-34.79 268.19-2.37 10.34-11.45 17.56-22.08 17.56h-220.56c-10.64 0-19.71-7.22-22.07-17.55-11.26-49.22-30.11-147.27-34.81-268.2z" fill="#bee5f0"/><path d="m198.212 474.5h-52.49c-10.64 0-19.71-7.22-22.07-17.55-11.26-49.22-30.11-147.27-34.81-268.2h94.95c1.71 122.65 8.62 222.2 13.03 274.88.32 3.82.79 7.45 1.39 10.87z" fill="#9dd9e5"/><path d="m233.217 436.491h106.847c5.757 0 10.424 4.667 10.424 10.424v17.16c0 5.757-4.667 10.424-10.424 10.424h-106.847c-5.757 0-10.424-4.667-10.424-10.424v-17.16c-.001-5.757 4.667-10.424 10.424-10.424z" fill="#7898d5"/><path d="m275.642 453.02c-21.13 21.13-51.96 26.67-78.17 16.61-9.31-3.57-18.03-9.1-25.53-16.61-28.64-28.63-28.64-75.06 0-103.69 5.03-5.03 10.61-9.18 16.55-12.44 27.85-15.32 63.54-11.17 87.15 12.44 28.63 28.63 28.63 75.06 0 103.69z" fill="#a2c6fe"/><path d="m197.472 469.63c-9.31-3.57-18.03-9.1-25.53-16.61-28.64-28.63-28.64-75.06 0-103.69 5.03-5.03 10.61-9.18 16.55-12.44 2.67 53.95 5.89 97.54 8.33 126.74.17 2.06.39 4.06.65 6z" fill="#7898d5"/><g fill="#f5f0f0"><circle cx="308.612" cy="330.743" r="14.964"/><circle cx="307.59" cy="238.961" r="14.964"/><circle cx="191.808" cy="229.609" r="14.964"/><circle cx="264.135" cy="284.941" r="19.148"/><circle cx="174.838" cy="352.223" r="22.044"/></g></g><g><path d="m425.8 0h-339.6c-19.657 0-38.41 9.433-50.167 25.233-2.473 3.323-1.783 8.021 1.54 10.494 3.323 2.472 8.021 1.784 10.494-1.54 9.073-12.193 22.972-19.187 38.133-19.187h339.6c26.181 0 47.48 21.304 47.48 47.49v48.62c0 12.765-10.385 23.15-23.15 23.15h-388.26c-12.765 0-23.15-10.385-23.15-23.15v-48.62c0-1.454.063-2.869.188-4.205.384-4.125-2.648-7.779-6.772-8.163-4.122-.379-7.779 2.648-8.163 6.772-.167 1.796-.252 3.679-.252 5.596v48.62c0 17.018 11.202 31.465 26.619 36.365 1.425 142.676 23.557 260.1 36.75 317.827 6.286 27.495 30.397 46.698 58.63 46.698h220.56c28.233 0 52.344-19.203 58.632-46.699 13.192-57.726 35.324-175.15 36.749-317.826 15.417-4.9 26.619-19.346 26.619-36.365v-48.62c0-34.457-28.029-62.49-62.48-62.49zm-15.511 461.958c-4.719 20.632-22.816 35.042-44.009 35.042h-220.56c-21.193 0-39.291-14.41-44.009-35.041-12.997-56.874-34.762-172.304-36.352-312.699h381.281c-1.589 140.395-23.354 255.825-36.351 312.698z"/><path d="m428.557 183.551c-1.414-1.47-3.366-2.301-5.405-2.301h-334.31c-2.04 0-3.991.831-5.405 2.301s-2.168 3.453-2.089 5.491c4.751 122.237 23.963 221.369 34.993 269.579 3.144 13.765 15.226 23.379 29.381 23.379h220.56c14.149 0 26.235-9.616 29.392-23.389 11.023-48.226 30.226-147.374 34.973-269.57.079-2.038-.676-4.02-2.09-5.49zm-239.175 168.672c0 8.02-6.524 14.544-14.544 14.544s-14.544-6.524-14.544-14.544 6.524-14.544 14.544-14.544 14.544 6.524 14.544 14.544zm-27.507 26.541c3.916 1.921 8.315 3.003 12.963 3.003 16.291 0 29.544-13.253 29.544-29.544 0-4.647-1.082-9.044-3.001-12.96 21.486-7.832 45.399-3.947 63.347 10.367l-92.484 92.485c-14.32-17.943-18.206-41.86-10.369-63.351zm108.808 88.236c3.615-2.587 7.054-5.471 10.26-8.677 4.364-4.363 8.168-9.181 11.384-14.333h47.735c1.615 0 2.93 1.314 2.93 2.93v17.16c0 1.61-1.314 2.92-2.93 2.92zm110.368-11.736c-1.583 6.91-7.657 11.736-14.77 11.736h-8.55c.157-.953.26-1.924.26-2.92v-17.16c0-9.886-8.043-17.93-17.93-17.93h-40.405c3.747-10.22 5.444-21.201 4.832-32.294-.229-4.136-3.77-7.313-7.902-7.075-4.136.229-7.304 3.767-7.075 7.902 1.032 18.681-5.957 36.976-19.174 50.193-12.435 12.436-28.967 19.284-46.551 19.284-15.056 0-29.329-5.035-40.929-14.286l92.477-92.478c2.824 3.546 5.268 7.354 7.29 11.391 1.315 2.626 3.962 4.144 6.712 4.144 1.128 0 2.274-.255 3.352-.795 3.704-1.854 5.203-6.36 3.348-10.064-3.854-7.698-8.932-14.725-15.093-20.885-23.942-23.942-59.609-30.344-90.139-16.643-4.608-2.972-10.087-4.706-15.966-4.706-16.291 0-29.544 13.253-29.544 29.544 0 5.878 1.733 11.356 4.704 15.964-13.707 30.533-7.306 66.202 16.639 90.136 3.205 3.206 6.644 6.091 10.258 8.678h-31.172c-7.113 0-13.182-4.819-14.759-11.722-10.678-46.675-29.107-141.594-34.303-259.028h318.674c-5.192 117.397-23.612 212.331-34.284 259.014z"/><path d="m308.612 308.278c-12.387 0-22.464 10.078-22.464 22.464s10.078 22.464 22.464 22.464 22.464-10.078 22.464-22.464-10.077-22.464-22.464-22.464zm0 29.929c-4.116 0-7.464-3.349-7.464-7.464s3.349-7.464 7.464-7.464 7.464 3.349 7.464 7.464-3.348 7.464-7.464 7.464z"/><path d="m307.59 261.426c12.387 0 22.464-10.078 22.464-22.464s-10.078-22.464-22.464-22.464-22.464 10.078-22.464 22.464 10.078 22.464 22.464 22.464zm0-29.929c4.116 0 7.464 3.349 7.464 7.464s-3.349 7.464-7.464 7.464-7.464-3.349-7.464-7.464 3.349-7.464 7.464-7.464z"/><path d="m191.808 252.073c12.387 0 22.464-10.078 22.464-22.464s-10.078-22.464-22.464-22.464-22.464 10.078-22.464 22.464 10.077 22.464 22.464 22.464zm0-29.928c4.116 0 7.464 3.349 7.464 7.464s-3.349 7.464-7.464 7.464-7.464-3.349-7.464-7.464 3.348-7.464 7.464-7.464z"/><path d="m264.135 311.589c14.693 0 26.647-11.954 26.647-26.647s-11.954-26.647-26.647-26.647c-14.694 0-26.648 11.954-26.648 26.647s11.954 26.647 26.648 26.647zm0-38.295c6.422 0 11.647 5.225 11.647 11.647s-5.225 11.647-11.647 11.647c-6.423 0-11.648-5.225-11.648-11.647s5.225-11.647 11.648-11.647z"/><path d="m201.842 280.933c-4.142 0-7.5 3.358-7.5 7.5v.5c0 4.142 3.358 7.5 7.5 7.5s7.5-3.358 7.5-7.5v-.5c0-4.142-3.358-7.5-7.5-7.5z"/><path d="m325.315 386.124c-4.142 0-7.5 3.358-7.5 7.5v.5c0 4.142 3.358 7.5 7.5 7.5s7.5-3.358 7.5-7.5v-.5c0-4.143-3.357-7.5-7.5-7.5z"/><path d="m255.714 226.039c4.142 0 7.5-3.358 7.5-7.5v-.5c0-4.142-3.358-7.5-7.5-7.5s-7.5 3.358-7.5 7.5v.5c0 4.142 3.358 7.5 7.5 7.5z"/></g></g></svg>