<svg id="Capa_1" enable-background="new 0 0 511.993 511.993" height="512" viewBox="0 0 511.993 511.993" width="512" xmlns="http://www.w3.org/2000/svg"><g><g><path d="m496.352 15.641c10.006 10.006 10.9 25.931 2.077 36.994l-112.673 141.286-67.684-67.684 141.286-112.673c11.063-8.823 26.988-7.929 36.994 2.077z" fill="#ffd064"/><path d="m496.346 15.635c-2.757-2.727-12.555 2.496-22.799 12.123l-130.885 123.06-24.586-24.586 141.276-112.669c11.068-8.819 26.989-7.933 36.994 2.072z" fill="#ebb044"/><path d="m349.559 445.806c50.876-50.876 71.043-156.562 67.787-235.42-1.752-42.432-74.7-115.343-117.14-117.052-78.786-3.173-183.164 18.243-234.02 69.099-78.251 78.251-78.251 205.122 0 283.373s205.122 78.251 283.373 0z" fill="#dd636e"/><path d="m378.311 140.974c-9.774-8.588-23.992-12.177-38.288-6.416-56.388 22.714-139.24 71.461-192.439 124.66-57.966 57.967-95.091 121.232-100.398 164.649-58.629-78.47-52.298-190.136 19.001-261.435 50.858-50.858 155.238-72.269 234.016-69.096 22.506.909 53.607 21.843 78.108 47.638z" fill="#da4a54"/><path d="m437.065 166.011-91.084-91.084c-13.282-13.282-33.818-16.016-50.113-6.671l-48.178 27.632 168.415 168.415 27.631-48.179c9.345-16.295 6.612-36.831-6.671-50.113z" fill="#ffd064"/><path d="m399.358 128.301c-13.279-13.279-33.82-16.013-50.11-6.67l-48.185 27.635-53.376-53.376 48.185-27.635c16.29-9.343 36.824-6.616 50.11 6.67z" fill="#ebb044"/></g><path d="m501.645 10.395c-12.721-12.72-32.918-13.854-46.979-2.64l-91.973 73.344-11.423-11.423c-15.639-15.639-39.962-18.875-59.147-7.873l-44.239 25.372c-80.019 6.725-149.843 32.838-187.016 70.011-13.414 13.414-24.903 28.52-34.148 44.896-2.036 3.607-.763 8.182 2.844 10.218 1.166.658 2.431.97 3.68.97 2.617 0 5.16-1.373 6.538-3.814 8.577-15.193 19.24-29.211 31.692-41.664 33.924-33.923 97.957-58.082 172.252-65.193l164.587 164.587c-6.79 75.297-30.63 139.934-64.076 173.37-75.2 75.2-197.561 75.202-272.763 0-53.672-53.673-70.889-134.21-43.864-205.178 1.474-3.871-.469-8.204-4.34-9.678s-8.204.469-9.678 4.34c-29.126 76.481-10.569 163.277 47.275 221.122 40.53 40.53 93.75 60.792 146.988 60.787 53.226-.005 106.468-20.267 146.987-60.786 19.604-19.6 35.73-47.562 47.931-83.111 10.411-30.338 17.536-65.37 20.65-101.412l26.802-46.733c11.004-19.186 7.766-43.508-7.873-59.147l-11.418-11.418 20.901-26.218c2.582-3.239 2.05-7.958-1.189-10.54-3.237-2.583-7.957-2.049-10.539 1.189l-19.846 24.894-46.895-46.895 90.651-72.29c8.087-6.451 19.703-5.796 27.021 1.52 7.314 7.314 7.965 18.925 1.509 27.011l-33.739 42.31c-2.582 3.239-2.05 7.958 1.188 10.54 1.381 1.102 3.031 1.637 4.671 1.637 2.204 0 4.388-.967 5.869-2.825l33.736-42.307c11.224-14.057 10.094-34.251-2.627-46.973zm-64.43 202.05-22.754 39.675-154.551-154.551 39.675-22.754c13.325-7.641 30.217-5.393 41.078 5.468l91.083 91.083c10.862 10.862 13.111 27.754 5.469 41.079z"/></g></svg>