<svg id="Capa_1" enable-background="new 0 0 512 512" height="512" viewBox="0 0 512 512" width="512" xmlns="http://www.w3.org/2000/svg"><g><g><path d="m220.544 440.629c-7.574-42.74 12.801-85.48 20.376-128.219 68.858-4.701 96.19-4.701 165.048 0 7.574 42.74 7.574 85.479 0 128.219-68.858 4.701-116.566 4.701-185.424 0z" fill="#365e7d"/><path d="m410.923 399.322c-.864 13.769-2.516 27.538-4.955 41.306-68.861 4.698-116.571 4.698-185.423 0-7.582-42.735-7.582-85.479 0-128.215 1.189-.085 2.379-.163 3.568-.239-1.823 28.966-.171 57.933 4.963 86.908 67.672 4.613 114.184 4.699 181.847.24z" fill="#2b4d66"/><path d="m216.984 290.036c-39.287 23.233-81.603 37.49-126.94 42.752-27.17-67.672-51.027-136.464-71.556-206.377-3.774-12.853-7.436-25.749-10.988-38.679 39.287-23.242 81.603-37.49 126.948-42.761 5.015 12.485 9.909 25.013 14.693 37.575 25.937 68.04 48.546 137.209 67.843 207.49z" fill="#f5f0f0"/><path d="m216.984 290.036c-39.287 23.233-81.603 37.49-126.94 42.752-27.17-67.672-51.027-136.464-71.556-206.377 40.99-22.241 84.538-36.865 130.653-43.865 25.937 68.04 48.546 137.209 67.843 207.49z" fill="#e8ded8"/><path d="m216.992 290.025c-39.287 23.242-81.603 37.498-126.948 42.761-32.167-80.122-59.679-161.802-82.544-245.056 13.692-8.104 27.751-15.104 42.188-21.017 22.737 82.45 50.035 163.368 81.902 242.738 29.54-3.432 57.796-10.671 84.76-21.736.223.77.428 1.54.642 2.31z" fill="#e8ded8"/><path d="m364.747 292.811c-48.804-3.332-76.456-4.84-125.26-4.555-20.391-63.33-42.992-125.915-67.82-187.75-56.669 6.583-109.555 24.397-158.659 53.44 25.831 94.079 56.418 186.557 91.761 277.432 6.872 17.669 23.434 29.725 42.366 30.721 79.588 4.186 138.024 3.562 217.612-1.871 9.89-55.806 9.89-111.612 0-167.417z" fill="#c0df8f"/><path d="m369.381 427.874c-1.171 10.784-2.714 21.568-4.63 32.351-79.588 5.439-138.026 6.06-217.614 1.875-18.926-.994-35.49-13.052-42.368-30.725-35.335-90.869-65.925-183.355-91.76-277.425 18.449-10.908 37.438-20.242 56.944-27.98 25.421 91.605 55.348 181.687 89.782 270.257 6.878 17.662 23.442 29.72 42.368 30.714 62.805 3.305 104.461 3.616 167.278.933z" fill="#a2d162"/><g><g fill="#bee5f0"><path d="m442.245 436.704.934-1.652c3.294-5.825 10.536-8.105 16.573-5.217l18.569 8.882c6.651 3.181 9.217 11.33 5.588 17.748l-2.321 4.104c-3.629 6.418-11.935 8.42-18.089 4.36l-17.182-11.334c-5.587-3.685-7.366-11.066-4.072-16.891z"/><path d="m458.495 375.772-.017-1.897c-.06-6.692 5.072-12.287 11.743-12.805l20.522-1.593c7.351-.57 13.647 5.204 13.713 12.577l.042 4.715c.066 7.373-6.126 13.259-13.486 12.82l-20.547-1.225c-6.679-.398-11.91-5.901-11.97-12.592z"/><path d="m442.102 314.878-.963-1.635c-3.398-5.765-1.751-13.177 3.768-16.961l16.976-11.64c6.081-4.169 14.421-2.317 18.164 4.035l2.394 4.062c3.743 6.352 1.324 14.546-5.269 17.846l-18.407 9.213c-5.983 2.994-13.265.845-16.663-4.92z"/></g></g></g><g><path d="m406.479 304.93c-11.777-.8-22.45-1.438-32.452-1.94-.586-3.832-1.214-7.661-1.892-11.486-.601-3.393-3.437-5.939-6.874-6.173-46.845-3.196-74.804-4.727-120.319-4.602-13.125-40.493-27.379-81.3-42.398-121.378-1.453-3.879-5.779-5.844-9.655-4.391-3.879 1.454-5.845 5.776-4.391 9.655 15.583 41.583 30.338 83.954 43.854 125.936.999 3.102 3.884 5.202 7.139 5.202h.043c46.582-.267 73.077 1.056 118.819 4.143 8.375 50.875 8.375 102.365 0 153.24-9.929.658-19.113 1.212-27.926 1.688-4.136.223-7.308 3.757-7.085 7.893.216 3.999 3.525 7.097 7.483 7.096.136 0 .273-.003.41-.011 10.601-.572 21.73-1.257 34.027-2.097 3.438-.234 6.273-2.781 6.874-6.173.677-3.822 1.305-7.647 1.89-11.476 10.002-.502 20.676-1.14 32.454-1.94 3.438-.234 6.275-2.781 6.876-6.175 7.688-43.408 7.688-87.428 0-130.836-.601-3.394-3.438-5.941-6.877-6.175zm-6.918 128.613c-8.32.544-16.081 1.002-23.459 1.387 4.708-38.853 4.709-77.963.001-116.815 7.379.385 15.139.843 23.458 1.387 6.08 37.868 6.08 76.173 0 114.041z"/><path d="m300.607 456.208c-50.006 1.893-95.788 1.415-153.081-1.595-15.922-.841-29.961-11.03-35.766-25.958-34.394-88.44-64.657-179.626-89.984-271.135 44.946-25.731 93.702-42.153 145.078-48.865 3.781 9.477 7.476 18.883 11.01 28.032 1.494 3.864 5.837 5.786 9.699 4.293 3.864-1.493 5.786-5.835 4.293-9.699-4.224-10.932-8.673-22.226-13.226-33.57-1.26-3.141-4.468-5.052-7.827-4.657-3.092.36-6.174.76-9.248 1.187-6.497-17.414-13.253-34.897-20.146-52.061-1.261-3.14-4.475-5.051-7.826-4.655-46.184 5.366-89.89 20.087-129.901 43.753-2.911 1.721-4.309 5.178-3.415 8.439 4.941 18.012 10.169 36.12 15.545 53.945-2.215 1.256-4.424 2.526-6.62 3.825-2.912 1.722-4.31 5.18-3.415 8.441 25.773 93.868 56.727 187.456 92.003 278.163 7.937 20.415 27.153 34.35 48.956 35.502 34.998 1.838 65.739 2.739 95.766 2.739 19.536 0 38.773-.381 58.671-1.134 4.139-.157 7.368-3.639 7.211-7.778s-3.628-7.362-7.777-7.212zm-284.338-364.889c35.181-19.974 73.264-32.801 113.369-38.185 5.73 14.378 11.352 28.951 16.799 43.49-40.983 7.237-80.229 20.542-117.163 39.726-4.471-14.901-8.834-29.984-13.005-45.031z"/><path d="m481.557 431.951-18.569-8.882c-9.554-4.569-21.123-.928-26.336 8.291l-.934 1.651c-5.214 9.22-2.372 21.011 6.47 26.843l17.183 11.334c3.327 2.194 7.227 3.338 11.16 3.338 1.579 0 3.164-.184 4.718-.559 5.429-1.309 10.12-4.847 12.869-9.708l2.32-4.104c2.749-4.861 3.364-10.704 1.687-16.031s-5.529-9.763-10.568-12.173zm-4.177 20.823-2.32 4.104c-.721 1.275-1.903 2.167-3.327 2.509-1.422.343-2.882.089-4.104-.718l-17.183-11.334c-2.285-1.507-3.02-4.555-1.672-6.938l.934-1.651c1.348-2.383 4.338-3.325 6.808-2.144l18.569 8.882c1.321.632 2.292 1.75 2.731 3.147.44 1.396.285 2.867-.436 4.143z"/><path d="m511.957 371.987c-.05-5.584-2.439-10.953-6.555-14.727-4.116-3.775-9.668-5.688-15.238-5.26l-20.522 1.593c-10.56.819-18.758 9.758-18.663 20.35l.017 1.897c.094 10.591 8.451 19.382 19.024 20.012l20.547 1.225c.397.023.795.035 1.191.035 5.163 0 10.19-1.994 13.95-5.567 4.048-3.848 6.341-9.258 6.29-14.843zm-16.583 8.685c-1.062 1.009-2.447 1.518-3.914 1.43l-20.548-1.225c-2.732-.163-4.893-2.435-4.917-5.172l-.017-1.897c-.024-2.738 2.094-5.048 4.824-5.26l20.522-1.593c.14-.011.279-.016.417-.016 1.308 0 2.545.48 3.521 1.376 1.08.99 1.681 2.342 1.694 3.807l.042 4.714c.015 1.464-.562 2.826-1.624 3.836z"/><path d="m435.641 318.685c3.744 6.352 10.516 9.946 17.481 9.945 3.042 0 6.122-.686 9-2.127l18.406-9.213c4.994-2.499 8.766-7.005 10.347-12.361 1.582-5.356.862-11.188-1.973-15.999l-2.394-4.062c-2.836-4.812-7.589-8.266-13.041-9.477-5.451-1.21-11.219-.094-15.825 3.064l-16.977 11.641c-8.735 5.989-11.366 17.829-5.988 26.955zm13.507-16.217 16.977-11.641c.884-.606 1.899-.919 2.94-.919.381 0 .767.042 1.15.127 1.43.318 2.627 1.188 3.371 2.45l2.394 4.062c.744 1.262.925 2.73.51 4.135s-1.364 2.54-2.674 3.195l-18.407 9.213c-2.449 1.227-5.456.337-6.845-2.021l-.963-1.633c-1.391-2.359-.711-5.42 1.547-6.968z"/></g></g></svg>