<svg id="Capa_1" enable-background="new 0 0 512 512" height="512" viewBox="0 0 512 512" width="512" xmlns="http://www.w3.org/2000/svg"><g><g><g><circle cx="209.574" cy="217.906" fill="#f5f0f0" r="64.846"/></g><g><circle cx="331.904" cy="85.124" fill="#f5f0f0" r="64.846"/></g><g><g><path d="m481.377 406.207-119.097 77.579c-15.041 9.8-33.313 13.342-50.918 9.856l-249.228-49.35 101.114-121.752 93.54 43.597 59.444 27.698 109.147-72.654c11.609-7.733 25.325-10.086 38.108-7.554 11.556 2.288 22.365 8.577 30.155 18.509 2.057 2.614 3.811 5.363 5.271 8.203 11.663 22.695 4.71 51.369-17.536 65.868z" fill="#ffddce"/><path d="m223.948 259.32-40.386 22.804c-23.636 13.346-51.462 16.442-77.78 9.793-18.78-4.744-39.37-2.644-57.765 7.584-36.68 20.394-51.006 66.641-32.312 104.216 19.699 39.596 67.921 55.261 107.062 35.024l151.356-82.374c26.799-13.856 37.291-46.812 23.435-73.611-13.855-26.799-46.812-37.291-73.61-23.436z" fill="#ffddce"/><g fill="#ffcbbe"><path d="m296.523 280.865c-10.032-.929-20.439.906-30.055 5.885l-40.392 22.8c-23.639 13.35-51.462 16.436-77.772 9.79-18.781-4.742-39.377-2.638-57.767 7.592-36.684 20.385-51.015 66.64-32.31 104.21 2.523 5.073 5.526 9.759 8.91 14.026-21.55-5.439-40.714-19.91-51.434-41.453-18.693-37.568-4.363-83.823 32.321-104.208 18.39-10.229 38.986-12.334 57.767-7.592 26.31 6.646 54.133 3.56 77.772-9.79l40.392-22.8c11.421-5.909 23.964-7.39 35.664-5.073 15.093 2.988 28.796 12.309 36.904 26.613z"/><path d="m498.913 340.339c-12.645-8.916-29.881-9.1-42.842.297l-123.719 89.718-147.271-23.829 71.707-40.387 59.444 27.698 109.147-72.654c11.609-7.733 25.325-10.086 38.108-7.554 11.556 2.288 22.365 8.577 30.155 18.509 2.057 2.612 3.811 5.361 5.271 8.202z"/></g></g></g><g><path d="m424.931 137.812.311 58.535-41.843 42.443c-15.619-6.424-31.158-13.079-46.58-19.98-26.336-11.786-38.846-42.423-27.921-69.128l.392-.953c11.031-26.676 41.471-39.633 68.478-29.479 15.815 5.947 31.544 12.138 47.163 18.562z" fill="#dd636e"/><path d="m499.43 226.917-.397.966c-11.038 26.658-41.471 39.634-68.473 29.466-15.815-5.947-31.545-12.138-47.164-18.563l41.532-100.978c15.619 6.424 31.153 13.092 46.576 19.993 26.342 11.774 38.839 42.406 27.926 69.116z" fill="#ffd064"/><path d="m383.397 238.793c-15.622-6.425-31.146-13.089-46.575-19.993-26.341-11.773-38.851-42.411-27.926-69.115l.139-.339c-3.371 8.338 15.31 23.972 41.879 35.193 15.565 6.571 37.429 15.648 53.05 22.073" fill="#da4a54"/><path d="m499.167 227.552-.139.339c-11.038 26.658-41.471 39.633-68.473 29.466-15.815-5.947-31.545-12.138-47.164-18.563l14.298-34.763c15.619 6.424 31.277 12.791 46.957 19.064 26.775 10.719 51.037 12.749 54.521 4.457z" fill="#ebb044"/></g></g><g><path d="m282.623 138.075c5.429 5.051 11.477 9.167 18.04 12.308-4.663 13.763-4.244 28.632 1.285 42.276 5.987 14.775 17.288 26.492 31.821 32.991 26.366 11.794 53.309 23.014 80.081 33.35 3.862 1.49 8.206-.431 9.698-4.295s-.431-8.206-4.295-9.698c-8.672-3.348-17.361-6.798-26.044-10.323l35.803-87.048c13.256 5.521 26.428 11.195 39.437 17.015 10.981 4.911 19.521 13.765 24.049 24.932 4.529 11.172 4.53 23.425-.002 34.51l-.386.925c-7.629 18.449-26.235 29.75-46.304 28.13-4.125-.331-7.747 2.742-8.081 6.871-.334 4.128 2.742 7.747 6.871 8.081 1.69.137 3.373.204 5.045.204 24.617 0 46.848-14.622 56.346-37.592l.396-.949c6.019-14.723 6.024-30.993.016-45.815-5.99-14.774-17.292-26.49-31.825-32.99-25.681-11.488-51.971-22.443-78.357-32.678 14.581-28.326 8.845-63.903-15.004-86.104-29.195-27.179-75.063-25.541-102.25 3.65-27.177 29.203-25.535 75.071 3.66 102.249zm96.71 90.912c-13.227-5.509-26.404-11.198-39.439-17.029-10.979-4.91-19.518-13.765-24.043-24.931-4.527-11.172-4.525-23.426.01-34.52l.372-.915c4.575-11.059 13.196-19.767 24.275-24.521 11.075-4.753 23.374-5.036 34.634-.796 13.356 5.025 26.708 10.26 39.999 15.657zm1.091-116.752c-14.9-5.611-31.178-5.238-45.833 1.051-11.517 4.942-21.021 13.126-27.536 23.525-5.164-2.483-9.929-5.731-14.213-9.717-9.596-8.933-15.424-20.416-17.437-32.446l113.533-4.056c-.713 7.694-2.971 15.29-6.837 22.281-.559-.21-1.118-.427-1.677-.638zm-90.484-66.189c21.549-23.138 57.908-24.435 81.051-2.892 9.49 8.835 15.352 20.342 17.389 32.449l-113.511 4.055c1.148-12.143 6.139-24.014 15.071-33.612z"/><path d="m499.551 327.504c-8.614-10.98-20.899-18.522-34.595-21.238-15.263-3.02-30.793.058-43.721 8.664l-105.643 70.325-42.395-19.757 4.502-2.536c20.657-10.728 33.483-31.854 33.483-55.169 0-9.851-2.403-19.701-6.948-28.485-6.623-12.807-17.236-22.701-30.275-28.379 5.231-10.17 7.973-21.417 7.973-33.02 0-39.894-32.456-72.35-72.35-72.35-39.888 0-72.339 32.456-72.339 72.35 0 25.573 13.429 48.785 34.598 61.723-19.733 8.762-42.204 10.569-64.213 5.009-21.435-5.41-43.903-2.456-63.261 8.318-19.322 10.75-33.646 28.394-40.331 49.683-6.685 21.286-5.023 43.951 4.678 63.819 6.047 12.393 14.651 22.859 25.57 31.105 10.39 7.846 22.646 13.331 35.444 15.863l28.089 5.56c.492.097.981.144 1.464.144 3.508 0 6.643-2.474 7.35-6.045.804-4.063-1.838-8.009-5.901-8.813l-28.091-5.56c-10.587-2.094-20.724-6.63-29.315-13.118-9.018-6.81-16.127-15.462-21.13-25.715-8.011-16.406-9.376-35.138-3.847-52.746 5.53-17.609 17.361-32.194 33.314-41.07 16.007-8.908 34.581-11.352 52.295-6.882 28.815 7.281 58.4 3.54 83.304-10.53l40.266-22.73c23.057-11.844 51.467-2.768 63.385 20.275 3.498 6.759 5.271 14.024 5.271 21.593 0 17.727-9.768 33.785-25.492 41.906-.081.042-.16.084-.239.129l-89.039 50.159c-3.609 2.033-4.886 6.607-2.854 10.216 2.033 3.609 6.607 4.885 10.216 2.853l68.346-38.502 55.953 26.076c2.37 1.105 5.146.895 7.324-.555l109.15-72.659c9.605-6.396 21.145-8.683 32.495-6.436 10.176 2.018 19.306 7.622 25.708 15.783 7.603 9.69 10.684 21.72 8.673 33.874-2.012 12.156-8.804 22.555-19.126 29.281l-119.1 77.58c-13.483 8.786-29.595 11.901-45.369 8.777l-182.729-36.18c-4.062-.8-8.009 1.837-8.813 5.901-.805 4.063 1.837 8.009 5.9 8.814l182.727 36.179c4.975.986 9.975 1.473 14.943 1.473 14.642 0 28.999-4.231 41.528-12.395l119.1-77.58c13.688-8.92 23.069-23.281 25.736-39.4 2.668-16.117-1.586-32.732-11.669-45.582zm-232.619-109.595c0 10.151-2.642 19.96-7.667 28.65-3.743-.632-7.509-.906-11.262-.845l-73.288-73.289c9.669-7.433 21.757-11.866 34.867-11.866 31.623 0 57.35 25.727 57.35 57.35zm-46.415 34.753c-.081.042-.162.085-.242.13l-32.301 18.234c-21.5-8.73-35.732-29.672-35.732-53.117 0-13.114 4.434-25.205 11.866-34.877l65.733 65.734c-3.176 1.04-6.296 2.33-9.324 3.896z"/><path d="m221.95 285.564c-4.082-.715-7.967 2.015-8.681 6.095-.166.946-1.517 9.545 1.932 20.118 3.206 9.826 11.29 23.242 31.603 31.356.913.365 1.854.537 2.78.537 2.978 0 5.795-1.786 6.967-4.72 1.537-3.847-.336-8.21-4.183-9.747-27.685-11.059-24.486-33.922-24.316-35.008.684-4.062-2.039-7.92-6.102-8.631z"/><path d="m436.998 95.036c4.142 0 7.5-3.358 7.5-7.5v-70.498c0-4.142-3.358-7.5-7.5-7.5s-7.5 3.358-7.5 7.5v70.498c0 4.142 3.358 7.5 7.5 7.5z"/><path d="m468.136 125.63c4.142 0 7.5-3.358 7.5-7.5v-70.498c0-4.142-3.358-7.5-7.5-7.5s-7.5 3.358-7.5 7.5v70.498c0 4.142 3.357 7.5 7.5 7.5z"/><path d="m220.325 126.78c4.142 0 7.5-3.358 7.5-7.5v-70.498c0-4.142-3.358-7.5-7.5-7.5s-7.5 3.358-7.5 7.5v70.498c0 4.142 3.358 7.5 7.5 7.5z"/></g></g></svg>