<svg id="Capa_1" enable-background="new 0 0 512 512" height="512" viewBox="0 0 512 512" width="512" xmlns="http://www.w3.org/2000/svg"><g><g><path d="m486.71 64.285c0 6.24-.04 12.45-.1 18.61-.1 8.56-.26 17.03-.48 25.42-3.94 152.3-27.37 276.53-42.06 340.8-6.37 27.85-31.17 47.57-59.73 47.57h-256.68c-28.57 0-53.37-19.72-59.73-47.57-14.83-64.86-38.56-190.82-42.18-345.06-.3-13.06-.46-26.33-.46-39.77l230.71-24.489z" fill="#edf9f9"/><g fill="#dcf1f4"><path d="m486.71 64.285c0 6.24-.04 12.45-.1 18.61h-405.41c-6.76 0-12.88-2.74-17.31-7.17-3.1-3.1-5.38-7.04-6.46-11.44z"/><path d="m209.007 496.688h-81.348c-28.56 0-53.37-19.72-59.73-47.568-16.089-70.361-42.643-212.589-42.643-384.837h146.227c0 172.248 9.73 314.476 15.615 384.837 2.337 27.848 11.414 47.568 21.879 47.568z"/><path d="m450.527 129.223c-5.47 140.806-27.442 255.043-40.488 312.115-2.758 12.034-13.325 20.436-25.696 20.436h-256.685c-12.383 0-22.938-8.402-25.685-20.424-13.104-57.281-35.042-171.391-40.511-312.127z"/></g><path d="m188.745 461.775h-61.087c-12.383 0-22.938-8.402-25.685-20.424-13.104-57.281-35.042-171.391-40.511-312.127h110.501c1.99 142.738 10.032 258.593 15.164 319.901.373 4.445.92 8.669 1.618 12.65z" fill="#bee5f0"/><g><circle cx="194.801" cy="353.022" fill="#f5f0f0" r="78.666"/></g><g><path d="m289.436 353.691-21.721 52.025 21.721 53.135c16.266 0 32.545-.235 48.81-.732 27.776-.849 50.143-23.556 50.196-51.345v-.993c-.052-27.802-22.42-50.496-50.196-51.345-16.266-.497-32.544-.745-48.81-.745z" fill="#dd636e"/><path d="m190.433 405.766v1.006c.065 27.789 22.419 50.496 50.195 51.332 16.266.496 32.545.745 48.811.745v-105.16c-16.266 0-32.545.248-48.811.745-27.776.836-50.13 23.543-50.195 51.332z" fill="#ffd064"/><path d="m289.436 458.854c16.269 0 32.538-.248 48.81-.745 27.776-.836 50.143-23.543 50.196-51.332v-.353c-.052 8.662-22.42 15.743-50.196 16.005-16.271.15-39.072.225-55.34.225" fill="#da4a54"/><path d="m190.435 406.428v.353c.065 27.789 22.419 50.496 50.195 51.332 16.266.496 32.545.745 48.811.745v-36.203c-16.266 0-32.545-.065-48.811-.222-27.776-.262-50.13-7.343-50.195-16.005z" fill="#ebb044"/></g><g><path d="m339.495 231.994-49.574 26.847-16.463 54.992c12.659 10.215 25.475 20.254 38.445 30.082 22.15 16.782 53.816 13.157 71.307-8.437l.624-.773c17.418-21.669 14.263-53.377-6.82-71.48-12.347-10.601-24.86-21.017-37.519-31.231z" fill="#c0df8f"/><path d="m229.746 210.349-.632.783c-17.4 21.667-14.263 53.376 6.828 71.47 12.347 10.601 24.86 21.017 37.518 31.232l66.038-81.838c-12.659-10.215-25.483-20.244-38.454-30.072-22.14-16.794-53.796-13.161-71.298 8.425z" fill="#a2c6fe"/><path d="m273.455 313.835c12.661 10.217 25.478 20.24 38.453 30.072 22.141 16.792 53.808 13.167 71.299-8.426l.222-.275c-5.48 6.708-27.334-1.827-49.114-19.066-12.757-10.101-30.548-24.361-43.209-34.577" fill="#a2d162"/><path d="m229.332 210.865-.222.275c-17.4 21.667-14.263 53.376 6.828 71.47 12.347 10.601 24.86 21.017 37.518 31.232l22.735-28.174c-12.659-10.215-25.286-20.488-37.847-30.825-21.451-17.647-34.401-37.196-29.012-43.978z" fill="#7898d5"/></g><path d="m480.019 15.315h-448.038c-13.52 0-24.481 10.961-24.481 24.481 0 13.52 10.961 24.481 24.481 24.481h448.038c13.52 0 24.481-10.961 24.481-24.481 0-13.52-10.961-24.481-24.481-24.481z" fill="#edf9f9"/><path d="m135.72 57.107c4.43 4.43 10.55 7.17 17.31 7.17h-121.05c-6.76 0-12.88-2.74-17.31-7.17s-7.17-10.55-7.17-17.31c0-13.52 10.96-24.48 24.48-24.48h121.05c-13.52 0-24.49 10.96-24.49 24.48 0 6.76 2.74 12.88 7.18 17.31z" fill="#dcf1f4"/></g><g><path d="m56.055 124.023c-1.414 1.47-2.168 3.453-2.089 5.491 1.724 44.341 5.228 89.53 10.414 134.311.477 4.115 4.198 7.071 8.313 6.587 4.115-.477 7.064-4.198 6.587-8.313-4.839-41.782-8.201-83.921-10.005-125.377h373.439c-5.965 137.224-27.516 248.362-39.985 302.943-1.973 8.6-9.535 14.607-18.39 14.607h-12.755c2.653-1.935 5.172-4.087 7.511-6.475 10.832-11.054 16.814-25.618 16.847-41.025v-1.013c-.032-15.392-6.015-29.956-16.847-41.009-3.192-3.258-6.709-6.094-10.467-8.5 7.844-3.713 14.81-9.142 20.397-16.037l.657-.813c9.641-11.998 14.131-27.09 12.643-42.494-1.483-15.355-8.738-29.338-20.429-39.373-24.7-21.202-50.379-41.922-76.321-61.585-12.277-9.307-27.478-13.443-42.8-11.649-15.371 1.8-29.172 9.377-38.861 21.333l-.647.802c-9.641 11.999-14.13 27.09-12.643 42.494.706 7.31 2.735 14.301 5.913 20.711-8.079-2.112-16.597-3.078-25.363-2.711-47.463 2.001-84.458 42.249-82.467 89.718.958 22.779 10.67 43.879 27.348 59.416 15.578 14.51 35.568 22.597 56.697 23.074 2.046 3.068 4.39 5.97 7.027 8.661 2.339 2.387 4.858 4.54 7.511 6.475h-79.63c-8.855 0-16.413-6-18.379-14.592-7.281-31.827-17.76-83.355-26.336-148.103-.544-4.106-4.317-7-8.42-6.45-4.106.544-6.994 4.313-6.45 8.42 8.653 65.32 19.232 117.34 26.584 149.478 3.536 15.454 17.106 26.247 33.001 26.247h256.68c15.89 0 29.464-10.796 33.012-26.26 12.822-56.125 35.155-171.484 40.673-313.499.079-2.038-.675-4.021-2.089-5.49-1.414-1.47-3.365-2.301-5.405-2.301h-389.071c-2.04 0-3.991.83-5.405 2.301zm224.641 222.207c-.553-7.032-1.941-13.817-4.073-20.255 8.613 6.862 17.288 13.625 25.999 20.279-7.307-.06-14.618-.063-21.926-.024zm100.246 59.545v.981c-.023 11.454-4.484 22.301-12.561 30.542-8.073 8.238-18.856 12.968-30.365 13.317-13.635.414-27.352.643-41.081.707v-90.098c13.729.064 27.446.292 41.081.707 11.509.35 22.292 5.079 30.365 13.317 8.077 8.242 12.538 19.089 12.561 30.527zm6.454-107.428c1.11 11.485-2.23 22.728-9.404 31.655l-.607.752c-7.211 8.899-17.494 14.539-28.954 15.881-11.453 1.342-22.818-1.75-31.994-8.705-10.872-8.241-21.69-16.677-32.414-25.249l56.579-70.116c10.644 8.671 21.176 17.463 31.527 26.347 8.735 7.502 14.158 17.954 15.267 29.435zm-152.436-82.517.607-.753c7.211-8.899 17.494-14.539 28.954-15.881 1.751-.205 3.499-.307 5.238-.307 9.64 0 18.982 3.119 26.756 9.011 10.87 8.239 21.688 16.675 32.411 25.246l-56.579 70.116c-10.644-8.671-21.175-17.461-31.524-26.345-8.737-7.499-14.159-17.952-15.268-29.433-1.109-11.483 2.231-22.726 9.405-31.654zm-111.267 140.187c-1.644-39.207 28.911-72.449 68.111-74.102 16.912-.713 32.706 4.578 45.341 13.961l-95.767 104.18c-10.767-12.186-16.992-27.583-17.685-44.039zm28.742 54.176 95.752-104.164c9.651 10.945 16.027 24.89 17.471 40.345-8.438.123-16.863.31-25.256.565-15.399.468-29.827 6.793-40.624 17.812-10.832 11.054-16.814 25.618-16.846 41.014v1.024c.012 5.752.856 11.388 2.473 16.768-11.953-1.57-23.247-6.137-32.97-13.364zm45.498-3.432v-.97c.024-11.454 4.484-22.301 12.56-30.542 8.073-8.238 18.857-12.968 30.366-13.317 13.634-.414 27.35-.643 41.077-.707v90.097c-13.728-.063-27.443-.292-41.077-.706-11.508-.35-22.292-5.079-30.365-13.317-8.077-8.242-12.537-19.088-12.561-30.538z"/><path d="m512 39.792c0-8.542-3.326-16.572-9.366-22.613s-14.071-9.367-22.614-9.367h-448.04c-17.634 0-31.98 14.346-31.98 31.98 0 8.548 3.327 16.583 9.367 22.623 2.502 2.502 5.349 4.53 8.429 6.057.428 171.417 26.955 312.922 42.821 382.319 7.189 31.439 34.757 53.397 67.04 53.397h256.682c32.283 0 59.851-21.958 67.04-53.397 15.867-69.4 42.395-210.915 42.821-382.337 10.538-5.238 17.8-16.115 17.8-28.662zm-31.98 16.989h-33.34c-4.143 0-7.5 3.358-7.5 7.5s3.357 7.5 7.5 7.5h32.512c-.757 168.453-26.812 307.331-42.436 375.666-5.62 24.576-27.175 41.741-52.417 41.741h-256.682c-25.243 0-46.798-17.165-52.417-41.741-15.624-68.334-41.679-207.21-42.437-375.666h383.977c4.143 0 7.5-3.358 7.5-7.5s-3.357-7.5-7.5-7.5h-384.8c-4.536 0-8.8-1.766-12.007-4.973s-4.973-7.474-4.973-12.016c0-9.363 7.617-16.98 16.98-16.98h448.04c4.536 0 8.801 1.766 12.007 4.973 3.207 3.208 4.974 7.472 4.974 12.007-.001 9.368-7.618 16.989-16.981 16.989z"/></g></g></svg>