<svg id="Capa_1" enable-background="new 0 0 511.968 511.968" height="512" viewBox="0 0 511.968 511.968" width="512" xmlns="http://www.w3.org/2000/svg"><g><g><path d="m339.96 498.829c-78.922 7.551-157.845 7.551-236.767 0-17.743-1.698-31.805-15.804-33.26-33.569-5.041-61.579-6.57-123.157-4.587-184.736 2.101-65.214 54.884-117.214 120.104-119.118 24.084-.703 48.169-.703 72.253 0 65.22 1.904 118.003 53.904 120.104 119.118 1.984 61.579.455 123.157-4.587 184.736-1.455 17.764-15.517 31.871-33.26 33.569z" fill="#ffd064"/><path d="m221.576 160.874c-7.25 0-14.49.18-21.73.55-39.23 1.97-70.98 55.87-72.24 123.46-1.2 63.83-.28 127.65 2.75 191.48.48 10.05 3.22 18.96 7.34 25.28-11.51-.78-23.01-1.72-34.51-2.82-17.74-1.69-31.8-15.8-33.26-33.56-5.04-61.58-6.57-123.16-4.58-184.74 2.1-65.21 54.88-117.21 120.1-119.12 12.04-.35 24.09-.53 36.13-.53z" fill="#ebb044"/><path d="m251.694 7.502h-60.235c-15.803 0-28.614 12.811-28.614 28.614v106.808h117.463v-106.808c0-15.803-12.811-28.614-28.614-28.614z" fill="#dd636e"/><path d="m227.373 7.502c-15.8 0-28.61 12.81-28.61 28.609v106.813h-35.919v-106.813c0-15.799 12.82-28.609 28.619-28.609h35.91z" fill="#da4a54"/><path d="m300.387 124.965h-157.622c-12.672 0-22.945 10.273-22.945 22.945 0 12.672 10.273 22.945 22.945 22.945h157.621c12.672 0 22.945-10.273 22.945-22.945.001-12.672-10.272-22.945-22.944-22.945z" fill="#f5f0f0"/><path d="m197.039 164.14c4.15 4.15 9.88 6.72 16.22 6.72h-70.499c-6.34 0-12.07-2.57-16.22-6.72-4.15-4.16-6.72-9.89-6.72-16.23 0-12.67 10.27-22.949 22.94-22.949h70.499c-12.67 0-22.94 10.28-22.94 22.949 0 6.34 2.57 12.07 6.72 16.23z" fill="#e8ded8"/><ellipse cx="240.349" cy="66.095" fill="#f5f0f0" rx="17.957" ry="25.938"/><g fill="#f5f0f0"><path d="m378.914 177.366 1.028-1.818c3.626-6.413 11.599-8.923 18.246-5.744l20.444 9.778c7.323 3.503 10.147 12.474 6.152 19.54l-2.555 4.518c-3.995 7.066-13.139 9.27-19.915 4.8l-18.917-12.478c-6.151-4.057-8.11-12.183-4.483-18.596z"/><path d="m396.804 110.283-.019-2.089c-.066-7.367 5.584-13.527 12.929-14.097l22.594-1.753c8.093-.628 15.025 5.729 15.098 13.846l.047 5.19c.073 8.117-6.744 14.598-14.847 14.115l-22.622-1.348c-7.354-.439-13.114-6.497-13.18-13.864z"/><path d="m378.756 43.241-1.061-1.8c-3.741-6.347-1.928-14.507 4.148-18.673l18.69-12.815c6.695-4.59 15.877-2.551 19.998 4.442l2.635 4.472c4.121 6.993 1.458 16.014-5.801 19.647l-20.265 10.143c-6.586 3.298-14.603.931-18.344-5.416z"/></g><g><path d="m324.66 332.684c0 56.93-46.15 103.09-103.09 103.09-24.07 0-46.21-8.25-63.75-22.08-13.11-10.33-23.65-23.77-30.51-39.21-5.66-12.77-8.82-26.92-8.82-41.8 0-15.06 3.23-29.35 9.03-42.24 7.22-16.07 18.45-29.95 32.4-40.39 17.19-12.85 38.53-20.46 61.65-20.46 56.94.001 103.09 46.16 103.09 103.09z" fill="#f5f0f0"/><g><path d="m266.091 311.01c-5.425-.233-10.849-.421-16.274-.568-3.279-.089-5.908-2.718-5.997-5.997-.147-5.425-.335-10.849-.568-16.274-.121-2.806-2.131-5.207-4.887-5.75-11.192-2.209-22.385-2.209-33.577 0-2.756.544-4.766 2.944-4.887 5.75-.233 5.425-.421 10.849-.568 16.274-.089 3.279-2.718 5.908-5.997 5.997-5.425.147-10.849.335-16.274.568-2.806.121-5.207 2.131-5.75 4.887-2.209 11.193-2.209 22.385 0 33.577.544 2.756 2.944 4.766 5.75 4.887 5.425.233 10.849.421 16.274.568 3.279.089 5.908 2.718 5.997 5.997.147 5.425.335 10.849.568 16.274.121 2.806 2.131 5.207 4.887 5.75 11.193 2.209 22.385 2.209 33.577 0 2.756-.544 4.766-2.944 4.887-5.75.233-5.425.421-10.849.568-16.274.089-3.279 2.718-5.908 5.997-5.997 5.425-.147 10.849-.335 16.274-.568 2.806-.121 5.207-2.131 5.75-4.887 2.208-11.192 2.208-22.385 0-33.577-.543-2.756-2.944-4.767-5.75-4.887z" fill="#dd636e"/></g></g><path d="m127.31 374.485c-5.66-12.77-8.82-26.92-8.82-41.8 0-15.06 3.23-29.35 9.03-42.24-.48 28.009-.55 56.029-.21 84.04z" fill="#e8ded8"/></g><g><path d="m319.75 171.386c6.763-5.589 11.081-14.038 11.081-23.476 0-16.787-13.657-30.445-30.444-30.445h-12.577v-81.35c0-19.911-16.203-36.11-36.12-36.11h-60.23c-19.917 0-36.12 16.199-36.12 36.11v15.99c0 4.142 3.357 7.5 7.5 7.5s7.5-3.358 7.5-7.5v-15.99c0-11.64 9.475-21.11 21.12-21.11h60.229c11.646 0 21.12 9.47 21.12 21.11v81.35h-102.469v-35.38c0-4.142-3.357-7.5-7.5-7.5s-7.5 3.358-7.5 7.5v35.381h-12.574c-16.788 0-30.445 13.658-30.445 30.445 0 9.438 4.318 17.888 11.081 23.476-38.875 22.384-64.091 63.512-65.553 108.899-1.98 61.571-.429 124.013 4.61 185.587 1.744 21.369 18.574 38.371 40.021 40.425 39.513 3.78 79.305 5.67 119.097 5.67s79.584-1.89 119.099-5.67c21.444-2.055 38.274-19.056 40.018-40.423 5.04-61.576 6.592-124.018 4.611-185.589-1.463-45.387-26.68-86.516-65.555-108.9zm-176.984-38.921h157.621c8.516 0 15.444 6.929 15.444 15.445s-6.929 15.445-15.444 15.445h-157.621c-8.517 0-15.445-6.929-15.445-15.445s6.928-15.445 15.445-15.445zm222.976 332.188c-1.151 14.118-12.296 25.353-26.497 26.713-78.081 7.47-157.259 7.47-235.336 0-14.203-1.361-25.348-12.595-26.5-26.715-4.993-61.011-6.53-122.878-4.568-183.883 1.439-44.674 28.896-84.697 70.08-102.413h157.311c41.185 17.716 68.641 57.739 70.08 102.413 1.962 61.004.424 122.871-4.57 183.885z"/><path d="m265.806 66.095c0-18.75-11.182-33.438-25.457-33.438s-25.457 14.688-25.457 33.438 11.182 33.438 25.457 33.438 25.457-14.688 25.457-33.438zm-35.914 0c0-8.704 4.472-18.438 10.457-18.438s10.457 9.734 10.457 18.438-4.472 18.438-10.457 18.438-10.457-9.735-10.457-18.438z"/><path d="m421.867 172.817-20.443-9.779c-10.165-4.859-22.466-.985-28.013 8.821l-1.027 1.818c-5.542 9.805-2.521 22.343 6.882 28.546l18.917 12.478c3.538 2.334 7.686 3.551 11.869 3.551 1.68 0 3.364-.196 5.019-.595 5.774-1.392 10.763-5.155 13.686-10.325l2.556-4.519c2.924-5.17 3.577-11.385 1.794-17.051-1.786-5.664-5.882-10.383-11.24-12.945zm-3.612 22.613-2.556 4.519c-.898 1.588-2.37 2.699-4.145 3.126-1.77.428-3.589.109-5.112-.896l-18.917-12.478c-2.847-1.878-3.762-5.675-2.083-8.644.001 0 .001-.001.002-.002l1.025-1.816c1.189-2.103 3.404-3.304 5.688-3.304.941 0 1.895.204 2.793.633l20.443 9.779c1.646.787 2.855 2.179 3.403 3.92.55 1.742.356 3.575-.541 5.163z"/><path d="m454.906 106.121c-.054-5.939-2.596-11.648-6.973-15.663-4.377-4.014-10.28-6.052-16.205-5.593l-22.594 1.753c-11.23.872-19.949 10.378-19.85 21.646l.02 2.089c.103 11.263 8.989 20.61 20.232 21.28l22.622 1.348c.423.025.845.038 1.267.038 5.491 0 10.84-2.121 14.837-5.921 4.305-4.093 6.743-9.846 6.689-15.784zm-16.978 10.105c-1.322 1.257-3.059 1.896-4.876 1.781l-22.622-1.348c-3.404-.203-6.095-3.033-6.125-6.443 0-.001 0-.002 0-.004l-.02-2.085c-.03-3.411 2.609-6.29 6.01-6.554l22.595-1.753c.174-.014.348-.021.52-.021 1.629 0 3.17.599 4.386 1.713 1.346 1.234 2.095 2.918 2.111 4.742l.046 5.192c.016 1.826-.703 3.523-2.025 4.78z"/><path d="m372.294 47.049s.001 0 0 0c3.982 6.755 11.185 10.578 18.592 10.578 3.235 0 6.511-.73 9.572-2.262l20.267-10.144c5.312-2.658 9.322-7.451 11.004-13.147 1.682-5.697.916-11.898-2.1-17.014l-2.636-4.474c-3.017-5.117-8.072-8.791-13.87-10.078-5.798-1.288-11.932-.101-16.83 3.259l-18.69 12.815c-9.29 6.37-12.088 18.962-6.369 28.667zm13.791-18.096 18.69-12.815c1.505-1.031 3.316-1.384 5.096-.986 1.781.396 3.273 1.479 4.199 3.05l2.636 4.474c.927 1.572 1.152 3.401.636 5.151-.517 1.75-1.7 3.164-3.331 3.98l-20.267 10.144c-3.048 1.527-6.794.421-8.527-2.518l-1.06-1.799c-1.732-2.939-.884-6.752 1.928-8.681z"/><path d="m221.579 222.104c-60.979 0-110.59 49.606-110.59 110.58 0 60.979 49.61 110.59 110.59 110.59 19.548 0 38.763-5.176 55.566-14.97 3.579-2.086 4.789-6.678 2.703-10.256s-6.678-4.788-10.256-2.704c-14.514 8.458-31.116 12.93-48.014 12.93-52.708 0-95.59-42.881-95.59-95.59 0-52.703 42.882-95.58 95.59-95.58 52.703 0 95.58 42.877 95.58 95.58 0 24.371-9.17 47.572-25.82 65.33-2.834 3.021-2.681 7.768.341 10.601 3.022 2.834 7.769 2.68 10.601-.341 19.268-20.549 29.879-47.394 29.879-75.59 0-60.974-49.606-110.58-110.58-110.58z"/><path d="m266.414 303.516c-4.914-.211-9.998-.392-15.132-.538-.146-5.133-.326-10.217-.537-15.132-.272-6.312-4.767-11.569-10.929-12.785-12.104-2.389-24.379-2.388-36.481 0-6.162 1.216-10.655 6.474-10.928 12.786-.211 4.914-.392 9.997-.537 15.131-5.134.146-10.218.326-15.133.538-6.312.272-11.568 4.766-12.785 10.928-2.389 12.104-2.389 24.378 0 36.481 1.217 6.162 6.474 10.656 12.786 10.928 4.914.211 9.998.392 15.132.538.146 5.133.326 10.217.537 15.132.272 6.312 4.766 11.569 10.928 12.785 6.052 1.194 12.146 1.792 18.24 1.792 6.095 0 12.189-.597 18.241-1.792 6.162-1.216 10.656-6.474 10.929-12.786.211-4.914.392-9.997.537-15.131 5.134-.146 10.218-.326 15.132-.538 6.312-.272 11.569-4.766 12.786-10.929 2.388-12.104 2.388-24.377 0-36.481-1.216-6.16-6.474-10.654-12.786-10.927zm-1.72 43.398c-4.904.205-9.972.379-15.08.519-7.256.196-13.095 6.035-13.291 13.291-.139 5.109-.313 10.177-.519 15.081-9.446 1.727-19.009 1.727-28.457 0-.205-4.904-.38-9.972-.519-15.08-.196-7.256-6.034-13.095-13.29-13.291-5.109-.139-10.177-.313-15.081-.519-1.728-9.448-1.728-19.009 0-28.457 4.904-.205 9.972-.379 15.08-.519 7.257-.196 13.095-6.035 13.291-13.291.139-5.109.313-10.177.519-15.081 9.448-1.728 19.009-1.727 28.457 0 .205 4.904.38 9.972.519 15.08.196 7.256 6.035 13.095 13.29 13.291 5.109.139 10.177.313 15.081.519 1.727 9.448 1.727 19.01 0 28.457z"/></g></g></svg>