<svg id="Capa_1" enable-background="new 0 0 511.997 511.997" height="512" viewBox="0 0 511.997 511.997" width="512" xmlns="http://www.w3.org/2000/svg"><g><g><g><path d="m105.373 178.177 173.898-129.31 173.91 129.31v326.32h-347.808z" fill="#a2c6fe"/><path d="m102.479 26.929h89.183v134.389h-89.183z" fill="#dd636e"/><path d="m102.478 26.929h22.726v134.389h-22.726z" fill="#da4a54"/><path d="m105.375 203.674v50.527c74.247-88.352 173.896-143.407 173.896-143.407s99.659 55.055 173.905 143.416v-50.536l-8.248-8.303-123.852-124.783c-25.226-14.747-41.805-21.721-41.805-21.721s-16.588 6.983-41.814 21.73l-123.779 124.708z" fill="#7898d5"/><path d="m274.221 21.45c-25.552 11.884-142.295 70.969-217.981 190.49-2.843 4.49-2.36 10.327 1.151 14.317l14.973 17.017c5.019 5.705 13.988 5.347 18.58-.707 64.627-85.184 157.739-143.465 182.237-157.945 3.76-2.223 8.423-2.223 12.183 0 24.498 14.48 117.61 72.761 182.237 157.945 4.593 6.054 13.561 6.411 18.58.707l14.973-17.017c3.511-3.99 3.994-9.827 1.151-14.317-75.685-119.521-192.429-178.606-217.98-190.49-3.208-1.492-6.896-1.492-10.104 0z" fill="#f5f0f0"/><path d="m191.662 26.929v32.307c-.1.02-.2.03-.3.03-29.242 1.078-58.474 1.078-87.706 0-.399-.01-.799-.06-1.178-.14v-32.197z" fill="#da4a54"/><path d="m190.485 8.311c-29.235-1.085-58.469-1.085-87.704 0-3.744.139-6.956 2.821-7.666 6.5-1.672 8.667-1.672 17.334 0 26.001.71 3.679 3.921 6.361 7.666 6.5 29.235 1.085 58.469 1.085 87.704 0 3.744-.139 6.956-2.821 7.666-6.5 1.672-8.667 1.672-17.334 0-26.001-.711-3.679-3.922-6.361-7.666-6.5z" fill="#f5f0f0"/><path d="m126.034 47.94c-7.747-.13-15.505-.339-23.252-.629-3.744-.14-6.959-2.815-7.667-6.499-1.667-8.666-1.667-17.331 0-25.997.709-3.684 3.924-6.36 7.667-6.499 7.747-.29 15.505-.499 23.252-.629-2.606 1.078-4.603 3.384-5.162 6.27-1.787 9.235-1.787 18.48 0 27.714.56 2.885 2.556 5.191 5.162 6.269z" fill="#e8ded8"/></g><path d="m191.981 219.006h174.584v285.491h-174.584z" fill="#7898d5"/><path d="m291.743 368.649h40.617c6.887 0 12.47-5.583 12.47-12.47 0-6.887-5.583-12.47-12.47-12.47h-40.617c-6.887 0-12.47 5.583-12.47 12.47 0 6.887 5.583 12.47 12.47 12.47z" fill="#f5f0f0"/><g><path d="m195.338 331.052c-55.665-4.409-111.33-4.409-166.995 0-8.8.697-15.901 7.524-16.834 16.302-4.871 45.845-4.871 91.689 0 137.534.933 8.778 8.034 15.605 16.834 16.302 55.665 4.409 111.33 4.409 166.995 0 8.8-.697 15.901-7.524 16.834-16.302 4.871-45.845 4.871-91.689 0-137.534-.933-8.777-8.035-15.605-16.834-16.302z" fill="#f5f0f0"/><path d="m39.072 501.984c-3.578-.247-7.156-.506-10.733-.793-8.795-.7-15.897-7.522-16.83-16.303-4.87-45.845-4.87-91.689 0-137.534.933-8.775 8.035-15.604 16.83-16.303 3.578-.28 7.155-.546 10.733-.793-3.305 3.111-5.523 7.355-6.03 12.139-5.223 49.149-5.223 98.299 0 147.448.507 4.784 2.725 9.034 6.03 12.139z" fill="#e8ded8"/></g><g><path d="m133.11 394.85-29.83 12.258-12.707 30.28c6.58 6.58 13.259 13.069 20.04 19.448 11.579 10.892 29.812 10.755 41.074-.465l.402-.402c11.225-11.267 11.357-29.495.465-41.073-6.38-6.781-12.865-13.466-19.444-20.046z" fill="#dd636e"/><path d="m71.998 375.868-.407.407c-11.214 11.267-11.357 29.494-.46 41.068 6.379 6.78 12.863 13.466 19.443 20.045l42.537-42.537c-6.58-6.58-13.265-13.064-20.045-19.443-11.573-10.897-29.801-10.754-41.068.46z" fill="#ffd064"/><path d="m90.571 437.389c6.581 6.581 13.262 13.061 20.045 19.443 11.574 10.897 29.806 10.76 41.068-.46l.143-.143c-3.525 3.483-15.437-2.701-26.778-13.83-6.643-6.521-15.896-15.714-22.476-22.294" fill="#da4a54"/><path d="m71.731 376.137-.143.143c-11.214 11.267-11.357 29.494-.46 41.068 6.379 6.78 12.863 13.466 19.443 20.045l14.644-14.644c-6.58-6.58-13.138-13.191-19.654-19.834-11.129-11.342-17.307-23.248-13.83-26.778z" fill="#ebb044"/></g></g><g><path d="m508.64 207.924c-16.612-26.233-36.424-51.497-58.884-75.089-2.854-3-7.603-3.116-10.603-.261-3 2.856-3.117 7.604-.261 10.604 21.783 22.883 40.986 47.366 57.072 72.768 1.052 1.663.87 3.866-.442 5.357l-14.968 17.017c-1.22 1.385-2.743 1.544-3.52 1.514-.803-.029-2.319-.302-3.457-1.801-64.943-85.595-157.558-144.001-184.387-159.858-6.116-3.626-13.714-3.625-19.822-.005-26.839 15.862-119.454 74.268-184.398 159.863-1.138 1.499-2.654 1.772-3.457 1.801-.79.029-2.3-.13-3.517-1.511l-14.972-17.02c-1.313-1.494-1.498-3.692-.443-5.354 74.969-118.398 192.09-177.131 214.809-187.703 1.196-.557 2.571-.556 3.77 0 17.005 7.917 77.149 38.126 137.12 94.458 3.021 2.837 7.766 2.687 10.602-.332s2.688-7.766-.332-10.602c-61.6-57.86-123.543-88.967-141.068-97.126-5.223-2.425-11.21-2.424-16.423.003-11.326 5.271-38.494 18.817-71.902 41.667v-4.301c3.228-2.246 5.568-5.687 6.357-9.78 1.846-9.569 1.846-19.273 0-28.843-1.376-7.131-7.442-12.302-14.752-12.573-29.283-1.088-58.978-1.088-88.261 0-7.311.271-13.377 5.443-14.751 12.573-1.847 9.57-1.847 19.274 0 28.842.858 4.454 3.546 8.142 7.224 10.351v95.296c-16.785 19.104-31.833 39.146-45.063 60.039-4.601 7.247-3.84 16.825 1.85 23.293l14.974 17.023c3.718 4.222 9.007 6.604 14.604 6.604.24 0 .48-.004.721-.013 5.882-.214 11.298-3.03 14.859-7.724.316-.416.636-.827.953-1.242v74.511c-6.14.08-12.272.194-18.388.381-4.141.127-7.394 3.586-7.267 7.726s3.57 7.396 7.726 7.267c38.061-1.166 76.683-.227 114.805 2.791 5.229.41 9.421 4.453 9.968 9.615 4.792 45.104 4.792 90.842 0 135.948-.547 5.16-4.738 9.202-9.975 9.613-55.011 4.359-110.795 4.358-165.812 0-5.223-.41-9.411-4.453-9.958-9.617-4.802-45.103-4.802-90.84 0-135.946.547-5.161 4.735-9.204 9.959-9.613 7.521-.59 14.478-1.071 21.264-1.47 4.135-.244 7.29-3.792 7.047-7.928s-3.825-7.29-7.928-7.047c-6.885.405-13.936.893-21.556 1.49-12.426.974-22.394 10.641-23.702 22.983-4.913 46.156-4.913 92.962 0 139.115 1.309 12.345 11.276 22.012 23.695 22.986 25.475 2.019 51.106 3.104 76.756 3.28.284.033.572.054.865.054h347.8c4.143 0 7.5-3.378 7.5-7.52v-258.625c.318.416.64.829.957 1.247 3.562 4.694 8.978 7.509 14.859 7.724 5.845.218 11.446-2.188 15.327-6.594l14.97-17.02c5.681-6.457 6.445-16.03 1.856-23.286zm-406.16-191.694c.043-.224.303-.415.579-.425 28.914-1.073 58.233-1.073 87.147 0 .276.01.537.202.58.426 1.482 7.684 1.482 15.477 0 23.16-.043.225-.304.417-.58.427-28.914 1.074-58.233 1.074-87.147 0-.276-.01-.536-.201-.579-.427-1.484-7.684-1.484-15.475 0-23.161zm7.495 38.819c12.181.375 24.417.573 36.658.573 12.531 0 25.057-.208 37.524-.601v11.899c-1.528 1.116-3.062 2.245-4.607 3.397-25.467 18.988-48.699 39.447-69.575 61.229zm105.606 441.948c2.169-3.32 3.611-7.161 4.051-11.317 4.903-46.155 4.903-92.96 0-139.112-1.179-11.139-9.423-20.075-20.149-22.435v-97.626h159.58v270.49zm230.091 0h-71.609v-277.99c0-4.142-3.357-7.5-7.5-7.5h-174.58c-4.143 0-7.5 3.358-7.5 7.5v103.747c-23.802-1.624-47.752-2.448-71.61-2.474v-93.019c61.659-72.595 140.021-121.931 164.137-136.184 1.397-.828 3.134-.828 4.539.005 24.107 14.247 102.466 63.582 164.124 136.174v269.741z"/><path d="m332.359 336.208h-40.616c-11.012 0-19.971 8.958-19.971 19.97s8.959 19.97 19.971 19.97h40.616c11.012 0 19.971-8.958 19.971-19.97s-8.959-19.97-19.971-19.97zm0 24.941h-40.616c-2.741 0-4.971-2.229-4.971-4.97s2.229-4.97 4.971-4.97h40.616c2.741 0 4.971 2.229 4.971 4.97s-2.229 4.97-4.971 4.97z"/><path d="m105.475 462.294c7.223 6.796 16.37 10.183 25.492 10.182 9.41 0 18.794-3.604 26.004-10.784l.434-.433c14.149-14.208 14.417-36.832.609-51.505-12.811-13.614-26.204-27.007-39.808-39.807-14.672-13.807-37.294-13.539-51.506.611l-.424.424c-14.149 14.208-14.417 36.832-.609 51.504 12.803 13.607 26.196 27 39.808 39.808zm41.321-11.64-.401.401c-8.3 8.263-22.044 8.405-30.641.315-4.885-4.597-9.725-9.291-14.535-14.022l31.848-31.849c4.732 4.81 9.425 9.649 14.022 14.535 8.092 8.598 7.95 22.343-.293 30.62zm-69.901-69.076.392-.392c4.208-4.19 9.813-6.291 15.44-6.291 5.471 0 10.962 1.988 15.2 5.977 4.884 4.595 9.723 9.289 14.534 14.021l-31.849 31.849c-4.732-4.81-9.426-9.65-14.021-14.533-8.09-8.598-7.949-22.344.304-30.631z"/></g></g></svg>