<svg id="Capa_1" enable-background="new 0 0 511.964 511.964" height="512" viewBox="0 0 511.964 511.964" width="512" xmlns="http://www.w3.org/2000/svg"><g><g><g><path d="m434.96 255.982c0 64.565-1.932 129.756-5.759 194.71-1.52 25.801-21.889 46.463-47.647 48.594-83.639 6.92-167.685 6.93-251.156.018-25.754-2.133-46.119-22.794-47.64-48.591-3.822-64.858-5.754-130.159-5.754-194.73s1.932-129.873 5.754-194.73c1.52-25.798 21.885-46.458 47.64-48.591 83.472-6.912 167.517-6.902 251.157.018 25.758 2.131 46.126 22.793 47.647 48.594 3.826 64.952 5.758 130.143 5.758 194.708z" fill="#365e7d"/><path d="m106.324 55.372c-3.3 66.82-4.97 134.09-4.97 200.61s1.67 133.79 4.97 200.61c.89 17.99 9.25 33.57 21.46 42.43-24.51-3.27-43.55-23.39-45.02-48.31-3.83-64.86-5.76-130.16-5.76-194.73s1.93-129.87 5.76-194.73c1.47-24.92 20.51-45.04 45.02-48.31-12.21 8.86-20.57 24.44-21.46 42.43z" fill="#2b4d66"/><path d="m255.784 446.03c-40.885 0-82.238-1.485-122.91-4.415-10.863-.783-19.534-8.432-20.167-17.794-3.784-55.845-5.703-112.314-5.703-167.839 0-55.524 1.918-111.993 5.702-167.838.634-9.362 9.305-17.012 20.168-17.795 40.673-2.929 82.026-4.415 122.912-4.415 40.959 0 82.442 1.491 123.294 4.431 10.866.782 19.538 8.432 20.172 17.796 3.787 55.905 5.708 112.368 5.708 167.821s-1.92 111.916-5.708 167.821c-.634 9.364-9.306 17.014-20.172 17.796-40.853 2.94-82.336 4.431-123.296 4.431z" fill="#dae4ea"/><g><path d="m289.288 153.225-46.712 19.195-19.898 47.416c10.303 10.303 20.763 20.465 31.381 30.454 18.132 17.056 46.683 16.841 64.318-.728l.629-.629c17.577-17.644 17.784-46.186.728-64.318-9.989-10.618-20.143-21.087-30.446-31.39z" fill="#dd636e"/><path d="m193.592 123.5-.637.637c-17.561 17.644-17.784 46.186-.72 64.309 9.989 10.618 20.143 21.086 30.446 31.389l66.61-66.61c-10.303-10.303-20.772-20.457-31.389-30.446-18.124-17.063-46.666-16.84-64.31.721z" fill="#ffd064"/><path d="m222.676 219.838c10.305 10.305 20.768 20.453 31.389 30.446 18.124 17.064 46.674 16.849 64.31-.72l.223-.223c-5.52 5.454-24.173-4.229-41.932-21.657-10.402-10.211-24.892-24.606-35.196-34.911" fill="#da4a54"/><path d="m193.174 123.921-.223.223c-17.561 17.644-17.784 46.186-.72 64.309 9.989 10.618 20.143 21.086 30.446 31.389l22.932-22.932c-10.303-10.303-20.573-20.656-30.777-31.058-17.429-17.758-27.103-36.403-21.658-41.931z" fill="#ebb044"/></g></g></g><g><path d="m437.54 75.833c-.225-4.136-3.771-7.306-7.897-7.081-4.136.225-7.306 3.761-7.081 7.897 3.25 59.637 4.899 119.973 4.899 179.332 0 64.234-1.934 129.595-5.747 194.269-1.289 21.875-18.821 39.741-40.782 41.556-83.019 6.869-167.102 6.876-249.914.02-21.955-1.815-39.482-19.681-40.771-41.557-3.813-64.583-5.747-129.951-5.747-194.288s1.934-129.705 5.747-194.289c1.289-21.875 18.817-39.741 40.772-41.556 82.813-6.856 166.895-6.849 249.912.02 17.274 1.432 32.259 12.815 38.176 29 1.422 3.89 5.729 5.89 9.619 4.469 3.89-1.422 5.891-5.729 4.469-9.619-7.916-21.656-27.945-36.885-51.025-38.799-83.838-6.937-168.753-6.943-252.387-.02-29.349 2.427-52.783 26.34-54.508 55.623-3.831 64.876-5.773 130.542-5.773 195.172s1.942 130.296 5.773 195.171c1.725 29.284 25.159 53.197 54.508 55.624 41.781 3.458 83.868 5.188 125.995 5.188 42.199 0 84.437-1.736 126.392-5.208 29.356-2.427 52.794-26.34 54.519-55.623 3.831-64.966 5.773-130.625 5.773-195.151 0-59.631-1.656-120.242-4.922-180.15z"/><path d="m172.863 451.533c27.629 1.326 55.527 1.999 82.919 1.999 41.144 0 82.809-1.497 123.838-4.449 14.578-1.047 26.235-11.699 27.115-24.773 3.8-56.051 5.727-112.684 5.727-168.327s-1.927-112.276-5.727-168.323c-.88-13.078-12.537-23.73-27.114-24.777-41.02-2.952-82.686-4.449-123.839-4.449-41.029 0-82.563 1.494-123.447 4.439-14.565 1.046-26.222 11.69-27.116 24.765-3.794 56.048-5.717 112.688-5.717 168.346s1.923 112.298 5.718 168.351c.893 13.069 12.55 23.714 27.116 24.76 3.505.251 7.02.492 10.534.723 4.135.264 7.704-2.859 7.976-6.992.271-4.133-2.859-7.704-6.992-7.976-3.485-.229-6.97-.468-10.444-.717-7.036-.505-12.844-5.258-13.224-10.815-3.771-55.713-5.683-112.012-5.683-167.333s1.912-111.621 5.683-167.329c.38-5.563 6.189-10.315 13.227-10.821 40.528-2.92 81.7-4.4 122.371-4.4 40.796 0 82.099 1.484 122.763 4.411 7.042.506 12.85 5.26 13.225 10.827 3.777 55.714 5.693 112.006 5.693 167.313s-1.916 111.598-5.693 167.316c-.375 5.563-6.183 10.317-13.225 10.823-40.673 2.926-81.976 4.41-122.762 4.41-27.153 0-54.81-.667-82.2-1.981-4.123-.202-7.652 2.995-7.851 7.132s2.991 7.649 7.129 7.847z"/><path d="m301.918 45.639c4.142 0 7.5-3.358 7.5-7.5s-3.358-7.5-7.5-7.5h-91.873c-4.142 0-7.5 3.358-7.5 7.5s3.358 7.5 7.5 7.5z"/><path d="m152.229 347.334h207.506c4.142 0 7.5-3.358 7.5-7.5s-3.358-7.5-7.5-7.5h-207.506c-4.142 0-7.5 3.358-7.5 7.5s3.358 7.5 7.5 7.5z"/><path d="m144.729 305.25c0 4.142 3.358 7.5 7.5 7.5h207.506c4.142 0 7.5-3.358 7.5-7.5s-3.358-7.5-7.5-7.5h-207.506c-4.142 0-7.5 3.358-7.5 7.5z"/><path d="m152.229 381.919h143.308c4.142 0 7.5-3.358 7.5-7.5s-3.358-7.5-7.5-7.5h-143.308c-4.142 0-7.5 3.358-7.5 7.5s3.358 7.5 7.5 7.5z"/><path d="m248.922 255.746c10.063 9.469 23.182 14.665 36.998 14.665.187 0 .373-.001.56-.003 14.068-.143 27.276-5.659 37.189-15.532l.655-.654c9.874-9.915 15.39-23.123 15.533-37.19.143-14.021-5.064-27.359-14.661-37.558-9.973-10.598-51.559-52.184-62.153-62.153-10.198-9.597-23.51-14.781-37.558-14.662-14.067.143-27.275 5.659-37.195 15.538l-.648.648c-9.874 9.916-15.39 23.123-15.533 37.191-.143 14.021 5.064 27.359 14.661 37.558 19.993 21.247 40.904 42.158 62.152 62.152zm64.772-12.108-.608.608c-14.6 14.54-38.771 14.798-53.884.577-8.705-8.191-17.347-16.545-25.897-25.007l55.96-55.96c8.461 8.549 16.815 17.191 25.007 25.897 14.221 15.112 13.962 39.284-.578 53.885zm-115.429-114.203.614-.614c14.599-14.54 38.771-14.797 53.884-.576 8.703 8.19 17.345 16.543 25.895 25.005l-55.96 55.96c-8.461-8.549-16.814-17.191-25.005-25.895-14.221-15.113-13.963-39.286.572-53.88z"/><circle cx="325.902" cy="38.142" r="7.5"/></g></g></svg>