<svg id="Capa_1" enable-background="new 0 0 512 512" height="512" viewBox="0 0 512 512" width="512" xmlns="http://www.w3.org/2000/svg"><g><g><g><path d="m440.264 468.831c-23.046-44.272 0-76.172 0-76.172l-335.788-52.511-34.28 93.611 32.962 51.42h307.202z" fill="#ffd064"/><path d="m89.562 430.744c0 16.216 10.19 30.103 24.512 35.574 4.223 1.625 8.802 2.508 13.579 2.508h312.607c9.853 0 17.842 7.989 17.842 17.842s-7.99 17.832-17.842 17.832h-312.606c-6.225 0-12.271-.773-18.05-2.24-31.976-8.068-55.706-37.071-55.706-71.515v-349.49c0-40.669 33.086-73.755 73.755-73.755h312.607c9.853 0 17.842 7.989 17.842 17.832v349.489c0 4.926-1.992 9.387-5.224 12.618-3.231 3.221-7.692 5.224-12.618 5.224h-312.606c-1.507 0-2.993.089-4.46.268-18.913 2.209-33.632 18.316-33.632 37.813z" fill="#f5f0f0"/><path d="m440.266 468.828h-312.612c-21.002 0-38.087-17.085-38.087-38.086 0-19.48 14.704-35.581 33.595-37.812h.032v-.004c1.464-.172 2.95-.27 4.46-.27h312.612c9.851 0 17.836-7.985 17.836-17.836s-7.985-17.836-17.836-17.836h-312.612v-349.484c-40.669 0-73.755 33.086-73.755 73.755v349.358c0 .043-.003.086-.003.129 0 40.67 33.088 73.758 73.759 73.758h312.612c9.851 0 17.836-7.985 17.836-17.836-.001-9.85-7.987-17.836-17.837-17.836z" fill="#e8ded8"/><path d="m210.857 484.841-30.778-16.015-30.777 16.015v-67.567h61.555z" fill="#dd636e"/></g><g><path d="m309.257 127.997-46.712 19.195-19.898 47.415c10.303 10.303 20.763 20.465 31.381 30.454 18.132 17.056 46.683 16.841 64.318-.728l.629-.629c17.577-17.644 17.784-46.186.728-64.318-9.989-10.617-20.143-21.086-30.446-31.389z" fill="#dd636e"/><path d="m213.561 98.272-.637.637c-17.561 17.644-17.784 46.186-.72 64.309 9.989 10.618 20.143 21.086 30.446 31.389l66.61-66.61c-10.303-10.303-20.772-20.457-31.389-30.446-18.124-17.063-46.666-16.84-64.31.721z" fill="#ffd064"/><path d="m242.645 194.609c10.305 10.305 20.768 20.453 31.389 30.446 18.124 17.064 46.674 16.849 64.31-.72l.223-.223c-5.52 5.454-24.173-4.229-41.932-21.657-10.402-10.211-24.892-24.606-35.196-34.911" fill="#da4a54"/><path d="m213.144 98.693-.223.223c-17.561 17.644-17.784 46.186-.72 64.309 9.989 10.618 20.143 21.086 30.446 31.389l22.932-22.932c-10.303-10.303-20.573-20.656-30.777-31.058-17.43-17.758-27.104-36.403-21.658-41.931z" fill="#ebb044"/></g></g><g><path d="m376.758 497h-249.1c-36.536 0-66.26-29.724-66.26-66.26v-349.48c0-.24-.001-.479.006-.72.133-4.14-3.116-7.604-7.256-7.736-4.143-.161-7.604 3.116-7.736 7.256-.013.4-.014.8-.014 1.2v349.48c0 44.807 36.453 81.26 81.26 81.26h249.1c4.142 0 7.5-3.358 7.5-7.5s-3.358-7.5-7.5-7.5z"/><path d="m445.157 461.81c-14.547-31.003-4.73-54.296-.464-62.042 5.076-.893 9.754-3.309 13.478-7.034 4.78-4.78 7.416-11.126 7.426-17.875 0-.013.004-.025.004-.038 0-.045-.003-.09-.003-.135v-349.346c0-13.973-11.363-25.34-25.33-25.34h-312.62c-31.892 0-60.985 18.829-74.117 47.968-1.702 3.776-.02 8.217 3.756 9.919 3.777 1.704 8.218.021 9.919-3.756 10.714-23.771 34.438-39.131 60.442-39.131h312.62c5.696 0 10.33 4.638 10.33 10.34v326.356c-3.158-1.417-6.653-2.211-10.333-2.211h-65.798c-4.142 0-7.5 3.358-7.5 7.5s3.358 7.5 7.5 7.5h65.798c5.676 0 10.296 4.601 10.333 10.269v.066c0 2.756-1.077 5.351-3.033 7.307s-4.551 3.033-7.307 3.033h-312.6c-25.144 0-45.6 20.447-45.6 45.58 0 25.138 20.456 45.59 45.6 45.59h14.143v8.51c0 2.621 1.368 5.052 3.608 6.412 2.241 1.36 5.029 1.451 7.354.242l27.316-14.213 27.316 14.213c1.087.565 2.275.847 3.461.847 1.351 0 2.699-.365 3.892-1.088 2.24-1.36 3.608-3.791 3.608-6.412v-8.51h221.878c.012 0 .024.002.036.002.005 0 .011-.001.016-.001 5.688.016 10.311 4.646 10.311 10.338 0 5.696-4.639 10.33-10.34 10.33h-33.5c-4.142 0-7.5 3.358-7.5 7.5s3.358 7.5 7.5 7.5h33.5c13.973 0 25.34-11.363 25.34-25.33.001-12.297-8.804-22.571-20.44-24.86zm-317.499-.48c-16.873 0-30.6-13.723-30.6-30.59 0-16.862 13.727-30.58 30.6-30.58h300.344c-1.106 2.776-2.194 5.995-3.11 9.614h-295.84c-4.142 0-7.5 3.358-7.5 7.5s3.358 7.5 7.5 7.5h12.75v36.556zm75.699 11.153-19.816-10.311c-1.085-.564-2.273-.847-3.462-.847s-2.377.282-3.462.847l-19.816 10.311v-47.709h46.556zm15-47.709h204.237c-.204 3.58-.177 7.375.152 11.366h-174.977c-4.142 0-7.5 3.358-7.5 7.5s3.358 7.5 7.5 7.5h177.569c.87 3.306 1.959 6.705 3.305 10.19h-210.286z"/><path d="m268.891 230.518c10.063 9.469 23.182 14.664 36.998 14.664.187 0 .373-.001.56-.003 14.068-.143 27.275-5.659 37.189-15.532l.655-.654c9.874-9.915 15.39-23.123 15.533-37.19.142-14.021-5.065-27.36-14.662-37.558-9.972-10.597-51.554-52.18-62.153-62.153-10.198-9.597-23.551-14.797-37.558-14.661-14.068.143-27.275 5.659-37.196 15.538l-.648.648c-9.874 9.916-15.39 23.124-15.533 37.191-.142 14.021 5.065 27.36 14.662 37.558 19.995 21.247 40.906 42.158 62.153 62.152zm64.772-12.108-.608.608c-14.599 14.54-38.771 14.798-53.884.577-8.705-8.192-17.347-16.545-25.897-25.007l55.96-55.96c8.463 8.551 16.816 17.193 25.007 25.897 14.221 15.112 13.962 39.284-.578 53.885zm-115.423-114.21.608-.608c7.406-7.375 17.274-11.076 27.175-11.076 9.617 0 19.263 3.492 26.709 10.499 8.705 8.192 17.346 16.545 25.895 25.005l-55.96 55.96c-8.461-8.549-16.814-17.19-25.005-25.895-14.221-15.111-13.963-39.284.578-53.885z"/><path d="m171.434 279.259c0 4.142 3.358 7.5 7.5 7.5h223.468c4.142 0 7.5-3.358 7.5-7.5s-3.358-7.5-7.5-7.5h-223.468c-4.142 0-7.5 3.358-7.5 7.5z"/><path d="m230.367 303.754c-4.142 0-7.5 3.358-7.5 7.5s3.358 7.5 7.5 7.5h120.602c4.142 0 7.5-3.358 7.5-7.5s-3.358-7.5-7.5-7.5z"/></g></g></svg>