<svg id="Capa_1" enable-background="new 0 0 512 512" height="512" viewBox="0 0 512 512" width="512" xmlns="http://www.w3.org/2000/svg"><g><g><path d="m410.019 214.203s4.35 27.067 29.88 16.89l16.17-34.785-57.924-40.903v37.91z" fill="#dd636e"/><g><g><path d="m498.909 205.263c-1.46 2.85-3.21 5.59-5.27 8.21-7.79 9.93-18.6 16.22-30.15 18.51-7.75 1.53-15.84 1.27-23.59-.89-7.54-27.77-21.17-47.5-21.17-47.5l-8.71 30.61-93.79-62.43-59.44 27.7-93.54 43.59-101.12-121.75 249.23-49.35c17.61-3.48 35.88.06 50.92 9.86l119.1 77.58c22.24 14.489 29.2 43.17 17.53 65.86z" fill="#ffddce"/><path d="m223.947 286.286-40.386-22.804c-23.636-13.346-51.462-16.442-77.78-9.793-18.78 4.744-39.37 2.644-57.765-7.584-36.68-20.393-51.006-66.641-32.312-104.215 19.699-39.596 67.921-55.261 107.062-35.024l151.356 82.374c26.799 13.856 37.291 46.812 23.435 73.611-13.855 26.798-46.812 37.29-73.61 23.435z" fill="#ffddce"/><g fill="#ffcbbe"><path d="m296.522 264.741c-10.032.929-20.439-.906-30.055-5.885l-40.392-22.8c-23.639-13.35-51.462-16.436-77.772-9.79-18.781 4.742-39.377 2.638-57.767-7.592-36.684-20.385-51.015-66.64-32.31-104.21 2.523-5.073 5.526-9.759 8.91-14.026-21.55 5.439-40.714 19.91-51.434 41.453-18.694 37.569-4.364 83.824 32.321 104.209 18.39 10.229 38.986 12.334 57.767 7.592 26.31-6.646 54.133-3.56 77.772 9.79l40.392 22.8c11.421 5.909 23.964 7.39 35.664 5.073 15.093-2.989 28.796-12.31 36.904-26.614z"/><path d="m498.909 205.263c-1.46 2.85-3.21 5.59-5.27 8.21-7.79 9.93-18.6 16.22-30.15 18.51-7.75 1.53-15.84 1.27-23.59-.89-7.54-27.77-21.17-47.5-21.17-47.5l-8.71 30.61-93.79-62.43-59.44 27.7-71.71-40.39 147.27-23.83 123.72 89.72c12.96 9.39 30.2 9.21 42.84.29z"/></g></g></g><g><path d="m365.181 316.685c0 .962.017 1.921.05 2.875 1.444 41.862 64.633 41.862 66.077 0 .033-.954.049-1.913.049-2.875 0-26.947-13.01-50.851-33.088-65.786-20.079 14.935-33.088 38.839-33.088 65.786z" fill="#dd636e"/><path d="m398.271 350.959c-16.156 0-32.317-10.465-33.04-31.4-.031-.955-.05-1.91-.05-2.871 0-26.947 13.009-50.854 33.09-65.791-7.142 14.937-11.765 38.844-11.765 65.791 0 .961.006 1.916.013 2.871.257 20.935 6.004 31.4 11.752 31.4z" fill="#da4a54"/></g><g><path d="m421.048 427.089c0 .962.017 1.921.049 2.875 1.444 41.862 64.633 41.862 66.077 0 .033-.954.05-1.913.05-2.875 0-26.947-13.01-50.851-33.088-65.786-20.079 14.934-33.088 38.839-33.088 65.786z" fill="#dd636e"/><path d="m454.138 461.362c-16.156 0-32.317-10.465-33.04-31.4-.031-.955-.05-1.91-.05-2.871 0-26.947 13.009-50.854 33.09-65.791-7.142 14.937-11.765 38.844-11.765 65.791 0 .961.006 1.916.013 2.871.257 20.936 6.004 31.4 11.752 31.4z" fill="#da4a54"/></g></g><g><path d="m511.221 172.517c-2.667-16.12-12.048-30.48-25.737-39.401l-119.098-77.579c-16.781-10.935-36.834-14.815-56.471-10.923l-106.669 21.12c-4.063.804-6.705 4.75-5.9 8.813.804 4.063 4.755 6.708 8.813 5.9l106.671-21.12c15.772-3.128 31.885-.009 45.368 8.777l119.098 77.579c10.323 6.727 17.116 17.125 19.127 29.282 2.011 12.154-1.069 24.184-8.674 33.875-6.4 8.16-15.53 13.765-25.7 15.782-5.326 1.051-10.835 1.096-16.145.149-7.932-26.359-20.435-44.638-20.991-45.444-1.649-2.388-4.532-3.612-7.393-3.137-2.863.473-5.197 2.556-5.992 5.347l-5.899 20.732-85.23-56.742c-2.178-1.449-4.953-1.661-7.324-.555l-55.954 26.076-68.346-38.503c-3.608-2.032-8.182-.756-10.216 2.853-2.033 3.609-.755 8.183 2.854 10.216l89.039 50.16c.079.044.159.087.24.129 15.724 8.122 25.491 24.179 25.491 41.906 0 7.569-1.773 14.834-5.272 21.595-5.783 11.183-15.572 19.444-27.564 23.261-11.952 3.804-24.666 2.743-35.819-2.987l-40.264-22.728c-24.907-14.071-54.492-17.811-83.304-10.532-17.714 4.471-36.287 2.027-52.298-6.882-15.953-8.875-27.784-23.46-33.313-41.069-5.53-17.608-4.164-36.34 3.846-52.745 5.017-10.273 12.125-18.925 21.131-25.717 8.59-6.487 18.727-11.023 29.316-13.118l104.809-20.75c4.063-.804 6.705-4.75 5.901-8.813-.805-4.063-4.746-6.705-8.814-5.901l-104.81 20.75c-12.799 2.531-25.055 8.017-35.441 15.859-10.905 8.225-19.509 18.69-25.574 31.107-9.702 19.869-11.363 42.535-4.678 63.821 6.686 21.288 21.009 38.933 40.331 49.683 19.36 10.774 41.827 13.728 63.264 8.318 25.058-6.331 50.719-3.118 72.255 9.05l40.39 22.8c.08.045.161.088.242.13 8.952 4.63 18.673 6.974 28.469 6.974 6.334 0 12.7-.98 18.909-2.957 15.809-5.033 28.716-15.923 36.338-30.662 4.546-8.785 6.949-18.636 6.949-28.487 0-23.315-12.826-44.441-33.483-55.169l-4.502-2.537 42.396-19.757 87.819 58.465c1.416 5.004 5.063 14.045 13.683 18.935 3.706 2.103 7.776 3.154 12.181 3.154 3.478 0 7.165-.666 11.041-1.977 4.337 1.008 8.797 1.52 13.266 1.52 3.812 0 7.631-.369 11.379-1.108 13.692-2.715 25.977-10.257 34.591-21.237 10.081-12.849 14.335-29.463 11.668-45.581zm-86.68 52.21c-3.874-2.167-5.962-7.292-6.778-10.299l3.304-11.606c3.087 6.204 6.528 14.055 9.438 22.987-2.314.188-4.315-.159-5.964-1.082z"/><path d="m252.368 216.403c3.847-1.537 5.719-5.9 4.183-9.747-1.536-3.846-5.898-5.721-9.747-4.183-31.453 12.564-35.69 39.163-33.535 51.473.638 3.646 3.814 6.237 7.394 6.237.426 0 .858-.037 1.291-.113 4.08-.714 6.814-4.571 6.1-8.651-.154-.971-3.447-23.927 24.314-35.016z"/><path d="m438.816 319.798c.033-1.029.055-2.068.055-3.108 0-28.15-13.501-54.994-36.116-71.808-2.656-1.976-6.294-1.975-8.948-.001-19.188 14.262-31.67 35.078-35.145 58.614-.604 4.098 2.227 7.91 6.324 8.515 4.103.611 7.91-2.225 8.516-6.324 2.61-17.681 11.341-33.524 24.779-45.173 16.334 14.151 25.591 34.322 25.591 56.178 0 .88-.02 1.76-.046 2.609-.421 12.1-7.563 20.866-19.106 23.45-14.175 3.171-25.076-4.028-29.209-12.061-1.895-3.684-6.418-5.133-10.101-3.238s-5.133 6.417-3.237 10.1c6.736 13.093 20.715 20.936 35.948 20.935 3.254 0 6.566-.358 9.875-1.099 18.348-4.108 30.157-18.503 30.82-37.589z"/><path d="m458.623 355.284c-2.658-1.977-6.295-1.977-8.953 0-22.611 16.82-36.111 43.662-36.111 71.804 0 1.047.018 2.09.054 3.134.875 25.366 21.054 38.637 40.533 38.637 19.48 0 39.659-13.271 40.534-38.635.036-1.041.055-2.086.055-3.136-.001-28.142-13.501-54.984-36.112-71.804zm21.066 74.42c-.576 16.686-13.244 24.155-25.544 24.155-12.299 0-24.967-7.469-25.542-24.15-.029-.87-.045-1.744-.045-2.622 0-21.848 9.257-42.018 25.588-56.173 16.331 14.155 25.588 34.325 25.588 56.173 0 .876-.015 1.747-.045 2.617z"/></g></g></svg>