<svg id="Capa_1" enable-background="new 0 0 512 512" height="512" viewBox="0 0 512 512" width="512" xmlns="http://www.w3.org/2000/svg"><g><g><path d="m428.393 105.95v237.819c0 25.103-12.694 47.244-32.004 60.366v58.776h-254.092v-95.639l-7.175-8.295v-299.788c0-10.127 4.103-19.288 10.741-25.915 6.627-6.638 15.788-10.741 25.915-10.741 20.243 0 36.656 16.413 36.656 36.656v-15.021c0-10.127 4.103-19.288 10.741-25.926 6.627-6.638 15.788-10.741 25.915-10.741 20.254 0 36.667 16.413 36.667 36.656v27.67c0-10.126 4.103-19.288 10.741-25.915 6.627-6.638 15.799-10.741 25.915-10.741 20.243 0 36.656 16.413 36.656 36.656v34.122c0-20.254 16.413-36.656 36.667-36.656 20.243.001 36.657 16.403 36.657 36.657z" fill="#c0df8f"/><g fill="#a2d162"><path d="m216.007 414.931v47.976h-73.707v-70.164c8.031 2.556 16.589 3.928 25.476 3.928h29.972c10.084 0 18.259 8.175 18.259 18.26z"/><path d="m135.117 358.978v-299.788c0-10.12 4.106-19.291 10.735-25.929 6.638-6.629 15.799-10.735 25.929-10.735 5.558 0 10.837 1.238 15.557 3.454-3.873 1.816-7.383 4.292-10.372 7.281-6.629 6.638-10.735 15.809-10.735 25.929v299.788z"/><path d="m208.436 232.693v-188.529c0-10.12 4.106-19.291 10.735-25.929 6.638-6.629 15.799-10.735 25.929-10.735 5.558 0 10.837 1.238 15.557 3.454-3.873 1.816-7.383 4.292-10.372 7.281-6.629 6.638-10.735 15.809-10.735 25.929v157.415c.001 17.184-13.93 31.114-31.114 31.114z"/><path d="m281.755 232.429v-160.599c0-10.12 4.106-19.291 10.735-25.929 6.638-6.629 15.799-10.735 25.929-10.735 5.558 0 10.837 1.238 15.557 3.454-3.873 1.816-7.383 4.292-10.372 7.281-6.629 6.639-10.734 15.809-10.734 25.929v129.484c0 17.185-13.931 31.115-31.115 31.115z"/><path d="m355.074 243.271v-137.323c0-10.12 4.106-19.291 10.735-25.929 6.638-6.629 15.799-10.735 25.929-10.735 5.558 0 10.837 1.238 15.557 3.454-3.873 1.816-7.383 4.292-10.372 7.281-6.629 6.638-10.735 15.809-10.735 25.929v106.209c.001 17.184-13.93 31.114-31.114 31.114z"/></g><path d="m125.689 171.109c-23.241 0-42.082 18.841-42.082 42.082v99.325c0 46.482 37.682 84.164 84.164 84.164v-183.489c0-23.241-18.841-42.082-42.082-42.082z" fill="#c0df8f"/><path d="m157.549 396.06c-41.663-5.037-73.942-40.518-73.942-83.54v-99.33c0-23.238 18.844-42.082 42.082-42.082 5.94 0 11.591 1.229 16.712 3.445-14.924 6.471-25.37 21.339-25.37 38.637v110.894c0 30.509 16.227 57.22 40.518 71.976z" fill="#a2d162"/><path d="m396.389 442.119v20.791l-127.307 20.795-126.784-20.795v-19.178c2.469-1.042 5.179-1.613 8.031-1.613z" fill="#a2d162"/><path d="m396.592 504.5h-255.021c-11.485 0-20.795-9.31-20.795-20.795 0-11.485 9.31-20.795 20.795-20.795h255.021c11.485 0 20.795 9.31 20.795 20.795 0 11.485-9.31 20.795-20.795 20.795z" fill="#c0df8f"/><path d="m210.524 504.497h-68.946c-11.487 0-20.802-9.304-20.802-20.791 0-5.738 2.326-10.939 6.089-14.713 3.763-3.763 8.964-6.089 14.713-6.089h68.946c-5.749 0-10.939 2.326-14.702 6.089-3.763 3.774-6.089 8.975-6.089 14.713 0 11.487 9.304 20.791 20.791 20.791z" fill="#a2d162"/></g><g><path d="m391.74 61.79c-10.845 0-21.097 3.882-29.17 10.991v-.951c0-24.35-19.811-44.16-44.16-44.16-10.979 0-21.35 3.986-29.458 11.272-2.595-21.9-21.276-38.942-43.862-38.942-11.799 0-22.886 4.596-31.214 12.937-4.553 4.553-7.99 9.922-10.175 15.776-8.045-8.427-19.381-13.683-31.921-13.683-11.792 0-22.881 4.594-31.224 12.937-8.342 8.342-12.937 19.431-12.937 31.223v104.469c-.641-.024-1.282-.049-1.93-.049-13.25 0-25.7 5.16-35.05 14.523-9.37 9.357-14.53 21.807-14.53 35.057v99.33c0 18.824 5.666 36.908 16.386 52.297 1.458 2.092 3.79 3.213 6.161 3.213 1.479 0 2.974-.437 4.28-1.346 3.398-2.368 4.234-7.042 1.867-10.441-8.959-12.861-13.694-27.98-13.694-43.723v-99.33c0-9.239 3.598-17.919 10.137-24.451 6.523-6.532 15.204-10.129 24.443-10.129 19.067 0 34.579 15.513 34.579 34.58v95.03c0 4.142 3.357 7.5 7.5 7.5s7.5-3.358 7.5-7.5v-95.03c0-21.395-13.623-39.667-32.649-46.601v-107.399c0-7.786 3.034-15.107 8.544-20.617 5.509-5.509 12.831-8.543 20.616-8.543 16.073 0 29.149 13.081 29.149 29.16 0 .046.006.09.007.135v173.368c0 4.142 3.357 7.5 7.5 7.5s7.5-3.358 7.5-7.5v-173.504c0-.046-.006-.09-.007-.135v-14.884c0-7.786 3.038-15.111 8.558-20.63 5.498-5.507 12.814-8.54 20.603-8.54 16.084 0 29.17 13.085 29.17 29.17v27.563c0 .033-.005.064-.005.097v165.08c0 4.142 3.357 7.5 7.5 7.5s7.5-3.358 7.5-7.5v-164.983c0-.033.005-.064.005-.097 0-7.793 3.033-15.114 8.544-20.617 5.509-5.509 12.827-8.543 20.606-8.543 16.079 0 29.16 13.081 29.16 29.16v34.12c0 .026.004.051.004.077v141.244c0 4.142 3.357 7.5 7.5 7.5s7.5-3.358 7.5-7.5v-141.323c0-.018-.002-.034-.003-.051.014-7.772 3.046-15.077 8.537-20.569 5.515-5.505 12.842-8.538 20.632-8.538 16.073 0 29.149 13.081 29.149 29.16v16.72c0 4.142 3.357 7.5 7.5 7.5s7.5-3.358 7.5-7.5v-16.72c.002-24.35-19.804-44.16-44.148-44.16z"/><path d="m428.39 145.17c-4.143 0-7.5 3.358-7.5 7.5v191.1c0 21.704-10.733 41.944-28.711 54.144-2.058 1.396-3.289 3.72-3.289 6.206v51.29h-239.09v-52.999c5.87 1.166 11.88 1.769 17.97 1.769 4.143 0 7.5-3.358 7.5-7.5s-3.357-7.5-7.5-7.5c-7.925 0-15.693-1.204-23.095-3.541-.068-.022-.136-.047-.205-.068-7.199-2.294-14.051-5.657-20.359-10.041-3.403-2.364-8.077-1.522-10.439 1.879-2.363 3.401-1.522 8.075 1.879 10.439 6.041 4.197 12.5 7.604 19.25 10.21v58.176c-12.342 3.043-21.523 14.202-21.523 27.47 0 15.602 12.692 28.294 28.294 28.294h255.021c15.602 0 28.295-12.693 28.295-28.294 0-13.079-8.922-24.109-20.997-27.335v-48.397c20.11-15.166 32-38.873 32-64.203v-191.1c-.001-4.141-3.359-7.499-7.501-7.499zm-18.503 338.536c0 7.331-5.964 13.294-13.295 13.294h-255.022c-7.33 0-13.294-5.964-13.294-13.294 0-7.331 5.964-13.295 13.294-13.295h255.021c7.332 0 13.296 5.964 13.296 13.295z"/></g></g></svg>