<svg id="Capa_1" enable-background="new 0 0 511.966 511.966" height="512" viewBox="0 0 511.966 511.966" width="512" xmlns="http://www.w3.org/2000/svg"><g><g><path d="m353.522 418.33c-.82 14.35-1.82 28.7-3 43.05-1.6 19.52-17.05 35.03-36.55 36.9-86.75 8.29-173.49 8.29-260.24 0-19.5-1.87-34.96-17.38-36.56-36.9-1.18-14.35-2.18-28.7-3-43.05-2.79-48.33-3.61-96.65-2.46-144.99.12-5 .26-10.01.42-15.01 2.31-71.67 60.33-128.83 132.01-130.92 26.47-.77 52.94-.77 79.42 0 71.68 2.09 129.69 59.25 132 130.92.16 5 .3 10.01.42 15.01 1.149 48.34.33 96.66-2.46 144.99z" fill="#a2c6fe"/><path d="m183.846 126.827c-5.429 0-10.848.198-16.278.605-29.39 2.176-53.185 61.582-54.13 136.079-.901 70.342-.209 140.695 2.066 211.037.363 11.42 2.528 21.52 5.792 28.51-22.52-1.033-45.041-2.627-67.561-4.781-19.498-1.868-34.951-17.377-36.556-36.896-5.539-67.682-7.221-135.364-5.045-203.046 2.308-71.683 60.329-128.836 132.012-130.924 13.234-.386 26.467-.584 39.7-.584z" fill="#7898d5"/><path d="m353.522 418.33h-339.351c-2.79-48.33-3.61-96.65-2.46-144.99h344.27c1.15 48.34.331 96.66-2.459 144.99z" fill="#c0df8f"/><path d="m114.021 418.33h-99.85c-2.79-48.33-3.61-96.65-2.46-144.99h101.62c-.519 48.32-.289 96.66.69 144.99z" fill="#a2d162"/><path d="m238.074 7.5h-108.45c-31.82 0-57.616 25.796-57.616 57.616v85.178h223.682v-85.178c0-31.821-25.795-57.616-57.616-57.616z" fill="#f5f0f0"/><path d="m200.359 7.5c-31.82 0-57.61 25.8-57.61 57.62v85.17h-70.74v-85.17c0-31.82 25.79-57.62 57.61-57.62h70.74z" fill="#e8ded8"/><path d="m301.221 251.399c.1-.51.15-1.03.15-1.55 0-15.49-44.29-28.05-98.91-28.05-54.63 0-98.92 12.56-98.92 28.05 0 .63.07 1.26.22 1.88z" fill="#ffd064"/><path d="m202.462 221.803c-23.374 3.9-51.409 19.475-51.409 29.592l-40.94 8.514c-4.239-3.115-6.569-6.511-6.569-10.059 0-15.493 44.289-28.047 98.918-28.047z" fill="#ebb044"/><path d="m500.751 267.638c0 8.432-6.452 15.469-14.861 16.184l-186.08 15.868c-7.577 15.633-17.472 28.304-28.878 38.07-57.323 49.137-152.611 25.166-181.559-61.69-4.052-12.144 5.082-24.674 17.87-24.674h377.264c4.485 0 8.549 1.815 11.488 4.755 2.941 2.938 4.756 7.002 4.756 11.487z" fill="#f5f0f0"/><path d="m270.933 337.76c-57.323 49.137-152.611 25.166-181.559-61.69-4.052-12.144 5.082-24.674 17.87-24.674h43.809c0 40.506 43.469 91.74 119.869 86.365h.011z" fill="#e8ded8"/></g><g><path d="m501.303 250.865c-4.477-4.492-10.44-6.966-16.792-6.966h-122.628c-5.169-39.215-26.223-74.186-58.693-97.319v-81.464c.001-35.905-29.21-65.116-65.116-65.116h-108.45c-35.904 0-65.115 29.211-65.115 65.116v81.465c-6.444 4.601-12.538 9.751-18.151 15.364-2.93 2.929-2.93 7.677-.001 10.606 1.465 1.465 3.384 2.197 5.304 2.197 1.919 0 3.839-.732 5.303-2.196 5.439-5.438 11.379-10.391 17.675-14.759h218.41c29.322 20.311 48.549 51.256 53.694 86.105h-39.045c-8.205-20.28-58.352-29.59-105.236-29.59-48.604 0-100.716 10.003-105.978 31.859-4.164 1.857-7.815 4.805-10.605 8.674-2.419 3.354-3.968 7.105-4.624 10.998h-61.836c.068-2.423.13-4.847.208-7.268.739-22.794 7.569-44.966 19.752-64.118 2.224-3.495 1.192-8.13-2.303-10.354-3.494-2.224-8.13-1.194-10.354 2.303-13.623 21.418-21.261 46.205-22.087 71.685-2.18 67.649-.477 136.252 5.062 203.904 1.895 23.127 20.113 41.528 43.32 43.753 43.408 4.148 87.12 6.222 130.834 6.222 43.713 0 87.428-2.074 130.836-6.222 23.199-2.225 41.414-20.625 43.309-43.754 4.351-53.187 6.338-107.059 5.925-160.243l56.797-4.845c4.127-.352 7.188-3.983 6.835-8.11-.352-4.127-3.988-7.193-8.11-6.835l-120.27 10.26c-2.636.225-4.958 1.821-6.111 4.202-9.748 20.113-24.289 36.108-42.05 46.257-16.575 9.471-35.646 13.811-55.146 12.543-21.196-1.374-41.505-9.174-58.729-22.556-18.534-14.4-32.592-34.791-40.65-58.961-1.146-3.446-.579-7.122 1.558-10.085 2.162-2.998 5.518-4.717 9.206-4.717h377.261c2.335 0 4.525.907 6.177 2.564 1.652 1.652 2.563 3.846 2.563 6.176 0 4.574-3.438 8.317-7.996 8.707l-36.48 3.111c-4.128.352-7.188 3.982-6.836 8.11.352 4.127 4.007 7.182 8.109 6.835l36.483-3.11c12.382-1.06 21.72-11.228 21.72-23.652-.002-6.34-2.473-12.301-6.949-16.776zm-421.794-185.749c0-27.634 22.481-50.116 50.115-50.116h108.45c27.634 0 50.116 22.482 50.116 50.116v77.678h-208.681zm263.537 395.65c-1.302 15.88-13.83 28.517-29.789 30.047-85.868 8.205-172.946 8.206-258.811 0-15.966-1.531-28.499-14.167-29.801-30.046-.951-11.62-1.78-23.27-2.503-34.937h323.406c-.722 11.668-1.552 23.319-2.502 34.936zm-215.112-116.26c19.604 15.231 42.758 24.111 66.962 25.68 2.538.165 5.07.247 7.593.247 19.787 0 38.995-5.038 55.966-14.735 19.24-10.994 35.132-27.843 46.166-48.893l44.312-3.78c.253 35.768-.589 71.843-2.514 107.805h-325.148c-2.316-43.301-3.053-86.797-2.211-129.99h64.041c9.124 25.945 24.575 47.927 44.833 63.666zm74.527-115.197c25.746 0 49.857 2.815 67.892 7.927 7.776 2.205 13.269 4.56 16.982 6.663h-169.759c3.713-2.104 9.206-4.458 16.983-6.663 18.036-5.112 42.15-7.927 67.902-7.927z"/><path d="m105.369 46.367c-4.143 0-7.5 3.358-7.5 7.5v70.499c0 4.142 3.357 7.5 7.5 7.5s7.5-3.358 7.5-7.5v-70.499c0-4.142-3.357-7.5-7.5-7.5z"/><path d="m144.61 46.367c-4.143 0-7.5 3.358-7.5 7.5v70.499c0 4.142 3.357 7.5 7.5 7.5s7.5-3.358 7.5-7.5v-70.499c0-4.142-3.358-7.5-7.5-7.5z"/><path d="m183.85 46.367c-4.143 0-7.5 3.358-7.5 7.5v70.499c0 4.142 3.357 7.5 7.5 7.5s7.5-3.358 7.5-7.5v-70.499c0-4.142-3.358-7.5-7.5-7.5z"/><path d="m223.089 46.367c-4.143 0-7.5 3.358-7.5 7.5v70.499c0 4.142 3.357 7.5 7.5 7.5s7.5-3.358 7.5-7.5v-70.499c0-4.142-3.357-7.5-7.5-7.5z"/><path d="m262.329 46.367c-4.143 0-7.5 3.358-7.5 7.5v70.499c0 4.142 3.357 7.5 7.5 7.5s7.5-3.358 7.5-7.5v-70.499c0-4.142-3.357-7.5-7.5-7.5z"/></g></g></svg>