<svg id="Capa_1" enable-background="new 0 0 511.888 511.888" height="512" viewBox="0 0 511.888 511.888" width="512" xmlns="http://www.w3.org/2000/svg"><g><g><g><path d="m439.108 348.364c-1.971 18.546-16.973 32.965-35.564 34.441-117.599 9.308-235.19 9.308-352.789 0-18.591-1.476-33.592-15.894-35.564-34.441-8.575-80.692-10.007-161.384-4.278-242.076 1.131-16.16 2.564-32.319 4.279-48.479 1.971-18.537 16.973-32.965 35.564-34.432 117.599-9.317 235.19-9.317 352.789 0 18.591 1.467 33.592 15.894 35.564 34.432 1.715 16.16 3.147 32.319 4.279 48.479 5.727 80.692 4.295 161.384-4.28 242.076z" fill="#f5f0f0"/><path d="m60.546 383.559c-3.26-.24-6.53-.49-9.79-.75-18.59-1.48-33.59-15.9-35.57-34.45-8.57-80.69-10-161.38-4.27-242.07 1.13-16.16 2.56-32.32 4.27-48.48 1.98-18.54 16.98-32.97 35.57-34.43 3.26-.26 6.53-.51 9.79-.75-10.44 6.29-17.78 17.19-19.14 29.97-1.78 16.74-3.26 33.48-4.43 50.22-5.94 83.58-4.45 167.17 4.43 250.75 1.36 12.791 8.7 23.691 19.14 29.99z" fill="#e8ded8"/><path d="m443.386 106.288h-432.473c1.131-16.16 2.564-32.319 4.279-48.479 1.971-18.537 16.973-32.965 35.564-34.432 117.599-9.317 235.19-9.317 352.789 0 18.591 1.467 33.592 15.894 35.564 34.432 1.714 16.16 3.146 32.319 4.277 48.479z" fill="#a2c6fe"/><path d="m41.405 52.599c1.358-12.765 8.684-23.654 19.105-29.947-3.252.244-6.504.467-9.755.725-18.591 1.467-33.592 15.895-35.564 34.432-1.715 16.16-3.147 32.319-4.279 48.479h25.836c.079-1.156.145-2.312.227-3.468 1.171-16.741 2.651-33.48 4.43-50.221z" fill="#7898d5"/><g fill="#a2c6fe"><circle cx="129.332" cy="170.293" r="20.575"/><circle cx="194.544" cy="170.293" r="20.575"/><circle cx="259.756" cy="170.293" r="20.575"/><circle cx="64.12" cy="237.812" r="20.575"/><circle cx="129.332" cy="237.812" r="20.575"/><circle cx="194.544" cy="237.812" r="20.575"/><circle cx="259.756" cy="237.812" r="20.575"/><circle cx="64.12" cy="305.331" r="20.575"/><circle cx="129.332" cy="305.331" r="20.575"/><circle cx="194.544" cy="305.331" r="20.575"/><circle cx="259.756" cy="305.331" r="20.575"/></g><circle cx="324.967" cy="170.293" fill="#dd636e" r="20.575"/><circle cx="324.967" cy="237.812" fill="#dd636e" r="20.575"/><circle cx="390.179" cy="170.293" fill="#dd636e" r="20.575"/><circle cx="390.179" cy="237.812" fill="#dd636e" r="20.575"/></g><g><path d="m425.931 338.679.311 58.535-41.843 42.443c-15.619-6.424-31.158-13.079-46.58-19.98-26.336-11.786-38.846-42.423-27.921-69.128l.392-.953c11.031-26.676 41.471-39.633 68.478-29.479 15.815 5.947 31.544 12.137 47.163 18.562z" fill="#dd636e"/><path d="m500.43 427.784-.397.966c-11.038 26.658-41.471 39.634-68.473 29.466-15.815-5.947-31.545-12.138-47.164-18.563l41.532-100.978c15.619 6.424 31.153 13.092 46.576 19.993 26.342 11.774 38.839 42.406 27.926 69.116z" fill="#ffd064"/><path d="m384.397 439.66c-15.622-6.425-31.146-13.089-46.575-19.993-26.341-11.773-38.851-42.411-27.926-69.115l.139-.339c-3.371 8.338 15.31 23.972 41.879 35.193 15.565 6.571 37.429 15.648 53.05 22.073" fill="#da4a54"/><path d="m500.167 428.419-.139.339c-11.038 26.658-41.471 39.633-68.473 29.466-15.815-5.947-31.545-12.138-47.164-18.563l14.298-34.763c15.619 6.424 31.277 12.791 46.957 19.064 26.775 10.719 51.037 12.748 54.521 4.457z" fill="#ebb044"/></g><g><circle cx="290.126" cy="430.612" fill="#c0df8f" r="64.846"/></g></g><g><path d="m129.332 142.218c-15.481 0-28.075 12.595-28.075 28.076s12.594 28.075 28.075 28.075 28.075-12.594 28.075-28.075-12.594-28.076-28.075-28.076zm0 41.151c-7.209 0-13.075-5.866-13.075-13.075 0-7.21 5.866-13.076 13.075-13.076s13.075 5.866 13.075 13.076c0 7.209-5.866 13.075-13.075 13.075z"/><path d="m194.544 142.218c-15.481 0-28.075 12.595-28.075 28.076s12.594 28.075 28.075 28.075 28.075-12.594 28.075-28.075-12.594-28.076-28.075-28.076zm0 41.151c-7.209 0-13.075-5.866-13.075-13.075 0-7.21 5.866-13.076 13.075-13.076s13.075 5.866 13.075 13.076c0 7.209-5.866 13.075-13.075 13.075z"/><path d="m259.756 198.369c15.481 0 28.075-12.594 28.075-28.075s-12.594-28.076-28.075-28.076-28.075 12.595-28.075 28.076 12.594 28.075 28.075 28.075zm0-41.151c7.209 0 13.075 5.866 13.075 13.076 0 7.209-5.866 13.075-13.075 13.075s-13.075-5.866-13.075-13.075c-.001-7.21 5.865-13.076 13.075-13.076z"/><path d="m324.967 198.369c15.481 0 28.075-12.594 28.075-28.075s-12.594-28.076-28.075-28.076-28.075 12.595-28.075 28.076 12.595 28.075 28.075 28.075zm0-41.151c7.209 0 13.075 5.866 13.075 13.076 0 7.209-5.866 13.075-13.075 13.075s-13.075-5.866-13.075-13.075c0-7.21 5.866-13.076 13.075-13.076z"/><path d="m64.12 209.737c-15.481 0-28.075 12.594-28.075 28.075s12.594 28.075 28.075 28.075 28.075-12.594 28.075-28.075-12.594-28.075-28.075-28.075zm0 41.15c-7.209 0-13.075-5.866-13.075-13.075s5.866-13.075 13.075-13.075 13.075 5.866 13.075 13.075-5.866 13.075-13.075 13.075z"/><path d="m129.332 209.737c-15.481 0-28.075 12.594-28.075 28.075s12.594 28.075 28.075 28.075 28.075-12.594 28.075-28.075-12.594-28.075-28.075-28.075zm0 41.15c-7.209 0-13.075-5.866-13.075-13.075s5.866-13.075 13.075-13.075 13.075 5.866 13.075 13.075-5.866 13.075-13.075 13.075z"/><path d="m194.544 209.737c-15.481 0-28.075 12.594-28.075 28.075s12.594 28.075 28.075 28.075 28.075-12.594 28.075-28.075-12.594-28.075-28.075-28.075zm0 41.15c-7.209 0-13.075-5.866-13.075-13.075s5.866-13.075 13.075-13.075 13.075 5.866 13.075 13.075-5.866 13.075-13.075 13.075z"/><path d="m259.756 265.887c15.481 0 28.075-12.594 28.075-28.075s-12.594-28.075-28.075-28.075-28.075 12.594-28.075 28.075 12.594 28.075 28.075 28.075zm0-41.15c7.209 0 13.075 5.866 13.075 13.075s-5.866 13.075-13.075 13.075-13.075-5.866-13.075-13.075 5.865-13.075 13.075-13.075z"/><path d="m324.967 265.887c15.481 0 28.075-12.594 28.075-28.075s-12.594-28.075-28.075-28.075-28.075 12.594-28.075 28.075 12.595 28.075 28.075 28.075zm0-41.15c7.209 0 13.075 5.866 13.075 13.075s-5.866 13.075-13.075 13.075-13.075-5.866-13.075-13.075 5.866-13.075 13.075-13.075z"/><path d="m390.179 198.369c15.481 0 28.075-12.594 28.075-28.075s-12.594-28.076-28.075-28.076-28.075 12.595-28.075 28.076 12.594 28.075 28.075 28.075zm0-41.151c7.209 0 13.075 5.866 13.075 13.076 0 7.209-5.866 13.075-13.075 13.075s-13.075-5.866-13.075-13.075c0-7.21 5.866-13.076 13.075-13.076z"/><path d="m390.179 265.887c15.481 0 28.075-12.594 28.075-28.075s-12.594-28.075-28.075-28.075-28.075 12.594-28.075 28.075 12.594 28.075 28.075 28.075zm0-41.15c7.209 0 13.075 5.866 13.075 13.075s-5.866 13.075-13.075 13.075-13.075-5.866-13.075-13.075 5.866-13.075 13.075-13.075z"/><path d="m64.12 277.256c-15.481 0-28.075 12.594-28.075 28.075s12.594 28.075 28.075 28.075 28.075-12.594 28.075-28.075-12.594-28.075-28.075-28.075zm0 41.15c-7.209 0-13.075-5.866-13.075-13.075s5.866-13.075 13.075-13.075 13.075 5.866 13.075 13.075-5.866 13.075-13.075 13.075z"/><path d="m129.332 277.256c-15.481 0-28.075 12.594-28.075 28.075s12.594 28.075 28.075 28.075 28.075-12.594 28.075-28.075-12.594-28.075-28.075-28.075zm0 41.15c-7.209 0-13.075-5.866-13.075-13.075s5.866-13.075 13.075-13.075 13.075 5.866 13.075 13.075-5.866 13.075-13.075 13.075z"/><path d="m194.544 277.256c-15.481 0-28.075 12.594-28.075 28.075s12.594 28.075 28.075 28.075 28.075-12.594 28.075-28.075-12.594-28.075-28.075-28.075zm0 41.15c-7.209 0-13.075-5.866-13.075-13.075s5.866-13.075 13.075-13.075 13.075 5.866 13.075 13.075-5.866 13.075-13.075 13.075z"/><path d="m259.756 333.406c15.481 0 28.075-12.594 28.075-28.075s-12.594-28.075-28.075-28.075-28.075 12.594-28.075 28.075 12.594 28.075 28.075 28.075zm0-41.15c7.209 0 13.075 5.866 13.075 13.075s-5.866 13.075-13.075 13.075-13.075-5.866-13.075-13.075 5.865-13.075 13.075-13.075z"/><path d="m507.389 384.814c-5.987-14.775-17.288-26.491-31.822-32.991-9.281-4.15-18.639-8.22-28.04-12.219 7.71-77.597 8.848-156.238 3.342-233.838-1.124-16.076-2.572-32.478-4.304-48.75-2.345-22.064-20.188-39.355-42.426-41.114-117.439-9.307-236.535-9.307-353.974 0-22.232 1.758-40.079 19.048-42.436 41.118-1.731 16.363-3.176 32.763-4.292 48.738-5.732 80.715-4.288 162.607 4.293 243.408 2.355 22.057 20.201 39.35 42.437 41.12 58.404 4.617 117.457 6.959 175.767 6.986-3.118 5.996-5.455 12.52-6.814 19.482-7.641 39.152 17.995 77.222 57.147 84.865 4.662.91 9.302 1.347 13.884 1.347 33.897 0 64.248-24.004 70.979-58.494.394-2.02.684-4.043.906-6.066 17.454 7.44 35.157 14.651 52.797 21.46.888.343 1.801.505 2.7.505 3.009 0 5.85-1.825 6.998-4.801 1.492-3.864-.432-8.206-4.295-9.698-8.675-3.349-17.364-6.811-26.036-10.331l35.8-87.041c13.243 5.516 26.416 11.19 39.443 17.016 10.979 4.91 19.519 13.764 24.043 24.931 4.527 11.171 4.525 23.425-.012 34.523l-.371.912c-7.632 18.457-26.244 29.765-46.304 28.141-4.132-.337-7.746 2.742-8.081 6.87-.334 4.129 2.742 7.747 6.87 8.081 1.69.137 3.373.204 5.045.204 24.614 0 46.846-14.625 56.346-37.599l.387-.953c6.021-14.722 6.028-30.992.023-45.812zm-456.037-9.482c-15.044-1.197-27.118-12.872-28.707-27.755-8.24-77.593-9.806-156.204-4.702-233.788h58.083c4.142 0 7.5-3.358 7.5-7.5s-3.358-7.5-7.5-7.5h-57.029c1.009-13.253 2.224-26.726 3.648-40.184 1.59-14.89 13.662-26.561 28.705-27.75 116.654-9.245 234.951-9.245 351.606 0 15.044 1.19 27.111 12.859 28.693 27.747 1.426 13.396 2.644 26.87 3.658 40.187h-329.321c-4.142 0-7.5 3.358-7.5 7.5s3.358 7.5 7.5 7.5h330.376c4.797 72.966 3.686 146.797-3.31 219.735-17.147-7.107-34.407-13.942-51.645-20.425-14.899-5.606-31.172-5.231-45.823 1.055-14.674 6.296-26.104 17.836-32.19 32.5-.156.359-.302.716-.441 1.059-1.485 3.634-2.596 7.378-3.349 11.19-24.284-3.224-47.72 6.138-63.25 23.347-61.287.267-123.513-2.057-185.002-6.918zm182.49 44.295c6.057-31.035 36.237-51.358 67.269-45.298 12.551 2.449 23.667 8.868 31.978 18.31l-94.28 63.488c-5.443-10.915-7.478-23.631-4.967-36.5zm112.567 21.971c-2.934 15.034-11.547 28.025-24.252 36.581s-27.982 11.653-43.016 8.717c-12.869-2.512-23.886-9.179-31.954-18.327l94.28-63.488c5.624 11.252 7.392 23.966 4.942 36.517zm33.92-11.763c-6.144-2.56-12.263-5.148-18.347-7.771-1.33-11.282-5.319-22.167-11.848-31.861-8.802-13.071-21.326-22.705-35.933-27.825.566-3.067 1.448-6.081 2.645-9.011.104-.256.207-.513.319-.769.021-.047.041-.095.061-.143 4.575-11.057 13.195-19.764 24.273-24.518 11.073-4.751 23.37-5.036 34.626-.8 13.342 5.018 26.697 10.253 40.003 15.656z"/></g></g></svg>