<svg id="Capa_1" enable-background="new 0 0 512 512" height="512" viewBox="0 0 512 512" width="512" xmlns="http://www.w3.org/2000/svg"><g><g><path d="m323.16 209.937c-30.749-20.208-56.228-45.687-76.436-76.436 34.242-38.498 70.1-75.38 107.574-110.648 21.993-20.698 56.54-20.505 77.94.807.255.254.51.509.764.764 21.311 21.399 21.505 55.947.807 77.94-35.269 37.472-72.151 73.33-110.649 107.573z" fill="#ffd064"/><path d="m280.998 175.672c-12.739-12.739-24.165-26.805-34.272-42.176 34.241-38.493 70.094-75.373 107.573-110.643 21.994-20.689 56.541-20.505 77.944.806l.261.261c-6.807-6.715-29.483 4.973-51.032 26.107-36.72 36.029-72.925 72.557-108.617 109.599 1.397 6.661 4.106 12.009 8.143 16.046z" fill="#ebb044"/><path d="m311.588 221.509c-20.088-30.869-45.567-56.348-76.436-76.436-42.223 37.655-82.583 77.17-121.082 118.546-12.101 13.005-15.184 31.292-9.289 47.041-4.85 5.022-9.682 10.062-14.496 15.119-10.685 11.225-10.736 29.019.181 40.018.132.133.264.265.397.397 10.999 10.917 28.793 10.866 40.018.181 5.058-4.814 10.097-9.646 15.119-14.496 15.749 5.895 34.036 2.812 47.041-9.289 41.378-38.499 80.893-78.859 118.547-121.081z" fill="#f5f0f0"/><path d="m90.602 365.934-.138-.138c-10.92-10.997-10.867-28.792-.177-40.02 4.811-5.057 9.646-10.091 14.496-15.11-5.901-15.755-2.809-34.042 9.293-47.049 38.493-41.378 78.85-80.891 121.079-118.547 15.432 10.045 29.522 21.433 42.26 34.172-4.029-4.029-9.408-6.707-16.138-8.05-40.664 39.221-80.73 79.026-120.212 119.414-12.409 12.7-20.697 25.792-22.201 34.141-4.904 4.965-9.808 9.93-14.703 14.903-10.873 11.044-16.989 22.778-13.559 26.284z" fill="#e8ded8"/><path d="m292.694 250.764c-30.667-27.198-59.6-56.13-86.798-86.798-5.087-5.736-5.387-14.305-.664-20.344 14.906-19.059 31.888-36.042 50.948-50.948 6.039-4.723 14.608-4.423 20.344.664 30.667 27.198 59.6 56.13 86.797 86.797 5.087 5.736 5.387 14.305.664 20.344-14.906 19.06-31.888 36.042-50.948 50.948-6.038 4.724-14.607 4.424-20.343-.663z" fill="#365e7d"/><path d="m237.516 198.017c-10.797-11.104-21.334-22.454-31.624-34.049-5.08-5.74-5.387-14.304-.66-20.351 14.91-19.054 31.893-36.037 50.947-50.947 6.04-4.72 14.612-4.42 20.344.667 11.595 10.291 22.945 20.827 34.049 31.624-5.548-2.463-12.163-1.803-17.151 2.095-20.129 15.739-38.07 33.681-53.81 53.81-3.899 4.988-4.559 11.603-2.095 17.151z" fill="#2b4d66"/><g><path d="m62.839 467.304c0 1.044.018 2.085.054 3.12 1.567 45.431 70.143 45.431 71.71 0 .036-1.036.054-2.076.054-3.12 0-29.244-14.119-55.187-35.909-71.395-21.79 16.208-35.909 42.151-35.909 71.395z" fill="#bee5f0"/><path d="m98.75 504.5c-17.533 0-35.073-11.357-35.857-34.078-.034-1.036-.055-2.072-.055-3.115 0-29.244 14.118-55.189 35.911-71.4-7.751 16.21-12.768 42.155-12.768 71.4 0 1.043.007 2.079.014 3.115.28 22.721 6.518 34.078 12.755 34.078z" fill="#9dd9e5"/></g></g><g><path d="m136.072 371.825c3.627-3.448 7.474-7.129 11.914-11.401 17.708 4.888 36.556.36 50.176-12.327 3.988-3.708 7.972-7.45 11.935-11.194 3.011-2.843 3.147-7.59.303-10.6-2.843-3.011-7.589-3.147-10.6-.303-3.935 3.716-7.89 7.432-11.856 11.118-10.622 9.895-25.676 12.869-39.296 7.768-2.706-1.016-5.755-.382-7.836 1.624-5.828 5.62-10.619 10.211-15.079 14.451-8.304 7.912-21.564 7.885-29.564-.057-.154-.159-.291-.298-.428-.429-7.874-8.007-7.88-21.215.004-29.491 4.236-4.455 8.827-9.247 14.456-15.085 2.006-2.08 2.638-5.129 1.624-7.835-5.101-13.618-2.127-28.674 7.763-39.291 28.692-30.844 58.836-61.019 89.668-89.819 21.707 23.838 44.672 46.804 68.51 68.509-18.348 19.648-37.312 39.074-56.468 57.822-2.959 2.896-3.011 7.644-.114 10.604 1.469 1.501 3.414 2.254 5.359 2.254 1.892 0 3.786-.711 5.245-2.14 19.401-18.987 38.606-38.666 57.184-58.567 4.203 3.242 9.245 4.894 14.302 4.894 5.068 0 10.14-1.641 14.373-4.951 19.447-15.209 37.019-32.781 52.227-52.228 6.512-8.326 6.566-19.906.369-28.294 23.683-22.504 46.874-45.777 68.997-69.28 11.357-12.076 17.53-27.843 17.386-44.399-.145-16.628-6.656-32.243-18.333-43.97-.038-.038-.075-.075-.114-.112-.189-.183-.379-.372-.561-.562-.039-.04-.078-.08-.118-.12-19.782-19.694-49.748-24.05-74.561-10.842-3.656 1.946-5.042 6.487-3.096 10.143 1.946 3.655 6.488 5.042 10.143 3.096 18.942-10.083 41.792-6.796 56.882 8.18.277.287.563.573.849.85 18.447 18.579 18.717 48.196.601 67.459-21.816 23.176-44.681 46.13-68.034 68.332-21.918-24.094-45.12-47.296-69.212-69.211 18.593-19.567 37.909-38.964 57.518-57.736 2.992-2.864 3.095-7.611.231-10.602-2.863-2.992-7.61-3.096-10.602-.231-19.903 19.054-39.508 38.747-58.372 58.611-8.387-6.191-19.963-6.136-28.287.374-19.446 15.208-37.018 32.779-52.227 52.227-6.615 8.459-6.551 20.269-.053 28.686-31.179 29.113-61.661 59.621-90.669 90.804-12.684 13.616-17.214 32.466-12.324 50.172-4.279 4.447-7.961 8.295-11.406 11.919-13.449 14.116-13.325 36.756.283 50.463.07.071.142.14.214.207l.195.203c6.923 6.872 16.107 10.313 25.323 10.313 9.071 0 18.171-3.333 25.176-10.006zm75.443-212.776c-2.7-3.045-2.855-7.564-.367-10.745 14.459-18.488 31.164-35.194 49.652-49.652 1.51-1.181 3.323-1.767 5.136-1.767 2.005 0 4.011.716 5.609 2.134 30.294 26.866 59.278 55.851 86.149 86.149 2.701 3.045 2.855 7.564.368 10.745-14.459 18.488-31.164 35.194-49.652 49.653-3.181 2.486-7.699 2.333-10.745-.368-30.296-26.868-59.282-55.853-86.15-86.149z"/><path d="m55.37 467.313c0 1.132.02 2.259.059 3.381.935 27.117 22.512 41.306 43.343 41.306s42.408-14.189 43.344-41.308c.039-1.122.058-2.248.058-3.378 0-30.335-14.552-59.27-38.927-77.401-2.656-1.976-6.295-1.976-8.951 0-24.374 18.13-38.926 47.065-38.926 77.4zm14.998 0c0-24.082 10.282-46.299 28.405-61.797 18.123 15.498 28.405 37.715 28.405 61.797 0 .958-.017 1.912-.049 2.862-.639 18.532-14.702 26.827-28.355 26.827s-27.716-8.296-28.355-26.828c-.035-.951-.051-1.904-.051-2.861z"/></g></g></svg>