<svg id="Capa_1" enable-background="new 0 0 511.555 511.555" height="512" viewBox="0 0 511.555 511.555" width="512" xmlns="http://www.w3.org/2000/svg"><g><g><path d="m337.069 425.606h98.765v78.446h-98.765z" fill="#e8ded8"/><path d="m484.992 189.417-25.121 25.121c-39.519 39.519-69.141 87.832-86.432 140.98l-16.051 49.347v96.547h-190.407v-104.033h-.011l-7.061-4.994-128.064-90.566c-17.957-12.687-22.515-37.222-10.632-55.466.287-.448.586-.884.884-1.309 12.985-18.381 38.417-22.733 56.798-9.747l69.29 49.014c-2.882-31.941-9.828-63.446-20.678-93.734l-33.754-94.079c-7.589-21.183 3.41-44.513 24.593-52.102 21.183-7.601 44.513 3.41 52.091 24.593l37.969 105.812v-126.57c0-22.148 17.67-40.173 39.68-40.713.08-.012.184-.012.276-.012 22.825-.424 41.516 18.807 41.516 41.655v128.43l38.44-119.865c6.831-21.286 29.53-33.066 50.816-26.476.149.034.276.08.413.126 21.424 6.866 33.238 29.806 26.361 51.23l-33.365 104.032 54.835-54.835c15.925-15.913 41.712-15.913 57.613 0 15.925 15.902 15.925 41.712.001 57.614z" fill="#ffddce"/><g fill="#ffcbbe"><path d="m484.997 131.798c-10.842-10.842-49.349 28.643-73.233 55.453-10.527 11.816-29.082 11.536-39.227-.61l54.843-54.843c15.92-15.905 41.712-15.905 57.617 0z"/><path d="m379.139 31.247c-16.169-3.919-43.943 86.893-57.273 134.302-3.873 13.775-19.984 19.841-31.983 12.045l38.439-119.871c6.829-21.284 29.52-33.063 50.817-26.476z"/><path d="m208.409 174.805v-126.572c0-22.15 17.669-40.175 39.677-40.716-12.073 1.406-13.148 98.798-12.903 148.736.068 13.872-13.807 23.48-26.774 18.552z"/><path d="m373.434 355.522c-138.365 66.238-362.501-84.504-352.216-109.173-11.893 18.252-7.326 42.779 10.627 55.469l128.064 90.566 7.061 4.994h.011v104.032h68.647v-96.552h121.759z"/><path d="m184.352 266.904c-22.572 6.923-35.684 17.027-36.155 17.394-.011.012-.011.012-.011.012-2.882-31.941-9.828-63.446-20.678-93.734l-33.755-94.078c-7.589-21.183 3.41-44.513 24.593-52.102-15.339 8.071 51.161 183.828 66.006 222.508z"/></g><path d="m425.985 253.783c-20.36 27.4-36.7 57.67-48.46 89.88-80.83-89.12-232.99-96.19-234.52-96.26-1.92-10.04-4.24-20.01-6.97-29.88 0 0 120.22-34.68 289.95 36.26z" fill="#f5f0f0"/><path d="m377.526 343.66c-1.43 3.93-2.8 7.88-4.09 11.86l-16.05 49.34c-39-11.39-74.78-15.5-104.54-16.11-25.52-60.26-104.66-104.44-104.66-104.44-1.12-12.38-2.85-24.7-5.18-36.91 1.53.071 153.69 7.141 234.52 96.26z" fill="#e8ded8"/><path d="m357.388 404.862v77.27c-44.54-9.92-87.78-10.86-121.76-8.92-41.09 2.36-68.65 8.92-68.65 8.92v-84.75c.43-.12 26.74-7.6 68.65-8.6 5.48-.13 11.23-.15 17.22-.03 29.76.61 65.54 4.72 104.54 16.11z" fill="#f5f0f0"/><path d="m235.628 388.782v84.43c-41.09 2.36-68.65 8.92-68.65 8.92v-84.75c.43-.12 26.74-7.6 68.65-8.6z" fill="#e8ded8"/><path d="m183.165 252.033c-23.89-3.88-39.68-4.61-40.16-4.63-1.92-10.04-4.24-20.01-6.97-29.88 0 0 9.84-2.84 27.88-5.24v.01c4.44 10.7 12.36 24.6 19.25 39.74z" fill="#e8ded8"/><path d="m193.986 316.421c-24.24-20.07-45.8-32.11-45.8-32.11-1.12-12.38-2.85-24.7-5.18-36.91.48.02 16.26.75 40.15 4.63 9.48 20.819 17.01 43.989 10.83 64.39z" fill="#d8cec9"/></g><path d="m490.325 126.506c-9.107-9.119-21.218-14.14-34.101-14.14-12.88 0-24.997 5.02-34.12 14.137l-32.925 32.925 23.899-74.528c3.94-12.267 2.86-25.335-3.04-36.797-5.879-11.421-15.839-19.88-28.055-23.831-.242-.085-.468-.157-.72-.228-25.104-7.701-52.027 6.36-60.058 31.392l-23.799 74.211v-80.481c0-13.177-5.426-26.061-14.887-35.349-9.293-9.124-21.407-14.004-34.204-13.811-.14 0-.343.003-.589.018-12.546.36-24.284 5.508-33.071 14.509-8.847 9.063-13.719 21.032-13.719 33.703v83.46l-23.406-65.238c-4.342-12.131-13.151-21.842-24.805-27.343-11.652-5.499-24.749-6.131-36.877-1.78-25.032 8.971-38.095 36.645-29.119 61.693l33.749 94.076c8.761 24.459 14.935 49.757 18.414 75.417l-55.637-39.353c-21.736-15.349-51.903-10.168-67.231 11.519-.375.525-.749 1.075-1.101 1.636-14.165 21.803-8.626 50.612 12.624 65.615l52.99 37.48c3.381 2.393 8.062 1.589 10.454-1.792 2.392-3.382 1.59-8.063-1.792-10.454l-52.996-37.484c-14.654-10.346-18.464-30.217-8.673-45.237.029-.043.057-.087.084-.132.196-.315.407-.622.637-.945 10.576-14.965 31.37-18.53 46.345-7.956l66.662 47.151s4.093 2.737 5.36 3.488c11.562 6.853 68.667 42.348 94.216 89.042-37.061.361-63.144 5.872-72.353 8.14l-55.343-39.137c-3.381-2.391-8.062-1.589-10.454 1.793s-1.589 8.063 1.793 10.454l55.031 38.916v102.791c0 4.142 3.358 7.5 7.5 7.5s7.5-3.358 7.5-7.5v-15.836c20.926-4.1 95.891-16.352 175.41-.02v15.851c0 4.142 3.357 7.5 7.5 7.5h78.445c4.143 0 7.5-3.358 7.5-7.5v-78.446c0-4.142-3.357-7.5-7.5-7.5h-70.945v-12.052l15.682-48.218c16.843-51.774 46.097-99.493 84.601-137.998l25.116-25.115c9.123-9.107 14.148-21.222 14.148-34.113s-5.024-25.004-14.14-34.103zm-315.817 346.398v-69.637c19.496-4.338 89.342-16.556 175.41 7.264v62.361c-78.503-15.512-150.391-4.763-175.41.012zm253.856-39.798v63.446h-63.445v-63.446zm-75.848-37.413c-35.062-9.586-67.281-13.488-94.765-14.394-24.963-53.075-86.982-92.364-102.443-101.546-.812-8.08-1.88-16.133-3.201-24.146 14.146 1.302 42.832 4.806 76.133 13.672 42.084 11.205 100.161 33.473 140.727 76.167-.903 2.574-1.786 5.156-2.63 7.75zm127.199-211.581-25.12 25.12c-11.108 11.108-21.474 22.954-31.036 35.418-16.124-6.568-32.375-12.441-48.393-17.471-3.954-1.237-8.161.958-9.402 4.909-1.241 3.952.956 8.162 4.908 9.402 14.469 4.543 29.139 9.797 43.73 15.641-15.91 22.672-29.235 47.159-39.599 72.837-42.677-41.96-100.659-64.024-143.042-75.275-38.166-10.131-69.812-13.419-82.491-14.401-1.194-5.778-2.516-11.532-3.973-17.253 8.855-1.866 25.655-4.765 48.825-5.952 32.523-1.666 84.612-.201 148.076 16.238.631.164 1.264.242 1.886.242 3.336 0 6.38-2.242 7.256-5.621 1.038-4.01-1.37-8.103-5.38-9.141-106.104-27.484-181.602-15.344-204.674-10.283-2.041-6.881-4.263-13.713-6.687-20.48l-33.749-94.077c-6.185-17.26 2.813-36.329 20.063-42.511 8.357-2.998 17.383-2.563 25.411 1.226 8.027 3.789 14.095 10.477 17.087 18.838l37.97 105.82c1.231 3.432 4.753 5.485 8.345 4.856 3.592-.625 6.214-3.743 6.214-7.389v-126.569c0-17.881 14.519-32.785 32.364-33.222.079-.002.158-.005.237-.009 8.72-.161 17.063 3.222 23.474 9.516 6.606 6.486 10.396 15.469 10.396 24.646v128.43c0 3.695 2.69 6.839 6.341 7.41s7.172-1.602 8.301-5.12l38.44-119.869c5.541-17.275 24.143-26.969 41.461-21.606.051.016.103.031.154.046.061.021.121.042.183.061 8.455 2.712 15.351 8.554 19.415 16.45s4.809 16.897 2.094 25.349l-33.36 104.03c-1.058 3.297.279 6.889 3.235 8.692 2.954 1.803 6.762 1.348 9.21-1.099l54.828-54.828c6.288-6.284 14.64-9.745 23.515-9.745 8.873 0 17.214 3.459 23.495 9.748 6.285 6.273 9.746 14.618 9.746 23.498-.003 8.876-3.464 17.221-9.754 23.498z"/></g></svg>