<svg id="Capa_1" enable-background="new 0 0 511.944 511.944" height="512" viewBox="0 0 511.944 511.944" width="512" xmlns="http://www.w3.org/2000/svg"><g><g><g><path d="m164.033 8.515c73.943-2.691 147.876-.097 221.808 7.77 20.566 2.183 36.669 18.653 38.312 39.263 10.656 133.621 10.656 267.242 0 400.874-1.643 20.609-17.746 37.08-38.312 39.263-110.277 11.737-220.565 11.737-330.853 0-20.555-2.183-36.669-18.653-38.312-39.263-7.954-99.805-9.975-199.599-6.041-299.393" fill="#f5f0f0"/><path d="m10.635 157.028c36.345-1.308 72.69-3.901 109.045-7.77 20.555-2.183 36.669-18.653 38.312-39.263 2.702-33.827 4.712-67.653 6.041-101.48-36.345 1.308-152.069 114.687-153.398 148.513z" fill="#e8ded8"/></g><g><path d="m293.794 418.338s-38.191 41.86-92.857 24.134c-17.726-54.667 24.134-92.857 24.134-92.857z" fill="#365e7d"/><path d="m201.017 442.492c-.028 0-.049-.007-.078-.021-17.744-54.66 24.128-92.856 24.128-92.856l23.88 23.88c0 .001-40.549 39.419-47.93 68.997z" fill="#2b4d66"/><path d="m266.636 308.4 68.749 68.749 159.431-159.431c11.256-11.256 11.256-29.506 0-40.763l-27.987-27.987c-11.256-11.256-29.506-11.256-40.763 0z" fill="#365e7d"/><path d="m470.201 152.341-179.813 179.813-23.753-23.753 159.431-159.431c11.256-11.256 29.506-11.256 40.763 0z" fill="#2b4d66"/><path d="m271.531 432.444c-22.25-17.876-42.313-37.94-60.19-60.19-6.143-7.646-5.862-18.584.62-25.945 28.787-32.692 59.526-63.431 92.218-92.218 7.361-6.482 18.299-6.763 25.945-.62 22.25 17.876 42.313 37.94 60.19 60.19 6.143 7.646 5.862 18.584-.62 25.945-28.787 32.692-59.526 63.431-92.218 92.218-7.361 6.483-18.299 6.764-25.945.62z" fill="#dd636e"/><path d="m234.024 398.076c-7.925-8.25-15.475-16.86-22.685-25.824-6.143-7.642-5.86-18.585.622-25.944 28.786-32.689 59.524-63.426 92.22-92.22 7.359-6.482 18.295-6.758 25.944-.622 8.971 7.204 17.589 14.775 25.839 22.7-5.981-.721-12.202 1.06-17.002 5.295-35.325 31.098-68.53 64.303-99.628 99.628-4.229 4.792-6.017 11.006-5.31 16.987z" fill="#da4a54"/><path d="m394.882 172.766 58.566 58.566 19.575-19.575-58.566-58.566c-4.227-4.227-11.079-4.227-15.306 0l-4.27 4.27c-4.226 4.226-4.226 11.079.001 15.305z" fill="#ffd064"/><path d="m416.111 194.002-21.236-21.236c-4.227-4.227-4.22-11.078.007-15.305l4.27-4.27c4.227-4.227 11.078-4.234 15.305-.007l21.236 21.236c-4.227-4.227-11.085-4.227-15.312 0l-4.27 4.27c-4.228 4.228-4.228 11.085 0 15.312z" fill="#ebb044"/><g fill="#ffd064"><path d="m354.663 345.686c13.27 13.27 34.784 13.27 48.054 0l93.346-93.346c4.844-4.844 4.844-12.698 0-17.543l-39.283-39.283-102.117 102.118c-13.27 13.27-13.27 34.784 0 48.054z"/><circle cx="200.936" cy="444.162" r="16.168"/></g></g></g><g><path d="m497.509 225.636 2.618-2.618c14.154-14.167 14.153-37.208-.002-51.364l-27.99-27.991c-6.862-6.862-15.985-10.641-25.688-10.641-3.348 0-6.624.46-9.764 1.332-1.276-26.411-2.955-53.059-5.055-79.402-1.923-24.167-20.846-43.564-44.992-46.124-73.94-7.871-148.929-10.497-222.877-7.807h-.001c-28.498 1.031-83.957 53.644-94.785 64.18-10.807 10.515-64.765 64.345-65.835 91.53-3.921 99.573-1.883 200.602 6.058 300.283 1.934 24.157 20.859 43.558 45.003 46.13 55.147 5.866 110.683 8.798 166.218 8.798 55.536 0 111.072-2.933 166.22-8.798 24.148-2.572 43.07-21.973 44.992-46.131 3.622-45.382 6.037-91.398 7.198-136.83l62.541-62.541c7.76-7.761 7.76-20.389 0-28.149zm-35.98-71.366 27.989 27.99c8.31 8.31 8.309 21.837 0 30.153l-2.615 2.615-24.818-24.818-33.325-33.325 2.618-2.618c4.024-4.027 9.376-6.246 15.07-6.246 5.696.001 11.051 2.22 15.081 6.249zm-95.421 121.31c-9.342-9.265-19.24-18.155-29.524-26.519l61.998-61.989 28.016 28.017zm80.066-80.066-8.969 8.969-37.019-37.02c-1.296-1.295-1.296-3.404 0-4.699l4.27-4.27c.647-.647 1.498-.972 2.349-.972.852 0 1.702.324 2.35.972zm-29.499 260.309c-1.35 16.97-14.651 30.599-31.626 32.407-109.242 11.619-220.022 11.619-329.263 0-16.975-1.808-30.28-15.439-31.638-32.408-7.71-96.78-9.806-194.835-6.269-291.575 11.204-.457 22.48-1.027 33.624-1.713 4.135-.255 7.279-3.813 7.024-7.947s-3.826-7.286-7.946-7.024c-9.979.615-20.067 1.141-30.111 1.57 6.537-14.896 26.606-41.694 58.964-73.18 34.192-33.272 61.54-51.994 76.697-57.892-1.316 30.42-3.202 61.1-5.616 91.342-1.35 16.971-14.65 30.596-31.625 32.397-13.043 1.384-26.012 2.603-38.546 3.623-4.128.335-7.203 3.955-6.867 8.083s3.942 7.217 8.084 6.867c12.656-1.029 25.748-2.26 38.912-3.657 24.149-2.562 43.072-21.96 44.995-46.122 2.505-31.39 4.437-63.244 5.766-94.802 70.996-2.259 142.888.403 213.818 7.954 16.974 1.799 30.272 15.424 31.623 32.398 2.283 28.636 4.082 57.641 5.381 86.292-.438.398-.868.807-1.288 1.229l-2.726 2.726c-7.182-5.59-17.594-5.101-24.194 1.498l-4.27 4.27c-6.6 6.6-7.088 17.017-1.493 24.199l-65.644 65.635c-8.086-1.462-16.664.698-23.215 6.467-3.957 3.484-7.924 7.034-11.791 10.55-3.063 2.787-3.288 7.53-.501 10.595 2.787 3.066 7.529 3.29 10.595.502 3.807-3.462 7.713-6.958 11.609-10.389 4.638-4.084 11.49-4.253 16.285-.404 10.496 8.438 20.583 17.46 30.078 26.875l-6.142 6.142c-16.172 16.172-16.172 42.488 0 58.661 3.622 3.622 7.754 6.426 12.164 8.425-21.869 23.247-45.032 45.674-68.998 66.783-4.646 4.089-11.498 4.259-16.296.403-21.729-17.46-41.593-37.328-59.046-59.057-3.854-4.788-3.683-11.635.407-16.281 18.503-21.015 38.078-41.479 58.181-60.822 2.984-2.872 3.076-7.62.204-10.604-2.873-2.985-7.618-3.076-10.604-.204-20.399 19.629-40.263 40.394-59.038 61.718-6.923 7.863-8.663 18.626-5.17 27.954-6.996 12.943-13.704 31.717-11.733 54.184-7.248 4.05-12.162 11.797-12.162 20.673 0 13.051 10.618 23.668 23.669 23.668 9.478 0 17.668-5.603 21.445-13.668 1.865.114 3.705.173 5.516.173 18.863 0 34.664-5.895 45.939-11.959 3.302 1.331 6.791 2.017 10.286 2.016 6.541 0 13.077-2.323 18.316-6.936 26.569-23.401 52.157-48.404 76.13-74.339.041 0 .082.003.122.003 10.62 0 21.244-4.044 29.33-12.129l15.359-15.359c-1.277 39.995-3.523 80.337-6.705 120.189zm-192.589-16.586c-2.047-9.634-9.973-17.116-19.831-18.506-.989-14.527 2.337-27.226 6.657-37.203 14.842 17.688 31.242 34.115 48.913 48.99-9.607 4.157-21.797 7.417-35.739 6.719zm-23.149-3.744c4.779 0 8.668 3.889 8.668 8.668s-3.889 8.668-8.668 8.668c-4.78 0-8.669-3.889-8.669-8.668s3.889-8.668 8.669-8.668zm289.823-188.456-93.347 93.346c-10.323 10.323-27.121 10.325-37.446 0-10.324-10.325-10.324-27.124 0-37.448l82.538-82.539c.001-.001.002-.002.004-.003l14.272-14.272 33.979 33.979c1.912 1.912 1.912 5.025 0 6.937z"/><path d="m204.13 164.023c4.143 0 7.5-3.358 7.5-7.5v-42.056c5.965-.034 14.382-.078 20.352-.093l20.374 28.961-26.581 37.732c-2.386 3.386-1.575 8.065 1.812 10.451 1.313.925 2.82 1.369 4.313 1.369 2.357 0 4.678-1.108 6.138-3.181l23.486-33.339 23.45 33.335c1.46 2.076 3.781 3.185 6.141 3.185 1.49 0 2.996-.443 4.309-1.366 3.388-2.383 4.202-7.062 1.818-10.45l-26.542-37.73 22.652-32.154c2.386-3.386 1.575-8.065-1.812-10.451-3.389-2.386-8.066-1.574-10.45 1.812l-19.557 27.762-12.703-18.058c15.881-5.325 27.342-20.142 27.342-37.553 0-21.874-18.078-39.669-40.299-39.669h-31.743c-1.993 0-3.904.793-5.312 2.205s-2.194 3.326-2.188 5.319c0 0 .016 5.051.034 11.266-.021.271-.034.529-.034.766v101.938c0 4.141 3.358 7.499 7.5 7.499zm31.741-113.993c13.713 0 25.299 11.297 25.299 24.669s-11.586 24.669-25.299 24.669c-5.528 0-16.612.056-24.063.098-.042-7.636-.1-19.13-.1-24.767 0-4.742-.033-16.735-.057-24.669z"/><path d="m55.29 235.672h187.554c4.143 0 7.5-3.358 7.5-7.5s-3.357-7.5-7.5-7.5h-187.554c-4.143 0-7.5 3.358-7.5 7.5s3.358 7.5 7.5 7.5z"/><path d="m55.29 278.456h144.988c4.143 0 7.5-3.358 7.5-7.5s-3.357-7.5-7.5-7.5h-144.988c-4.143 0-7.5 3.358-7.5 7.5s3.358 7.5 7.5 7.5z"/><path d="m127.12 440.149h-71.83c-4.143 0-7.5 3.358-7.5 7.5s3.357 7.5 7.5 7.5h71.829c4.143 0 7.5-3.358 7.5-7.5s-3.357-7.5-7.499-7.5z"/></g></g></svg>