<svg id="Capa_1" enable-background="new 0 0 511.945 511.945" height="512" viewBox="0 0 511.945 511.945" width="512" xmlns="http://www.w3.org/2000/svg"><g><g><path d="m388.673 498.624c-88.467 7.799-176.934 7.799-265.401 0-37.692-3.323-67.386-33.704-69.916-71.458-7.65-114.129-7.65-228.257 0-342.386 2.531-37.754 32.224-68.135 69.916-71.458 88.467-7.799 176.934-7.799 265.401 0 37.692 3.323 67.386 33.704 69.916 71.458 7.65 114.129 7.65 228.257 0 342.386-2.53 37.753-32.224 68.135-69.916 71.458z" fill="#f5f0f0"/><path d="m118.24 498.013c-35.28-5.47-62.46-34.8-64.88-70.85-7.65-114.13-7.65-228.26 0-342.39 2.42-36.05 29.59-65.37 64.86-70.84-24.39 12.32-41.48 36.86-43.4 65.51-7.89 117.68-7.89 235.37 0 353.05 1.92 28.66 19.02 53.2 43.42 65.52z" fill="#e8ded8"/><g><g><g><path d="m162.862 56.106 16.626 39.82-16.626 40.67c-12.45 0-24.91-.18-37.36-.56-21.26-.65-38.38-18.03-38.42-39.3v-.76c.04-21.28 17.16-38.65 38.42-39.3 12.45-.38 24.91-.57 37.36-.57z" fill="#dd636e"/><path d="m238.64 95.965v.77c-.05 21.27-17.16 38.65-38.42 39.29-12.45.38-24.91.57-37.36.57v-80.49c12.45 0 24.91.19 37.36.57 21.26.64 38.37 18.02 38.42 39.29z" fill="#ffd064"/><path d="m162.862 136.599c-12.452 0-24.905-.19-37.36-.57-21.26-.64-38.38-18.02-38.42-39.29v-.27c.04 6.63 17.16 12.05 38.42 12.25 12.454.115 29.906.172 42.358.172" fill="#da4a54"/><path d="m238.638 96.471v.27c-.05 21.27-17.16 38.65-38.42 39.29-12.45.38-24.91.57-37.36.57v-27.71c12.45 0 24.91-.05 37.36-.17 21.261-.2 38.37-5.62 38.42-12.25z" fill="#ebb044"/></g><g><path d="m162.862 162.519 16.626 39.82-16.626 40.67c-12.45 0-24.91-.18-37.36-.56-21.26-.65-38.38-18.03-38.42-39.3v-.76c.04-21.28 17.16-38.65 38.42-39.3 12.45-.38 24.91-.57 37.36-.57z" fill="#dd636e"/><path d="m238.64 202.378v.77c-.05 21.27-17.16 38.65-38.42 39.29-12.45.38-24.91.57-37.36.57v-80.49c12.45 0 24.91.19 37.36.57 21.26.64 38.37 18.02 38.42 39.29z" fill="#ffd064"/><path d="m162.862 243.012c-12.452 0-24.905-.19-37.36-.57-21.26-.64-38.38-18.02-38.42-39.29v-.27c.04 6.63 17.16 12.05 38.42 12.25 12.454.115 29.906.172 42.358.172" fill="#da4a54"/><path d="m238.638 202.884v.27c-.05 21.27-17.16 38.65-38.42 39.29-12.45.38-24.91.57-37.36.57v-27.71c12.45 0 24.91-.05 37.36-.17 21.261-.2 38.37-5.62 38.42-12.25z" fill="#ebb044"/></g><g><path d="m162.862 268.932 16.626 39.82-16.626 40.67c-12.45 0-24.91-.18-37.36-.56-21.26-.65-38.38-18.03-38.42-39.3v-.76c.04-21.28 17.16-38.65 38.42-39.3 12.45-.38 24.91-.57 37.36-.57z" fill="#dd636e"/><path d="m238.64 308.791v.77c-.05 21.27-17.16 38.65-38.42 39.29-12.45.38-24.91.57-37.36.57v-80.49c12.45 0 24.91.19 37.36.57 21.26.64 38.37 18.02 38.42 39.29z" fill="#ffd064"/><path d="m162.862 349.425c-12.452 0-24.905-.19-37.36-.57-21.26-.64-38.38-18.02-38.42-39.29v-.27c.04 6.63 17.16 12.05 38.42 12.25 12.454.115 29.906.172 42.358.172" fill="#da4a54"/><path d="m238.638 309.297v.27c-.05 21.27-17.16 38.65-38.42 39.29-12.45.38-24.91.57-37.36.57v-27.71c12.45 0 24.91-.05 37.36-.17 21.261-.2 38.37-5.62 38.42-12.25z" fill="#ebb044"/></g><g><path d="m162.862 375.345 16.626 39.82-16.626 40.67c-12.45 0-24.91-.18-37.36-.56-21.26-.65-38.38-18.03-38.42-39.3v-.76c.04-21.28 17.16-38.65 38.42-39.3 12.45-.38 24.91-.57 37.36-.57z" fill="#dd636e"/><path d="m238.64 415.204v.77c-.05 21.27-17.16 38.65-38.42 39.29-12.45.38-24.91.57-37.36.57v-80.49c12.45 0 24.91.19 37.36.57 21.26.64 38.37 18.02 38.42 39.29z" fill="#ffd064"/><path d="m162.862 455.838c-12.452 0-24.905-.19-37.36-.57-21.26-.64-38.38-18.02-38.42-39.29v-.27c.04 6.63 17.16 12.05 38.42 12.25 12.454.115 29.906.172 42.358.172" fill="#da4a54"/><path d="m238.638 415.711v.27c-.05 21.27-17.16 38.65-38.42 39.29-12.45.38-24.91.57-37.36.57v-27.71c12.45 0 24.91-.05 37.36-.17 21.261-.2 38.37-5.62 38.42-12.25z" fill="#ebb044"/></g></g><g><g><path d="m349.085 56.106 16.626 39.82-16.626 40.67c-12.45 0-24.91-.18-37.36-.56-21.26-.65-38.38-18.03-38.42-39.3v-.76c.04-21.28 17.16-38.65 38.42-39.3 12.45-.38 24.91-.57 37.36-.57z" fill="#dd636e"/><path d="m424.863 95.965v.77c-.05 21.27-17.16 38.65-38.42 39.29-12.45.38-24.91.57-37.36.57v-80.49c12.45 0 24.91.19 37.36.57 21.26.64 38.37 18.02 38.42 39.29z" fill="#ffd064"/><path d="m349.085 136.599c-12.452 0-24.905-.19-37.36-.57-21.26-.64-38.38-18.02-38.42-39.29v-.27c.04 6.63 17.16 12.05 38.42 12.25 12.454.115 29.906.172 42.358.172" fill="#da4a54"/><path d="m424.861 96.471v.27c-.05 21.27-17.16 38.65-38.42 39.29-12.45.38-24.91.57-37.36.57v-27.71c12.45 0 24.91-.05 37.36-.17 21.261-.2 38.37-5.62 38.42-12.25z" fill="#ebb044"/></g><g><path d="m349.085 162.519 16.626 39.82-16.626 40.67c-12.45 0-24.91-.18-37.36-.56-21.26-.65-38.38-18.03-38.42-39.3v-.76c.04-21.28 17.16-38.65 38.42-39.3 12.45-.38 24.91-.57 37.36-.57z" fill="#dd636e"/><path d="m424.863 202.378v.77c-.05 21.27-17.16 38.65-38.42 39.29-12.45.38-24.91.57-37.36.57v-80.49c12.45 0 24.91.19 37.36.57 21.26.64 38.37 18.02 38.42 39.29z" fill="#ffd064"/><path d="m349.085 243.012c-12.452 0-24.905-.19-37.36-.57-21.26-.64-38.38-18.02-38.42-39.29v-.27c.04 6.63 17.16 12.05 38.42 12.25 12.454.115 29.906.172 42.358.172" fill="#da4a54"/><path d="m424.861 202.884v.27c-.05 21.27-17.16 38.65-38.42 39.29-12.45.38-24.91.57-37.36.57v-27.71c12.45 0 24.91-.05 37.36-.17 21.261-.2 38.37-5.62 38.42-12.25z" fill="#ebb044"/></g><g><path d="m349.085 268.932 16.626 39.82-16.626 40.67c-12.45 0-24.91-.18-37.36-.56-21.26-.65-38.38-18.03-38.42-39.3v-.76c.04-21.28 17.16-38.65 38.42-39.3 12.45-.38 24.91-.57 37.36-.57z" fill="#dd636e"/><path d="m424.863 308.791v.77c-.05 21.27-17.16 38.65-38.42 39.29-12.45.38-24.91.57-37.36.57v-80.49c12.45 0 24.91.19 37.36.57 21.26.64 38.37 18.02 38.42 39.29z" fill="#ffd064"/><path d="m349.085 349.425c-12.452 0-24.905-.19-37.36-.57-21.26-.64-38.38-18.02-38.42-39.29v-.27c.04 6.63 17.16 12.05 38.42 12.25 12.454.115 29.906.172 42.358.172" fill="#da4a54"/><path d="m424.861 309.297v.27c-.05 21.27-17.16 38.65-38.42 39.29-12.45.38-24.91.57-37.36.57v-27.71c12.45 0 24.91-.05 37.36-.17 21.261-.2 38.37-5.62 38.42-12.25z" fill="#ebb044"/></g><g><path d="m349.085 375.345 16.626 39.82-16.626 40.67c-12.45 0-24.91-.18-37.36-.56-21.26-.65-38.38-18.03-38.42-39.3v-.76c.04-21.28 17.16-38.65 38.42-39.3 12.45-.38 24.91-.57 37.36-.57z" fill="#dd636e"/><path d="m424.863 415.204v.77c-.05 21.27-17.16 38.65-38.42 39.29-12.45.38-24.91.57-37.36.57v-80.49c12.45 0 24.91.19 37.36.57 21.26.64 38.37 18.02 38.42 39.29z" fill="#ffd064"/><path d="m349.085 455.838c-12.452 0-24.905-.19-37.36-.57-21.26-.64-38.38-18.02-38.42-39.29v-.27c.04 6.63 17.16 12.05 38.42 12.25 12.454.115 29.906.172 42.358.172" fill="#da4a54"/><path d="m424.861 415.711v.27c-.05 21.27-17.16 38.65-38.42 39.29-12.45.38-24.91.57-37.36.57v-27.71c12.45 0 24.91-.05 37.36-.17 21.261-.2 38.37-5.62 38.42-12.25z" fill="#ebb044"/></g></g></g></g><g><path d="m466.073 84.278c-1.344-20.045-9.83-39.004-23.895-53.383-14.071-14.386-32.84-23.281-52.848-25.044-88.49-7.801-178.227-7.801-266.717 0-20.008 1.764-38.776 10.658-52.848 25.044-14.063 14.379-22.549 33.338-23.893 53.383-7.636 113.928-7.636 229.461 0 343.389 1.344 20.045 9.83 39.004 23.895 53.383 14.071 14.386 32.84 23.281 52.848 25.044 44.245 3.9 88.802 5.851 133.358 5.851s89.113-1.95 133.358-5.851c20.008-1.764 38.776-10.658 52.848-25.044 14.064-14.379 22.551-33.338 23.895-53.383 7.635-113.928 7.635-229.461-.001-343.389zm-14.967 342.386c-1.104 16.482-8.084 32.072-19.651 43.898-11.569 11.829-26.997 19.141-43.44 20.591-87.617 7.724-176.467 7.724-264.084 0-16.443-1.45-31.871-8.762-43.44-20.591-11.567-11.826-18.547-27.416-19.651-43.898-7.592-113.263-7.592-228.121 0-341.383 1.103-16.481 8.083-32.072 19.65-43.898 11.569-11.829 26.997-19.141 43.44-20.591 87.617-7.724 176.467-7.724 264.084 0 16.443 1.45 31.871 8.762 43.44 20.591 11.567 11.826 18.547 27.416 19.651 43.898 7.593 113.263 7.593 228.121.001 341.383z"/><path d="m125.276 143.528c12.47.379 25.027.568 37.585.568s25.115-.189 37.585-.568c12.243-.372 23.713-5.401 32.297-14.161 8.613-8.791 13.371-20.374 13.396-32.604v-.807c-.025-12.243-4.783-23.826-13.396-32.617-8.584-8.76-20.054-13.789-32.297-14.161-24.939-.758-50.23-.758-75.17 0-12.243.372-23.713 5.401-32.297 14.161-8.614 8.79-13.372 20.374-13.397 32.632v.778c.025 12.243 4.783 23.827 13.397 32.617 8.584 8.761 20.054 13.79 32.297 14.162zm105.864-47.528v.719c-.035 17.022-14.009 31.295-31.148 31.815-9.836.299-19.727.473-29.629.533v-65.428c9.902.06 19.793.234 29.629.533 17.139.521 31.112 14.793 31.148 31.828zm-136.558-.013c.035-17.022 14.009-31.294 31.149-31.815 9.837-.299 19.729-.473 29.631-.533v65.429c-9.902-.06-19.794-.234-29.631-.533-17.141-.521-31.114-14.793-31.149-31.8z"/><path d="m125.276 249.941c12.47.379 25.027.568 37.585.568s25.115-.189 37.585-.568c12.243-.372 23.713-5.401 32.297-14.161 8.613-8.79 13.371-20.374 13.396-32.603v-.807c-.025-12.243-4.783-23.826-13.396-32.617-8.584-8.76-20.054-13.789-32.297-14.161-24.939-.758-50.23-.758-75.17 0-12.243.372-23.714 5.401-32.297 14.161-8.614 8.79-13.372 20.374-13.397 32.632v.778c.025 12.243 4.783 23.826 13.397 32.617 8.584 8.76 20.054 13.789 32.297 14.161zm105.864-47.527v.719c-.035 17.022-14.009 31.294-31.148 31.815-9.836.299-19.727.473-29.629.533v-65.429c9.902.06 19.793.234 29.629.533 17.139.521 31.112 14.793 31.148 31.829zm-136.558-.014c.035-17.022 14.009-31.295 31.149-31.815 9.837-.299 19.729-.473 29.631-.533v65.429c-9.902-.06-19.794-.234-29.631-.533-17.141-.521-31.114-14.793-31.149-31.8z"/><path d="m125.276 356.354c12.47.379 25.027.568 37.585.568s25.115-.189 37.585-.568c12.243-.372 23.713-5.401 32.297-14.161 8.613-8.79 13.371-20.374 13.396-32.603v-.807c-.025-12.243-4.783-23.826-13.396-32.617-8.584-8.76-20.054-13.789-32.297-14.161-24.939-.757-50.23-.757-75.17 0-12.243.372-23.714 5.401-32.297 14.161-8.614 8.79-13.372 20.374-13.397 32.632v.778c.025 12.243 4.783 23.826 13.397 32.617 8.584 8.76 20.054 13.789 32.297 14.161zm105.864-47.527v.719c-.035 17.022-14.009 31.294-31.148 31.815-9.836.299-19.727.473-29.629.533v-65.429c9.902.06 19.793.234 29.629.533 17.139.521 31.112 14.793 31.148 31.829zm-136.558-.014c.035-17.022 14.009-31.295 31.149-31.815 9.837-.299 19.729-.473 29.631-.533v65.429c-9.902-.06-19.794-.234-29.631-.533-17.141-.521-31.114-14.793-31.149-31.8z"/><path d="m200.448 368.416c-24.939-.751-50.232-.751-75.176 0-1.532.047-3.068.167-4.566.355-4.109.517-7.022 4.268-6.505 8.378.518 4.11 4.28 7.022 8.378 6.505 1.031-.13 2.093-.212 3.149-.245 9.837-.296 19.73-.469 29.634-.528v65.423c-9.903-.06-19.795-.232-29.63-.528-17.144-.524-31.117-14.798-31.149-31.803v-.744c.016-7.385 2.511-14.317 7.216-20.045 2.629-3.201 2.165-7.927-1.035-10.556-3.199-2.628-7.926-2.166-10.557 1.035-6.828 8.314-10.602 18.803-10.624 29.55v.774c.023 12.242 4.78 23.825 13.396 32.617 8.583 8.76 20.053 13.791 32.299 14.165 12.47.375 25.026.563 37.584.563 12.559 0 25.119-.188 37.591-.563 12.241-.375 23.709-5.405 32.292-14.166 8.611-8.79 13.37-20.372 13.398-32.631v-.778c-.028-12.241-4.787-23.823-13.398-32.614-8.584-8.759-20.052-13.789-32.297-14.164zm30.695 47.539c-.04 17.022-14.014 31.297-31.146 31.821-9.838.296-19.731.468-29.635.528v-65.423c9.903.06 19.795.232 29.631.528 17.136.524 31.109 14.799 31.149 31.803v.743z"/><path d="m311.493 143.529c12.429.381 24.964.571 37.473.571 7.562 0 15.115-.07 22.627-.209 4.142-.077 7.436-3.497 7.359-7.638s-3.473-7.431-7.639-7.359c-4.895.091-9.807.151-14.729.182v-65.435c9.902.06 19.793.232 29.628.528 17.144.524 31.117 14.798 31.149 31.803v.746c-.023 12.615-7.59 24.06-19.278 29.159-3.797 1.656-5.531 6.077-3.875 9.873s6.074 5.532 9.873 3.875c17.146-7.48 28.246-24.312 28.28-42.894v-.774c-.023-12.242-4.78-23.825-13.396-32.617-8.583-8.76-20.053-13.791-32.299-14.165-24.94-.751-50.232-.751-75.175 0-12.241.375-23.709 5.405-32.292 14.166-8.611 8.79-13.37 20.372-13.398 32.631v.778c.028 12.241 4.787 23.823 13.398 32.614 8.585 8.76 20.053 13.791 32.294 14.165zm-30.69-47.539c.04-17.022 14.014-31.297 31.146-31.821 9.838-.296 19.732-.469 29.637-.528v65.437c-9.9-.06-19.801-.241-29.633-.542-17.136-.524-31.109-14.799-31.149-31.803v-.743z"/><path d="m386.669 155.592c-24.938-.758-50.229-.757-75.17 0-12.243.372-23.713 5.401-32.297 14.161-8.613 8.791-13.371 20.374-13.396 32.604v.807c.025 12.243 4.783 23.826 13.396 32.617 8.584 8.76 20.054 13.789 32.297 14.161 12.47.379 25.027.568 37.585.568s25.115-.189 37.585-.568c12.243-.372 23.713-5.401 32.297-14.161 8.614-8.79 13.372-20.374 13.397-32.632v-.778c-.025-12.243-4.783-23.827-13.397-32.617-8.583-8.761-20.054-13.79-32.297-14.162zm-105.863 47.527v-.719c.035-17.022 14.009-31.295 31.148-31.815 9.837-.299 19.729-.473 29.631-.533v65.429c-9.902-.06-19.794-.234-29.631-.533-17.14-.521-31.113-14.793-31.148-31.829zm136.557.014c-.035 17.022-14.009 31.294-31.149 31.815-9.836.299-19.727.473-29.629.533v-65.429c9.902.06 19.793.234 29.629.533 17.141.521 31.114 14.793 31.149 31.8z"/><path d="m386.669 262.005c-24.939-.757-50.23-.757-75.17 0-12.243.372-23.713 5.401-32.297 14.161-8.613 8.791-13.371 20.374-13.396 32.604v.807c.025 12.243 4.783 23.826 13.396 32.617 8.584 8.76 20.054 13.789 32.297 14.161 12.47.379 25.027.568 37.585.568s25.115-.189 37.585-.568c12.243-.372 23.713-5.401 32.297-14.161 8.614-8.79 13.372-20.374 13.397-32.632v-.778c-.025-12.243-4.783-23.827-13.397-32.617-8.583-8.761-20.054-13.79-32.297-14.162zm-105.863 47.527v-.719c.035-17.022 14.009-31.295 31.148-31.815 9.837-.299 19.729-.473 29.631-.533v65.429c-9.902-.06-19.794-.234-29.631-.533-17.14-.521-31.113-14.793-31.148-31.829zm136.557.014c-.035 17.022-14.009 31.294-31.149 31.815-9.836.299-19.727.473-29.629.533v-65.429c9.902.06 19.793.234 29.629.533 17.141.521 31.114 14.793 31.149 31.8z"/><path d="m386.669 368.418c-24.939-.757-50.23-.757-75.17 0-12.243.372-23.713 5.401-32.297 14.161-8.613 8.791-13.371 20.374-13.396 32.604v.807c.025 12.243 4.783 23.826 13.396 32.617 8.584 8.76 20.054 13.789 32.297 14.161 12.47.379 25.027.568 37.585.568s25.115-.189 37.585-.568c12.243-.372 23.713-5.401 32.297-14.161 8.614-8.79 13.372-20.374 13.397-32.632v-.778c-.025-12.243-4.783-23.826-13.397-32.617-8.583-8.761-20.054-13.79-32.297-14.162zm-105.863 47.527v-.719c.035-17.022 14.009-31.294 31.148-31.815 9.837-.299 19.729-.473 29.631-.533v65.429c-9.902-.06-19.794-.234-29.631-.533-17.14-.521-31.113-14.793-31.148-31.829zm136.557.014c-.035 17.022-14.009 31.294-31.149 31.815-9.836.299-19.727.473-29.629.533v-65.429c9.902.06 19.793.234 29.629.533 17.141.521 31.114 14.793 31.149 31.8z"/></g></g></svg>