<svg id="Capa_1" enable-background="new 0 0 512 512" height="512" viewBox="0 0 512 512" width="512" xmlns="http://www.w3.org/2000/svg"><g><g><path d="m48.088 326.987c-4.78-47.324-4.78-94.649 0-141.974 3.13-30.987 28.508-55.034 59.614-56.606 98.865-4.996 197.73-4.996 296.595 0 31.105 1.572 56.484 25.619 59.614 56.606 4.78 47.325 4.78 94.649 0 141.974-3.13 30.987-28.508 55.034-59.614 56.606-98.865 4.996-197.73 4.996-296.595 0-31.106-1.572-56.485-25.619-59.614-56.606z" fill="#e8ded8"/><path d="m386.059 293.018c6.084 20.378 11.014 42.348 14.987 63.84 13.502 73.049-39.987 141.633-114.109 146.57-10.223.681-20.597 1.072-30.938 1.072s-20.715-.392-30.938-1.072c-74.122-4.936-127.611-73.521-114.109-146.57 3.972-21.492 8.902-43.462 14.987-63.84 7.216-24.169 7.216-49.866 0-74.035-6.084-20.378-11.014-42.348-14.987-63.84-13.502-73.05 39.987-141.634 114.109-146.571 10.223-.68 20.597-1.072 30.938-1.072s20.715.392 30.938 1.072c74.122 4.936 127.611 73.521 114.109 146.57-3.972 21.492-8.902 43.462-14.987 63.84-7.216 24.169-7.216 49.867 0 74.036z" fill="#f5f0f0"/><path d="m255.998 464.5c-8.96 0-18.475-.331-28.28-.984-24.007-1.599-46.266-13.438-61.068-32.481-14.968-19.256-20.779-43.017-16.363-66.907 4.132-22.358 8.835-42.433 13.98-59.668 9.466-31.703 9.466-65.218 0-96.921-5.146-17.234-9.849-37.309-13.98-59.666-4.416-23.892 1.396-47.653 16.363-66.909 14.803-19.043 37.062-30.882 61.069-32.481 9.805-.653 19.319-.984 28.279-.984 8.961 0 18.476.331 28.281.984 24.007 1.599 46.266 13.438 61.068 32.481 14.968 19.256 20.779 43.017 16.363 66.907-4.134 22.366-8.838 42.441-13.98 59.667-9.466 31.703-9.466 65.218 0 96.921 5.143 17.226 9.847 37.301 13.98 59.667 4.416 23.89-1.396 47.651-16.363 66.907-14.803 19.043-37.062 30.882-61.069 32.481-9.804.655-19.319.986-28.28.986z" fill="#e8ded8"/><path d="m230.217 463.68c-.83-.05-1.66-.1-2.5-.16-24.01-1.6-46.26-13.44-61.07-32.48-14.96-19.26-20.78-43.02-16.36-66.91 4.13-22.36 8.84-42.43 13.98-59.67 9.47-31.7 9.47-65.22 0-96.92-5.14-17.24-9.85-37.31-13.98-59.67-4.42-23.89 1.4-47.65 16.36-66.91 14.81-19.04 37.06-30.88 61.07-32.48.84-.06 1.67-.11 2.5-.16-13.03 5.8-24.6 14.77-33.54 26.28-15.51 19.96-21.54 44.58-16.96 69.34 4.28 23.17 9.16 43.98 14.49 61.84 9.81 32.85 9.81 67.59 0 100.44-5.33 17.86-10.21 38.67-14.49 61.84-4.58 24.76 1.45 49.38 16.96 69.34 8.94 11.51 20.51 20.48 33.54 26.28z" fill="#d8cec9"/></g><g><path d="m471.371 184.256c-.715-7.077-2.482-13.959-5.254-20.458-1.623-3.809-6.025-5.582-9.841-3.957-3.81 1.625-5.581 6.031-3.956 9.841 2.176 5.104 3.564 10.514 4.127 16.081 4.707 46.606 4.707 93.868 0 140.473-1.333 13.191-7.376 25.494-17.017 34.642-8.023 7.613-18.108 12.623-28.898 14.478-.199-6.625-.893-13.263-2.113-19.861-4.439-24.022-9.545-45.765-15.175-64.623-6.812-22.813-6.812-46.931 0-69.744 5.63-18.858 10.735-40.601 15.175-64.623 1.221-6.604 1.914-13.249 2.113-19.879 9.591 1.628 18.513 5.721 26.104 12.024 1.4 1.163 3.099 1.729 4.787 1.729 2.153 0 4.291-.923 5.774-2.709 2.646-3.187 2.207-7.916-.979-10.562-10.413-8.646-22.8-14.015-36.11-15.704-2.163-25.079-11.5-49.317-27.26-69.592-23.115-29.737-57.893-48.225-95.415-50.724-10.849-.722-21.425-1.088-31.434-1.088s-20.586.366-31.437 1.089c-37.522 2.499-72.3 20.987-95.415 50.724-15.763 20.278-25.101 44.522-27.261 69.606-14.821 1.906-28.733 8.47-39.642 18.821-12.245 11.62-19.922 27.251-21.615 44.015-4.809 47.606-4.809 95.882 0 143.488 1.693 16.764 9.37 32.395 21.615 44.015 10.907 10.35 24.816 16.913 39.642 18.821 2.161 25.084 11.499 49.328 27.261 69.607 23.115 29.737 57.893 48.225 95.415 50.724 10.851.723 21.428 1.089 31.437 1.089s20.585-.366 31.436-1.089c37.522-2.499 72.3-20.987 95.415-50.724 15.763-20.278 25.101-44.522 27.261-69.606 14.822-1.906 28.735-8.469 39.645-18.821 12.245-11.62 19.922-27.251 21.615-44.015 4.809-47.606 4.809-95.882 0-143.488zm-415.818 141.981c-4.707-46.606-4.707-93.868 0-140.473 1.333-13.191 7.376-25.494 17.017-34.642 8.021-7.611 18.104-12.621 28.895-14.477.2 6.624.893 13.263 2.113 19.86 4.441 24.031 9.548 45.774 15.175 64.623 6.812 22.813 6.812 46.931 0 69.744-5.627 18.849-10.733 40.591-15.175 64.623-1.219 6.597-1.913 13.236-2.113 19.86-10.796-1.857-20.876-6.866-28.895-14.476-9.641-9.149-15.684-21.452-17.017-34.642zm315.454 124.744c-20.49 26.36-51.314 42.749-84.568 44.963-10.521.701-20.762 1.056-30.439 1.056s-19.92-.355-30.44-1.056c-33.254-2.215-64.078-18.603-84.568-44.963-20.438-26.293-28.699-60.103-22.663-92.76 4.345-23.506 9.323-44.722 14.798-63.058 7.649-25.621 7.649-52.706 0-78.326-5.475-18.336-10.453-39.552-14.798-63.058-6.036-32.657 2.225-66.466 22.663-92.76 20.49-26.36 51.314-42.749 84.568-44.963 10.519-.701 20.761-1.056 30.439-1.056s19.919.355 30.439 1.056c33.254 2.215 64.078 18.603 84.568 44.963 20.438 26.293 28.699 60.103 22.663 92.76-4.342 23.496-9.32 44.712-14.798 63.058-7.649 25.621-7.649 52.706 0 78.326 5.478 18.346 10.456 39.562 14.798 63.058 6.037 32.657-2.224 66.467-22.662 92.76z"/><path d="m369.084 149.234c4.814-26.023-1.512-51.904-17.813-72.877-16.113-20.729-40.35-33.618-66.495-35.36-9.981-.662-19.663-.997-28.777-.997-9.125 0-18.807.335-28.779.997-26.143 1.742-50.379 14.631-66.492 35.361-16.302 20.973-22.628 46.854-17.813 72.875 4.181 22.635 8.947 42.975 14.168 60.453 9.043 30.299 9.043 62.331 0 92.628-5.221 17.479-9.987 37.819-14.168 60.452-3.799 20.527-.701 40.999 8.96 59.201 1.941 3.658 6.481 5.049 10.141 3.108 3.659-1.941 5.051-6.482 3.109-10.141-8.058-15.181-10.637-32.276-7.46-49.442 4.084-22.108 8.724-41.92 13.791-58.887 9.881-33.106 9.881-68.104 0-101.211-5.067-16.965-9.707-36.777-13.791-58.888-4.024-21.754 1.27-43.398 14.907-60.943 13.488-17.353 33.771-28.141 55.644-29.599 9.639-.64 18.988-.964 27.783-.964 8.785 0 18.133.324 27.781.963 21.876 1.458 42.158 12.247 55.646 29.599 13.638 17.545 18.932 39.189 14.907 60.946-4.068 22.034-8.708 41.846-13.791 58.887-9.881 33.106-9.881 68.104-.001 101.209 5.084 17.042 9.724 36.854 13.792 58.89 4.024 21.754-1.27 43.398-14.907 60.943-13.488 17.353-33.771 28.141-55.644 29.599-9.651.639-18.999.963-27.784.963-8.795 0-18.144-.324-27.78-.963-17.112-1.145-33.566-8.105-46.331-19.6-3.076-2.77-7.819-2.523-10.592.554-2.771 3.078-2.523 7.82.555 10.592 15.252 13.735 34.915 22.052 55.372 23.42 9.97.661 19.651.997 28.776.997 9.114 0 18.796-.335 28.779-.997 26.143-1.742 50.379-14.631 66.492-35.361 16.302-20.973 22.628-46.854 17.813-72.875-4.164-22.559-8.932-42.898-14.168-60.453-9.043-30.299-9.043-62.331.001-92.631 5.237-17.552 10.005-37.891 14.169-60.448z"/><path d="m210.447 156.566c4.143 0 7.5-3.358 7.5-7.5v-21.572c0-4.142-3.357-7.5-7.5-7.5s-7.5 3.358-7.5 7.5v21.572c0 4.142 3.358 7.5 7.5 7.5z"/><path d="m301.55 156.566c4.143 0 7.5-3.358 7.5-7.5v-21.572c0-4.142-3.357-7.5-7.5-7.5s-7.5 3.358-7.5 7.5v21.572c0 4.142 3.357 7.5 7.5 7.5z"/><path d="m202.947 266.786c0 4.142 3.357 7.5 7.5 7.5s7.5-3.358 7.5-7.5v-21.571c0-4.142-3.357-7.5-7.5-7.5s-7.5 3.358-7.5 7.5z"/><path d="m294.05 266.786c0 4.142 3.357 7.5 7.5 7.5s7.5-3.358 7.5-7.5v-21.571c0-4.142-3.357-7.5-7.5-7.5s-7.5 3.358-7.5 7.5z"/><path d="m255.999 215.426c4.143 0 7.5-3.358 7.5-7.5v-21.572c0-4.142-3.357-7.5-7.5-7.5s-7.5 3.358-7.5 7.5v21.572c0 4.142 3.357 7.5 7.5 7.5z"/><path d="m202.947 384.505c0 4.142 3.357 7.5 7.5 7.5s7.5-3.358 7.5-7.5v-21.572c0-4.142-3.357-7.5-7.5-7.5s-7.5 3.358-7.5 7.5z"/><path d="m294.05 384.505c0 4.142 3.357 7.5 7.5 7.5s7.5-3.358 7.5-7.5v-21.572c0-4.142-3.357-7.5-7.5-7.5s-7.5 3.358-7.5 7.5z"/><path d="m248.499 325.646c0 4.142 3.357 7.5 7.5 7.5s7.5-3.358 7.5-7.5v-21.572c0-4.142-3.357-7.5-7.5-7.5s-7.5 3.358-7.5 7.5z"/></g></g></svg>