<svg id="Capa_1" enable-background="new 0 0 512 512" height="512" viewBox="0 0 512 512" width="512" xmlns="http://www.w3.org/2000/svg"><g><g><g><path d="m364.568 180.205h-217.136c-11.575 0-20.959-9.383-20.959-20.959v-81.554c0-35.012 28.485-63.496 63.497-63.496h132.06c35.012 0 63.497 28.484 63.497 63.496v81.554c0 11.576-9.383 20.959-20.959 20.959zm-196.177-41.917h175.219v-60.596c0-11.898-9.68-21.578-21.579-21.578h-132.061c-11.899 0-21.579 9.68-21.579 21.578z" fill="#365e7d"/><g fill="#2b4d66"><path d="m365.662 138.288v-60.596c0-11.898-9.68-21.578-21.579-21.578h-21.85c11.899 0 21.579 9.68 21.579 21.578v60.595h21.85z"/><path d="m148.525 159.246v-81.554c0-35.012 28.485-63.496 63.497-63.496h-21.85c-35.012 0-63.497 28.484-63.497 63.496v81.554c0 11.575 9.383 20.959 20.959 20.959h21.85c-11.575 0-20.959-9.383-20.959-20.959z"/></g><path d="m488.727 340.218c-.849 37.611-3.081 75.211-6.696 112.821-2.054 21.409-19.439 38.092-40.901 39.35-123.416 7.241-246.842 7.241-370.258 0-21.462-1.257-38.847-17.941-40.901-39.35-3.616-37.6-5.848-75.211-6.696-112.821-.566-24.857-.524-49.714.115-74.571l465.369 6.382c.491 22.73.491 45.459-.032 68.189z" fill="#f5f0f0"/><path d="m128.246 495.229c-19.125-.775-38.25-1.719-57.375-2.84-21.462-1.257-38.847-17.941-40.901-39.35-3.615-37.6-5.848-75.211-6.696-112.821-.566-24.857-.524-49.714.115-74.571l65.172.891c-.629 25.025-.66 50.039-.094 75.075.859 38.302 3.133 76.615 6.822 114.917 1.801 18.83 15.247 34.067 32.957 38.699z" fill="#e8ded8"/><path d="m488.727 340.218c-10.71 11.642-26.031 19.083-43.301 19.261-63.107.66-126.224.985-189.342.985h-.168c-63.117 0-126.235-.325-189.342-.985-17.27-.178-32.591-7.619-43.301-19.261-.566-24.857-.524-49.714.115-74.571l465.369 6.382c.493 22.73.493 45.459-.03 68.189z" fill="#e8ded8"/><path d="m255.916 326.837c-63.115 0-126.23-.328-189.345-.984-35.875-.373-63.393-32.136-58.506-67.678 4.616-33.571 10.586-67.287 17.723-101.139 4.592-21.784 23.273-37.749 45.503-38.948 123.14-6.64 246.28-6.64 369.42 0 22.23 1.199 40.911 17.164 45.503 38.948 7.136 33.851 13.107 67.568 17.722 101.139 4.887 35.542-22.632 67.305-58.506 67.678-63.115.656-126.23.984-189.345.984" fill="#dd636e"/><path d="m109.347 326.239c-14.262-.105-28.514-.241-42.777-.388-35.871-.367-63.39-32.13-58.507-67.676 4.611-33.576 10.584-67.288 17.721-101.137 4.59-21.786 23.275-37.747 45.502-38.952 10.249-.555 20.497-1.058 30.746-1.519-13.518 6.822-23.684 19.502-26.953 35.022-7.409 35.148-13.602 70.149-18.391 104.993-4.694 34.173 19.471 64.993 52.659 69.657z" fill="#da4a54"/></g><g><path d="m300.516 384.892c-5.425-.233-10.85-.421-16.274-.568-3.279-.089-5.908-2.718-5.997-5.997-.147-5.425-.335-10.85-.568-16.274-.121-2.806-2.131-5.207-4.887-5.751-11.193-2.209-22.385-2.209-33.578 0-2.756.544-4.766 2.944-4.887 5.751-.233 5.425-.421 10.85-.568 16.274-.089 3.279-2.718 5.908-5.997 5.997-5.425.147-10.85.335-16.274.568-2.806.121-5.207 2.131-5.751 4.887-2.209 11.193-2.209 22.385 0 33.578.544 2.756 2.944 4.766 5.751 4.887 5.425.233 10.85.421 16.274.568 3.279.089 5.908 2.718 5.997 5.997.147 5.425.335 10.85.568 16.274.121 2.806 2.131 5.207 4.887 5.751 11.193 2.209 22.385 2.209 33.578 0 2.756-.544 4.766-2.944 4.887-5.751.233-5.425.421-10.85.568-16.274.089-3.279 2.718-5.908 5.997-5.997 5.425-.147 10.85-.335 16.274-.568 2.806-.121 5.207-2.131 5.751-4.887 2.209-11.193 2.209-22.385 0-33.578-.544-2.756-2.945-4.766-5.751-4.887z" fill="#dd636e"/></g><g><g><path d="m435.219 322.86c-.014 11.165-.08 22.329-.183 33.494-.014 2.795-.044 5.597-.073 8.392-.132 12.284-10.111 22.19-22.388 22.227-10.711.037-21.422.037-32.133 0-12.277-.037-22.256-9.943-22.388-22.227-.029-2.795-.059-5.597-.073-8.392-.103-11.165-.168-22.329-.183-33.494 25.805.015 51.617.015 77.421 0z" fill="#ffd064"/><path d="m397.87 386.972c2.451.007 4.902.015 7.353.022-8.26.015-16.52.007-24.78-.022-12.277-.044-22.256-9.943-22.388-22.227-.146-13.967-.234-27.926-.256-41.893 5.802 0 11.611.007 17.42.007.022 13.967.11 27.919.256 41.885.132 12.285 10.111 22.184 22.395 22.228z" fill="#ebb044"/><path d="m435.219 322.86c-.014 11.165-.08 22.329-.183 33.494h-77.054c-.103-11.165-.168-22.329-.183-33.494 25.804.015 51.616.015 77.42 0z" fill="#ebb044"/><path d="m439.908 302.525h-86.797c-8.588 0-15.55 6.962-15.55 15.55v8.997c0 8.588 6.962 15.55 15.55 15.55h86.797c8.588 0 15.55-6.962 15.55-15.55v-8.997c0-8.588-6.962-15.55-15.55-15.55z" fill="#ffd064"/><path d="m384.811 342.625h-31.701c-8.589 0-15.547-6.965-15.547-15.554v-8.999c0-8.582 6.958-15.547 15.547-15.547h31.701c-8.589 0-15.547 6.965-15.547 15.547v8.999c0 8.589 6.957 15.554 15.547 15.554z" fill="#ebb044"/></g><g><path d="m154.201 322.86c-.014 11.165-.08 22.329-.183 33.494-.014 2.795-.044 5.597-.073 8.392-.132 12.284-10.111 22.19-22.388 22.227-10.711.037-21.422.037-32.133 0-12.277-.037-22.256-9.943-22.388-22.227-.029-2.795-.059-5.597-.073-8.392-.103-11.165-.168-22.329-.183-33.494 25.805.015 51.617.015 77.421 0z" fill="#ffd064"/><path d="m154.201 322.86c-.014 11.165-.08 22.329-.183 33.494h-77.054c-.103-11.165-.168-22.329-.183-33.494 25.804.015 51.616.015 77.42 0z" fill="#ebb044"/><path d="m116.852 386.972c2.451.007 4.902.015 7.353.022-8.26.015-16.52.007-24.78-.022-12.277-.044-22.256-9.943-22.388-22.227-.146-13.967-.234-27.926-.256-41.893 5.802 0 11.611.007 17.42.007.022 13.967.11 27.919.256 41.885.132 12.285 10.111 22.184 22.395 22.228z" fill="#ebb044"/><path d="m158.89 302.525h-86.798c-8.588 0-15.55 6.962-15.55 15.55v8.997c0 8.588 6.962 15.55 15.55 15.55h86.797c8.588 0 15.55-6.962 15.55-15.55v-8.997c.001-8.588-6.961-15.55-15.549-15.55z" fill="#ffd064"/><path d="m103.793 342.625h-31.702c-8.589 0-15.547-6.965-15.547-15.554v-8.999c0-8.582 6.958-15.547 15.547-15.547h31.701c-8.589 0-15.547 6.965-15.547 15.547v8.999c.001 8.589 6.958 15.554 15.548 15.554z" fill="#ebb044"/></g></g></g><g><path d="m511.369 257.156c-4.51-32.779-10.506-66.984-17.821-101.662-4.01-19.041-17.285-34.497-35.511-41.345-3.876-1.456-8.202.505-9.659 4.383-1.457 3.877.505 8.202 4.383 9.659 13.4 5.035 23.16 16.398 26.109 30.397 7.242 34.334 13.177 68.185 17.638 100.61 3.395 24.744-11.035 47.777-33.738 55.995-1.423-11.354-11.13-20.169-22.863-20.169h-86.796c-12.709 0-23.05 10.34-23.05 23.05v1.106c-24.042.104-48.884.157-73.98.157h-.16c-25.095 0-49.937-.053-73.979-.157v-1.106c0-12.71-10.34-23.05-23.05-23.05h-86.796c-11.734 0-21.441 8.815-22.864 20.169-22.701-8.217-37.132-31.25-33.738-55.993 4.461-32.428 10.396-66.279 17.638-100.615 3.879-18.418 19.738-31.99 38.564-33.006 117.368-6.328 236.357-6.586 353.66-.769 4.143.207 7.657-2.982 7.862-7.119s-2.982-7.657-7.119-7.862c-11.01-.546-22.039-1.021-33.076-1.46v-30.679c0-39.146-31.848-70.994-70.994-70.994h-132.06c-39.146 0-70.994 31.848-70.994 70.994v30.67c-16.053.638-32.087 1.378-48.088 2.241-25.596 1.382-47.157 19.842-52.433 44.891-7.315 34.681-13.311 68.886-17.822 101.667-2.661 19.402 3.194 37.982 14.769 51.947.113 48.044 2.492 96.69 7.105 144.645 2.418 25.248 22.575 44.645 47.923 46.121 3.567.21 7.124.411 10.691.611.143.008.285.012.427.012 3.949 0 7.257-3.087 7.481-7.08.232-4.136-2.932-7.676-7.068-7.909-3.553-.199-7.095-.399-10.654-.609-17.917-1.044-32.162-14.744-33.87-32.58-4.138-43.018-6.463-86.596-6.95-129.782 5.703 3.697 12.045 6.568 18.891 8.427 1.708 9.997 9.872 17.816 20.037 18.998.037 4.956.069 9.913.123 14.864.175 16.298 13.572 29.597 29.861 29.646 5.34.018 10.717.027 16.095.027 5.375 0 10.75-.009 16.086-.027 16.292-.049 29.69-13.348 29.864-29.645.054-4.952.086-9.909.122-14.865 9.047-1.052 16.51-7.361 19.247-15.785 24.393.107 49.618.161 75.105.161h.16c25.487 0 50.712-.055 75.105-.161 2.737 8.424 10.2 14.733 19.247 15.785.036 4.956.069 9.913.122 14.864.175 16.298 13.572 29.597 29.861 29.646 5.34.018 10.717.027 16.095.027 5.375 0 10.75-.009 16.086-.027 16.292-.049 29.69-13.348 29.864-29.644.054-4.952.086-9.909.122-14.865 10.165-1.182 18.329-9 20.037-18.998 6.746-1.843 13.102-4.723 18.892-8.507-.485 43.213-2.81 86.818-6.951 129.865-1.708 17.833-15.952 31.534-33.874 32.578-109.074 6.411-219.749 7.123-328.952 2.115-4.13-.188-7.646 3.011-7.836 7.149-.189 4.138 3.011 7.646 7.148 7.836 48.078 2.205 96.424 3.306 144.809 3.306 62.041 0 124.136-1.812 185.707-5.431 25.354-1.477 45.511-20.874 47.929-46.118 4.618-48.009 6.998-96.708 7.107-144.802.802-.971 1.587-1.96 2.34-2.982 10.403-14.115 14.817-31.449 12.434-48.816zm-335.474-150.582v-28.884c0-7.762 6.315-14.077 14.076-14.077h132.06c7.762 0 14.077 6.315 14.077 14.077v28.873c-53.333-1.236-106.837-1.226-160.213.011zm-41.917-28.884c0-30.875 25.119-55.994 55.994-55.994h132.06c30.875 0 55.994 25.119 55.994 55.994v30.107c-8.966-.317-17.939-.593-26.917-.84v-29.267c0-16.033-13.044-29.077-29.077-29.077h-132.06c-16.033 0-29.076 13.044-29.076 29.077v29.254c-8.978.247-17.95.534-26.918.851zm-2.443 301.78c-10.643.037-21.437.037-32.084 0-8.134-.024-14.823-6.667-14.91-14.808-.053-4.844-.084-9.693-.12-14.541h62.148c-.036 4.848-.067 9.698-.12 14.542-.087 8.141-6.776 14.783-14.914 14.807zm35.408-52.399c0 4.439-3.611 8.05-8.05 8.05h-86.797c-4.439 0-8.05-3.611-8.05-8.05v-8.997c0-4.439 3.611-8.05 8.05-8.05h86.796c4.439 0 8.05 3.611 8.05 8.05v8.997zm245.607 52.399c-10.643.037-21.437.037-32.084 0-8.134-.024-14.823-6.667-14.91-14.808-.053-4.844-.084-9.693-.12-14.541h62.148c-.036 4.848-.067 9.698-.12 14.542-.088 8.141-6.777 14.783-14.914 14.807zm35.408-52.399c0 4.439-3.611 8.05-8.05 8.05h-86.796c-4.438 0-8.05-3.611-8.05-8.05v-8.997c0-4.439 3.611-8.05 8.05-8.05h86.796c4.439 0 8.05 3.611 8.05 8.05z"/><path d="m211.165 435.735c4.927.212 10.011.393 15.131.537.145 5.107.325 10.191.538 15.131.271 6.312 4.765 11.57 10.928 12.787 6.052 1.194 12.146 1.791 18.241 1.791s12.189-.597 18.241-1.791c6.162-1.216 10.656-6.474 10.928-12.786.211-4.914.392-9.997.538-15.131 5.12-.145 10.204-.325 15.132-.537 6.311-.272 11.569-4.765 12.786-10.928 2.389-12.104 2.389-24.378 0-36.482-1.216-6.162-6.474-10.656-12.786-10.928-4.927-.212-10.011-.393-15.131-.537-.146-5.133-.326-10.218-.538-15.132-.272-6.312-4.767-11.569-10.928-12.785-12.104-2.388-24.377-2.388-36.482 0-6.163 1.216-10.656 6.474-10.928 12.786-.212 4.94-.393 10.025-.538 15.131-5.12.145-10.204.325-15.132.537-6.313.272-11.571 4.766-12.785 10.928-2.389 12.104-2.389 24.378 0 36.481 1.213 6.162 6.471 10.656 12.785 10.928zm1.719-43.397c4.918-.206 9.986-.38 15.08-.519 7.256-.197 13.095-6.035 13.291-13.291.138-5.081.312-10.149.519-15.08 9.448-1.727 19.011-1.727 28.457 0 .205 4.904.379 9.972.519 15.08.196 7.256 6.035 13.094 13.29 13.291 5.095.138 10.163.313 15.081.519 1.727 9.448 1.727 19.01 0 28.457-4.918.206-9.986.38-15.08.519-7.256.197-13.095 6.035-13.291 13.29-.139 5.109-.313 10.177-.519 15.081-9.447 1.727-19.009 1.727-28.457 0-.207-4.931-.381-9.998-.519-15.08-.196-7.256-6.035-13.094-13.29-13.291-5.096-.138-10.163-.313-15.081-.519-1.727-9.448-1.727-19.01 0-28.457z"/></g></g></svg>