<svg id="Capa_1" enable-background="new 0 0 512 512" height="512" viewBox="0 0 512 512" width="512" xmlns="http://www.w3.org/2000/svg"><g><g><g><path d="m504.5 231.522c0 30.421-9.967 58.522-26.822 81.205-7.987 10.757-17.524 20.294-28.281 28.271-22.683 16.865-50.784 26.832-81.205 26.832-75.276 0-136.297-61.031-136.297-136.307 0-30.43 9.967-58.522 26.822-81.205 7.987-10.757 17.514-20.284 28.271-28.271 22.683-16.855 50.774-26.822 81.205-26.822 75.286 0 136.307 61.021 136.307 136.297z" fill="#f5f0f0"/><path d="m402.595 363.439c-10.993 2.88-22.512 4.393-34.409 4.393-75.271 0-136.291-61.02-136.291-136.312 0-75.271 61.02-136.291 136.291-136.291 11.897 0 23.416 1.513 34.409 4.393-58.624 15.239-101.882 68.524-101.882 131.898 0 63.395 43.258 116.679 101.882 131.919z" fill="#e8ded8"/><path d="m477.678 312.727c-7.987 10.757-17.524 20.294-28.281 28.271l-190.68-190.68c7.987-10.757 17.514-20.284 28.271-28.271z" fill="#d8cec9"/></g><g><path d="m176.048 300.178 36.978 88.566-36.978 90.457c-27.691 0-55.404-.4-83.094-1.246-47.286-1.446-85.364-40.102-85.453-87.41v-1.69c.089-47.33 38.167-85.964 85.453-87.41 27.691-.845 55.404-1.267 83.094-1.267z" fill="#dd636e"/><path d="m344.59 388.83v1.713c-.111 47.308-38.166 85.964-85.452 87.387-27.691.845-55.404 1.268-83.095 1.268v-179.023c27.691 0 55.404.423 83.095 1.268 47.286 1.423 85.341 40.079 85.452 87.387z" fill="#ffd064"/><path d="m176.048 479.207c-27.696 0-55.393-.423-83.094-1.268-47.286-1.423-85.364-40.079-85.453-87.387v-.601c.089 14.746 38.167 26.801 85.453 27.246 27.7.256 66.515.384 94.21.384" fill="#da4a54"/><path d="m344.587 389.957v.601c-.111 47.308-38.166 85.964-85.452 87.387-27.691.845-55.404 1.268-83.095 1.268v-61.632c27.691 0 55.404-.111 83.095-.378 47.285-.445 85.34-12.5 85.452-27.246z" fill="#ebb044"/></g><g fill="#f5f0f0"><path d="m243.331 85.26-2.003 1.381c-7.065 4.87-16.695 3.439-22.038-3.277l-16.433-20.656c-5.886-7.399-4.275-18.235 3.509-23.601l4.978-3.431c7.784-5.366 18.485-3.017 23.306 5.116l13.459 22.706c4.374 7.383 2.287 16.892-4.778 21.762z"/><path d="m190.421 146.416-1.044 2.198c-3.683 7.751-12.739 11.326-20.723 8.181l-24.56-9.672c-8.797-3.464-12.82-13.654-8.762-22.194l2.595-5.461c4.058-8.539 14.5-11.855 22.741-7.222l23.009 12.935c7.481 4.206 10.428 13.485 6.744 21.235z"/><path d="m175.178 225.834.194 2.425c.685 8.554-5.37 16.178-13.856 17.447l-26.105 3.904c-9.351 1.398-17.929-5.415-18.685-14.839l-.483-6.026c-.755-9.424 6.629-17.517 16.083-17.625l26.394-.303c8.581-.1 15.773 6.463 16.458 15.017z"/></g></g><g><path d="m488.035 152.018c-2.293-3.449-6.949-4.385-10.398-2.093-3.449 2.294-4.386 6.949-2.092 10.398 14.036 21.109 21.455 45.729 21.455 71.198 0 25.582-7.498 49.446-20.409 69.511l-177.908-177.898c20.064-12.913 43.926-20.412 69.507-20.412 33.414 0 65.091 12.74 89.197 35.872 2.989 2.868 7.736 2.77 10.604-.219s2.77-7.737-.219-10.604c-26.913-25.826-62.279-40.049-99.583-40.049-79.286 0-143.79 64.509-143.79 143.8 0 21.511 4.808 42.652 13.967 61.869-48.447-1.094-97.338-.91-145.636.554-24.848.757-48.129 10.966-65.554 28.746-17.472 17.829-27.123 41.316-27.176 66.15v1.715c.062 30.52 15.074 59.383 40.155 77.208 3.377 2.4 8.059 1.608 10.458-1.769 2.399-3.376 1.608-8.059-1.769-10.458-21.139-15.023-33.791-39.327-33.844-64.996v-1.684c.044-20.881 8.173-40.651 22.89-55.668 14.701-15.001 34.339-23.614 55.297-24.252 25.008-.758 50.178-1.154 75.361-1.222v163.959c-25.182-.069-50.35-.467-75.355-1.229-6.679-.208-13.276-1.223-19.606-3.019-3.987-1.131-8.132 1.184-9.262 5.169s1.184 8.132 5.168 9.262c7.511 2.131 15.328 3.335 23.238 3.581 27.645.843 55.475 1.265 83.314 1.265 27.833 0 55.674-.422 83.311-1.265 24.852-.751 48.135-10.959 65.561-28.742 17.471-17.83 27.121-41.318 27.173-66.154v-1.716c-.01-4.908-.411-9.76-1.158-14.53 5.725.685 11.496 1.036 17.258 1.036 79.297 0 143.81-64.513 143.81-143.81 0-28.435-8.287-55.927-23.965-79.504zm-150.945 238.508c-.044 20.883-8.172 40.655-22.887 55.672-14.7 15.002-34.339 23.614-55.302 24.247-25.006.763-50.173 1.161-75.353 1.23v-163.959c25.181.068 50.348.464 75.354 1.222 20.962.638 40.602 9.251 55.301 24.251 14.715 15.016 22.843 34.786 22.887 55.652zm9.968-31.931c-4.524-13.307-12.006-25.562-22.141-35.904-17.424-17.781-40.707-27.99-65.56-28.746-1.301-.039-2.608-.066-3.91-.104-10.508-18.977-16.048-40.433-16.048-62.32 0-25.581 7.497-49.443 20.407-69.507l177.904 177.902c-20.067 12.915-43.933 20.415-69.52 20.415-7.072 0-14.16-.589-21.132-1.736zm102.914-27.629-181.215-181.215c5.306-6.441 11.223-12.36 17.664-17.666l181.22 181.211c-5.307 6.443-11.227 12.363-17.669 17.67z"/><path d="m213.421 88.034c4.669 5.869 11.638 8.968 18.686 8.968 4.674 0 9.383-1.364 13.478-4.187l2.003-1.381c10.27-7.079 13.333-21.031 6.972-31.761l-13.46-22.705c-3.354-5.658-8.961-9.711-15.385-11.122-6.424-1.409-13.214-.077-18.628 3.655l-4.979 3.432c-5.415 3.733-9.075 9.605-10.042 16.11-.967 6.506.827 13.188 4.921 18.335zm-6.518-36.785c.364-2.445 1.685-4.563 3.719-5.966l4.979-3.432c1.495-1.031 3.214-1.563 4.979-1.563.637 0 1.28.069 1.92.21 2.414.53 4.438 1.992 5.698 4.119l13.459 22.706c2.355 3.974 1.221 9.141-2.583 11.762l-2.003 1.381c-3.802 2.622-9.036 1.844-11.912-1.771l-16.433-20.655c-1.539-1.934-2.186-4.346-1.823-6.791z"/><path d="m141.346 154.102 24.56 9.672c2.836 1.117 5.772 1.647 8.669 1.647 8.957 0 17.531-5.075 21.577-13.588l1.044-2.198c5.354-11.266 1.03-24.879-9.843-30.992l-23.009-12.935c-5.732-3.223-12.617-3.929-18.885-1.939-6.269 1.991-11.483 6.54-14.306 12.479l-2.595 5.461c-2.823 5.94-3.057 12.856-.642 18.973 2.416 6.119 7.31 11.01 13.43 13.42zm.76-25.953 2.595-5.461c1.061-2.232 2.942-3.874 5.298-4.622.886-.281 1.791-.421 2.689-.421 1.489 0 2.961.384 4.305 1.139l23.009 12.935c4.027 2.263 5.628 7.305 3.646 11.478l-1.044 2.198c-1.983 4.172-6.904 6.113-11.202 4.422l-24.56-9.672c-2.3-.906-4.066-2.67-4.974-4.969-.907-2.299-.823-4.794.238-7.027z"/><path d="m109.25 235.37c.525 6.556 3.781 12.662 8.931 16.752 4.229 3.359 9.493 5.165 14.842 5.165 1.165 0 2.334-.086 3.497-.26l26.105-3.904c12.336-1.845 21.219-13.03 20.223-25.463l-.194-2.425c-.989-12.343-11.392-21.92-23.745-21.92-.091 0-.184.001-.275.002l-26.394.303c-6.577.075-12.891 2.905-17.324 7.763s-6.674 11.405-6.149 17.961zm16.747-13.877c1.666-1.826 3.945-2.847 6.416-2.875l26.394-.303h.102c4.575 0 8.427 3.547 8.793 8.117l.194 2.425c.369 4.605-2.92 8.747-7.489 9.43l-26.105 3.904c-2.443.365-4.856-.28-6.792-1.817s-3.11-3.74-3.308-6.204l-.483-6.026c-.197-2.463.612-4.825 2.278-6.651z"/></g></g></svg>