<svg id="Capa_1" enable-background="new 0 0 512 512" height="512" viewBox="0 0 512 512" width="512" xmlns="http://www.w3.org/2000/svg"><g><g><g><path d="m111.33 400.723c-50.669-50.669-79.405-102.628-95.681-146.191-27.675-74.074 18.633-152.74 92.765-167.076 7.142-1.381 17.173 7.756 24.79 7.631 8.89-.146 18.152.358 27.767 1.649 0 0 37.944 44.478 22.78 102.104 0 0-7.127 27.53-26.061 35.954-8.416 3.744-17.293 6.448-25.381 6.448 0 0 .758 36.142 51.56 86.944 45.494 45.494 86.944 51.56 86.944 51.56 0-8.087 2.703-16.964 6.447-25.379 8.424-18.936 35.961-26.501 35.961-26.501 57.626-15.165 100.649 28.82 100.649 28.82 1.292 9.615 1.795 18.877 1.649 27.767-.125 7.618 10.46 12.046 9.079 19.189-14.337 74.131-93.002 120.438-167.076 92.763-43.564-16.277-95.523-45.013-146.192-95.682z" fill="#c0df8f"/><path d="m404.825 450.543c-31.156 44.856-90.573 67.051-147.299 45.857-43.568-16.276-95.53-45.011-146.197-95.678s-79.402-102.628-95.678-146.197c-21.194-56.725 1.001-116.143 45.857-147.298-22.42 32.18-29.899 74.77-14.515 115.957 16.276 43.568 45.011 95.53 95.678 146.197s102.629 79.402 146.197 95.678c41.187 15.383 83.777 7.905 115.957-14.516z" fill="#a2d162"/><g fill="#f5f0f0"><path d="m425.241 353.719c1.288 9.62 1.792 18.875 1.652 27.765-.124 7.618-.916 15.019-2.296 22.156h-.015c-61.31-45.624-147.314-49.27-147.314-49.27 8.417-18.937 22.11-35.531 22.11-35.531 57.617-15.166 125.863 34.88 125.863 34.88z"/><path d="m193.219 212.681s-16.594 13.693-35.531 22.11c0 0-3.646-86.004-49.27-147.314l-.008-.008c7.137-1.397 14.546-2.18 22.164-2.304 8.891-.14 18.146.365 27.765 1.652 0 0 50.047 68.246 34.88 125.864z"/></g></g><path d="m248.488 181.875c1.398 12.753 11.728 22.716 24.528 23.612 1.059.075 2.111.149 3.163.217 7.805.529 13.873 7.011 13.873 14.836v29.578c0 9.95 11.389 15.597 19.302 9.57 14.443-11.002 33.657-27.365 45.446-44.333 2.789-4.018 7.398-6.36 12.291-6.332 36.297.183 72.594-.984 108.892-3.536 10.119-.706 18.712-7.065 22.54-16.011 1.018-2.348 1.697-4.887 1.989-7.54 5.375-49.104 5.375-98.215 0-147.327-1.398-12.739-11.735-22.655-24.515-23.551-54.072-3.794-108.138-4.554-162.204-2.281-13.588.563-27.182 1.323-40.77 2.281-12.787.896-23.13 10.812-24.528 23.551-5.376 49.091-5.376 98.175-.007 147.266z" fill="#f5f0f0"/><g><path d="m404.469 82.632-14.971 40.419-39.846 18.395c-9.097-8.479-18.079-17.096-26.917-25.853-15.092-14.954-15.765-39.313-1.308-54.882l.518-.555c14.522-15.522 38.861-16.555 54.838-2.551 9.355 8.202 18.589 16.548 27.686 25.027z" fill="#dd636e"/><path d="m432.694 163.365-.524.563c-14.522 15.508-38.861 16.555-54.831 2.543-9.356-8.201-18.59-16.548-27.687-25.027l54.817-58.814c9.097 8.479 18.072 17.104 26.911 25.86 15.097 14.947 15.763 39.299 1.314 54.875z" fill="#ffd064"/><path d="m349.65 141.448c-9.099-8.481-18.069-17.1-26.91-25.86-15.099-14.947-15.772-39.306-1.315-54.875l.184-.197c-4.486 4.872 4.332 20.492 19.731 35.117 9.022 8.566 21.735 20.493 30.833 28.973" fill="#da4a54"/><path d="m432.347 163.734-.184.197c-14.522 15.508-38.861 16.555-54.831 2.543-9.356-8.201-18.59-16.548-27.687-25.027l18.872-20.248c9.097 8.479 18.236 16.928 27.415 25.32 15.67 14.333 31.864 22.025 36.415 17.215z" fill="#ebb044"/></g></g><g><path d="m429.65 347.61c-2.904-2.13-71.809-51.967-132.196-36.08-1.52.4-2.877 1.268-3.877 2.481-1.105 1.34-24.433 29.889-29.361 56.392-13.512-3.971-43.15-15.678-75.035-47.564-24.898-24.903-37-45.877-42.768-59.088-2.889-6.617-4.516-11.99-5.431-15.846 26.684-4.671 55.666-28.361 57.016-29.475 1.213-1 2.08-2.356 2.48-3.875 15.895-60.377-33.951-129.293-36.08-132.198-1.206-1.644-3.029-2.726-5.049-2.998-9.603-1.289-19.327-1.868-28.877-1.716-37.52.617-71.822 16.292-96.589 44.139-2.752 3.095-2.474 7.835.62 10.587 3.094 2.753 7.835 2.474 10.587-.62 16.184-18.197 36.975-30.519 60.118-35.959 34.992 49.804 43.004 115.349 44.625 134.081-6.096 2.324-12.127 3.83-17.509 3.83-2.016 0-3.948.812-5.358 2.252-1.411 1.44-2.182 3.388-2.139 5.404.033 1.598 1.425 39.75 53.748 92.084 46.705 46.705 89.354 53.399 91.146 53.661 2.156.315 4.341-.323 5.988-1.747 1.648-1.424 2.595-3.495 2.595-5.673 0-5.374 1.51-11.406 3.841-17.508 18.722 1.607 84.193 9.576 134.073 44.627-6.609 28.169-23.356 52.729-48.038 69.555-32.108 21.888-71.487 26.607-108.04 12.947-52.478-19.601-100.756-51.209-143.491-93.945-42.718-42.718-74.326-90.996-93.946-143.492-12.079-32.337-9.848-66.786 6.279-97.002 1.951-3.654.569-8.196-3.085-10.147-3.652-1.951-8.197-.569-10.146 3.085-18.183 34.066-20.704 72.887-7.099 109.313 20.377 54.522 53.145 104.602 97.39 148.848 44.266 44.266 94.346 77.032 148.848 97.39 15.492 5.79 31.429 8.648 47.219 8.647 26.179-.001 51.944-7.862 74.518-23.25 35.973-24.521 57.016-63.595 57.736-107.199.16-9.489-.417-19.208-1.715-28.89-.271-2.022-1.352-3.845-2.998-5.051zm-308.13-254.473c3.036-.279 6.102-.446 9.192-.497 7.733-.12 15.588.274 23.388 1.178 8.439 12.492 43.181 67.674 32.452 114.57-4.927 3.858-13.1 9.619-22.259 14.671-2.481-24.138-11.47-81.845-42.773-129.922zm167.444 254.583c5.05-9.156 10.806-17.333 14.661-22.264 46.902-10.716 102.084 24.02 114.566 32.452.911 7.857 1.306 15.71 1.177 23.392-.051 3.089-.23 6.149-.508 9.182-48.067-31.289-105.756-40.28-129.896-42.762z"/><path d="m507.931 33.786c-1.785-16.363-15.008-29.07-31.436-30.214-54.09-3.802-108.937-4.572-163.013-2.292-13.623.561-27.412 1.333-40.976 2.291-16.432 1.143-29.664 13.848-31.461 30.211-5.411 49.378-5.415 99.466-.01 148.876 1.798 16.39 15.026 29.125 31.486 30.282l1.075.073c.719.05 1.434.1 2.071.136 3.856.262 6.877 3.493 6.877 7.356v29.576c0 7.474 4.16 14.179 10.856 17.497 2.77 1.373 5.739 2.049 8.688 2.048 4.178 0 8.32-1.357 11.806-4.011 14.607-11.127 34.626-28.141 47.051-46.014 1.355-1.953 3.622-3.116 6.057-3.116h.031c24.265.13 48.815-.36 72.952-1.458 4.137-.188 7.339-3.695 7.15-7.832-.188-4.138-3.712-7.343-7.832-7.151-23.884 1.086-48.163 1.573-72.2 1.442-.03 0-.061 0-.093 0-7.359 0-14.228 3.57-18.383 9.558-11.307 16.265-30.071 32.165-43.82 42.638-2.018 1.536-3.994.83-4.748.456-.757-.375-2.517-1.521-2.517-4.058v-29.576c0-11.722-9.163-21.526-20.939-22.325-.655-.037-1.31-.083-1.968-.129l-1.095-.075c-9.19-.646-16.592-7.776-17.598-16.952-5.285-48.324-5.283-97.314.01-145.607 1.005-9.144 8.403-16.245 17.602-16.886 13.426-.949 27.067-1.712 40.551-2.268 53.523-2.258 107.803-1.495 161.342 2.268 9.184.64 16.575 7.738 17.573 16.883 5.294 48.332 5.294 97.345 0 145.678-.205 1.872-.682 3.687-1.418 5.402-2.819 6.579-9.014 10.978-16.156 11.48l-.538.037c-1.998.137-3.989.273-5.988.401-4.133.264-7.271 3.829-7.006 7.962.263 4.133 3.817 7.276 7.961 7.006 2.023-.129 4.036-.267 6.057-.405l.551-.038c12.787-.898 23.863-8.767 28.902-20.528 1.321-3.075 2.177-6.333 2.544-9.683 5.415-49.415 5.415-99.527.002-148.939z"/><path d="m403.441 183.783c.724 0 1.45-.017 2.176-.05 12.282-.557 23.647-5.781 32.002-14.707l.543-.583c8.32-8.964 12.733-20.668 12.425-32.959-.307-12.247-5.263-23.734-13.955-32.344-17.71-17.541-36.188-34.763-54.921-51.188-9.199-8.067-20.999-12.206-33.245-11.649-12.281.557-23.647 5.781-31.998 14.704l-.547.586c-8.319 8.963-12.733 20.668-12.425 32.959.307 12.247 5.263 23.734 13.955 32.344 17.702 17.533 36.179 34.755 54.921 51.188 8.654 7.588 19.613 11.699 31.069 11.699zm-76.526-117.987.497-.534c11.616-12.409 31.538-13.32 44.411-2.032 7.387 6.477 14.73 13.084 22.005 19.781l-44.543 47.79c-7.192-6.786-14.299-13.647-21.279-20.561-12.164-12.048-12.654-31.986-1.091-44.444zm33.342 75.231 44.543-47.79c7.19 6.784 14.296 13.645 21.277 20.559 12.165 12.049 12.656 31.987 1.096 44.441l-.501.538c-11.615 12.409-31.536 13.321-44.411 2.032-7.389-6.477-14.731-13.083-22.004-19.78z"/></g></g></svg>