<svg id="Capa_1" enable-background="new 0 0 511.931 511.931" height="512" viewBox="0 0 511.931 511.931" width="512" xmlns="http://www.w3.org/2000/svg"><g><g><path d="m442.898 496.306c-124.621 10.879-249.243 10.879-373.864 0-28.388-2.478-50.93-25.02-53.408-53.408-10.879-124.622-10.879-249.243 0-373.864 2.478-28.388 25.02-50.93 53.408-53.408 124.621-10.879 249.243-10.879 373.864 0 28.388 2.478 50.93 25.02 53.408 53.408 10.879 124.622 10.879 249.243 0 373.865-2.478 28.387-25.02 50.929-53.408 53.407z" fill="#a2c6fe"/><path d="m153.016 165.776c-2.46-.15-4.93-.25-7.41-.32 2.47-.16 4.96-.05 7.41.32z" fill="#dd636e"/><g fill="#7898d5"><path d="m240.966 218.882v-158.99c0-12.333-10.101-22.305-22.431-22.085-48.929.874-98.183 3.451-146.892 7.703-13.926 1.216-24.915 12.206-26.131 26.131-4.257 48.765-6.812 97.803-7.673 146.897-.216 12.329 9.754 22.427 22.085 22.427h158.959c12.196.001 22.083-9.886 22.083-22.083z"/><path d="m293.049 240.966h158.96c12.331 0 22.301-10.098 22.085-22.427-.861-49.094-3.416-98.132-7.673-146.896-1.216-13.926-12.205-24.916-26.131-26.132-48.709-4.252-97.962-6.83-146.892-7.703-12.331-.22-22.431 9.752-22.431 22.085v158.99c-.001 12.196 9.885 22.083 22.082 22.083z"/><path d="m270.966 293.049v158.99c0 12.333 10.101 22.305 22.431 22.085 48.929-.874 98.183-3.451 146.892-7.703 13.926-1.216 24.915-12.206 26.131-26.131 4.257-48.765 6.812-97.803 7.673-146.897.216-12.329-9.754-22.427-22.085-22.427h-158.96c-12.196 0-22.082 9.887-22.082 22.083z"/><path d="m218.882 270.966h-158.959c-12.331 0-22.301 10.098-22.085 22.427.861 49.094 3.416 98.132 7.673 146.896 1.216 13.926 12.205 24.916 26.131 26.132 48.709 4.252 97.962 6.83 146.892 7.703 12.331.22 22.431-9.752 22.431-22.085v-158.99c.001-12.196-9.886-22.083-22.083-22.083z"/></g><path d="m143.597 200.613c-12.899 12.899-31.719 16.281-47.719 10.14-5.683-2.179-11.006-5.555-15.585-10.14-17.483-17.477-17.483-45.821 0-63.298 3.071-3.071 6.477-5.604 10.103-7.594 17.001-9.352 38.788-6.819 53.201 7.594 17.477 17.477 17.477 45.821 0 63.298z" fill="#e8ded8"/><path d="m158.861 155.719c-18.242 0-33.941-10.917-40.912-26.573-2.478-5.56-3.855-11.711-3.85-18.19-.004-24.721 20.037-44.763 44.758-44.758 4.342 0 8.543.617 12.514 1.774 18.635 5.409 32.249 22.606 32.249 42.988 0 24.718-20.042 44.76-44.759 44.759z" fill="#f5f0f0"/><g><path d="m393.594 113.712-16.401 39.913-40.514 17.002c-8.803-8.803-17.487-17.741-26.021-26.813-14.573-15.493-14.39-39.888.622-54.956l.537-.537c15.076-15.019 39.464-15.196 54.956-.622 9.073 8.533 18.017 17.209 26.821 26.013z" fill="#dd636e"/><path d="m418.992 195.479-.544.544c-15.076 15.005-39.464 15.196-54.949.615-9.072-8.535-18.017-17.211-26.821-26.015l56.915-56.915c8.803 8.803 17.48 17.748 26.015 26.821 14.58 15.487 14.389 39.875-.616 54.95z" fill="#ffd064"/><path d="m336.677 170.629c-8.805-8.805-17.476-17.745-26.014-26.82-14.581-15.486-14.397-39.881.615-54.949l.191-.191c-4.66 4.716 3.613 20.655 18.505 35.829 8.725 8.888 21.025 21.269 29.829 30.073" fill="#da4a54"/><path d="m418.633 195.836-.191.191c-15.076 15.005-39.464 15.196-54.949.615-9.072-8.535-18.017-17.211-26.821-26.015l19.594-19.594c8.803 8.803 17.65 17.579 26.538 26.297 15.175 14.893 31.106 23.159 35.829 18.506z" fill="#ebb044"/></g><g><ellipse cx="111.972" cy="376.592" fill="#ffddce" rx="41.725" ry="72.439" transform="matrix(.88 -.474 .474 .88 -165.228 98.168)"/><path d="m154.123 433.796c-2.167 2.724-4.766 4.942-7.795 6.573-20.283 10.928-52.115-8.77-71.088-43.984-18.977-35.223-17.915-72.633 2.369-83.561 3.028-1.632 6.31-2.582 9.777-2.894-12.368 15.478-10.729 47.025 5.417 76.993 16.142 29.958 41.591 48.688 61.32 46.873z" fill="#ffcbbe"/></g><g><ellipse cx="164.395" cy="370.038" fill="#ffddce" rx="72.439" ry="41.725" transform="matrix(.06 -.998 .998 .06 -214.874 511.843)"/><path d="m170.114 440.864c-3.277 1.174-6.654 1.692-10.088 1.485-22.998-1.388-39.69-34.894-37.28-74.822 2.41-39.937 23.01-71.183 46.008-69.795 3.434.207 6.724 1.127 9.836 2.687-18.664 6.648-33.88 34.331-35.93 68.31-2.05 33.968 9.725 63.291 27.454 72.135z" fill="#ffcbbe"/></g></g><g><path d="m503.777 68.379c-2.804-32.095-28.133-57.425-60.229-60.229-124.471-10.867-250.694-10.867-375.164 0-32.097 2.804-57.426 28.134-60.23 60.229-10.867 124.471-10.867 250.694 0 375.165 2.804 32.095 28.133 57.425 60.229 60.229 62.266 5.437 125.013 8.158 187.714 8.158 51.216 0 102.401-1.815 153.263-5.448 4.132-.295 7.242-3.884 6.947-8.015-.295-4.132-3.89-7.243-8.016-6.947-112.343 8.024-226.265 7.119-338.604-2.691-24.828-2.168-44.423-21.763-46.591-46.59-10.791-123.605-10.791-248.951 0-372.556 2.168-24.828 21.763-44.422 46.591-46.59 123.605-10.792 248.949-10.792 372.555 0 24.828 2.168 44.423 21.763 46.591 46.59 10.791 123.605 10.791 248.951 0 372.556-2.168 24.828-21.763 44.422-46.584 46.59-1.372.119-2.743.237-4.115.346-4.129.326-7.212 3.938-6.886 8.067s3.938 7.223 8.067 6.886c1.409-.111 2.817-.233 4.231-.355 32.097-2.804 57.426-28.134 60.229-60.229 10.869-124.471 10.869-250.695.002-375.166z"/><path d="m248.466 59.892c0-8.013-3.147-15.518-8.861-21.131-5.697-5.597-13.266-8.597-21.203-8.458-49.235.886-98.831 3.489-147.405 7.737-17.567 1.526-31.427 15.385-32.952 32.949-4.253 48.681-6.846 98.277-7.707 147.415-.136 7.978 2.874 15.508 8.474 21.205 5.613 5.708 13.111 8.853 21.115 8.853h5.68c4.143 0 7.5-3.358 7.5-7.5s-3.357-7.5-7.5-7.5h-5.68c-3.948 0-7.648-1.551-10.418-4.369-2.758-2.805-4.24-6.51-4.173-10.43.854-48.788 3.43-98.033 7.652-146.372.895-10.293 9.014-18.414 19.312-19.308 48.234-4.218 97.481-6.803 146.371-7.683 3.909-.087 7.62 1.408 10.423 4.161 2.82 2.771 4.373 6.475 4.373 10.431v158.99c0 8.04-6.541 14.58-14.58 14.58h-123.3c-4.143 0-7.5 3.358-7.5 7.5s3.357 7.5 7.5 7.5h123.3c16.311 0 29.58-13.27 29.58-29.58v-158.99z"/><path d="m293.049 248.462h158.96c8.007 0 15.508-3.146 21.12-8.857 5.598-5.697 8.604-13.226 8.464-21.201-.862-49.161-3.454-98.759-7.701-147.417-1.533-17.56-15.391-31.418-32.95-32.951-48.722-4.253-98.317-6.854-147.41-7.73-7.96-.123-15.506 2.862-21.205 8.459-5.714 5.613-8.86 13.115-8.86 21.125v158.99c-.001 16.311 13.269 29.582 29.582 29.582zm-14.583-188.573c0-3.952 1.553-7.654 4.372-10.423 2.74-2.692 6.339-4.165 10.16-4.165.088 0 .177 0 .266.002 48.748.87 97.995 3.453 146.373 7.676 10.291.898 18.413 9.021 19.312 19.313 4.218 48.313 6.79 97.561 7.646 146.375.068 3.919-1.41 7.622-4.165 10.425-2.77 2.818-6.471 4.371-10.421 4.371h-158.96c-8.041 0-14.583-6.542-14.583-14.583z"/><path d="m263.466 452.035c0 8.01 3.146 15.512 8.86 21.125 5.569 5.47 12.888 8.463 20.663 8.463.181 0 .361-.001.542-.004 49.093-.876 98.688-3.478 147.41-7.73 17.56-1.533 31.417-15.391 32.95-32.951 4.247-48.659 6.839-98.257 7.701-147.417.14-7.975-2.866-15.504-8.464-21.201-5.612-5.711-13.113-8.857-21.12-8.857h-158.96c-16.313 0-29.583 13.271-29.583 29.583v158.989zm15-158.99c0-8.041 6.542-14.583 14.583-14.583h158.96c3.95 0 7.651 1.552 10.421 4.371 2.755 2.803 4.233 6.505 4.165 10.425-.856 48.814-3.429 98.062-7.646 146.375-.898 10.292-9.021 18.414-19.312 19.312-48.378 4.223-97.625 6.806-146.373 7.676-3.907.098-7.621-1.408-10.426-4.162-2.819-2.77-4.372-6.471-4.372-10.423z"/><path d="m218.883 263.462h-158.96c-8.007 0-15.508 3.146-21.12 8.857-5.598 5.697-8.604 13.226-8.464 21.201.862 49.161 3.454 98.759 7.701 147.417 1.533 17.56 15.391 31.418 32.95 32.951 48.722 4.253 98.317 6.854 147.41 7.73.181.003.361.004.542.004 7.774 0 15.094-2.993 20.663-8.463 5.714-5.613 8.86-13.115 8.86-21.125v-158.99c.001-16.311-13.27-29.582-29.582-29.582zm14.583 188.573c0 3.952-1.553 7.654-4.372 10.423-2.804 2.753-6.499 4.236-10.426 4.162-48.748-.87-97.995-3.453-146.373-7.676-10.291-.898-18.413-9.021-19.312-19.313-4.218-48.313-6.79-97.561-7.646-146.375-.068-3.919 1.41-7.622 4.165-10.425 2.77-2.818 6.471-4.371 10.421-4.371h158.96c8.041 0 14.583 6.542 14.583 14.583z"/><path d="m74.994 132.007c-9.877 9.871-15.315 22.995-15.315 36.955s5.438 27.084 15.313 36.953c5.229 5.228 11.35 9.211 18.196 11.839 6.081 2.334 12.42 3.467 18.709 3.467 13.631-.001 27.023-5.327 37.001-15.306 11.448-11.447 16.798-27.252 14.969-42.944 26.475-2.529 47.253-24.887 47.253-52.013 0-23.116-15.485-43.755-37.651-50.189-4.723-1.376-9.639-2.074-14.61-2.074-.003 0-.006 0-.01 0-13.955 0-27.076 5.435-36.945 15.304-9.872 9.872-15.307 22.996-15.305 36.95-.001 2.014.121 4.009.344 5.984-7.055.67-13.895 2.765-20.153 6.213-4.31 2.362-8.28 5.344-11.796 8.861zm63.298 63.302c-10.399 10.399-25.996 13.711-39.729 8.441-2.518-.967-4.897-2.198-7.126-3.672l42.96-42.959c4.425 2.346 9.196 4.064 14.179 5.066 2.227 11.993-1.513 24.353-10.284 33.124zm20.569-47.093c-14.706 0-28.076-8.684-34.062-22.125-1.099-2.466-1.912-5.019-2.446-7.636h73.009c-3.479 16.963-18.523 29.761-36.501 29.761zm-.011-74.521h.007c3.552 0 7.057.496 10.423 1.477 13.354 3.876 23.304 14.986 26.067 28.283h-72.996c1.441-7.093 4.922-13.613 10.158-18.849 7.037-7.037 16.39-10.911 26.341-10.911zm-47.944 58.038c.066.153.123.308.191.46 2.704 6.073 6.488 11.447 11.059 15.951l-41.33 41.329c-3.999-6.035-6.148-13.108-6.148-20.512 0-9.952 3.877-19.308 10.921-26.347 2.513-2.513 5.339-4.638 8.415-6.325 5.203-2.864 10.973-4.395 16.892-4.556z"/><path d="m358.353 202.101c8.802 8.283 20.275 12.827 32.36 12.827.163 0 .327-.001.489-.002 12.307-.125 23.862-4.951 32.541-13.594l.558-.558c8.639-8.675 13.466-20.23 13.591-32.537.124-12.264-4.43-23.931-12.824-32.851-17.099-18.171-34.982-36.054-53.153-53.153-8.919-8.394-20.616-12.922-32.851-12.824-12.307.125-23.862 4.951-32.525 13.58l-.573.572c-8.639 8.675-13.465 20.23-13.59 32.537-.124 12.264 4.43 23.93 12.824 32.85 17.099 18.17 34.982 36.053 53.153 53.153zm55.309-11.902-.506.507c-12.063 12.012-32.035 12.223-44.523.471-7.166-6.743-14.283-13.614-21.327-20.573l46.266-46.266c6.959 7.044 13.83 14.162 20.573 21.328 11.751 12.488 11.539 32.46-.483 44.533zm-97.071-96.051.521-.521c6.118-6.092 14.27-9.148 22.448-9.148 7.947 0 15.921 2.886 22.075 8.678 7.166 6.744 14.284 13.615 21.328 20.574l-46.266 46.266c-6.959-7.045-13.831-14.162-20.574-21.329-11.751-12.488-11.54-32.461.468-44.52z"/><path d="m169.212 290.24c-16.174-.978-30.983 10.22-41.024 28.653-18.692-16.038-38.81-20.942-54.129-12.684-24.302 13.09-26.686 54.261-5.427 93.731 16.946 31.444 43.05 50.948 65.262 50.946 5.337 0 10.448-1.144 15.155-3.502 3.369 1.39 6.889 2.225 10.53 2.445.653.04 1.303.059 1.95.059 26.713 0 49.365-33.203 52.002-76.888 1.243-20.605-2.268-40.373-9.887-55.663-8.289-16.634-20.517-26.257-34.432-27.097zm-1.951 14.942c.348 0 .698.01 1.046.031 8.335.503 16.116 7.185 21.911 18.815 5.561 11.158 8.521 25.35 8.552 40.568l-67.839-4.094c3.866-31.001 19.535-55.32 36.33-55.32zm-86.085 14.232c10.304-5.557 25.947-.081 40.651 13.955-3.441 9.862-5.717 20.981-6.506 32.899l-36.821 19.836c-13.303-28.983-12.485-58.524 2.676-66.69zm4.438 79.895 29.665-15.982c.916 14.583 4.283 28.198 9.867 39.404 2.524 5.066 5.418 9.471 8.609 13.187-14.893.038-34.286-14.412-48.141-36.609zm75.915 35.578c-.348 0-.698-.01-1.046-.031-8.335-.503-16.116-7.185-21.911-18.814-5.561-11.158-8.521-25.35-8.552-40.568l67.839 4.094c-3.865 31-19.534 55.319-36.33 55.319z"/></g></g></svg>